<svg id="el2zeufilhz1" xmlns="http://www.w3.org/2000/svg" xmlns:xlink="http://www.w3.org/1999/xlink" viewBox="0 0 820 640" shape-rendering="geometricPrecision" text-rendering="geometricPrecision"><style><![CDATA[#el2zeufilhz4_ts {animation: el2zeufilhz4_ts__ts 4000ms linear infinite normal forwards}@keyframes el2zeufilhz4_ts__ts { 0% {transform: translate(125.096228px,20.623815px) rotate(-23.069972deg) skewX(-0deg) skewY(0deg) scale(1,1);animation-timing-function: cubic-bezier(0.420000,0,0.580000,1)} 50% {transform: translate(125.096228px,20.623815px) rotate(-23.069972deg) skewX(-0deg) skewY(0deg) scale(0,0);animation-timing-function: cubic-bezier(0.420000,0,0.580000,1)} 100% {transform: translate(125.096228px,20.623815px) rotate(-23.069972deg) skewX(-0deg) skewY(0deg) scale(1,1)} }#el2zeufilhz5_ts {animation: el2zeufilhz5_ts__ts 4000ms linear infinite normal forwards}@keyframes el2zeufilhz5_ts__ts { 0% {transform: translate(765.650000px,167.840000px) scale(0.300000,0.300000);animation-timing-function: cubic-bezier(0.420000,0,0.580000,1)} 25% {transform: translate(765.650000px,167.840000px) scale(1,1);animation-timing-function: cubic-bezier(0.420000,0,0.580000,1)} 50% {transform: translate(765.650000px,167.840000px) scale(0.300000,0.300000);animation-timing-function: cubic-bezier(0.420000,0,0.580000,1)} 75% {transform: translate(765.650000px,167.840000px) scale(1,1);animation-timing-function: cubic-bezier(0.420000,0,0.580000,1)} 100% {transform: translate(765.650000px,167.840000px) scale(0.300000,0.300000)} }#el2zeufilhz5 {animation: el2zeufilhz5_c_o 4000ms linear infinite normal forwards}@keyframes el2zeufilhz5_c_o { 0% {opacity: 0.500000;animation-timing-function: cubic-bezier(0.420000,0,0.580000,1)} 25% {opacity: 1;animation-timing-function: cubic-bezier(0.420000,0,0.580000,1)} 50% {opacity: 0.500000;animation-timing-function: cubic-bezier(0.420000,0,0.580000,1)} 75% {opacity: 1;animation-timing-function: cubic-bezier(0.420000,0,0.580000,1)} 100% {opacity: 0.500000} }#el2zeufilhz6_ts {animation: el2zeufilhz6_ts__ts 4000ms linear infinite normal forwards}@keyframes el2zeufilhz6_ts__ts { 0% {transform: translate(253.359879px,412.670126px) scale(0.300000,0.300000);animation-timing-function: cubic-bezier(0.420000,0,0.580000,1)} 25% {transform: translate(253.359879px,412.670126px) scale(1,1);animation-timing-function: cubic-bezier(0.420000,0,0.580000,1)} 50% {transform: translate(253.359879px,412.670126px) scale(0.300000,0.300000);animation-timing-function: cubic-bezier(0.420000,0,0.580000,1)} 75% {transform: translate(253.359879px,412.670126px) scale(1,1);animation-timing-function: cubic-bezier(0.420000,0,0.580000,1)} 100% {transform: translate(253.359879px,412.670126px) scale(0.300000,0.300000)} }#el2zeufilhz6 {animation: el2zeufilhz6_c_o 4000ms linear infinite normal forwards}@keyframes el2zeufilhz6_c_o { 0% {opacity: 0.500000;animation-timing-function: cubic-bezier(0.420000,0,0.580000,1)} 25% {opacity: 1;animation-timing-function: cubic-bezier(0.420000,0,0.580000,1)} 50% {opacity: 0.500000;animation-timing-function: cubic-bezier(0.420000,0,0.580000,1)} 75% {opacity: 1;animation-timing-function: cubic-bezier(0.420000,0,0.580000,1)} 100% {opacity: 0.500000} }#el2zeufilhz7_to {animation: el2zeufilhz7_to__to 4000ms linear infinite normal forwards}@keyframes el2zeufilhz7_to__to { 0% {transform: translate(0px,0px);animation-timing-function: cubic-bezier(0.420000,0,0.580000,1)} 50% {transform: translate(-182.440000px,-112.840574px);animation-timing-function: cubic-bezier(0.420000,0,0.580000,1)} 100% {transform: translate(0px,0px)} }#el2zeufilhz16_ts {animation: el2zeufilhz16_ts__ts 4000ms linear infinite normal forwards}@keyframes el2zeufilhz16_ts__ts { 0% {transform: translate(417.190000px,420.020000px) scale(1,1);animation-timing-function: cubic-bezier(0.420000,0,0.580000,1)} 25% {transform: translate(417.190000px,420.020000px) scale(1,0.200000);animation-timing-function: cubic-bezier(0.420000,0,0.580000,1)} 50% {transform: translate(417.190000px,420.020000px) scale(1,1);animation-timing-function: cubic-bezier(0.420000,0,0.580000,1)} 75% {transform: translate(417.190000px,420.020000px) scale(1,0.200000);animation-timing-function: cubic-bezier(0.420000,0,0.580000,1)} 100% {transform: translate(417.190000px,420.020000px) scale(1,1)} }#el2zeufilhz17_ts {animation: el2zeufilhz17_ts__ts 4000ms linear infinite normal forwards}@keyframes el2zeufilhz17_ts__ts { 0% {transform: translate(433.315000px,429.320000px) scale(1,1);animation-timing-function: cubic-bezier(0.420000,0,0.580000,1)} 25% {transform: translate(433.315000px,429.320000px) scale(1,1.500000);animation-timing-function: cubic-bezier(0.420000,0,0.580000,1)} 50% {transform: translate(433.315000px,429.320000px) scale(1,1);animation-timing-function: cubic-bezier(0.420000,0,0.580000,1)} 75% {transform: translate(433.315000px,429.320000px) scale(1,1.500000);animation-timing-function: cubic-bezier(0.420000,0,0.580000,1)} 100% {transform: translate(433.315000px,429.320000px) scale(1,1)} }#el2zeufilhz18_ts {animation: el2zeufilhz18_ts__ts 4000ms linear infinite normal forwards}@keyframes el2zeufilhz18_ts__ts { 0% {transform: translate(449.445000px,438.640000px) scale(1,1);animation-timing-function: cubic-bezier(0.420000,0,0.580000,1)} 25% {transform: translate(449.445000px,438.640000px) scale(1,0.500000);animation-timing-function: cubic-bezier(0.420000,0,0.580000,1)} 50% {transform: translate(449.445000px,438.640000px) scale(1,1);animation-timing-function: cubic-bezier(0.420000,0,0.580000,1)} 75% {transform: translate(449.445000px,438.640000px) scale(1,0.500000);animation-timing-function: cubic-bezier(0.420000,0,0.580000,1)} 100% {transform: translate(449.445000px,438.640000px) scale(1,1)} }#el2zeufilhz19_ts {animation: el2zeufilhz19_ts__ts 4000ms linear infinite normal forwards}@keyframes el2zeufilhz19_ts__ts { 0% {transform: translate(465.565000px,447.950000px) scale(1,1);animation-timing-function: cubic-bezier(0.420000,0,0.580000,1)} 25% {transform: translate(465.565000px,447.950000px) scale(1,0.200000);animation-timing-function: cubic-bezier(0.420000,0,0.580000,1)} 50% {transform: translate(465.565000px,447.950000px) scale(1,1);animation-timing-function: cubic-bezier(0.420000,0,0.580000,1)} 75% {transform: translate(465.565000px,447.950000px) scale(1,0.200000);animation-timing-function: cubic-bezier(0.420000,0,0.580000,1)} 100% {transform: translate(465.565000px,447.950000px) scale(1,1)} }#el2zeufilhz20_ts {animation: el2zeufilhz20_ts__ts 4000ms linear infinite normal forwards}@keyframes el2zeufilhz20_ts__ts { 0% {transform: translate(483.385000px,458.240000px) scale(1,1);animation-timing-function: cubic-bezier(0.420000,0,0.580000,1)} 25% {transform: translate(483.385000px,458.240000px) scale(1,2);animation-timing-function: cubic-bezier(0.420000,0,0.580000,1)} 50% {transform: translate(483.385000px,458.240000px) scale(1,1);animation-timing-function: cubic-bezier(0.420000,0,0.580000,1)} 75% {transform: translate(483.385000px,458.240000px) scale(1,2.500000);animation-timing-function: cubic-bezier(0.420000,0,0.580000,1)} 100% {transform: translate(483.385000px,458.240000px) scale(1,1)} }#el2zeufilhz21_ts {animation: el2zeufilhz21_ts__ts 4000ms linear infinite normal forwards}@keyframes el2zeufilhz21_ts__ts { 0% {transform: translate(499.510000px,467.540000px) scale(1,1);animation-timing-function: cubic-bezier(0.420000,0,0.580000,1)} 25% {transform: translate(499.510000px,467.540000px) scale(1,0.200000);animation-timing-function: cubic-bezier(0.420000,0,0.580000,1)} 50% {transform: translate(499.510000px,467.540000px) scale(1,1);animation-timing-function: cubic-bezier(0.420000,0,0.580000,1)} 75% {transform: translate(499.510000px,467.540000px) scale(1,0.200000);animation-timing-function: cubic-bezier(0.420000,0,0.580000,1)} 100% {transform: translate(499.510000px,467.540000px) scale(1,1)} }#el2zeufilhz22_ts {animation: el2zeufilhz22_ts__ts 4000ms linear infinite normal forwards}@keyframes el2zeufilhz22_ts__ts { 0% {transform: translate(515.630000px,476.850000px) scale(1,1);animation-timing-function: cubic-bezier(0.420000,0,0.580000,1)} 25% {transform: translate(515.630000px,476.850000px) scale(1,2);animation-timing-function: cubic-bezier(0.420000,0,0.580000,1)} 50% {transform: translate(515.630000px,476.850000px) scale(1,1);animation-timing-function: cubic-bezier(0.420000,0,0.580000,1)} 75% {transform: translate(515.630000px,476.850000px) scale(1,2.500000);animation-timing-function: cubic-bezier(0.420000,0,0.580000,1)} 100% {transform: translate(515.630000px,476.850000px) scale(1,1)} }#el2zeufilhz23_ts {animation: el2zeufilhz23_ts__ts 4000ms linear infinite normal forwards}@keyframes el2zeufilhz23_ts__ts { 0% {transform: translate(531.755000px,486.160000px) scale(1,1);animation-timing-function: cubic-bezier(0.420000,0,0.580000,1)} 25% {transform: translate(531.755000px,486.160000px) scale(1,0.200000);animation-timing-function: cubic-bezier(0.420000,0,0.580000,1)} 50% {transform: translate(531.755000px,486.160000px) scale(1,1);animation-timing-function: cubic-bezier(0.420000,0,0.580000,1)} 75% {transform: translate(531.755000px,486.160000px) scale(1,0.200000);animation-timing-function: cubic-bezier(0.420000,0,0.580000,1)} 100% {transform: translate(531.755000px,486.160000px) scale(1,1)} }#el2zeufilhz24_ts {animation: el2zeufilhz24_ts__ts 4000ms linear infinite normal forwards}@keyframes el2zeufilhz24_ts__ts { 0% {transform: translate(549.575000px,496.450000px) scale(1,1);animation-timing-function: cubic-bezier(0.420000,0,0.580000,1)} 25% {transform: translate(549.575000px,496.450000px) scale(1,0.200000);animation-timing-function: cubic-bezier(0.420000,0,0.580000,1)} 50% {transform: translate(549.575000px,496.450000px) scale(1,1);animation-timing-function: cubic-bezier(0.420000,0,0.580000,1)} 75% {transform: translate(549.575000px,496.450000px) scale(1,0.200000);animation-timing-function: cubic-bezier(0.420000,0,0.580000,1)} 100% {transform: translate(549.575000px,496.450000px) scale(1,1)} }#el2zeufilhz25_ts {animation: el2zeufilhz25_ts__ts 4000ms linear infinite normal forwards}@keyframes el2zeufilhz25_ts__ts { 0% {transform: translate(565.695000px,505.760000px) scale(1,1);animation-timing-function: cubic-bezier(0.420000,0,0.580000,1)} 25% {transform: translate(565.695000px,505.760000px) scale(1,0.200000);animation-timing-function: cubic-bezier(0.420000,0,0.580000,1)} 50% {transform: translate(565.695000px,505.760000px) scale(1,1);animation-timing-function: cubic-bezier(0.420000,0,0.580000,1)} 75% {transform: translate(565.695000px,505.760000px) scale(1,0.200000);animation-timing-function: cubic-bezier(0.420000,0,0.580000,1)} 100% {transform: translate(565.695000px,505.760000px) scale(1,1)} }#el2zeufilhz26_ts {animation: el2zeufilhz26_ts__ts 4000ms linear infinite normal forwards}@keyframes el2zeufilhz26_ts__ts { 0% {transform: translate(581.815000px,515.070000px) scale(1,1);animation-timing-function: cubic-bezier(0.420000,0,0.580000,1)} 25% {transform: translate(581.815000px,515.070000px) scale(1,0.200000);animation-timing-function: cubic-bezier(0.420000,0,0.580000,1)} 50% {transform: translate(581.815000px,515.070000px) scale(1,1);animation-timing-function: cubic-bezier(0.420000,0,0.580000,1)} 75% {transform: translate(581.815000px,515.070000px) scale(1,0.200000);animation-timing-function: cubic-bezier(0.420000,0,0.580000,1)} 100% {transform: translate(581.815000px,515.070000px) scale(1,1)} }#el2zeufilhz27_ts {animation: el2zeufilhz27_ts__ts 4000ms linear infinite normal forwards}@keyframes el2zeufilhz27_ts__ts { 0% {transform: translate(597.935000px,524.370000px) scale(1,1);animation-timing-function: cubic-bezier(0.420000,0,0.580000,1)} 25% {transform: translate(597.935000px,524.370000px) scale(1,0.200000);animation-timing-function: cubic-bezier(0.420000,0,0.580000,1)} 50% {transform: translate(597.935000px,524.370000px) scale(1,1);animation-timing-function: cubic-bezier(0.420000,0,0.580000,1)} 75% {transform: translate(597.935000px,524.370000px) scale(1,0.200000);animation-timing-function: cubic-bezier(0.420000,0,0.580000,1)} 100% {transform: translate(597.935000px,524.370000px) scale(1,1)} }#el2zeufilhz70_to {animation: el2zeufilhz70_to__to 4000ms linear infinite normal forwards}@keyframes el2zeufilhz70_to__to { 0% {transform: translate(-236.753989px,-171.359962px);animation-timing-function: cubic-bezier(0.420000,0,0.580000,1)} 100% {transform: translate(299.434229px,169.972759px)} }#el2zeufilhz74_ts {animation: el2zeufilhz74_ts__ts 4000ms linear infinite normal forwards}@keyframes el2zeufilhz74_ts__ts { 0% {transform: translate(384.599991px,93.886227px) scale(1,1);animation-timing-function: cubic-bezier(0.420000,0,0.580000,1)} 25% {transform: translate(384.599991px,93.886227px) scale(1,1);animation-timing-function: cubic-bezier(0.420000,0,0.580000,1)} 50% {transform: translate(384.599991px,93.886227px) scale(1,0);animation-timing-function: cubic-bezier(0.420000,0,0.580000,1)} 75% {transform: translate(384.599991px,93.886227px) scale(1,1);animation-timing-function: cubic-bezier(0.420000,0,0.580000,1)} 100% {transform: translate(384.599991px,93.886227px) scale(1,1)} }#el2zeufilhz74 {animation: el2zeufilhz74_c_o 4000ms linear infinite normal forwards}@keyframes el2zeufilhz74_c_o { 0% {opacity: 1;animation-timing-function: cubic-bezier(0.420000,0,0.580000,1)} 30% {opacity: 1;animation-timing-function: cubic-bezier(0.420000,0,0.580000,1)} 50% {opacity: 0;animation-timing-function: cubic-bezier(0.420000,0,0.580000,1)} 75% {opacity: 1;animation-timing-function: cubic-bezier(0.420000,0,0.580000,1)} 100% {opacity: 1} }#el2zeufilhz77 {animation: el2zeufilhz77_c_o 4000ms linear infinite normal forwards}@keyframes el2zeufilhz77_c_o { 0% {opacity: 1;animation-timing-function: cubic-bezier(0.420000,0,0.580000,1)} 25% {opacity: 1;animation-timing-function: cubic-bezier(0.420000,0,0.580000,1)} 30% {opacity: 0;animation-timing-function: cubic-bezier(0.420000,0,0.580000,1)} 75% {opacity: 0;animation-timing-function: cubic-bezier(0.420000,0,0.580000,1)} 80% {opacity: 1;animation-timing-function: cubic-bezier(0.420000,0,0.580000,1)} 100% {opacity: 1} }#el2zeufilhz81 {animation: el2zeufilhz81_c_o 4000ms linear infinite normal forwards}@keyframes el2zeufilhz81_c_o { 0% {opacity: 1;animation-timing-function: cubic-bezier(0.420000,0,0.580000,1)} 50% {opacity: 0.700000;animation-timing-function: cubic-bezier(0.420000,0,0.580000,1)} 100% {opacity: 1} }#el2zeufilhz111_ts {animation: el2zeufilhz111_ts__ts 4000ms linear infinite normal forwards}@keyframes el2zeufilhz111_ts__ts { 0% {transform: translate(707.785000px,424.450896px) scale(1,1);animation-timing-function: cubic-bezier(0.420000,0,0.580000,1)} 25% {transform: translate(707.785000px,424.450896px) scale(0.200000,0.200000);animation-timing-function: cubic-bezier(0.420000,0,0.580000,1)} 50% {transform: translate(707.785000px,424.450896px) scale(1,1);animation-timing-function: cubic-bezier(0.420000,0,0.580000,1)} 75% {transform: translate(707.785000px,424.450896px) scale(0.200000,0.200000);animation-timing-function: cubic-bezier(0.420000,0,0.580000,1)} 100% {transform: translate(707.785000px,424.450896px) scale(1,1)} }#el2zeufilhz115_to {animation: el2zeufilhz115_to__to 4000ms linear infinite normal forwards}@keyframes el2zeufilhz115_to__to { 0% {transform: translate(0px,0px);animation-timing-function: cubic-bezier(0.420000,0,0.580000,1)} 35% {transform: translate(0px,21.748238px);animation-timing-function: cubic-bezier(0.420000,0,0.580000,1)} 70% {transform: translate(0px,-18.251762px);animation-timing-function: cubic-bezier(0.420000,0,0.580000,1)} 100% {transform: translate(0px,0px)} }#el2zeufilhz126_to {animation: el2zeufilhz126_to__to 4000ms linear infinite normal forwards}@keyframes el2zeufilhz126_to__to { 0% {transform: translate(0px,0px);animation-timing-function: cubic-bezier(0.420000,0,0.580000,1)} 50% {transform: translate(11.829159px,6.577039px);animation-timing-function: cubic-bezier(0.420000,0,0.580000,1)} 100% {transform: translate(0px,0px)} }#el2zeufilhz134_to {animation: el2zeufilhz134_to__to 4000ms linear infinite normal forwards}@keyframes el2zeufilhz134_to__to { 0% {transform: translate(704.765015px,275.889999px);animation-timing-function: cubic-bezier(0.420000,0,0.580000,1)} 12.500000% {transform: translate(704.765015px,230.389999px);animation-timing-function: cubic-bezier(0.420000,0,0.580000,1)} 25% {transform: translate(704.765015px,275.889999px);animation-timing-function: cubic-bezier(0.420000,0,0.580000,1)} 37.500000% {transform: translate(704.765015px,250.389999px);animation-timing-function: cubic-bezier(0.420000,0,0.580000,1)} 50% {transform: translate(704.765015px,275.889999px);animation-timing-function: cubic-bezier(0.420000,0,0.580000,1)} 62.500000% {transform: translate(704.765015px,230.389999px);animation-timing-function: cubic-bezier(0.420000,0,0.580000,1)} 75% {transform: translate(704.765015px,275.889999px);animation-timing-function: cubic-bezier(0.420000,0,0.580000,1)} 87.500000% {transform: translate(704.765015px,250.389999px);animation-timing-function: cubic-bezier(0.420000,0,0.580000,1)} 100% {transform: translate(704.765015px,275.889999px)} }#el2zeufilhz134 {animation: el2zeufilhz134_c_o 4000ms linear infinite normal forwards}@keyframes el2zeufilhz134_c_o { 0% {opacity: 1;animation-timing-function: cubic-bezier(0.420000,0,0.580000,1)} 12.500000% {opacity: 0.800000;animation-timing-function: cubic-bezier(0.420000,0,0.580000,1)} 25% {opacity: 1;animation-timing-function: cubic-bezier(0.420000,0,0.580000,1)} 37.500000% {opacity: 0.600000;animation-timing-function: cubic-bezier(0.420000,0,0.580000,1)} 50% {opacity: 1;animation-timing-function: cubic-bezier(0.420000,0,0.580000,1)} 62.500000% {opacity: 0.800000;animation-timing-function: cubic-bezier(0.420000,0,0.580000,1)} 75% {opacity: 1;animation-timing-function: cubic-bezier(0.420000,0,0.580000,1)} 87.500000% {opacity: 0.600000;animation-timing-function: cubic-bezier(0.420000,0,0.580000,1)} 100% {opacity: 1} }#el2zeufilhz139_to {animation: el2zeufilhz139_to__to 4000ms linear infinite normal forwards}@keyframes el2zeufilhz139_to__to { 0% {transform: translate(0px,0px);animation-timing-function: cubic-bezier(0.420000,0,0.580000,1)} 50% {transform: translate(0px,17.372833px);animation-timing-function: cubic-bezier(0.420000,0,0.580000,1)} 100% {transform: translate(0px,0px)} }]]></style><g id="el2zeufilhz2"><polygon id="el2zeufilhz3" display="none" points="154.470000,127.280000 160.910000,135.290000 160.910000,126.700000 154.470000,127.280000" fill="rgb(238,239,242)" stroke="none" stroke-width="1"/><g id="el2zeufilhz4_ts" transform="translate(125.096228,20.623815) rotate(-23.069972) skewX(-0) skewY(0) scale(1,1)"><circle id="el2zeufilhz4" r="15.190000" transform="translate(0,-0)" fill="rgb(255,166,83)" stroke="none" stroke-width="1"/></g><g id="el2zeufilhz5_ts" transform="translate(765.650000,167.840000) scale(0.300000,0.300000)"><circle id="el2zeufilhz5" r="24.810000" transform="translate(-0,0)" opacity="0.5" fill="rgb(105,91,211)" stroke="none" stroke-width="1"/></g><g id="el2zeufilhz6_ts" transform="translate(253.359879,412.670126) scale(0.300000,0.300000)"><path id="el2zeufilhz6" d="M262,412.660000C262.004046,416.155461,259.901544,419.308986,256.673320,420.649445C253.445095,421.989905,249.727238,421.253173,247.254142,418.782939C244.781045,416.312705,244.040009,412.595704,245.376729,409.365929C246.713448,406.136154,249.864537,404.030002,253.360000,404.030000C258.127838,404.029997,261.994482,407.892165,262,412.660000Z" transform="translate(-253.359879,-412.670126)" opacity="0.5" fill="rgb(255,124,134)" stroke="none" stroke-width="1"/></g><g id="el2zeufilhz7_to" transform="translate(0,0)"><circle id="el2zeufilhz7" r="7.290000" transform="translate(558.280000,565.020000)" fill="rgb(95,148,255)" stroke="none" stroke-width="1"/></g><circle id="el2zeufilhz8" r="17.910000" transform="matrix(1 0 0 1 792.09000000000003 482.85000000000002)" fill="rgb(95,148,255)" stroke="none" stroke-width="1"/><g id="el2zeufilhz9"><path id="el2zeufilhz10" d="M619.610000,564.150000L292.290000,369.800000C287.220000,366.870000,283.110000,359.020000,283.110000,352.260000L277.830000,90.260000C277.830000,83.500000,287.220000,85.260000,292.290000,88.190000L621.070000,278C626.140000,280.930000,630.250000,288.780000,630.250000,295.540000L630.250000,552.680000C630.250000,559.440000,624.680000,567.070000,619.610000,564.150000Z" fill="rgb(170,174,195)" stroke="none" stroke-width="1"/><path id="el2zeufilhz11" d="M618,563.910000L285.370000,371.910000C280.240000,368.910000,276.090000,361.010000,276.090000,354.170000L276.090000,94C276.090000,87.160000,280.240000,84,285.370000,87L618,279C623.130000,282,627.290000,289.910000,627.290000,296.750000L627.290000,556.880000C627.320000,563.720000,623.160000,566.870000,618,563.910000Z" fill="rgb(242,242,242)" stroke="none" stroke-width="1"/><path id="el2zeufilhz12" d="M621.720000,563.870000C620.610008,563.817661,619.533607,563.472660,618.600000,562.870000L286,370.870000C281.190000,368.100000,277.280000,360.580000,277.280000,354.120000L277.280000,94C277.280000,89.760000,279.030000,87,281.740000,87C282.845969,87.057322,283.917886,87.401990,284.850000,88L617.460000,280C622.260000,282.780000,626.170000,290.300000,626.170000,296.760000L626.170000,556.880000C626.170000,561.130000,624.420000,563.870000,621.720000,563.870000Z" fill="rgb(255,255,255)" stroke="none" stroke-width="1"/><polygon id="el2zeufilhz13" points="617.420000,546.030000 286.020000,354.690000 286.020000,105.150000 617.420000,296.490000 617.420000,546.030000" fill="rgb(95,148,255)" stroke="none" stroke-width="1"/><polygon id="el2zeufilhz14" points="617.420000,546.030000 397.720000,419.165621 397.720000,169.577659 617.420000,296.442038 617.420000,546.030000" fill="rgb(159,191,255)" stroke="none" stroke-width="1"/><path id="el2zeufilhz15" d="M617.450000,391.300000L617.450000,546L397.760000,419.180000L397.760000,300.630000C403.190000,310.030000,410.080000,319.230000,417.660000,323.080000C432.920000,330.850000,435.660000,308.790000,451.920000,312.830000C473.740000,318.250000,486.630000,361.830000,509.360000,371.590000C538.760000,384.250000,542.150000,321.450000,569.630000,334.830000C587.720000,343.710000,597.210000,376.480000,617.450000,391.300000Z" fill="rgb(191,212,255)" stroke="none" stroke-width="1"/><g id="el2zeufilhz16_ts" transform="translate(417.190000,420.020000) scale(1,1)"><polygon id="el2zeufilhz16" points="418.600000,420.020000 415.780000,418.379685 415.780000,371.040588 418.600000,372.670901 418.600000,420.020000" transform="translate(-417.190000,-420.020000)" fill="rgb(95,148,255)" stroke="none" stroke-width="1"/></g><g id="el2zeufilhz17_ts" transform="translate(433.315000,429.320000) scale(1,1)"><polygon id="el2zeufilhz17" points="434.730000,429.320000 431.900000,427.689687 431.900000,404.025139 434.730000,405.655452 434.730000,429.320000" transform="translate(-433.315000,-429.320000)" fill="rgb(95,148,255)" stroke="none" stroke-width="1"/></g><g id="el2zeufilhz18_ts" transform="translate(449.445000,438.640000) scale(1,1)"><polygon id="el2zeufilhz18" points="450.860000,438.640000 448.030000,437.009687 448.030000,394.501518 450.860000,396.131831 450.860000,438.640000" transform="translate(-449.445000,-438.640000)" fill="rgb(95,148,255)" stroke="none" stroke-width="1"/></g><g id="el2zeufilhz19_ts" transform="translate(465.565000,447.950000) scale(1,1)"><polygon id="el2zeufilhz19" points="466.980000,447.950000 464.150000,446.309685 464.150000,428.646290 466.980000,430.276604 466.980000,447.950000" transform="translate(-465.565000,-447.950000)" fill="rgb(95,148,255)" stroke="none" stroke-width="1"/></g><g id="el2zeufilhz20_ts" transform="translate(483.385000,458.240000) scale(1,1)"><polygon id="el2zeufilhz20" points="484.800000,458.240000 481.970000,456.599685 481.970000,447.227884 484.800000,448.868199 484.800000,458.240000" transform="translate(-483.385000,-458.240000)" fill="rgb(95,148,255)" stroke="none" stroke-width="1"/></g><g id="el2zeufilhz21_ts" transform="translate(499.510000,467.540000) scale(1,1)"><polygon id="el2zeufilhz21" points="500.920000,467.540000 498.100000,465.909687 498.100000,437.434215 500.920000,439.064528 500.920000,467.540000" transform="translate(-499.510000,-467.540000)" fill="rgb(95,148,255)" stroke="none" stroke-width="1"/></g><g id="el2zeufilhz22_ts" transform="translate(515.630000,476.850000) scale(1,1)"><polygon id="el2zeufilhz22" points="517.040000,476.850000 514.220000,475.219687 514.220000,452.785376 517.040000,454.415689 517.040000,476.850000" transform="translate(-515.630000,-476.850000)" fill="rgb(95,148,255)" stroke="none" stroke-width="1"/></g><g id="el2zeufilhz23_ts" transform="translate(531.755000,486.160000) scale(1,1)"><polygon id="el2zeufilhz23" points="533.170000,486.160000 530.340000,484.529687 530.340000,466.856290 533.170000,468.486604 533.170000,486.160000" transform="translate(-531.755000,-486.160000)" fill="rgb(95,148,255)" stroke="none" stroke-width="1"/></g><g id="el2zeufilhz24_ts" transform="translate(549.575000,496.450000) scale(1,1)"><polygon id="el2zeufilhz24" points="550.990000,496.450000 548.160000,494.819687 548.160000,462.473471 550.990000,464.103784 550.990000,496.450000" transform="translate(-549.575000,-496.450000)" fill="rgb(95,148,255)" stroke="none" stroke-width="1"/></g><g id="el2zeufilhz25_ts" transform="translate(565.695000,505.760000) scale(1,1)"><polygon id="el2zeufilhz25" points="567.110000,505.760000 564.280000,504.129687 564.280000,480.455137 567.110000,482.085451 567.110000,505.760000" transform="translate(-565.695000,-505.760000)" fill="rgb(95,148,255)" stroke="none" stroke-width="1"/></g><g id="el2zeufilhz26_ts" transform="translate(581.815000,515.070000) scale(1,1)"><polygon id="el2zeufilhz26" points="583.230000,515.070000 580.400000,513.429685 580.400000,470.931518 583.230000,472.561831 583.230000,515.070000" transform="translate(-581.815000,-515.070000)" fill="rgb(95,148,255)" stroke="none" stroke-width="1"/></g><g id="el2zeufilhz27_ts" transform="translate(597.935000,524.370000) scale(1,1)"><polygon id="el2zeufilhz27" points="599.350000,524.370000 596.520000,522.739687 596.520000,505.066290 599.350000,506.706606 599.350000,524.370000" transform="translate(-597.935000,-524.370000)" fill="rgb(95,148,255)" stroke="none" stroke-width="1"/></g><polygon id="el2zeufilhz28" points="314.800000,144.630000 298.470000,135.198188 298.470000,131.937561 314.800000,141.369373 314.800000,144.630000" fill="rgb(255,255,255)" stroke="none" stroke-width="1"/><polygon id="el2zeufilhz29" points="367.570000,175.100000 322.550000,149.105005 322.550000,145.834376 367.570000,171.829371 367.570000,175.100000" fill="rgb(255,255,255)" stroke="none" stroke-width="1"/><polygon id="el2zeufilhz30" points="314.800000,162.300000 298.470000,152.868188 298.470000,149.597559 314.800000,159.029371 314.800000,162.300000" fill="rgb(255,255,255)" stroke="none" stroke-width="1"/><polygon id="el2zeufilhz31" points="347.260000,181.040000 322.550000,166.767257 322.550000,163.506631 347.260000,177.779373 347.260000,181.040000" fill="rgb(255,255,255)" stroke="none" stroke-width="1"/><polygon id="el2zeufilhz32" points="379.920000,199.900000 355.210000,185.627257 355.210000,182.366631 379.920000,196.629371 379.920000,199.900000" fill="rgb(255,255,255)" stroke="none" stroke-width="1"/><polygon id="el2zeufilhz33" points="314.800000,179.970000 298.470000,170.538188 298.470000,167.277561 314.800000,176.699371 314.800000,179.970000" fill="rgb(255,255,255)" stroke="none" stroke-width="1"/><polygon id="el2zeufilhz34" points="360.030000,206.080000 322.550000,184.435841 322.550000,181.175214 360.030000,202.819373 360.030000,206.080000" fill="rgb(255,255,255)" stroke="none" stroke-width="1"/><polygon id="el2zeufilhz35" points="314.800000,197.630000 298.470000,188.208189 298.470000,184.937561 314.800000,194.369373 314.800000,197.630000" fill="rgb(255,255,255)" stroke="none" stroke-width="1"/><polygon id="el2zeufilhz36" points="331.760000,207.430000 322.550000,202.108977 322.550000,198.838349 331.760000,204.159371 331.760000,207.430000" fill="rgb(255,255,255)" stroke="none" stroke-width="1"/><polygon id="el2zeufilhz37" points="331.760000,242.760000 322.550000,237.438977 322.550000,234.178351 331.760000,239.489371 331.760000,242.760000" fill="rgb(255,255,255)" stroke="none" stroke-width="1"/><polygon id="el2zeufilhz38" points="379.920000,235.230000 339.460000,211.875512 339.460000,208.604884 379.920000,231.969373 379.920000,235.230000" fill="rgb(255,255,255)" stroke="none" stroke-width="1"/><polygon id="el2zeufilhz39" points="314.800000,215.300000 298.470000,205.868188 298.470000,202.607561 314.800000,212.029371 314.800000,215.300000" fill="rgb(255,255,255)" stroke="none" stroke-width="1"/><polygon id="el2zeufilhz40" points="344.640000,232.530000 322.550000,219.777549 322.550000,216.506921 344.640000,229.269373 344.640000,232.530000" fill="rgb(255,255,255)" stroke="none" stroke-width="1"/><polygon id="el2zeufilhz41" points="363.640000,278.830000 322.550000,255.105441 322.550000,251.834812 363.640000,275.559371 363.640000,278.830000" fill="rgb(255,255,255)" stroke="none" stroke-width="1"/><polygon id="el2zeufilhz42" points="375.260000,250.210000 353.170000,237.447547 353.170000,234.186921 375.260000,246.949373 375.260000,250.210000" fill="rgb(255,255,255)" stroke="none" stroke-width="1"/><polygon id="el2zeufilhz43" points="314.800000,232.970000 298.470000,223.538188 298.470000,220.267559 314.800000,229.699371 314.800000,232.970000" fill="rgb(255,255,255)" stroke="none" stroke-width="1"/><polygon id="el2zeufilhz44" points="314.800000,250.630000 298.470000,241.198188 298.470000,237.937561 314.800000,247.369373 314.800000,250.630000" fill="rgb(255,255,255)" stroke="none" stroke-width="1"/><polygon id="el2zeufilhz45" points="314.800000,268.300000 298.470000,258.868188 298.470000,255.607561 314.800000,265.039373 314.800000,268.300000" fill="rgb(255,255,255)" stroke="none" stroke-width="1"/><polygon id="el2zeufilhz46" points="338.880000,282.210000 322.550000,272.778188 322.550000,269.507559 338.880000,278.939371 338.880000,282.210000" fill="rgb(255,255,255)" stroke="none" stroke-width="1"/><polygon id="el2zeufilhz47" points="344.070000,302.870000 322.550000,290.437611 322.550000,287.176984 344.070000,299.599371 344.070000,302.870000" fill="rgb(255,255,255)" stroke="none" stroke-width="1"/><polygon id="el2zeufilhz48" points="330.720000,312.830000 322.550000,308.109093 322.550000,304.838464 330.720000,309.559371 330.720000,312.830000" fill="rgb(255,255,255)" stroke="none" stroke-width="1"/><polygon id="el2zeufilhz49" points="338.880000,335.200000 322.550000,325.768188 322.550000,322.507561 338.880000,331.939373 338.880000,335.200000" fill="rgb(255,255,255)" stroke="none" stroke-width="1"/><polygon id="el2zeufilhz50" points="358.150000,293.330000 347.310000,287.068797 347.310000,283.808170 358.150000,290.069373 358.150000,293.330000" fill="rgb(255,255,255)" stroke="none" stroke-width="1"/><polygon id="el2zeufilhz51" points="314.800000,285.970000 298.470000,276.538188 298.470000,273.267559 314.800000,282.699371 314.800000,285.970000" fill="rgb(255,255,255)" stroke="none" stroke-width="1"/><polygon id="el2zeufilhz52" points="314.800000,303.630000 298.470000,294.198188 298.470000,290.937561 314.800000,300.369373 314.800000,303.630000" fill="rgb(255,255,255)" stroke="none" stroke-width="1"/><polygon id="el2zeufilhz53" points="314.800000,321.300000 298.470000,311.868188 298.470000,308.607561 314.800000,318.029371 314.800000,321.300000" fill="rgb(255,255,255)" stroke="none" stroke-width="1"/><polygon id="el2zeufilhz54" points="314.800000,338.970000 298.470000,329.538188 298.470000,326.277561 314.800000,335.709373 314.800000,338.970000" fill="rgb(255,255,255)" stroke="none" stroke-width="1"/><polygon id="el2zeufilhz55" points="314.800000,356.640000 298.470000,347.208188 298.470000,343.937559 314.800000,353.369371 314.800000,356.640000" fill="rgb(255,255,255)" stroke="none" stroke-width="1"/><path id="el2zeufilhz56" d="M553.650000,381.086109C553.650000,408.041289,534.730000,418.963387,511.390000,405.490798C488.050000,392.018209,469.130000,359.231909,469.130000,332.286731C469.130000,305.341553,488.060000,294.219416,511.390000,307.692005L511.390000,269.964755C470.110000,246.130175,436.500000,265.533904,436.500000,313.403102C436.500000,361.072263,470.110000,419.303453,511.390000,443.138033C552.840000,467.072632,586.290000,447.568884,586.290000,399.899724Z" fill="rgb(242,242,242)" stroke="none" stroke-width="1"/><path id="el2zeufilhz57" d="M536.910000,459.789999C526.480000,459.789999,514.910000,456.309330,502.960000,449.398002C461.390000,425.393389,427.570000,366.802130,427.570000,318.792904C427.570000,295.258382,435.570000,277.685005,450.070000,269.303394C464.570000,260.921783,483.680000,262.782141,503.960000,274.494392L504.460000,274.784447L504.460000,314.792135L502.960000,313.931970C492.060000,307.630759,481.830000,306.590559,474.150000,311.021411C466.470000,315.452262,462.150000,324.934084,462.150000,337.656529C462.150000,364.251640,480.890000,396.667869,503.920000,410.000431C514.870000,416.341650,525.130000,417.391852,532.800000,413.001008C540.470000,408.610164,544.680000,399.168350,544.680000,386.505916L544.680000,384.785586L579.310000,404.789430L579.310000,405.359539C579.310000,428.834050,571.310000,446.367420,556.860000,454.719025C550.776928,458.148080,543.891832,459.898162,536.910000,459.789999ZM470.120000,266.142787C463.448497,266.052759,456.873312,267.740887,451.070000,271.033727C437.200000,279.035264,429.560000,296.038532,429.560000,318.792904C429.560000,366.172009,462.930000,423.983118,503.960000,447.667670C523.650000,459.049857,542.110000,460.890211,555.900000,452.928681C569.690000,444.967151,577.220000,428.313950,577.350000,405.869637L546.690000,388.156234C546.320000,400.698644,541.780000,410.080447,533.840000,414.671329C525.520000,419.462249,514.550000,418.402046,502.960000,411.670752C479.390000,398.058136,460.200000,364.831751,460.200000,337.596518C460.200000,324.133931,464.800000,314.061995,473.200000,309.241069C481.200000,304.650187,491.500000,305.390329,502.510000,311.311467L502.510000,275.964674C491,269.423417,480,266.142787,470.120000,266.142787Z" fill="rgb(255,255,255)" stroke="none" stroke-width="1"/><path id="el2zeufilhz58" d="M590.520000,397.580000L557.890000,378.736379C557.890000,351.781199,538.960000,318.804862,515.630000,305.332273L515.630000,267.645031C557.080000,291.579630,590.520000,349.710801,590.520000,397.580000Z" fill="rgb(255,124,134)" stroke="none" stroke-width="1"/><path id="el2zeufilhz59" d="M487.790000,336.704563L486.790000,333.974038L491.880000,333.763998L494.090000,335.044244L494.090000,365L491.430000,363.459704L491.430000,336.514526Z" fill="rgb(255,255,255)" stroke="none" stroke-width="1"/><path id="el2zeufilhz60" d="M516.870000,350.425829L506.420000,372.130000L503.690000,370.549696L513.940000,349.275608L501.150000,341.894190L501.150000,339.123657L516.870000,348.205403Z" fill="rgb(255,255,255)" stroke="none" stroke-width="1"/><path id="el2zeufilhz61" d="M528.050000,357.114381C526.560000,356.254215,525.420000,356.114188,524.580000,356.604283C523.740000,357.094377,523.290000,358.554657,523.260000,360.815092L520.540000,359.244790C520.518056,358.044782,520.690279,356.849122,521.050000,355.704110C521.270521,354.870245,521.754575,354.129992,522.430000,353.593704C523.121737,353.126445,523.968246,352.947066,524.790000,353.093608C525.992429,353.301693,527.143449,353.739776,528.180000,354.383856C529.066626,354.926058,529.906234,355.541666,530.690000,356.224210C531.561198,357.026444,532.345522,357.918197,533.030000,358.884721C533.744125,359.963357,534.337682,361.117158,534.800000,362.325382C535.254659,363.668733,535.484417,365.077957,535.480000,366.496184C535.520630,367.622683,535.194248,368.731893,534.550000,369.656791C533.902734,370.485107,532.875719,370.923183,531.830000,370.817014C532.472217,371.427010,533.054851,372.096832,533.570000,372.817398C534.073366,373.577532,534.514790,374.376929,534.890000,375.207858C535.238336,376.036428,535.515992,376.892977,535.720000,377.768350C535.905027,378.596191,536.005543,379.440683,536.020000,380.288834C536.020000,383.399432,535.300000,385.289795,533.900000,386.009933C532.500000,386.730072,530.480000,386.319993,527.900000,384.849710C526.722700,384.175986,525.642752,383.344838,524.690000,382.379236C523.731361,381.384714,522.898460,380.276206,522.210000,379.078601C521.494005,377.819705,520.939630,376.475506,520.560000,375.077833C520.141484,373.637354,519.919476,372.146922,519.900000,370.646981L522.630000,372.217283C522.677489,374.245341,523.176244,376.237326,524.090000,378.048403C524.989461,379.775143,526.381740,381.195540,528.090000,382.129188C528.685723,382.484722,529.328770,382.754113,530,382.929341C530.559941,383.040899,531.139383,383.002952,531.680000,382.819320C532.198761,382.573879,532.613433,382.152037,532.850000,381.629092C533.188426,380.851314,533.342438,380.005796,533.300000,379.158617C533.374602,375.411171,531.348120,371.936534,528.050000,370.156887L525.840000,368.876641L525.840000,366.286143L528.050000,367.556387C528.619921,367.911925,529.250438,368.159433,529.910000,368.286528C530.413718,368.418746,530.948642,368.358110,531.410000,368.116495C531.870384,367.894269,532.228216,367.504157,532.410000,367.026285C532.678794,366.356458,532.801529,365.636957,532.770000,364.915880C532.760137,363.379667,532.357358,361.871539,531.600000,360.535038C530.741206,359.099869,529.515919,357.919225,528.050000,357.114381Z" fill="rgb(255,255,255)" stroke="none" stroke-width="1"/></g><g id="el2zeufilhz62"><rect id="el2zeufilhz63" width="1.990000" height="100.539320" rx="0" ry="0" transform="matrix(0.50000000000000 -0.87000000000000 0.87000000000000 0.50000000000000 476.34187931148062 95.14437870740261)" fill="rgb(170,174,195)" stroke="none" stroke-width="1"/><rect id="el2zeufilhz64" width="1.990000" height="46.488934" rx="0" ry="0" transform="matrix(0.50000000000000 -0.86602500000000 0.86602500000000 0.50000000000000 583.20657518921553 159.08258952163681)" fill="rgb(170,174,195)" stroke="none" stroke-width="1"/><rect id="el2zeufilhz65" width="1.990000" height="100.539320" rx="0" ry="0" transform="matrix(0.50000000000000 -0.86602500000000 0.86602500000000 0.50000000000000 510.25697835929623 141.31527470740258)" fill="rgb(170,174,195)" stroke="none" stroke-width="1"/><rect id="el2zeufilhz66" width="1.990000" height="26.720000" rx="0" ry="0" transform="matrix(0.50000000000000 -0.87000000000000 0.87000000000000 0.50000000000000 236.53530000000003 77.23790000000000)" fill="rgb(170,174,195)" stroke="none" stroke-width="1"/><rect id="el2zeufilhz67" width="1.990000" height="46.480000" rx="0" ry="0" transform="matrix(0.50000000000000 -0.86602500000000 0.86602500000000 0.50000000000000 202.07310150000001 34.13359724999998)" fill="rgb(170,174,195)" stroke="none" stroke-width="1"/><rect id="el2zeufilhz68" width="1.990000" height="69.430000" rx="0" ry="0" transform="matrix(0.50000000000000 -0.86602500000000 0.86602500000000 0.50000000000000 155.59789063999997 31.95471806000000)" fill="rgb(170,174,195)" stroke="none" stroke-width="1"/><rect id="el2zeufilhz69" width="1.990000" height="26.725136" rx="0" ry="0" transform="matrix(0.49984900000000 -0.86611300000000 0.86611300000000 0.49984900000000 617.36831307371813 203.14838857872093)" fill="rgb(170,174,195)" stroke="none" stroke-width="1"/><g id="el2zeufilhz70_to" transform="translate(-236.753989,-171.359962)"><g id="el2zeufilhz70" transform="translate(0,0)"><path id="el2zeufilhz71" d="M625.240000,144.078302C625.240000,151.979821,619.670000,155.160432,612.860000,151.229676L548.750000,114.222565C541.290000,109.911737,535.170000,99.459728,535.030000,90.758056C535.017265,90.648403,535.017265,90.537645,535.030000,90.427992C535.030000,81.646305,541.220000,78.115626,548.780000,82.426455C549.743447,82.998041,550.665701,83.636390,551.540000,84.336822L552.020000,84.736899L552.020000,84.156787C551.920000,83.026570,551.850000,81.916357,551.850000,80.926166C551.850000,65.783257,562.410000,59.532055,575.480000,66.923476C575.613865,66.966930,575.741582,67.027439,575.860000,67.103510C587.070000,73.574754,596.940000,88.447612,599.280000,102.470307L599.380000,103.090426L599.830000,103.090426C601.480117,103.002137,603.116518,103.432300,604.510000,104.320662C609.630000,107.321239,613.790000,114.482615,613.790000,120.403753C613.799767,121.134355,613.719155,121.863360,613.550000,122.574170L613.480000,123.004252L613.900000,123.284306C619.900000,127.285075,624.730000,135.656684,625.240000,142.828062C625.210000,143.228139,625.240000,143.678225,625.240000,144.078302Z" transform="matrix(1 0 0 1 -0.47031211000001 0.02993881000000)" fill="rgb(255,255,255)" stroke="none" stroke-width="1"/><path id="el2zeufilhz72" d="M612,158.329999C609.875751,158.255465,607.807677,157.628028,606,156.509649L541.890000,119.502538C534.080000,114.991671,527.890000,104.389633,527.670000,95.307888C527.654424,95.154921,527.654424,95.000767,527.670000,94.847800C527.670000,90.236914,529.280000,86.776249,532.210000,85.085924C535.140000,83.395599,538.940000,83.735664,542.920000,86.086116C543.440000,86.386174,543.920000,86.726239,544.510000,87.086308C544.510000,86.516199,544.460000,85.956091,544.460000,85.425989C544.460000,77.694503,547.110000,71.893389,551.920000,69.072847C556.730000,66.252305,562.920000,66.802410,569.570000,70.513123L569.570000,70.513123C569.693807,70.549214,569.811707,70.603121,569.920000,70.673154C581.350000,77.274423,591.350000,92.297310,593.810000,106.500039C595.497626,106.556510,597.144302,107.034447,598.600000,107.890306C603.990000,111.010906,608.380000,118.612366,608.380000,124.893573C608.387565,125.612044,608.320539,126.329359,608.180000,127.033985C614.300000,131.174781,619.290000,139.826443,619.830000,147.247869C619.830000,147.677952,619.900000,148.168046,619.900000,148.588127C619.900000,152.768930,618.440000,155.919536,615.780000,157.459832C614.620632,158.083188,613.315171,158.383709,612,158.329999ZM536.240000,85.986097C535.154730,85.968467,534.084469,86.241263,533.140000,86.776249C530.860000,88.086500,529.600000,90.947050,529.600000,94.777786L529.600000,95.097848C529.730000,103.429449,535.660000,113.571398,542.820000,117.702192L606.930000,154.709303C609.930000,156.439636,612.680000,156.709687,614.690000,155.569468C616.700000,154.429249,617.820000,151.858755,617.820000,148.418094C617.820000,148.048023,617.820000,147.627942,617.760000,147.237867C617.260000,140.306535,612.570000,132.234984,606.850000,128.434254L605.910000,127.794131L606.080000,126.733927C606.234659,126.078608,606.308541,125.406818,606.300000,124.733543C606.300000,119.132466,602.360000,112.311156,597.510000,109.510617C596.307348,108.714723,594.879764,108.328816,593.440000,108.410406L592.040000,108.470418L591.800000,106.990133C589.510000,93.237490,579.860000,78.654688,568.860000,72.313469L568.490000,72.143437C562.490000,68.782791,556.950000,68.262691,552.830000,70.683156C548.710000,73.103621,546.350000,78.324625,546.350000,85.315968C546.350000,86.316160,546.420000,87.316352,546.520000,88.456572L546.680000,91.337125L544.450000,89.496771C543.622786,88.829138,542.747033,88.224017,541.830000,87.686424C540.144657,86.646513,538.218841,86.060732,536.240000,85.986097Z" fill="rgb(170,174,195)" stroke="none" stroke-width="1"/><path id="el2zeufilhz73" d="M602.740000,122.879199C602.740000,126.599914,600.130000,128.110204,596.910000,126.249847C593.467755,124.004586,591.302203,120.252222,591.080000,116.147906C591.080000,112.427191,593.690000,110.916900,596.910000,112.777258C600.352245,115.022519,602.517797,118.774883,602.740000,122.879199Z" transform="matrix(1 0 0 1 -0.47031211000001 0.02993881000000)" fill="rgb(255,166,83)" stroke="none" stroke-width="1"/></g></g></g><g id="el2zeufilhz74_ts" transform="translate(384.599991,93.886227) scale(1,1)"><g id="el2zeufilhz74" transform="translate(-384.599991,-93.886227)"><path id="el2zeufilhz75" d="M435.580000,86.664837L435.580000,159.998930C435.580000,164.699833,432.710000,166.850246,429.200000,164.779849L340,113.279952C336.490000,111.209554,333.620000,105.788512,333.620000,101.087609L333.620000,27.773521C333.620000,23.072617,336.490000,20.922204,340,22.992602L429.200000,74.472495C432.710000,76.542892,435.580000,81.983938,435.580000,86.664837Z" fill="rgb(255,166,83)" stroke="none" stroke-width="1"/><path id="el2zeufilhz76" d="M435.580000,154.997969L435.580000,159.998930C435.580000,164.699833,432.710000,166.850246,429.200000,164.779849L340,113.279952C336.490000,111.209554,333.620000,105.788512,333.620000,101.087609L333.620000,96.146660Z" opacity="0.2" fill="rgb(242,242,242)" stroke="none" stroke-width="1"/><g id="el2zeufilhz77"><path id="el2zeufilhz78" d="M368.730000,59.260213L346,70.262327L346,73.052864L368.710000,110.190000L368.710000,106.189231L348.650000,73.132879L368.730000,63.411011Z" fill="rgb(255,255,255)" stroke="none" stroke-width="1"/><path id="el2zeufilhz79" d="M400.440000,77.590209L400.440000,81.650990L420.520000,114.657332L400.440000,124.539231L400.440000,128.540000L423.150000,117.537886L423.150000,114.827365Z" fill="rgb(255,255,255)" stroke="none" stroke-width="1"/><path id="el2zeufilhz80" d="M391.680000,73.772283L374.470000,112.339694L377.340000,113.930000L394.620000,75.522619Z" fill="rgb(255,255,255)" stroke="none" stroke-width="1"/></g></g></g><g id="el2zeufilhz81"><path id="el2zeufilhz82" d="M261.740000,130.510000L261.740000,200.380000C261.740000,203.230000,260.010000,204.550000,257.890000,203.320000L147.890000,139.800000C145.760000,138.570000,144.030000,135.260000,144.030000,132.400000L144.030000,62.540000C144.030000,59.690000,145.760000,58.370000,147.890000,59.600000L257.890000,123.120000C260,124.350000,261.740000,127.660000,261.740000,130.510000Z" fill="rgb(136,127,211)" stroke="none" stroke-width="1"/><path id="el2zeufilhz83" d="M252.210000,138.860000C252.210000,142.580000,249.600000,144.090000,246.380000,142.230000C242.937755,139.985170,240.772203,136.233528,240.550000,132.130000C240.550000,128.410000,243.160000,126.900000,246.380000,128.760000C249.822245,131.004830,251.987797,134.756472,252.210000,138.860000Z" fill="rgb(255,166,83)" stroke="none" stroke-width="1"/><path id="el2zeufilhz84" d="M191.350000,154C189.140861,154,187.350000,152.209139,187.350000,150L187.350000,115.130000C187.375796,113.455228,188.442329,111.973881,190.022428,111.418168C191.602526,110.862455,193.361535,111.350074,194.430000,112.640000L220.620000,145.220000C221.521149,146.368107,221.725429,147.915900,221.153007,149.258491C220.580584,150.601082,219.322338,151.525318,217.870000,151.670000L191.700000,154C191.583557,154.010228,191.466443,154.010228,191.350000,154ZM191.350000,113.120000C191.115020,113.122376,190.881985,113.162903,190.660000,113.240000C189.857961,113.507001,189.323004,114.264857,189.340000,115.110000L189.340000,150.030000C189.341783,150.584330,189.573554,151.113056,189.980000,151.490000C190.397588,151.857279,190.945396,152.041083,191.500000,152L217.690000,149.660000C218.420892,149.605794,219.057170,149.140225,219.330000,148.460000C219.607614,147.793471,219.504418,147.029055,219.060000,146.460000L219.060000,146.460000L192.900000,113.880000C192.535036,113.411543,191.973841,113.138330,191.380000,113.140000Z" fill="rgb(170,174,195)" stroke="none" stroke-width="1"/><path id="el2zeufilhz85" d="M225.460000,142.390000L199.280000,109.810000C198.478352,108.842233,197.158485,108.476661,195.973172,108.894088C194.787859,109.311514,193.988325,110.423466,193.970000,111.680000L193.970000,146.600000C193.967075,147.440921,194.317226,148.244463,194.935142,148.814847C195.553057,149.385230,196.381999,149.670082,197.220000,149.600000L223.410000,147.260000C224.509054,147.155120,225.461684,146.455052,225.890024,145.437484C226.318363,144.419917,226.153182,143.249312,225.460000,142.390000Z" fill="rgb(255,255,255)" stroke="none" stroke-width="1"/></g><g id="el2zeufilhz86"><rect id="el2zeufilhz87" width="1.990000" height="10.241968" rx="0" ry="0" transform="matrix(0.49984900000000 -0.86611300000000 0.86611300000000 0.49984900000000 305.24869583578845 429.49619815993384)" fill="rgb(170,174,195)" stroke="none" stroke-width="1"/><rect id="el2zeufilhz88" width="1.990000" height="10.241968" rx="0" ry="0" transform="matrix(0.49984900000000 -0.86611300000000 0.86611300000000 0.49984900000000 284.48018810578856 441.49355316993388)" fill="rgb(170,174,195)" stroke="none" stroke-width="1"/><path id="el2zeufilhz89" d="M493.190000,598.510000L442.680000,627.670000L218.830000,498.430000L250.230000,480.300000C252.450000,485.410000,256.720000,491.060000,264.710000,495.360000C280.820000,504.020000,310.140000,489.110000,329.560000,497.050000C355.560000,507.700000,335.560000,535.610000,360.490000,547.940000C392.720000,563.940000,460.040000,531.410000,489.350000,546.810000C508.610000,557,474.220000,585.640000,493.190000,598.510000Z" fill="rgb(63,223,193)" stroke="none" stroke-width="1"/><path id="el2zeufilhz90" d="M519.680000,583.210000L442.680000,627.670000L218.830000,498.430000L228.430000,492.890000C249.430000,512.010000,298.920000,493.970000,324.430000,508.540000C346.930000,521.400000,327.500000,540.260000,351.900000,552.910000C383.430000,569.300000,431.710000,547.780000,460.610000,563.420000C479.600000,573.730000,454,602.300000,519.680000,583.210000Z" fill="rgb(58,204,177)" stroke="none" stroke-width="1"/><rect id="el2zeufilhz91" width="1.990000" height="279.963799" rx="0" ry="0" transform="matrix(0.50000000000000 -0.86602500000000 0.86602500000000 0.50000000000000 210.20248284906597 494.58212653524924)" fill="rgb(170,174,195)" stroke="none" stroke-width="1"/><rect id="el2zeufilhz92" width="1.990000" height="10.240000" rx="0" ry="0" transform="matrix(0.50015100000000 -0.86593800000000 0.86593800000000 0.50015100000000 222.15302662999994 477.48166365999992)" fill="rgb(170,174,195)" stroke="none" stroke-width="1"/><rect id="el2zeufilhz93" width="1.990000" height="10.240000" rx="0" ry="0" transform="matrix(0.49984900000000 -0.86611300000000 0.86611300000000 0.49984900000000 242.92621918000003 465.48157074000005)" fill="rgb(170,174,195)" stroke="none" stroke-width="1"/><rect id="el2zeufilhz94" width="1.990000" height="10.241968" rx="0" ry="0" transform="matrix(0.50000000000000 -0.86602500000000 0.86602500000000 0.50000000000000 263.70748777898609 453.48108492274253)" fill="rgb(170,174,195)" stroke="none" stroke-width="1"/><polygon id="el2zeufilhz95" points="244.790000,512.860000 244.190000,511.820000 346.340000,452.850000 346.930000,453.880000 244.790000,512.860000" fill="rgb(255,255,255)" stroke="none" stroke-width="1"/><polygon id="el2zeufilhz96" points="269.650000,527.220000 269.060000,526.179800 371.210000,467.188464 371.810000,468.228664 269.650000,527.220000" fill="rgb(255,255,255)" stroke="none" stroke-width="1"/><polygon id="el2zeufilhz97" points="294.530000,541.580000 293.940000,540.540000 396.080000,481.560000 396.670000,482.600000 294.530000,541.580000" fill="rgb(255,255,255)" stroke="none" stroke-width="1"/><polygon id="el2zeufilhz98" points="319.400000,555.930000 318.800000,554.899802 420.960000,495.918468 421.550000,496.948666 319.400000,555.930000" fill="rgb(255,255,255)" stroke="none" stroke-width="1"/><polygon id="el2zeufilhz99" points="344.270000,570.290000 343.680000,569.259802 445.830000,510.278468 446.420000,511.308666 344.270000,570.290000" fill="rgb(255,255,255)" stroke="none" stroke-width="1"/><polygon id="el2zeufilhz100" points="369.140000,584.660000 368.550000,583.619800 470.700000,524.628464 471.290000,525.668664 369.140000,584.660000" fill="rgb(255,255,255)" stroke="none" stroke-width="1"/><polygon id="el2zeufilhz101" points="394.010000,599.010000 393.420000,597.969800 495.570000,538.988466 496.160000,540.028666 394.010000,599.010000" fill="rgb(255,255,255)" stroke="none" stroke-width="1"/><polygon id="el2zeufilhz102" points="418.890000,613.380000 418.300000,612.340000 520.450000,553.360000 521.040000,554.400000 418.890000,613.380000" fill="rgb(255,255,255)" stroke="none" stroke-width="1"/><polygon id="el2zeufilhz103" points="443.760000,627.740000 443.170000,626.700000 545.310000,567.730000 545.900000,568.760000 443.760000,627.740000" fill="rgb(255,255,255)" stroke="none" stroke-width="1"/><polygon id="el2zeufilhz104" points="219.910000,498.490000 219.310000,497.459802 321.460000,438.478468 322.060000,439.508666 219.910000,498.490000" fill="rgb(255,255,255)" stroke="none" stroke-width="1"/></g><g id="el2zeufilhz105"><path id="el2zeufilhz106" d="M723.310000,420.340167L723.310000,518.439018C723.310000,522.739845,720.680000,524.730227,717.420000,522.819860L643.800000,480.341697L636.870000,476.340929C633.680000,474.430562,631.050000,469.409597,631.050000,465.108770L631.050000,367.029923C631.050000,362.729096,633.680000,360.728712,636.870000,362.649081L643.800000,366.649850L717.420000,409.128013C720.680000,410.978368,723.310000,416.039341,723.310000,420.340167Z" fill="rgb(255,255,255)" stroke="none" stroke-width="1"/><path id="el2zeufilhz107" d="M643.800000,366.638148L643.800000,480.350000L636.870000,476.349231C633.680000,474.438864,631.050000,469.417899,631.050000,465.117073L631.050000,367.038225C631.050000,362.737399,633.680000,360.737014,636.870000,362.657384Z" opacity="0.5" fill="rgb(242,242,242)" stroke="none" stroke-width="1"/><path id="el2zeufilhz108" d="M699.330000,457.240000C699.330000,465.360000,696.010000,470.700000,690.910000,472.370000C687.180000,473.730000,682.350000,473.010000,677.180000,470.020000C671.627248,466.634213,666.929101,462.014767,663.450000,456.520000C658.270000,448.910000,655.030000,439.790000,655.030000,431.660000C655.030000,417.480000,664.900000,411.780000,677.180000,418.870000C689.460000,425.960000,699.330000,443.050000,699.330000,457.240000Z" fill="rgb(255,166,83)" stroke="none" stroke-width="1"/><path id="el2zeufilhz109" d="M686,446C686,451.630000,682,456.370000,677.170000,453.560000C672.340000,450.750000,668.340000,441.440000,668.340000,435.800000C668.340000,430.160000,672.290000,427.890000,677.170000,430.710000C682.050000,433.530000,686,440.320000,686,446Z" fill="rgb(255,255,255)" stroke="none" stroke-width="1"/><path id="el2zeufilhz110" d="M690.910000,472.370000C687.180000,473.730000,682.350000,473.010000,677.180000,470.020000C671.627248,466.634213,666.929101,462.014767,663.450000,456.520000C666.450000,454.130000,671.450000,454.370000,677.180000,457.670000C683.026331,461.208079,687.778625,466.296115,690.910000,472.370000Z" fill="rgb(255,255,255)" stroke="none" stroke-width="1"/><g id="el2zeufilhz111_ts" transform="translate(707.785000,424.450896) scale(1,1)"><path id="el2zeufilhz111" d="M716,429.190000C716,434.430000,712.320000,436.560000,707.780000,433.940000C703.240000,431.320000,699.570000,424.940000,699.570000,419.710000C699.570000,414.480000,703.240000,412.340000,707.780000,414.960000C712.320000,417.580000,716,424,716,429.190000Z" transform="translate(-707.785000,-424.450896)" fill="rgb(255,166,83)" stroke="none" stroke-width="1"/></g><path id="el2zeufilhz112" d="M681.280000,477.790000C677.639339,477.650600,674.097190,476.568660,671,474.650000C665.308698,471.187828,660.493639,466.458324,656.930000,460.830000C651.470000,452.830000,648.350000,443.550000,648.350000,435.420000C648.350000,428.200000,650.820000,422.780000,655.350000,420.190000C659.880000,417.600000,665.760000,418.190000,672.030000,421.770000C684.520000,428.990000,694.670000,446.580000,694.670000,461C694.670000,469.320000,691.360000,475.190000,685.570000,477.090000C684.192896,477.576163,682.740217,477.813197,681.280000,477.790000ZM661.500000,420.580000C659.665151,420.551908,657.856112,421.014525,656.260000,421.920000C652.410000,424.140000,650.260000,428.920000,650.260000,435.420000C650.260000,443.160000,653.260000,452.020000,658.510000,459.720000C661.899081,465.094390,666.485256,469.612115,671.910000,472.920000C676.670000,475.670000,681.250000,476.500000,684.800000,475.200000C689.750000,473.580000,692.560000,468.410000,692.560000,461C692.560000,447.220000,682.850000,430.390000,670.920000,423.500000C668.086061,421.726873,664.839971,420.720654,661.500000,420.580000Z" fill="rgb(95,148,255)" stroke="none" stroke-width="1"/><polygon id="el2zeufilhz113" points="669.470000,398.660000 640.590000,381.980000 640.590000,377.990000 669.470000,394.670000 669.470000,398.660000" fill="rgb(170,174,195)" stroke="none" stroke-width="1"/><polygon id="el2zeufilhz114" points="690.910000,493.650000 663.450000,477.800000 663.450000,473.820000 690.910000,489.670000 690.910000,493.650000" fill="rgb(170,174,195)" stroke="none" stroke-width="1"/></g><g id="el2zeufilhz115_to" transform="translate(0,0)"><g id="el2zeufilhz115" transform="translate(0,0)"><path id="el2zeufilhz116" d="M193.080000,135.480000L191.350000,222.919829L147.820000,139.780000C145.750000,138.580000,144,135.240000,144,132.370000L144,96L145.190000,96.640000L147.260000,97.830000L151.730000,100.460000L155.870000,102.770000L177.870000,115.520000L184.640000,119.420000C189.330000,122,193.080000,129.260000,193.080000,135.480000Z" opacity="0.16" fill="rgb(255,255,255)" stroke="none" stroke-width="1"/><path id="el2zeufilhz117" d="M171.210000,120.120000L100,79C98.764866,78.128439,97.149711,78.009225,95.800000,78.690000L95.800000,78.690000L95.730000,78.690000C95.619915,78.747391,95.513086,78.810821,95.410000,78.880000L88,83.140000L91.770000,88.140000L95.900000,85.760000L95.900000,275.650000C95.900000,280.410000,98.790000,285.940000,102.360000,288L169.810000,326.940000L163.860000,330.380000L167.630000,335.380000L175.420000,330.840000L175.420000,330.840000C176.770000,330.040000,177.650000,328.250000,177.650000,325.660000L177.650000,132.470000C177.670000,127.710000,174.780000,122.180000,171.210000,120.120000Z" fill="rgb(170,174,195)" stroke="none" stroke-width="1"/><path id="el2zeufilhz118" d="M166.050000,337C164.935391,336.970478,163.848508,336.646138,162.900000,336.060000L91.690000,294.910000C87.690000,292.630000,84.690000,286.770000,84.690000,281.560000L84.690000,88.380000C84.690000,84.300000,86.690000,81.560000,89.690000,81.560000C90.803095,81.590249,91.888965,81.910839,92.840000,82.490000L164.050000,123.600000C168,125.890000,171.050000,131.740000,171.050000,136.950000L171.050000,330.140000C171.100000,334.220000,169.070000,337,166.050000,337Z" fill="rgb(238,239,242)" stroke="none" stroke-width="1"/><path id="el2zeufilhz119" d="M163.480000,335L92.270000,293.900000C88.700000,291.840000,85.810000,286.320000,85.810000,281.560000L85.810000,88.380000C85.810000,83.620000,88.700000,81.440000,92.270000,83.500000L163.480000,124.610000C167.050000,126.670000,169.940000,132.200000,169.940000,136.950000L169.940000,330.130000C169.940000,334.890000,167.050000,337.080000,163.480000,335Z" fill="rgb(255,255,255)" stroke="none" stroke-width="1"/><polygon id="el2zeufilhz120" points="87.550000,276.130000 87.550000,95.820000 168.200000,142.380000 168.200000,322.700000 87.550000,276.130000" fill="rgb(238,239,242)" stroke="none" stroke-width="1"/><path id="el2zeufilhz121" d="M135.130000,117L120.620000,108.620000C120.071325,108.221335,119.741754,107.588115,119.730000,106.910000L119.730000,106.910000C119.730000,106.250000,120.130000,105.910000,120.620000,106.230000L135.130000,114.610000C135.681138,115.006538,136.011401,115.641088,136.020000,116.320000L136.020000,116.320000C136,117,135.620000,117.300000,135.130000,117Z" fill="rgb(223,229,238)" stroke="none" stroke-width="1"/><path id="el2zeufilhz122" d="M142,120.140000C142,121.240000,141.230000,121.690000,140.270000,121.140000C139.248347,120.472697,138.605825,119.358497,138.540000,118.140000C138.540000,117.040000,139.320000,116.590000,140.270000,117.140000C141.290450,117.808440,141.932589,118.921975,142,120.140000Z" fill="rgb(223,229,238)" stroke="none" stroke-width="1"/><ellipse id="el2zeufilhz123" rx="18.030000" ry="31.230000" transform="matrix(0.87000000000000 -0.50000000000000 0.50000000000000 0.87000000000000 126.12809999999999 168.50580000000002)" fill="rgb(136,127,211)" stroke="none" stroke-width="1"/><polygon id="el2zeufilhz124" points="121.970000,178.270000 110.890000,159.070000 114.020000,157.270000 121.970000,171.030000 137.250000,162.210000 140.380000,167.640000 121.970000,178.270000" fill="rgb(255,255,255)" stroke="none" stroke-width="1"/><path id="el2zeufilhz125" d="M128.500000,202.610000C124.829762,202.480675,121.257612,201.391100,118.140000,199.450000C105.680000,192.260000,95.550000,174.720000,95.550000,160.330000C95.550000,153.150000,98.030000,147.760000,102.550000,145.170000C107.070000,142.580000,112.940000,143.170000,119.160000,146.720000C131.610000,153.910000,141.740000,171.460000,141.740000,185.830000C141.740000,193.020000,139.270000,198.400000,134.740000,200.990000C132.840297,202.073392,130.686803,202.632472,128.500000,202.610000ZM108.770000,145.550000C106.927934,145.525257,105.112469,145.991203,103.510000,146.900000C99.660000,149.120000,97.510000,153.900000,97.510000,160.330000C97.510000,174.080000,107.200000,190.850000,119.100000,197.720000C124.680000,200.940000,129.870000,201.500000,133.720000,199.270000C137.570000,197.040000,139.720000,192.270000,139.720000,185.830000C139.720000,172.090000,130.040000,155.310000,118.140000,148.440000C115.320795,146.678961,112.091372,145.682907,108.770000,145.550000Z" fill="rgb(255,255,255)" stroke="none" stroke-width="1"/></g></g><g id="el2zeufilhz126_to" transform="translate(0,0)"><g id="el2zeufilhz126" transform="translate(0,0)"><path id="el2zeufilhz127" style="mix-blend-mode:multiply" d="M121.290000,230.800000L121.290000,279.240000C121.290000,283.380000,118.820000,285.290000,115.710000,283.460000L75.720841,259.592961L73.980841,200.122961L115.710000,220C118.820000,221.870000,121.290000,226.650000,121.290000,230.800000Z" opacity="0.5" fill="rgb(170,174,195)" stroke="none" stroke-width="1"/><path id="el2zeufilhz128" d="M96.880000,283.800000L15.630000,236.890000C12.520000,235.090000,10,230.280000,10,226.130000L10,177.760000C10,173.610000,12.520000,171.700000,15.630000,173.500000L96.880000,220.410000C99.990000,222.200000,102.510000,227.020000,102.510000,231.170000L102.510000,279.540000C102.510000,283.690000,100,285.590000,96.880000,283.800000Z" fill="rgb(255,255,255)" stroke="none" stroke-width="1"/><polygon id="el2zeufilhz129" points="21.610000,228.310000 20.480000,227.660000 20.480000,212.180000 21.610000,212.830000 21.610000,228.310000" fill="rgb(170,174,195)" stroke="none" stroke-width="1"/><polygon id="el2zeufilhz130" points="33.110000,234.950000 31.970000,234.290000 31.970000,205.710000 33.110000,206.370000 33.110000,234.950000" fill="rgb(170,174,195)" stroke="none" stroke-width="1"/><polygon id="el2zeufilhz131" points="44.610000,241.580000 43.470000,240.930000 43.470000,202.150000 44.610000,202.800000 44.610000,241.580000" fill="rgb(170,174,195)" stroke="none" stroke-width="1"/><polygon id="el2zeufilhz132" points="56.670000,248.550000 55.530000,247.890000 55.530000,212.580000 56.670000,213.240000 56.670000,248.550000" fill="rgb(170,174,195)" stroke="none" stroke-width="1"/><path id="el2zeufilhz133" d="M71.420000,245.480000C72.033616,249.506192,74.370052,253.065606,77.820000,255.230000C81.670000,257.450000,84.170000,257.290000,84.170000,252.940000C84.170000,249.820000,82.900000,246.840000,77.860000,242.360000C72.820000,237.880000,69.990000,234.360000,69.990000,229.620000C69.990000,225.210000,72.990000,223.700000,77.660000,226.380000C83.810000,229.940000,85.560000,235.300000,85.800000,238.140000L83.740000,237C83.097006,233.379115,80.846059,230.245444,77.620000,228.480000C73.620000,226.160000,72.140000,227.830000,72.140000,230.680000C72.140000,233.750000,73.610000,236.340000,78.140000,240.260000C84.730000,246.090000,86.390000,249.930000,86.390000,254.060000C86.390000,259.240000,83.390000,260.550000,77.740000,257.270000C73.077666,254.531516,69.996124,249.738418,69.440000,244.360000ZM77.060000,261.120000L77.060000,222.780000L78.930000,223.860000L78.930000,262.200000Z" fill="rgb(136,127,211)" stroke="none" stroke-width="1"/></g></g><g id="el2zeufilhz134_to" transform="translate(704.765015,275.889999)"><g id="el2zeufilhz134" transform="translate(-704.765015,-275.889999)"><path id="el2zeufilhz135" d="M713.890000,208.660000L718,222.490000L729.900000,234.360000L739.440000,234.180000L751.650000,253L748.450000,263L754.790000,279.330000L765.260000,288.100000C766.590000,297.560000,766.690000,298.300000,768.020000,307.770000L759.020000,309.240000C758.150000,314.460000,757.700000,317.160000,756.820000,322.380000L763.290000,336C759.470000,341.450000,759.170000,341.870000,755.340000,347.310000L744.700000,339.580000L734.990000,343.380000L734.490000,355.480000L719.550000,353.130000L712.280000,339.820000L699.610000,332.500000L692.330000,337.420000L677.390000,322.510000L676.890000,309.840000C673.040000,303.840000,671.040000,300.840000,667.190000,294.840000L656.540000,290.280000C652.710000,280.420000,652.420000,279.650000,648.590000,269.790000L655.100000,263.690000C654.230000,257.460000,653.780000,254.250000,652.900000,248.020000L643.900000,236.110000C645.230000,228.180000,645.340000,227.560000,646.660000,219.620000L657.140000,222.950000L663.470000,213.950000L660.270000,200.270000L672.450000,195.500000L681.990000,206.700000L693.900000,208.570000L698.030000,199.520000Z" fill="rgb(230,112,121)" stroke="none" stroke-width="1"/><path id="el2zeufilhz136" d="M711.520000,209.460000L715.660000,223.280000L727.560000,235.160000L737.100000,234.980000C742.960000,244.040000,743.420000,244.740000,749.280000,253.810000L746.080000,263.810000L752.420000,280.140000L762.890000,288.900000C764.220000,298.370000,764.320000,299.110000,765.650000,308.580000L756.650000,310.050000C755.780000,315.270000,755.330000,317.970000,754.450000,323.190000L760.960000,336.800000C757.140000,342.250000,756.840000,342.670000,753.010000,348.110000L742.370000,340.380000L732.660000,344.180000L732.160000,356.280000L717.220000,353.930000L709.950000,340.620000L697.280000,333.300000L690,338.200000L675,323.290000L674.500000,310.620000C670.650000,304.620000,668.650000,301.620000,664.800000,295.620000L654.150000,291.060000C650.320000,281.200000,650.030000,280.430000,646.200000,270.570000L652.710000,264.470000C651.840000,258.240000,651.390000,255.030000,650.510000,248.790000L641.510000,236.890000C642.840000,228.950000,642.950000,228.340000,644.280000,220.400000L654.750000,223.730000L661.080000,214.730000L657.860000,201L670,196.260000L679.540000,207.460000L691.450000,209.330000L695.580000,200.280000Z" fill="rgb(255,124,134)" stroke="none" stroke-width="1"/><ellipse id="el2zeufilhz137" rx="21.300000" ry="36.890000" transform="matrix(0.87000000000000 -0.50000000000000 0.50000000000000 0.87000000000000 706.36590000000001 276.56519999999995)" fill="rgb(255,179,184)" stroke="none" stroke-width="1"/><path id="el2zeufilhz138" d="M707.680000,314.930000C703.376038,314.772421,699.187848,313.493558,695.530000,311.220000C680.870000,302.760000,668.950000,282.100000,668.950000,265.220000C668.950000,256.810000,671.840000,250.500000,677.090000,247.470000C682.340000,244.440000,689.240000,245.090000,696.530000,249.300000C711.190000,257.760000,723.110000,278.420000,723.110000,295.300000C723.110000,303.710000,720.220000,310.020000,714.970000,313.050000C712.748263,314.308464,710.233255,314.957053,707.680000,314.930000ZM684.390000,247.550000C682.184229,247.517180,680.009576,248.072925,678.090000,249.160000C673.480000,251.810000,670.950000,257.510000,670.950000,265.160000C670.950000,281.450000,682.420000,301.330000,696.530000,309.470000C703.170000,313.310000,709.370000,313.960000,713.970000,311.300000C718.570000,308.640000,721.120000,302.950000,721.120000,295.300000C721.120000,279.010000,709.640000,259.130000,695.530000,250.980000C692.177928,248.887806,688.338347,247.705602,684.390000,247.550000Z" fill="rgb(255,255,255)" stroke="none" stroke-width="1"/></g></g><g id="el2zeufilhz139_to" transform="translate(0,0)"><g id="el2zeufilhz139" transform="translate(0,0)"><path id="el2zeufilhz140" d="M170.930000,197.330000L170.930000,257.650000L163.680000,253.420000C161.130000,251.910000,159.050000,248,159.050000,244.580000L159.050000,196.700000C159.050000,193.270000,161.130000,191.700000,163.680000,193.190000Z" opacity="0.5" fill="rgb(170,174,195)" stroke="none" stroke-width="1"/><path id="el2zeufilhz141" d="M216.520000,295.610000L147.590000,255.810000C145.020000,254.330000,142.950000,250.360000,142.950000,246.940000L142.950000,199.060000C142.950000,195.650000,145.020000,194.060000,147.590000,195.550000L216.520000,235.350000C219.080000,236.830000,221.160000,240.800000,221.160000,244.220000L221.160000,292.100000C221.160000,295.520000,219.080000,297.090000,216.520000,295.610000Z" fill="rgb(255,255,255)" stroke="none" stroke-width="1"/><path id="el2zeufilhz142" d="M161,218.520000C161,220.940000,159.300000,221.920000,157.200000,220.710000C154.957011,219.247667,153.545554,216.803618,153.400000,214.130000C153.400000,211.710000,155.100000,210.730000,157.200000,211.940000C159.445408,213.400039,160.857642,215.845433,161,218.520000Z" fill="rgb(238,239,242)" stroke="none" stroke-width="1"/><path id="el2zeufilhz143" d="M161,233.440000C161,235.860000,159.300000,236.850000,157.200000,235.640000C154.957011,234.177667,153.545554,231.733618,153.400000,229.060000C153.400000,226.640000,155.100000,225.660000,157.200000,226.870000C159.442654,228.327995,160.854516,230.769030,161,233.440000Z" fill="rgb(238,239,242)" stroke="none" stroke-width="1"/><path id="el2zeufilhz144" d="M161,248.370000C161,250.790000,159.300000,251.770000,157.200000,250.560000C154.957346,249.102005,153.545484,246.660970,153.400000,243.990000C153.400000,241.570000,155.100000,240.590000,157.200000,241.800000C159.442654,243.257995,160.854516,245.699030,161,248.370000Z" fill="rgb(238,239,242)" stroke="none" stroke-width="1"/><path id="el2zeufilhz145" d="M209.440000,274.680000L167.670000,250.560000C166.990000,250.170000,166.440000,250.560000,166.440000,251.490000L166.440000,251.490000C166.459551,252.425431,166.914416,253.298180,167.670000,253.850000L209.440000,278C210.120000,278.390000,210.670000,278,210.670000,277.060000L210.670000,277.060000C210.656669,276.117487,210.201133,275.236044,209.440000,274.680000Z" fill="rgb(238,239,242)" stroke="none" stroke-width="1"/><path id="el2zeufilhz146" d="M209.440000,259.750000L167.670000,235.630000C166.990000,235.240000,166.440000,235.630000,166.440000,236.570000L166.440000,236.570000C166.462638,237.501885,166.917170,238.370300,167.670000,238.920000L209.440000,263C210.120000,263.390000,210.670000,263,210.670000,262.070000L210.670000,262.070000C210.638194,261.148770,210.184648,260.293301,209.440000,259.750000Z" fill="rgb(238,239,242)" stroke="none" stroke-width="1"/><path id="el2zeufilhz147" d="M209.440000,244.820000L167.670000,220.710000C166.990000,220.310000,166.440000,220.710000,166.440000,221.640000L166.440000,221.640000C166.451664,222.574691,166.908611,223.447719,167.670000,223.990000L209.440000,248.110000C210.120000,248.500000,210.670000,248.110000,210.670000,247.180000L210.670000,247.180000C210.650449,246.244569,210.195584,245.371820,209.440000,244.820000Z" fill="rgb(238,239,242)" stroke="none" stroke-width="1"/><path id="el2zeufilhz148" d="M157.930000,219.330000C157.930000,221.750000,156.230000,222.730000,154.130000,221.520000C151.892363,220.058634,150.484817,217.618640,150.340000,214.950000C150.340000,212.530000,152.040000,211.550000,154.130000,212.760000C156.372654,214.217995,157.784516,216.659030,157.930000,219.330000Z" fill="rgb(255,166,83)" stroke="none" stroke-width="1"/><path id="el2zeufilhz149" d="M157.930000,234.260000C157.930000,236.680000,156.230000,237.660000,154.130000,236.450000C151.892363,234.988634,150.484817,232.548640,150.340000,229.880000C150.340000,227.450000,152.040000,226.470000,154.130000,227.680000C156.372989,229.142333,157.784446,231.586382,157.930000,234.260000Z" fill="rgb(170,174,195)" stroke="none" stroke-width="1"/><path id="el2zeufilhz150" d="M157.930000,249.190000C157.930000,251.610000,156.230000,252.590000,154.130000,251.380000C151.892025,249.914305,150.484879,247.471292,150.340000,244.800000C150.340000,242.380000,152.040000,241.400000,154.130000,242.610000C156.372989,244.072333,157.784446,246.516382,157.930000,249.190000Z" fill="rgb(136,127,211)" stroke="none" stroke-width="1"/><path id="el2zeufilhz151" d="M206.340000,275.500000L164.570000,251.380000C163.890000,250.990000,163.340000,251.380000,163.340000,252.310000L163.340000,252.310000C163.351664,253.244691,163.808611,254.117719,164.570000,254.660000L206.340000,278.780000C207.020000,279.170000,207.570000,278.780000,207.570000,277.850000L207.570000,277.850000C207.558336,276.915309,207.101389,276.042281,206.340000,275.500000Z" fill="rgb(170,174,195)" stroke="none" stroke-width="1"/><path id="el2zeufilhz152" d="M206.340000,260.570000L164.570000,236.450000C163.890000,236.060000,163.340000,236.450000,163.340000,237.380000L163.340000,237.380000C163.359551,238.315431,163.814416,239.188180,164.570000,239.740000L206.340000,263.850000C207.020000,264.250000,207.570000,263.850000,207.570000,262.920000L207.570000,262.920000C207.558336,261.985309,207.101389,261.112281,206.340000,260.570000Z" fill="rgb(170,174,195)" stroke="none" stroke-width="1"/><path id="el2zeufilhz153" d="M206.340000,245.640000L164.570000,221.520000C163.890000,221.130000,163.340000,221.520000,163.340000,222.450000L163.340000,222.450000C163.359551,223.385431,163.814416,224.258180,164.570000,224.810000L206.340000,248.930000C207.020000,249.320000,207.570000,248.930000,207.570000,247.990000L207.570000,247.990000C207.547362,247.058115,207.092830,246.189700,206.340000,245.640000Z" fill="rgb(170,174,195)" stroke="none" stroke-width="1"/></g></g></g></svg>