<svg id="eakjedxwk2gp1" xmlns="http://www.w3.org/2000/svg" xmlns:xlink="http://www.w3.org/1999/xlink" viewBox="0 0 1920 1080" shape-rendering="geometricPrecision" text-rendering="geometricPrecision"><style><![CDATA[#eakjedxwk2gp14_ts {animation: eakjedxwk2gp14_ts__ts 3000ms linear infinite normal forwards}@keyframes eakjedxwk2gp14_ts__ts { 0% {transform: translate(959.400000px,40.200000px) scale(0.500000,0.500000)} 50% {transform: translate(959.400000px,40.200000px) scale(1,1)} 100% {transform: translate(959.400000px,40.200000px) scale(0.500000,0.500000)} }#eakjedxwk2gp15_ts {animation: eakjedxwk2gp15_ts__ts 3000ms linear infinite normal forwards}@keyframes eakjedxwk2gp15_ts__ts { 0% {transform: translate(401.300000px,453.300000px) scale(0.500000,0.500000)} 16.666667% {transform: translate(401.300000px,453.300000px) scale(1,1)} 33.333333% {transform: translate(401.300000px,453.300000px) scale(0.500000,0.500000)} 50% {transform: translate(401.300000px,453.300000px) scale(1,1)} 66.666667% {transform: translate(401.300000px,453.300000px) scale(0.500000,0.500000)} 83.333333% {transform: translate(401.300000px,453.300000px) scale(1,1)} 100% {transform: translate(401.300000px,453.300000px) scale(0.500000,0.500000)} }#eakjedxwk2gp21_ts {animation: eakjedxwk2gp21_ts__ts 3000ms linear infinite normal forwards}@keyframes eakjedxwk2gp21_ts__ts { 0% {transform: translate(226.400000px,674.100000px) scale(1,1)} 16.666667% {transform: translate(226.400000px,674.100000px) scale(0.500000,0.500000)} 33.333333% {transform: translate(226.400000px,674.100000px) scale(1,1)} 50% {transform: translate(226.400000px,674.100000px) scale(0.500000,0.500000)} 66.666667% {transform: translate(226.400000px,674.100000px) scale(1,1)} 83.333333% {transform: translate(226.400000px,674.100000px) scale(0.500000,0.500000)} 100% {transform: translate(226.400000px,674.100000px) scale(1,1)} }#eakjedxwk2gp24_ts {animation: eakjedxwk2gp24_ts__ts 3000ms linear infinite normal forwards}@keyframes eakjedxwk2gp24_ts__ts { 0% {transform: translate(144.500000px,226.800000px) scale(1,1)} 16.666667% {transform: translate(144.500000px,226.800000px) scale(0.500000,0.500000)} 33.333333% {transform: translate(144.500000px,226.800000px) scale(1,1)} 50% {transform: translate(144.500000px,226.800000px) scale(0.500000,0.500000)} 66.666667% {transform: translate(144.500000px,226.800000px) scale(1,1)} 83.333333% {transform: translate(144.500000px,226.800000px) scale(0.500000,0.500000)} 100% {transform: translate(144.500000px,226.800000px) scale(1,1)} }#eakjedxwk2gp26_ts {animation: eakjedxwk2gp26_ts__ts 3000ms linear infinite normal forwards}@keyframes eakjedxwk2gp26_ts__ts { 0% {transform: translate(853.200000px,406.095000px) scale(1,1)} 50% {transform: translate(853.200000px,406.095000px) scale(0.500000,0.500000)} 100% {transform: translate(853.200000px,406.095000px) scale(1,1)} }#eakjedxwk2gp27_ts {animation: eakjedxwk2gp27_ts__ts 3000ms linear infinite normal forwards}@keyframes eakjedxwk2gp27_ts__ts { 0% {transform: translate(1014.750000px,824.100000px) scale(1,1)} 50% {transform: translate(1014.750000px,824.100000px) scale(1,0.500000)} 100% {transform: translate(1014.750000px,824.100000px) scale(1,1)} }#eakjedxwk2gp28_ts {animation: eakjedxwk2gp28_ts__ts 3000ms linear infinite normal forwards}@keyframes eakjedxwk2gp28_ts__ts { 0% {transform: translate(125.400000px,1023.300000px) scale(0.500000,0.500000)} 50% {transform: translate(125.400000px,1023.300000px) scale(1,1)} 100% {transform: translate(125.400000px,1023.300000px) scale(0.500000,0.500000)} }]]></style><rect id="eakjedxwk2gp2" width="1920" height="1080" rx="0" ry="0" fill="rgb(40,132,246)" stroke="none" stroke-width="1"/><path id="eakjedxwk2gp3" d="M1635.400000,942.500000L1635.400000,873.700000L1532.600000,933.300000C1517,902.500000,1485.800000,881.700000,1451.400000,881.700000C1398.500000,881.600000,1355.500000,924.300000,1355.400000,977.200000C1355.400000,977.400000,1355.400000,977.500000,1355.400000,977.700000L1355.400000,1089.700000L1635.400000,1089.700000L1635.400000,1025.700000L1543.400000,1025.700000L1543.400000,995.300000L1635.400000,942.500000ZM1415.400000,1025.700000L1415.400000,977.700000C1415.400000,960.100000,1431,945.700000,1451.400000,945.700000C1471.800000,945.700000,1487.400000,960.100000,1487.400000,977.700000L1487.400000,1025.700000L1415.400000,1025.700000ZM1641,739.700000C1641,678.100000,1605,631.700000,1545,631.700000L1355.400000,631.700000L1355.400000,695.700000L1539.400000,695.700000C1560.600000,695.700000,1578.600000,705.700000,1578.600000,739.700000C1578.600000,773.700000,1560.600000,783.700000,1539.400000,783.700000L1355.400000,783.700000L1355.400000,847.700000L1545,847.700000C1605,847.700000,1641,801.300000,1641,739.700000L1641,739.700000ZM1355.400000,305.700000L1355.400000,369.700000L1479.800000,445.700000L1355.400000,521.700000L1355.400000,585.700000L1635.400000,585.700000L1635.400000,521.700000L1472.600000,521.700000L1591.400000,449.300000L1591.400000,442.100000L1472.600000,369.700000L1635.400000,369.700000L1635.400000,305.700000L1355.400000,305.700000ZM1641,124.100000C1641,43.700000,1577.800000,-21.500000,1495.400000,-21.500000C1413,-21.500000,1349.800000,43.700000,1349.800000,124.100000C1349.800000,204.500000,1413,269.700000,1495.400000,269.700000C1577.800000,269.700000,1641,204.500000,1641,124.100000ZM1578.600000,124.100000C1578.600000,169.700000,1545.400000,205.700000,1495.400000,205.700000C1445.400000,205.700000,1412.200000,169.700000,1412.200000,124.100000C1412.200000,78.500000,1445.400000,42.500000,1495.400000,42.500000C1545.400000,42.500000,1578.600000,78.500000,1578.600000,124.100000L1578.600000,124.100000Z" transform="matrix(1 0 0 1 836.78797000000009 -21.50000000000156)" opacity="0.1" clip-rule="evenodd" fill="rgb(255,255,255)" fill-opacity="0" fill-rule="evenodd" stroke="rgb(255,255,255)" stroke-width="1" stroke-linejoin="round"/><image id="eakjedxwk2gp4" display="none" width="1320" height="2244" xlink:href="2A580814.png" preserveAspectRatio="xMidYMid meet" transform="matrix(1 0 0 1 -134 -302)" opacity="0.06"/><g id="eakjedxwk2gp5" opacity="0.06"><g id="eakjedxwk2gp6"><rect id="eakjedxwk2gp7" width="200" height="200" rx="0" ry="0" transform="matrix(1 0 0 1 483 453.30000000000001)" fill="rgb(255,255,255)" stroke="none" stroke-width="1"/><rect id="eakjedxwk2gp8" width="200" height="200" rx="0" ry="0" transform="matrix(1 0 0 1 737.50000000000000 724.10000000000002)" fill="rgb(255,255,255)" stroke="none" stroke-width="1"/><rect id="eakjedxwk2gp9" width="200" height="200" rx="0" ry="0" transform="matrix(1 0 0 1 -91.40000000000001 1173.29999999999995)" fill="rgb(255,255,255)" stroke="none" stroke-width="1"/><rect id="eakjedxwk2gp10" width="200" height="200" rx="0" ry="0" transform="matrix(1 0 0 1 342.69999999999999 1043.59999999999991)" fill="rgb(255,255,255)" stroke="none" stroke-width="1"/><rect id="eakjedxwk2gp11" width="200" height="200" rx="0" ry="0" transform="matrix(1 0 0 1 750.50000000000000 1392.90000000000009)" fill="rgb(255,255,255)" stroke="none" stroke-width="1"/><rect id="eakjedxwk2gp12" width="200" height="107.200000" rx="0" ry="0" transform="matrix(1 0 0 1 182.09999999999999 1685.59999999999991)" fill="rgb(255,255,255)" stroke="none" stroke-width="1"/><rect id="eakjedxwk2gp13" width="200" height="200" rx="0" ry="0" transform="matrix(1 0 0 1 151.30000000000001 -85.70000000000000)" fill="rgb(255,255,255)" stroke="none" stroke-width="1"/><g id="eakjedxwk2gp14_ts" transform="translate(959.400000,40.200000) scale(0.500000,0.500000)"><rect id="eakjedxwk2gp14" width="200" height="200" rx="0" ry="0" transform="translate(-100,-100)" fill="rgb(255,255,255)" stroke="none" stroke-width="1"/></g><g id="eakjedxwk2gp15_ts" transform="translate(401.300000,453.300000) scale(0.500000,0.500000)"><rect id="eakjedxwk2gp15" width="100" height="100" rx="0" ry="0" transform="translate(-50,-50)" fill="rgb(255,255,255)" stroke="none" stroke-width="1"/></g><rect id="eakjedxwk2gp16" width="100" height="100" rx="0" ry="0" transform="matrix(1 0 0 1 -127.80000000000000 793.60000000000002)" fill="rgb(255,255,255)" stroke="none" stroke-width="1"/><rect id="eakjedxwk2gp17" width="100" height="100" rx="0" ry="0" transform="matrix(1 0 0 1 492.69999999999999 909.10000000000002)" fill="rgb(255,255,255)" stroke="none" stroke-width="1"/><rect id="eakjedxwk2gp18" width="100" height="100" rx="0" ry="0" transform="matrix(1 0 0 1 920.20000000000005 1000.39999999999998)" fill="rgb(255,255,255)" stroke="none" stroke-width="1"/><rect id="eakjedxwk2gp19" width="100" height="100" rx="0" ry="0" transform="matrix(1 0 0 1 700.50000000000000 1265.59999999999991)" fill="rgb(255,255,255)" stroke="none" stroke-width="1"/><rect id="eakjedxwk2gp20" width="100" height="100" rx="0" ry="0" transform="matrix(1 0 0 1 132.09999999999999 1557.70000000000005)" fill="rgb(255,255,255)" stroke="none" stroke-width="1"/><g id="eakjedxwk2gp21_ts" transform="translate(226.400000,674.100000) scale(1,1)"><rect id="eakjedxwk2gp21" width="100" height="100" rx="0" ry="0" transform="translate(-50,-50)" fill="rgb(255,255,255)" stroke="none" stroke-width="1"/></g><rect id="eakjedxwk2gp22" width="100" height="100" rx="0" ry="0" transform="matrix(1 0 0 1 583 203.30000000000001)" fill="rgb(255,255,255)" stroke="none" stroke-width="1"/><rect id="eakjedxwk2gp23" width="100" height="100" rx="0" ry="0" transform="matrix(1 0 0 1 501.30000000000001 -85.70000000000000)" fill="rgb(255,255,255)" stroke="none" stroke-width="1"/><g id="eakjedxwk2gp24_ts" transform="translate(144.500000,226.800000) scale(1,1)"><rect id="eakjedxwk2gp24" width="100" height="100" rx="0" ry="0" transform="translate(-50,-50)" fill="rgb(255,255,255)" stroke="none" stroke-width="1"/></g><rect id="eakjedxwk2gp25" width="100" height="100" rx="0" ry="0" transform="matrix(1 0 0 1 19.40000000000000 -135.69999999999999)" fill="rgb(255,255,255)" stroke="none" stroke-width="1"/><g id="eakjedxwk2gp26_ts" transform="translate(853.200000,406.095000) scale(1,1)"><rect id="eakjedxwk2gp26" width="275" height="305.590000" rx="0" ry="0" transform="translate(-137.500000,-152.795000)" fill="rgb(255,255,255)" stroke="none" stroke-width="1"/></g><g id="eakjedxwk2gp27_ts" transform="translate(1014.750000,824.100000) scale(1,1)"><rect id="eakjedxwk2gp27" width="89.100000" height="300" rx="0" ry="0" transform="translate(-44.550000,-150)" fill="rgb(255,255,255)" stroke="none" stroke-width="1"/></g><g id="eakjedxwk2gp28_ts" transform="translate(125.400000,1023.300000) scale(0.500000,0.500000)"><rect id="eakjedxwk2gp28" width="300" height="300" rx="0" ry="0" transform="translate(-150,-150)" fill="rgb(255,255,255)" stroke="none" stroke-width="1"/></g><rect id="eakjedxwk2gp29" width="300" height="93.200000" rx="0" ry="0" transform="matrix(1 0 0 1 251.30000000000001 -207.09999999999999)" fill="rgb(255,255,255)" stroke="none" stroke-width="1"/><rect id="eakjedxwk2gp30" width="300" height="300" rx="0" ry="0" transform="matrix(1 0 0 1 415.69999999999999 1492.90000000000009)" fill="rgb(255,255,255)" stroke="none" stroke-width="1"/><rect id="eakjedxwk2gp31" width="60" height="60" rx="0" ry="0" transform="matrix(1 0 0 1 919.89999999999998 166.80000000000001)" fill="rgb(255,255,255)" stroke="none" stroke-width="1"/><rect id="eakjedxwk2gp32" width="60" height="60" rx="0" ry="0" transform="matrix(1 0 0 1 632.60000000000002 -115.70000000000000)" fill="rgb(255,255,255)" stroke="none" stroke-width="1"/><rect id="eakjedxwk2gp33" width="60" height="60" rx="0" ry="0" transform="matrix(1 0 0 1 221.30000000000001 140.90000000000001)" fill="rgb(255,255,255)" stroke="none" stroke-width="1"/><rect id="eakjedxwk2gp34" width="60" height="60" rx="0" ry="0" transform="matrix(1 0 0 1 248.59999999999999 753.79999999999995)" fill="rgb(255,255,255)" stroke="none" stroke-width="1"/><rect id="eakjedxwk2gp35" width="60" height="60" rx="0" ry="0" transform="matrix(1 0 0 1 577.10000000000002 1113.59999999999991)" fill="rgb(255,255,255)" stroke="none" stroke-width="1"/><rect id="eakjedxwk2gp36" width="60" height="60" rx="0" ry="0" transform="matrix(1 0 0 1 613.39999999999998 1335.59999999999991)" fill="rgb(255,255,255)" stroke="none" stroke-width="1"/><rect id="eakjedxwk2gp37" width="60" height="60" rx="0" ry="0" transform="matrix(1 0 0 1 45.30000000000000 1627.70000000000005)" fill="rgb(255,255,255)" stroke="none" stroke-width="1"/></g><g id="eakjedxwk2gp38" opacity="0.5"><g id="eakjedxwk2gp39"><path id="eakjedxwk2gp40" d="M923.400000,503.300000L721.400000,503.300000L721.400000,301.300000L923.400000,301.300000L923.400000,503.300000ZM723.400000,501.300000L921.400000,501.300000L921.400000,303.300000L723.400000,303.300000L723.400000,501.300000Z" fill="rgb(255,255,255)" stroke="none" stroke-width="1"/></g><g id="eakjedxwk2gp41"><path id="eakjedxwk2gp42" d="M625.400000,203.300000L423.400000,203.300000L423.400000,1.300000L625.400000,1.300000L625.400000,203.300000ZM425.400000,201.300000L623.400000,201.300000L623.400000,3.300000L425.400000,3.300000L425.400000,201.300000Z" fill="rgb(255,255,255)" stroke="none" stroke-width="1"/></g><g id="eakjedxwk2gp43"><path id="eakjedxwk2gp44" d="M423.300000,1075.100000L221.300000,1075.100000L221.300000,873.100000L423.300000,873.100000L423.300000,1075.100000ZM223.300000,1073.100000L421.300000,1073.100000L421.300000,875.100000L223.300000,875.100000L223.300000,1073.100000Z" fill="rgb(255,255,255)" stroke="none" stroke-width="1"/></g><g id="eakjedxwk2gp45"><path id="eakjedxwk2gp46" d="M816.700000,1050.400000L614.700000,1050.400000L614.700000,848.400000L816.700000,848.400000L816.700000,1050.400000ZM616.700000,1048.400000L814.700000,1048.400000L814.700000,850.400000L616.700000,850.400000L616.700000,1048.400000Z" fill="rgb(255,255,255)" stroke="none" stroke-width="1"/></g><g id="eakjedxwk2gp47"><path id="eakjedxwk2gp48" d="M1115.800000,1452.400000L913.800000,1452.400000L913.800000,1250.400000L1115.800000,1250.400000L1115.800000,1452.400000ZM915.800000,1450.400000L1113.800000,1450.400000L1113.800000,1252.400000L915.800000,1252.400000L915.800000,1450.400000Z" fill="rgb(255,255,255)" stroke="none" stroke-width="1"/></g><g id="eakjedxwk2gp49"><path id="eakjedxwk2gp50" d="M1185.400000,1315.600000L983.400000,1315.600000L983.400000,1113.600000L1185.400000,1113.600000L1185.400000,1315.600000ZM985.400000,1313.600000L1183.400000,1313.600000L1183.400000,1115.600000L985.400000,1115.600000L985.400000,1313.600000Z" fill="rgb(255,255,255)" stroke="none" stroke-width="1"/></g><g id="eakjedxwk2gp51"><path id="eakjedxwk2gp52" d="M773.400000,1459.900000L571.400000,1459.900000L571.400000,1257.900000L773.400000,1257.900000L773.400000,1459.900000ZM573.400000,1457.900000L771.400000,1457.900000L771.400000,1259.900000L573.400000,1259.900000L573.400000,1457.900000Z" fill="rgb(255,255,255)" stroke="none" stroke-width="1"/></g><g id="eakjedxwk2gp53"><path id="eakjedxwk2gp54" d="M141.300000,1685.600000L-60.700000,1685.600000L-60.700000,1483.600000L141.300000,1483.600000L141.300000,1685.600000ZM-58.700000,1683.600000L139.300000,1683.600000L139.300000,1485.600000L-58.700000,1485.600000L-58.700000,1683.600000Z" fill="rgb(255,255,255)" stroke="none" stroke-width="1"/></g><g id="eakjedxwk2gp55"><path id="eakjedxwk2gp56" d="M349.600000,1941.200000L147.600000,1941.200000L147.600000,1739.200000L349.600000,1739.200000L349.600000,1941.200000ZM149.600000,1939.200000L347.600000,1939.200000L347.600000,1741.200000L149.600000,1741.200000L149.600000,1939.200000Z" fill="rgb(255,255,255)" stroke="none" stroke-width="1"/></g><g id="eakjedxwk2gp57"><path id="eakjedxwk2gp58" d="M133.100000,918.100000L-68.900000,918.100000L-68.900000,716.100000L133.100000,716.100000L133.100000,918.100000ZM-66.900000,916.100000L131.100000,916.100000L131.100000,718.100000L-66.900000,718.100000L-66.900000,916.100000Z" fill="rgb(255,255,255)" stroke="none" stroke-width="1"/></g><g id="eakjedxwk2gp59"><path id="eakjedxwk2gp60" d="M341,-100L139,-100L139,-302L341,-302L341,-100ZM141,-102L339,-102L339,-300L141,-300L141,-102Z" fill="rgb(255,255,255)" stroke="none" stroke-width="1"/></g><g id="eakjedxwk2gp61"><path id="eakjedxwk2gp62" d="M1151.900000,15.300000L949.900000,15.300000L949.900000,-186.700000L1151.900000,-186.700000L1151.900000,15.300000ZM951.900000,13.300000L1149.900000,13.300000L1149.900000,-184.700000L951.900000,-184.700000L951.900000,13.300000Z" fill="rgb(255,255,255)" stroke="none" stroke-width="1"/></g><g id="eakjedxwk2gp63"><path id="eakjedxwk2gp64" d="M873.400000,153.300000L771.400000,153.300000L771.400000,51.300000L873.400000,51.300000L873.400000,153.300000ZM773.400000,151.300000L871.400000,151.300000L871.400000,53.300000L773.400000,53.300000L773.400000,151.300000Z" fill="rgb(255,255,255)" stroke="none" stroke-width="1"/></g><g id="eakjedxwk2gp65"><path id="eakjedxwk2gp66" d="M994.400000,-105.100000L892.400000,-105.100000L892.400000,-207.100000L994.400000,-207.100000L994.400000,-105.100000ZM894.400000,-107.100000L992.400000,-107.100000L992.400000,-205.100000L894.400000,-205.100000L894.400000,-107.100000Z" fill="rgb(255,255,255)" stroke="none" stroke-width="1"/></g><g id="eakjedxwk2gp67"><path id="eakjedxwk2gp68" d="M772.400000,354.300000L670.400000,354.300000L670.400000,252.300000L772.400000,252.300000L772.400000,354.300000ZM672.400000,352.300000L770.400000,352.300000L770.400000,254.300000L672.400000,254.300000L672.400000,352.300000Z" fill="rgb(255,255,255)" stroke="none" stroke-width="1"/></g><g id="eakjedxwk2gp69"><path id="eakjedxwk2gp70" d="M337.300000,360.200000L235.300000,360.200000L235.300000,258.200000L337.300000,258.200000L337.300000,360.200000ZM237.300000,358.200000L335.300000,358.200000L335.300000,260.200000L237.300000,260.200000L237.300000,358.200000Z" fill="rgb(255,255,255)" stroke="none" stroke-width="1"/></g><g id="eakjedxwk2gp71"><path id="eakjedxwk2gp72" d="M1110.400000,65.300000L1008.400000,65.300000L1008.400000,-36.700000L1110.400000,-36.700000L1110.400000,65.300000ZM1010.400000,63.300000L1108.400000,63.300000L1108.400000,-34.700000L1010.400000,-34.700000L1010.400000,63.300000Z" fill="rgb(255,255,255)" stroke="none" stroke-width="1"/></g><g id="eakjedxwk2gp73"><path id="eakjedxwk2gp74" d="M575.400000,153.300000L473.400000,153.300000L473.400000,51.300000L575.400000,51.300000L575.400000,153.300000ZM475.400000,151.300000L573.400000,151.300000L573.400000,53.300000L475.400000,53.300000L475.400000,151.300000Z" fill="rgb(255,255,255)" stroke="none" stroke-width="1"/></g><g id="eakjedxwk2gp75"><path id="eakjedxwk2gp76" d="M94.500000,-4.700000L-7.500000,-4.700000L-7.500000,-106.700000L94.500000,-106.700000L94.500000,-4.700000ZM-5.500000,-6.700000L92.500000,-6.700000L92.500000,-104.700000L-5.500000,-104.700000L-5.500000,-6.700000Z" fill="rgb(255,255,255)" stroke="none" stroke-width="1"/></g><g id="eakjedxwk2gp77"><path id="eakjedxwk2gp78" d="M398.200000,-145.100000L296.200000,-145.100000L296.200000,-247.100000L398.200000,-247.100000L398.200000,-145.100000ZM298.200000,-147.100000L396.200000,-147.100000L396.200000,-245.100000L298.200000,-245.100000L298.200000,-147.100000Z" fill="rgb(255,255,255)" stroke="none" stroke-width="1"/></g><g id="eakjedxwk2gp79"><path id="eakjedxwk2gp80" d="M772.400000,554.300000L670.400000,554.300000L670.400000,452.300000L772.400000,452.300000L772.400000,554.300000ZM672.400000,552.300000L770.400000,552.300000L770.400000,454.300000L672.400000,454.300000L672.400000,552.300000Z" fill="rgb(255,255,255)" stroke="none" stroke-width="1"/></g><g id="eakjedxwk2gp81"><path id="eakjedxwk2gp82" d="M476.400000,932.400000L374.400000,932.400000L374.400000,830.400000L476.400000,830.400000L476.400000,932.400000ZM376.400000,930.400000L474.400000,930.400000L474.400000,832.400000L376.400000,832.400000L376.400000,930.400000Z" fill="rgb(255,255,255)" stroke="none" stroke-width="1"/></g><g id="eakjedxwk2gp83"><path id="eakjedxwk2gp84" d="M860.500000,903.400000L758.500000,903.400000L758.500000,801.400000L860.500000,801.400000L860.500000,903.400000ZM760.500000,901.400000L858.500000,901.400000L858.500000,803.400000L760.500000,803.400000L760.500000,901.400000Z" fill="rgb(255,255,255)" stroke="none" stroke-width="1"/></g><g id="eakjedxwk2gp85"><path id="eakjedxwk2gp86" d="M774.400000,1099.400000L672.400000,1099.400000L672.400000,997.400000L774.400000,997.400000L774.400000,1099.400000ZM674.400000,1097.400000L772.400000,1097.400000L772.400000,999.400000L674.400000,999.400000L674.400000,1097.400000Z" fill="rgb(255,255,255)" stroke="none" stroke-width="1"/></g><g id="eakjedxwk2gp87"><path id="eakjedxwk2gp88" d="M922.200000,1573.300000L820.200000,1573.300000L820.200000,1471.300000L922.200000,1471.300000L922.200000,1573.300000ZM822.200000,1571.300000L920.200000,1571.300000L920.200000,1473.300000L822.200000,1473.300000L822.200000,1571.300000Z" fill="rgb(255,255,255)" stroke="none" stroke-width="1"/></g><g id="eakjedxwk2gp89"><path id="eakjedxwk2gp90" d="M637.100000,1510.900000L535.100000,1510.900000L535.100000,1408.900000L637.100000,1408.900000L637.100000,1510.900000ZM537.100000,1508.900000L635.100000,1508.900000L635.100000,1410.900000L537.100000,1410.900000L537.100000,1508.900000Z" fill="rgb(255,255,255)" stroke="none" stroke-width="1"/></g><g id="eakjedxwk2gp91"><path id="eakjedxwk2gp92" d="M366.200000,1663.600000L264.200000,1663.600000L264.200000,1561.600000L366.200000,1561.600000L366.200000,1663.600000ZM266.200000,1661.600000L364.200000,1661.600000L364.200000,1563.600000L266.200000,1563.600000L266.200000,1661.600000Z" fill="rgb(255,255,255)" stroke="none" stroke-width="1"/></g><g id="eakjedxwk2gp93"><path id="eakjedxwk2gp94" d="M315.200000,1395.900000L213.200000,1395.900000L213.200000,1293.900000L315.200000,1293.900000L315.200000,1395.900000ZM215.200000,1393.900000L313.200000,1393.900000L313.200000,1295.900000L215.200000,1295.900000L215.200000,1393.900000Z" fill="rgb(255,255,255)" stroke="none" stroke-width="1"/></g><g id="eakjedxwk2gp95"><path id="eakjedxwk2gp96" d="M77.400000,1750.800000L-24.600000,1750.800000L-24.600000,1648.800000L77.400000,1648.800000L77.400000,1750.800000ZM-22.600000,1748.800000L75.400000,1748.800000L75.400000,1650.800000L-22.600000,1650.800000L-22.600000,1748.800000Z" fill="rgb(255,255,255)" stroke="none" stroke-width="1"/></g><g id="eakjedxwk2gp97"><path id="eakjedxwk2gp98" d="M-2.600000,1550.600000L-104.600000,1550.600000L-104.600000,1448.600000L-2.600000,1448.600000L-2.600000,1550.600000ZM-102.600000,1548.600000L-4.600000,1548.600000L-4.600000,1450.600000L-102.600000,1450.600000L-102.600000,1548.600000Z" fill="rgb(255,255,255)" stroke="none" stroke-width="1"/></g><g id="eakjedxwk2gp99"><path id="eakjedxwk2gp100" d="M817.700000,1402.400000L715.700000,1402.400000L715.700000,1300.400000L817.700000,1300.400000L817.700000,1402.400000ZM717.700000,1400.400000L815.700000,1400.400000L815.700000,1302.400000L717.700000,1302.400000L717.700000,1400.400000Z" fill="rgb(255,255,255)" stroke="none" stroke-width="1"/></g><g id="eakjedxwk2gp101"><path id="eakjedxwk2gp102" d="M237.900000,1128.100000L135.900000,1128.100000L135.900000,1026.100000L237.900000,1026.100000L237.900000,1128.100000ZM137.900000,1126.100000L235.900000,1126.100000L235.900000,1028.100000L137.900000,1028.100000L137.900000,1126.100000Z" fill="rgb(255,255,255)" stroke="none" stroke-width="1"/></g><g id="eakjedxwk2gp103"><path id="eakjedxwk2gp104" d="M323.300000,684.900000L221.300000,684.900000L221.300000,582.900000L323.300000,582.900000L323.300000,684.900000ZM223.300000,682.900000L321.300000,682.900000L321.300000,584.900000L223.300000,584.900000L223.300000,682.900000Z" fill="rgb(255,255,255)" stroke="none" stroke-width="1"/></g><g id="eakjedxwk2gp105"><path id="eakjedxwk2gp106" d="M110.600000,743.500000L8.600000,743.500000L8.600000,641.500000L110.600000,641.500000L110.600000,743.500000ZM10.600000,741.500000L108.600000,741.500000L108.600000,643.500000L10.600000,643.500000L10.600000,741.500000Z" fill="rgb(255,255,255)" stroke="none" stroke-width="1"/></g><g id="eakjedxwk2gp107"><path id="eakjedxwk2gp108" d="M-32,961.400000L-134,961.400000L-134,859.400000L-32,859.400000L-32,961.400000ZM-132,959.400000L-34,959.400000L-34,861.400000L-132,861.400000L-132,959.400000Z" fill="rgb(255,255,255)" stroke="none" stroke-width="1"/></g><g id="eakjedxwk2gp109"><path id="eakjedxwk2gp110" d="M824.400000,404.300000L522.400000,404.300000L522.400000,102.300000L824.400000,102.300000L824.400000,404.300000ZM524.400000,402.300000L822.400000,402.300000L822.400000,104.300000L524.400000,104.300000L524.400000,402.300000Z" fill="rgb(255,255,255)" stroke="none" stroke-width="1"/></g><g id="eakjedxwk2gp111"><path id="eakjedxwk2gp112" d="M345.500000,964.800000L43.500000,964.800000L43.500000,662.800000L345.500000,662.800000L345.500000,964.800000ZM45.500000,962.800000L343.500000,962.800000L343.500000,664.800000L45.500000,664.800000L45.500000,962.800000Z" fill="rgb(255,255,255)" stroke="none" stroke-width="1"/></g><g id="eakjedxwk2gp113"><path id="eakjedxwk2gp114" d="M1171.200000,1524.300000L869.200000,1524.300000L869.200000,1222.300000L1171.200000,1222.300000L1171.200000,1524.300000ZM871.200000,1522.300000L1169.200000,1522.300000L1169.200000,1224.300000L871.200000,1224.300000L871.200000,1522.300000Z" fill="rgb(255,255,255)" stroke="none" stroke-width="1"/></g><g id="eakjedxwk2gp115"><path id="eakjedxwk2gp116" d="M310.600000,1909.700000L8.600000,1909.700000L8.600000,1607.700000L310.600000,1607.700000L310.600000,1909.700000ZM10.600000,1907.700000L308.600000,1907.700000L308.600000,1609.700000L10.600000,1609.700000L10.600000,1907.700000Z" fill="rgb(255,255,255)" stroke="none" stroke-width="1"/></g><g id="eakjedxwk2gp117"><path id="eakjedxwk2gp118" d="M612,376.700000L550,376.700000L550,314.700000L612,314.700000L612,376.700000ZM552,374.700000L610,374.700000L610,316.700000L552,316.700000L552,374.700000Z" fill="rgb(255,255,255)" stroke="none" stroke-width="1"/></g><g id="eakjedxwk2gp119"><path id="eakjedxwk2gp120" d="M954.400000,532.300000L892.400000,532.300000L892.400000,470.300000L954.400000,470.300000L954.400000,532.300000ZM894.400000,530.300000L952.400000,530.300000L952.400000,472.300000L894.400000,472.300000L894.400000,530.300000Z" fill="rgb(255,255,255)" stroke="none" stroke-width="1"/></g><g id="eakjedxwk2gp121"><path id="eakjedxwk2gp122" d="M754.400000,635.900000L692.400000,635.900000L692.400000,573.900000L754.400000,573.900000L754.400000,635.900000ZM694.400000,633.900000L752.400000,633.900000L752.400000,575.900000L694.400000,575.900000L694.400000,633.900000Z" fill="rgb(255,255,255)" stroke="none" stroke-width="1"/></g><g id="eakjedxwk2gp123"><path id="eakjedxwk2gp124" d="M254.300000,912.400000L192.300000,912.400000L192.300000,850.400000L254.300000,850.400000L254.300000,912.400000ZM194.300000,910.400000L252.300000,910.400000L252.300000,852.400000L194.300000,852.400000L194.300000,910.400000Z" fill="rgb(255,255,255)" stroke="none" stroke-width="1"/></g><g id="eakjedxwk2gp125"><path id="eakjedxwk2gp126" d="M853.400000,1024.600000L791.400000,1024.600000L791.400000,962.600000L853.400000,962.600000L853.400000,1024.600000ZM793.400000,1022.600000L851.400000,1022.600000L851.400000,964.600000L793.400000,964.600000L793.400000,1022.600000Z" fill="rgb(255,255,255)" stroke="none" stroke-width="1"/></g><g id="eakjedxwk2gp127"><path id="eakjedxwk2gp128" d="M1014.800000,1351.400000L952.800000,1351.400000L952.800000,1289.400000L1014.800000,1289.400000L1014.800000,1351.400000ZM954.800000,1349.400000L1012.800000,1349.400000L1012.800000,1291.400000L954.800000,1291.400000L954.800000,1349.400000Z" fill="rgb(255,255,255)" stroke="none" stroke-width="1"/></g><g id="eakjedxwk2gp129"><path id="eakjedxwk2gp130" d="M847.700000,1602.300000L785.700000,1602.300000L785.700000,1540.300000L847.700000,1540.300000L847.700000,1602.300000ZM787.700000,1600.300000L845.700000,1600.300000L845.700000,1542.300000L787.700000,1542.300000L787.700000,1600.300000Z" fill="rgb(255,255,255)" stroke="none" stroke-width="1"/></g><g id="eakjedxwk2gp131"><path id="eakjedxwk2gp132" d="M754.400000,1426.600000L692.400000,1426.600000L692.400000,1364.600000L754.400000,1364.600000L754.400000,1426.600000ZM694.400000,1424.600000L752.400000,1424.600000L752.400000,1366.600000L694.400000,1366.600000L694.400000,1424.600000Z" fill="rgb(255,255,255)" stroke="none" stroke-width="1"/></g><g id="eakjedxwk2gp133"><path id="eakjedxwk2gp134" d="M647.700000,1362.400000L585.700000,1362.400000L585.700000,1300.400000L647.700000,1300.400000L647.700000,1362.400000ZM587.700000,1360.400000L645.700000,1360.400000L645.700000,1302.400000L587.700000,1302.400000L587.700000,1360.400000Z" fill="rgb(255,255,255)" stroke="none" stroke-width="1"/></g><g id="eakjedxwk2gp135"><path id="eakjedxwk2gp136" d="M507.400000,1450.400000L445.400000,1450.400000L445.400000,1388.400000L507.400000,1388.400000L507.400000,1450.400000ZM447.400000,1448.400000L505.400000,1448.400000L505.400000,1390.400000L447.400000,1390.400000L447.400000,1448.400000Z" fill="rgb(255,255,255)" stroke="none" stroke-width="1"/></g><g id="eakjedxwk2gp137"><path id="eakjedxwk2gp138" d="M244.100000,1411.400000L182.100000,1411.400000L182.100000,1349.400000L244.100000,1349.400000L244.100000,1411.400000ZM184.100000,1409.400000L242.100000,1409.400000L242.100000,1351.400000L184.100000,1351.400000L184.100000,1409.400000Z" fill="rgb(255,255,255)" stroke="none" stroke-width="1"/></g><g id="eakjedxwk2gp139"><path id="eakjedxwk2gp140" d="M344.200000,1324.900000L282.200000,1324.900000L282.200000,1262.900000L344.200000,1262.900000L344.200000,1324.900000ZM284.200000,1322.900000L342.200000,1322.900000L342.200000,1264.900000L284.200000,1264.900000L284.200000,1322.900000Z" fill="rgb(255,255,255)" stroke="none" stroke-width="1"/></g><g id="eakjedxwk2gp141"><path id="eakjedxwk2gp142" d="M295.200000,1694.600000L233.200000,1694.600000L233.200000,1632.600000L295.200000,1632.600000L295.200000,1694.600000ZM235.200000,1692.600000L293.200000,1692.600000L293.200000,1634.600000L235.200000,1634.600000L235.200000,1692.600000Z" fill="rgb(255,255,255)" stroke="none" stroke-width="1"/></g><g id="eakjedxwk2gp143"><path id="eakjedxwk2gp144" d="M168.900000,1561.600000L106.900000,1561.600000L106.900000,1499.600000L168.900000,1499.600000L168.900000,1561.600000ZM108.900000,1559.600000L166.900000,1559.600000L166.900000,1501.600000L108.900000,1501.600000L108.900000,1559.600000Z" fill="rgb(255,255,255)" stroke="none" stroke-width="1"/></g><g id="eakjedxwk2gp145"><path id="eakjedxwk2gp146" d="M28.400000,1588.700000L-33.600000,1588.700000L-33.600000,1526.700000L28.400000,1526.700000L28.400000,1588.700000ZM-31.600000,1586.700000L26.400000,1586.700000L26.400000,1528.700000L-31.600000,1528.700000L-31.600000,1586.700000Z" fill="rgb(255,255,255)" stroke="none" stroke-width="1"/></g><g id="eakjedxwk2gp147"><path id="eakjedxwk2gp148" d="M-46.800000,881.400000L-108.800000,881.400000L-108.800000,819.400000L-46.800000,819.400000L-46.800000,881.400000ZM-106.800000,879.400000L-48.800000,879.400000L-48.800000,821.400000L-106.800000,821.400000L-106.800000,879.400000Z" fill="rgb(255,255,255)" stroke="none" stroke-width="1"/></g><g id="eakjedxwk2gp149"><path id="eakjedxwk2gp150" d="M162.100000,814.800000L100.100000,814.800000L100.100000,752.800000L162.100000,752.800000L162.100000,814.800000ZM102.100000,812.800000L160.100000,812.800000L160.100000,754.800000L102.100000,754.800000L102.100000,812.800000Z" fill="rgb(255,255,255)" stroke="none" stroke-width="1"/></g><g id="eakjedxwk2gp151"><path id="eakjedxwk2gp152" d="M254.300000,1104.100000L192.300000,1104.100000L192.300000,1042.100000L254.300000,1042.100000L254.300000,1104.100000ZM194.300000,1102.100000L252.300000,1102.100000L252.300000,1044.100000L194.300000,1044.100000L194.300000,1102.100000Z" fill="rgb(255,255,255)" stroke="none" stroke-width="1"/></g><g id="eakjedxwk2gp153"><path id="eakjedxwk2gp154" d="M348.300000,624.100000L286.300000,624.100000L286.300000,562.100000L348.300000,562.100000L348.300000,624.100000ZM288.300000,622.100000L346.300000,622.100000L346.300000,564.100000L288.300000,564.100000L288.300000,622.100000Z" fill="rgb(255,255,255)" stroke="none" stroke-width="1"/></g><g id="eakjedxwk2gp155"><path id="eakjedxwk2gp156" d="M436.400000,693.800000L374.400000,693.800000L374.400000,631.800000L436.400000,631.800000L436.400000,693.800000ZM376.400000,691.800000L434.400000,691.800000L434.400000,633.800000L376.400000,633.800000L376.400000,691.800000Z" fill="rgb(255,255,255)" stroke="none" stroke-width="1"/></g><g id="eakjedxwk2gp157"><path id="eakjedxwk2gp158" d="M714,937.100000L652,937.100000L652,875.100000L714,875.100000L714,937.100000ZM654,935.100000L712,935.100000L712,877.100000L654,877.100000L654,935.100000Z" fill="rgb(255,255,255)" stroke="none" stroke-width="1"/></g><g id="eakjedxwk2gp159"><path id="eakjedxwk2gp160" d="M985.400000,803.500000L923.400000,803.500000L923.400000,741.500000L985.400000,741.500000L985.400000,803.500000ZM925.400000,801.500000L983.400000,801.500000L983.400000,743.500000L925.400000,743.500000L925.400000,801.500000Z" fill="rgb(255,255,255)" stroke="none" stroke-width="1"/></g><g id="eakjedxwk2gp161"><path id="eakjedxwk2gp162" d="M799.500000,182.300000L737.500000,182.300000L737.500000,120.300000L799.500000,120.300000L799.500000,182.300000ZM739.500000,180.300000L797.500000,180.300000L797.500000,122.300000L739.500000,122.300000L739.500000,180.300000Z" fill="rgb(255,255,255)" stroke="none" stroke-width="1"/></g><g id="eakjedxwk2gp163"><path id="eakjedxwk2gp164" d="M1041.400000,102.200000L979.400000,102.200000L979.400000,40.200000L1041.400000,40.200000L1041.400000,102.200000ZM981.400000,100.200000L1039.400000,100.200000L1039.400000,42.200000L981.400000,42.200000L981.400000,100.200000Z" fill="rgb(255,255,255)" stroke="none" stroke-width="1"/></g><g id="eakjedxwk2gp165"><path id="eakjedxwk2gp166" d="M976.300000,-59.800000L914.300000,-59.800000L914.300000,-121.800000L976.300000,-121.800000L976.300000,-59.800000ZM916.300000,-61.800000L974.300000,-61.800000L974.300000,-119.800000L916.300000,-119.800000L916.300000,-61.800000Z" fill="rgb(255,255,255)" stroke="none" stroke-width="1"/></g><g id="eakjedxwk2gp167"><path id="eakjedxwk2gp168" d="M454.400000,232.300000L392.400000,232.300000L392.400000,170.300000L454.400000,170.300000L454.400000,232.300000ZM394.400000,230.300000L452.400000,230.300000L452.400000,172.300000L394.400000,172.300000L394.400000,230.300000Z" fill="rgb(255,255,255)" stroke="none" stroke-width="1"/></g><g id="eakjedxwk2gp169"><path id="eakjedxwk2gp170" d="M329.200000,347.700000L267.200000,347.700000L267.200000,285.700000L329.200000,285.700000L329.200000,347.700000ZM269.200000,345.700000L327.200000,345.700000L327.200000,287.700000L269.200000,287.700000L269.200000,345.700000Z" fill="rgb(255,255,255)" stroke="none" stroke-width="1"/></g><g id="eakjedxwk2gp171"><path id="eakjedxwk2gp172" d="M360.200000,374.700000L298.200000,374.700000L298.200000,312.700000L360.200000,312.700000L360.200000,374.700000ZM300.200000,372.700000L358.200000,372.700000L358.200000,314.700000L300.200000,314.700000L300.200000,372.700000Z" fill="rgb(255,255,255)" stroke="none" stroke-width="1"/></g><g id="eakjedxwk2gp173"><path id="eakjedxwk2gp174" d="M119.400000,19L57.400000,19L57.400000,-43L119.400000,-43L119.400000,19ZM59.400000,17L117.400000,17L117.400000,-41L59.400000,-41L59.400000,17Z" fill="rgb(255,255,255)" stroke="none" stroke-width="1"/></g><g id="eakjedxwk2gp175"><path id="eakjedxwk2gp176" d="M252.300000,-73.700000L190.300000,-73.700000L190.300000,-135.700000L252.300000,-135.700000L252.300000,-73.700000ZM192.300000,-75.700000L250.300000,-75.700000L250.300000,-133.700000L192.300000,-133.700000L192.300000,-75.700000Z" fill="rgb(255,255,255)" stroke="none" stroke-width="1"/></g><g id="eakjedxwk2gp177"><path id="eakjedxwk2gp178" d="M432.300000,-116.100000L370.300000,-116.100000L370.300000,-178.100000L432.300000,-178.100000L432.300000,-116.100000ZM372.300000,-118.100000L430.300000,-118.100000L430.300000,-176.100000L372.300000,-176.100000L372.300000,-118.100000Z" fill="rgb(255,255,255)" stroke="none" stroke-width="1"/></g></g></g></svg>