<svg xmlns="http://www.w3.org/2000/svg" viewBox="0 0 550 510"><defs><style>.cls-1,.cls-3{opacity:0.2;}.cls-2,.cls-3,.cls-4{fill:#ff7c86;}.cls-4{opacity:0.3;}.cls-5,.cls-6{fill:none;stroke:#ff7c86;}.cls-5{stroke-miterlimit:10;stroke-width:2px;}.cls-6{stroke-linecap:round;stroke-linejoin:round;}.cls-7{fill:#ad2a34;}</style></defs><title>Creative</title><g id="Layer_4" data-name="Layer 4"><g id="Creative"><g id="Layer_4-2" data-name="Layer 4" class="cls-1"><polygon class="cls-2" points="275 2 548 195.3 443.73 508 106.27 508 2 195.3 275 2"/></g><polygon class="cls-3" points="288.24 236.62 270.23 222.03 316.2 231.01 288.24 236.62"/><path class="cls-2" d="M288.09,237.23l-20-16.2,51,10ZM272.36,223l16,13,24.88-5Z"/><polygon class="cls-3" points="402.41 66.4 413.89 73.39 386.79 71.8 402.41 66.4"/><path class="cls-2" d="M416.13,74.09,383.89,72.2l18.59-6.42ZM389.68,71.4l22,1.29L402.34,67Z"/><polygon class="cls-3" points="344.48 180.58 316.22 161.41 340.94 163.16 344.48 180.58"/><path class="cls-2" d="M345.32,181.83,314.15,160.7l27.26,1.93Zm-27-19.7,25.36,17.19-3.18-15.62Z"/><path class="cls-2" d="M352.65,164.81l-11-3.16L337.76,143Zm-10-4.06,7.3,2.1-9.89-14.52Z"/><path class="cls-2" d="M366.12,109.23l4.54-11.79,33.53-8.59Zm5.39-10.83-3.23,8.39,27.09-14.5Z"/><path class="cls-2" d="M425.7,174l-4.11-7.87,9.88-21.81,1.07.36Zm-2.85-7.9,2.44,4.66,4.83-20.72Z"/><path class="cls-2" d="M331.94,211.89l3.72-7.46,21.67-4.4.33,1.08Zm4.49-6.45-2.1,4.22,17.57-7.36Z"/><polygon class="cls-3" points="455.69 121.77 442.12 96.61 449.08 119.24 455.69 121.77"/><path class="cls-2" d="M456.92,122.84l-8.3-3.17-7-22.89,1-.44Zm-7.37-4,4.91,1.88L444.36,102Z"/><path class="cls-2" d="M415.72,118.42l-.75-.84,27.9-28.95-1.22,9.61Zm25.59-26.54-20,20.76,19.28-15Z"/><path class="cls-2" d="M382.7,180.34l-18.1-17,51.53,4.78Zm-14.9-15.51L383,179l28-10.2Z"/><polygon class="cls-3" points="358.93 200.81 381.22 184.82 356.59 234.47 358.93 200.81"/><path class="cls-2" d="M355.83,237.3l2.55-36.79L382.74,183Zm3.65-36.18-2.12,30.53,22.33-45Z"/><polygon class="cls-3" points="275.3 196.98 291.32 183.28 286.24 197.71 275.3 196.98"/><path class="cls-2" d="M286.63,198.31l-12.76-.86,18.69-16Zm-9.9-1.81,9.12.62,4.23-12Z"/><path class="cls-2" d="M282.14,259.44,317.2,229.2l-2,13.39Zm33.49-27.39L290,254.16l24.18-12.31Z"/><path class="cls-2" d="M268.63,313.65l-19.88-10.78,6.87-1.49,13.64,11.33ZM252,303.33l12.11,6.56-8.78-7.29Z"/><path class="cls-2" d="M259,209.38l-.94-.63,12.61-23.67,1.78,7.87Zm11.24-21.07-8.46,15.88,9.43-11.54Z"/><path class="cls-2" d="M430.93,191.06l-.76-.83,17.87-20-.15,8.07Zm15.91-17.8-12,13.42,11.91-9Z"/><polygon class="cls-3" points="304.16 274.38 307.85 302.72 309.43 279.09 304.16 274.38"/><path class="cls-2" d="M307.28,302.79l-3.88-29.86,6.62,5.93-1.61,23.9Zm-2.36-27,2.75,21.1,1.18-17.59Z"/><path class="cls-2" d="M272.61,295.89l-.6-1,32.54-23.62-2.88,9.25Zm29.84-21.65-23.33,16.93,21.61-11.39Z"/><path class="cls-2" d="M249.4,244.53l-19.22-11.42,1-15.55Zm-18-12L245.63,241l-13.49-20Z"/><polygon class="cls-3" points="258.12 175.07 257.91 159.99 272.57 186.7 258.12 175.07"/><path class="cls-2" d="M274.45,188.94l-16.9-13.6-.24-17.63Zm-15.77-14.15,12,9.66-12.18-22.19Z"/><polygon class="cls-3" points="391.82 199.68 397.05 185.54 401.12 215.73 391.82 199.68"/><path class="cls-2" d="M402.07,218.5,391.2,199.74l6.11-16.54Zm-9.62-18.87L400.18,213l-3.38-25.09Z"/><polygon class="cls-3" points="234.59 121.72 245.44 112.44 242 122.22 234.59 121.72"/><path class="cls-2" d="M242.4,122.82l-9.24-.62,13.52-11.57ZM236,121.25l5.6.37,2.6-7.37Z"/><path class="cls-2" d="M238,128.64l4.21-6.92,13.52.83Zm4.83-5.75-2.23,3.65,9.35-3.21Z"/><path class="cls-2" d="M253.15,136.68l22.92-19.77-1.3,8.76Zm21.35-16.91L261,131.4l12.72-6.48Z"/><path class="cls-2" d="M240.34,174.9,223.93,166l5.91-1.29L241,174Zm-13.18-8.44,8.65,4.68-6.27-5.2Z"/><path class="cls-2" d="M245.39,105,243,86.45l4.51,4-1,14.44Zm-.89-15.63,1.27,9.75.55-8.13Z"/><polygon class="cls-2" points="299.12 159.87 301.33 176.87 302.28 162.7 299.12 159.87"/><path class="cls-2" d="M300.76,176.94l-2.4-18.51,4.5,4-1,14.45Zm-.88-15.62,1.26,9.75.55-8.13Z"/><polygon class="cls-3" points="179.76 172.62 181.97 189.62 182.92 175.45 179.76 172.62"/><path class="cls-2" d="M181.4,189.7,179,171.18l4.5,4-1,14.44Zm-.88-15.63,1.27,9.75.54-8.13Z"/><polygon class="cls-3" points="388.99 124.52 375.99 140.6 383.94 99.59 388.99 124.52"/><path class="cls-2" d="M375,142.74l8.93-46.08,5.67,28ZM384,102.51l-7,36,11.4-14.1Z"/><path class="cls-2" d="M335.44,129.28l4.39-7.68L364,119.2Zm5.08-6.61-2.58,4.52,16.79-5.93Z"/><path class="cls-2" d="M336.45,69.67l-4.08-4.47,2.41-14.27,1.12.07Zm-2.87-4.83,1.65,1.8-.29-9.83Z"/><polygon class="cls-3" points="310.4 104.88 294.67 98.06 306.35 106.14 310.4 104.88"/><path class="cls-2" d="M306.25,106.77l-11.9-8.25.55-1L312,105Zm-6.51-5.89,6.7,4.64,2.33-.72Z"/><polygon class="cls-3" points="191.65 106.82 174.8 109.93 189 110.12 191.65 106.82"/><path class="cls-2" d="M189.26,110.7l-14.47-.2-.1-1.12,18.36-3.4Zm-8.68-1.26,8.15.11,1.52-1.9Z"/><path class="cls-2" d="M452.08,125.89l5.12-4.16,19.69,2,0,1.13Zm5.47-3-2.09,1.7,13.4-.55Z"/><path class="cls-2" d="M419.47,146l-13.82-8.22.75-11.18Zm-12.64-8.84,8.87,5.27L407.31,130Z"/><polygon class="cls-4" points="208.36 498.81 204.74 498.8 110.41 498.61 94.46 482.27 208.36 498.81"/><path class="cls-2" d="M208.36,499.81l-98.37-.2L91.68,480.86l116.82,17Zm-97.52-2.2,83.47.17L97.24,483.69Z"/><path class="cls-5" d="M209.6,498.26l8.36-2.87,8.59-4.23,8.79-5.59,10.83-6.68,11.28-6.59,11.64-8.88,9.33-6,8.93-6.51,9.4-6.43,4.21-3.06L506.43,198.28l2.95-8.84.8-7-2-5.27-2.36-4.72L472.7,144.55,468.15,142l-3.8-1.53-5.15-.81-5.13,1.05-5.13,1-3.55,2.85-3.89,5L238,395.2l-1.44,3.19-2.7,7.33-4.69,12L223.92,433l-5.64,18.05-3.74,10-2.23,10.2L210,479.86l-2.34,8.94-.82,5.15,0,1.7-.08,1.47.3,1.05a3.83,3.83,0,0,0,.56.4,2.1,2.1,0,0,0,.86,0Z"/><polygon class="cls-5" points="424.66 177.62 428.55 184.44 433.95 191.5 441.83 198.64 448.63 204.68 455.58 209.81 461.67 214.5 468.81 218.42 474.48 221.79 479.09 224.07 483.19 225.65 457.9 256.11 451.94 254.55 446.63 252.78 438.23 248.97 431.35 245.4 425.61 240.46 420.24 237.13 414.6 231.59 409.1 225.13 405.52 220.23 401.59 213.71 399.13 209.6 397.68 205.02 397.27 203.72 421.41 174.63 424.66 177.62"/><polygon class="cls-3" points="215.82 457.81 217.34 461 219.31 464.26 221.67 466.96 224.9 470.11 228.66 472.87 232.07 474.81 235.54 476.44 239.11 478.4 241.96 479.01 244.19 479.67 239.37 482.63 235.34 485.57 231.93 487.51 228.43 490.06 225.57 491.47 222.16 493.42 217.96 495.39 214.25 497.29 210.33 498.53 207.61 498.57 206.75 497.12 207.16 493.07 207.68 488.81 208.94 483.73 210.34 478.83 211.87 473.02 212.77 469.28 213.75 465.09 214.44 461.63 215.82 457.81"/><polygon class="cls-5" points="247.54 407.27 248.73 411.49 251.56 417.21 254.78 422.37 259.4 426.52 265.93 430.34 271.64 431.55 277.25 433.37 281.23 433.69 283.4 433.72 286.7 430.51 441.37 250.71 439.09 249.42 434.74 247.49 431.35 245.4 426.63 241.87 423.03 239.12 420.24 237.13 416.68 234.09 412.71 229.74 410.27 227.49 409.1 225.13 405.52 220.23 404.3 218.17 247.54 407.27"/><polygon class="cls-4" points="296.32 443.51 293.93 443.95 292.24 443.57 290.16 442.77 287.99 441.04 286.02 438.75 284.68 436.91 283.81 435.02 283.4 433.72 441.37 250.71 443.24 251.39 445.75 252.48 448.76 253.31 451.38 254.42 453.93 255.17 455.94 255.72 457.53 255.97 300.95 441.45 298.59 443.17 297.15 443.41 296.32 443.51"/><polygon class="cls-4" points="245.4 407.08 243.41 406.42 241.54 406.07 238.83 404.82 237.59 403.06 236.65 401.63 236.53 400.21 236.53 398.39 237.69 395.8 237.96 395.2 397.29 203.1 397.55 205.39 398.04 206.71 398.95 208.79 399.9 211.12 401.59 213.71 402.55 215.96 403.47 217.03 404.3 218.17 248.09 406.73 247.54 407.27 246.69 407.21 245.4 407.08"/><polygon class="cls-4" points="421.41 174.63 423.74 176.55 426.09 180.33 429.42 185.82 433.04 190.43 436.37 193.9 441.06 197.59 444.54 201.09 448.63 204.68 453.63 208.42 458.22 211.78 462.58 214.64 467.09 217.52 471.5 220.08 476.05 222.66 480.83 224.81 483.19 225.65 506.43 198.28 507.27 195.93 508.62 191.33 509.29 188.03 510.32 184.47 510.12 181.79 509.42 179.36 508.22 177.15 506.93 174.47 505.27 172.19 472.7 144.55 468.72 142.23 466.32 141.22 463.9 140.37 460.41 139.58 458.74 139.84 455.59 140.28 453.11 140.88 450.41 141.38 448.7 141.93 446.31 143.76 445.35 144.31 421.01 174.33 421.41 174.63"/><polygon class="cls-6" points="207.58 499.01 212.77 469.28 244.19 479.67 225.37 429.6 265.93 430.34 269.09 463.43 283.4 433.72 306.44 435.01 281.43 342.36 371.81 357.81 347.46 263 435.52 283.05 425.61 240.46 430.23 163.16 506.43 198.28 505.27 172.19 461.9 177.69 458.74 139.84 486.1 174.72 488.47 190.17 505.27 172.19 496.85 164.91 489.21 158.29 486.1 174.72 460.35 163.96 470.83 156.52 472.7 144.55 489.21 158.29 470.83 156.52 461.9 177.69 445.35 144.31 459.83 150.94 452.67 160 460.35 163.96 451.69 173.08 437.14 154.11 452.67 160 430.23 163.16 453.63 208.42 461.9 177.69 483.19 225.65 488.47 190.17 499.42 206.78 474.56 206.02 488.47 190.17 458.19 191.63 451.69 173.08 429.42 185.82 421.41 174.63 438.93 180.11 437.14 154.11 459.83 150.94 472.7 144.55 466.32 141.22 459.83 150.94 458.74 139.84 445.35 144.31 437.14 154.11 430.23 163.16 421.41 174.63 404.3 218.17 427.12 217.26 397.29 203.1 412.98 195.94 429.42 185.82 457.53 255.97 453.63 208.42 427.12 217.26 447.75 231.41 453.63 208.42 473.09 238.17 474.56 206.02 453.63 208.42 467.98 191.74 499.42 206.78 491.28 216.38 485.86 206.32 491.28 216.38 483.19 225.65 473.69 221.85 453.63 208.42 474.56 206.02 461.63 221.08 473.69 221.85 468.25 230.09 457.53 255.97 473.09 238.17 447.75 231.41 461.63 221.08 458.19 191.63 486.1 174.72 506.43 198.28 510.1 185.54 488.47 190.17 505.27 172.19 510.1 185.54 505.27 172.19 496.85 164.91 486.1 174.72 496.85 164.91 466.73 166.71 470.83 156.52 472.7 144.55 480.39 157.39 482.45 152.29 489.21 158.29 479.72 165.69 461.9 177.69 438.93 180.11 458.19 191.63 429.92 186.74 408.73 208.65 453.63 208.42 429.42 185.82 411.05 185.24 412.98 195.94 427.12 217.26 438.93 180.11 458.19 191.63 427.12 217.26 441.37 250.71 447.75 231.41 425.61 240.46 412.71 229.74 427.12 217.26 404.3 218.17 426.03 227.51 412.71 229.74 425.61 240.46 433.29 246.03 435.42 236.67 426.03 227.51 447.75 231.41 427.12 217.26 461.63 221.08 447.75 231.41 435.42 236.67 473.09 238.17 441.37 250.71 457.53 255.97 430.67 262.18 379 223.88 390.99 273.04 430.67 262.18 416.8 279.03 357.92 305.21 404.38 319.4 390.99 273.04 412.71 229.74 379 223.88 404.3 218.17 389.49 211.86 408.73 208.65 412.71 229.74 418.98 253.37 425.61 240.46 405.62 243.75 404.3 218.17 392.03 233.2 390.99 273.04 363.84 242.97 405.62 243.75 416.8 279.03 445.44 270.93 430.67 262.18 441.37 250.71 418.98 253.37 433.29 246.03 441.37 250.71 445.44 270.93 435.52 283.05 419.06 302.45 416.8 279.03 404.38 319.4 398.82 299.5 419.06 302.45 427.03 280.88 416.8 279.03 428.42 292.11 427.03 280.88 412.93 266.78 433.54 274.23 430.77 261.55 418.98 253.37 412.93 266.78 391.5 243.37 396.43 263.3 412.93 266.78 418.98 253.37 400.73 253.35 418.98 253.37 423.62 270.68 412.93 266.78 395.74 288.34 419.06 302.45 405.79 276.46 396.43 263.3 418.98 253.37 405.62 243.75 412.71 229.74 392.03 233.2 389.49 211.86 379 223.88 373.75 243.14 374.76 255.89 384.04 243.48 392.91 233.35 391.6 244.44 374.76 255.89 396.43 263.3 400.73 253.35 385.04 248.8 381.38 263.15 357.92 305.21 315.62 300.63 371.81 357.81 386.37 314.35 398.82 299.5 357.92 305.21 333.59 279.85 377.84 270.31 374.76 255.89 364.65 266.57 363.84 242.97 347.46 263 374.76 255.89 364.65 266.57 357.92 305.21 334.58 404.93 237.69 395.8 287.7 361.17 346.06 353.32 315.62 300.63 313.17 358.65 334.58 404.93 347.35 388.29 356.03 376.99 346.06 353.32 390.54 337 386.37 314.35 377.84 270.31 395.74 288.34 333.59 279.85 331.54 328.83 357.92 305.21 390.54 337 331.54 328.83 313.17 358.65 297.27 324.68 331.54 328.83 325.29 385.74 346.06 353.32 293.16 385.02 313.17 358.65 281.43 342.36 314.97 328.49 346.06 353.32 364.42 367.38 325.29 385.74 319.91 420.56 310.19 403.14 293.16 385.02 325.29 385.74 310.19 403.14 318.66 370.46 287.7 361.17 261.07 366.24 270.15 398.98 265.93 430.34 293.16 385.02 298.11 402.12 265.93 430.34 237.69 395.8 252.04 378.64 264.52 377.39 293.16 385.02 270.15 398.98 247.54 407.27 298.11 402.12 319.91 420.56 265.93 430.34 283.4 433.72 310.19 403.14 306.44 435.01 297.56 444.77 283.4 433.72 281.87 403.52 264.52 377.39 318.66 370.46 313.17 358.65 356.03 376.99 347.35 388.29 341.19 378.96 347.35 388.29 325.29 385.74 298.11 402.12 283.4 433.72 285.15 454.29 265.93 430.34 212.77 469.28 217.43 453.74 234.46 453.31 237.69 395.8 250.33 430.11 269.41 405.53 235.83 418.65 231.58 412.55 235.82 430.94 220.08 444.86 234.46 453.31 269.09 463.43 250.33 430.11 234.75 454.3 285.15 454.29 255.18 438.44 244.19 479.67 259.35 461.34 212.77 469.28 217.43 453.74 233.81 487.19 208.79 483.98 217.98 495.78 206.05 495.31 222.97 485.86 224.24 467.26 234.46 453.31 233.81 487.19 244.19 479.67 257.45 472.3 259.35 461.34 235.82 430.94 234.46 453.31 257.45 472.3 224.24 467.26 234.46 453.31 250.33 430.11 235.83 418.65 247.54 407.27 252.04 378.64 270.15 398.98 269.41 405.53 283.4 433.72 285.15 454.29 306.44 435.01 289.78 425.77 281.87 403.52 286.71 361.71 273.09 353.23 264.52 377.39 286.71 361.71 301.67 334.28 290.98 330.45 297.27 324.68 332.08 317.27 307.29 311.74 314.97 328.49 315.62 300.63 344.6 291.7 347.46 263 333.59 279.85 325.43 288.95 333.01 302.94 332.08 317.27 357.92 305.21 344.6 291.7 351.79 332.03 333.01 302.94 351.79 332.03 329.01 350.43 346.06 353.32 365.76 333.54 386.37 314.35 351.79 332.03 348.81 313.91 386.37 314.35 413.34 310.01 397.49 327.38 386.37 314.35 368.87 284.33 391.49 273.02 409.18 282.85 403.98 293.84 398.47 300.2 402.21 312.34 384.37 301.89 379.39 302.72 344.6 291.7 368.87 284.33 347.46 263 373.75 243.14 371.62 233.7 392.03 233.2 374.76 255.89 364.65 266.57 344.6 291.7 333.01 302.94 314.97 328.49 286.71 361.71 247.54 407.27 235.83 418.65 234.75 454.3 233.81 487.19 208.79 483.98 207.58 499.01"/><path class="cls-2" d="M249.73,407.19a2.38,2.38,0,1,1-2.47-2.28A2.37,2.37,0,0,1,249.73,407.19Z"/><path class="cls-2" d="M272,398.4a2.38,2.38,0,1,1-2.47-2.28A2.39,2.39,0,0,1,272,398.4Z"/><path class="cls-2" d="M295.47,384.68A2.38,2.38,0,1,1,293,382.4,2.38,2.38,0,0,1,295.47,384.68Z"/><path class="cls-2" d="M299.92,401.8a2.38,2.38,0,1,1-2.48-2.28A2.38,2.38,0,0,1,299.92,401.8Z"/><path class="cls-2" d="M327.1,385.67a2.38,2.38,0,1,1-2.47-2.28A2.37,2.37,0,0,1,327.1,385.67Z"/><path class="cls-2" d="M348,353.24a2.38,2.38,0,1,1-2.47-2.28A2.38,2.38,0,0,1,348,353.24Z"/><path class="cls-2" d="M353.87,330.82a2.38,2.38,0,1,1-2.47-2.28A2.38,2.38,0,0,1,353.87,330.82Z"/><path class="cls-2" d="M360,305.37a2.38,2.38,0,1,1-2.47-2.28A2.37,2.37,0,0,1,360,305.37Z"/><path class="cls-2" d="M347.41,291.58a2.38,2.38,0,1,1-2.47-2.28A2.37,2.37,0,0,1,347.41,291.58Z"/><path class="cls-2" d="M350,262.9a2.38,2.38,0,1,1-2.47-2.29A2.39,2.39,0,0,1,350,262.9Z"/><path class="cls-2" d="M394,272a2.38,2.38,0,1,1-2.47-2.28A2.38,2.38,0,0,1,394,272Z"/><path class="cls-2" d="M379.26,269.63a2.38,2.38,0,1,1-2.47-2.29A2.39,2.39,0,0,1,379.26,269.63Z"/><path class="cls-2" d="M376.84,256.18a2.38,2.38,0,1,1-2.47-2.28A2.37,2.37,0,0,1,376.84,256.18Z"/><path class="cls-2" d="M416,266.28a2.38,2.38,0,1,1-2.47-2.28A2.38,2.38,0,0,1,416,266.28Z"/><path class="cls-2" d="M420.37,253.69a2.38,2.38,0,1,1-2.47-2.28A2.38,2.38,0,0,1,420.37,253.69Z"/><path class="cls-2" d="M418,279a2.38,2.38,0,1,1-2.47-2.29A2.37,2.37,0,0,1,418,279Z"/><path class="cls-2" d="M420.4,301.46a2.38,2.38,0,1,1-2.47-2.29A2.39,2.39,0,0,1,420.4,301.46Z"/><path class="cls-2" d="M388.55,314a2.38,2.38,0,1,1-2.47-2.28A2.37,2.37,0,0,1,388.55,314Z"/><path class="cls-2" d="M392.05,335.69a2.38,2.38,0,1,1-2.47-2.29A2.39,2.39,0,0,1,392.05,335.69Z"/><path class="cls-2" d="M373.7,356.35a2.38,2.38,0,1,1-2.47-2.28A2.38,2.38,0,0,1,373.7,356.35Z"/><path class="cls-2" d="M336.1,403.74a2.38,2.38,0,1,1-2.47-2.28A2.38,2.38,0,0,1,336.1,403.74Z"/><path class="cls-2" d="M322.08,420.1a2.38,2.38,0,1,1-2.47-2.29A2.37,2.37,0,0,1,322.08,420.1Z"/><path class="cls-2" d="M312,402.45a2.38,2.38,0,1,1-2.47-2.28A2.38,2.38,0,0,1,312,402.45Z"/><path class="cls-2" d="M315.09,357.94a2.38,2.38,0,1,1-2.47-2.28A2.38,2.38,0,0,1,315.09,357.94Z"/><path class="cls-2" d="M317.64,327.75a2.38,2.38,0,1,1-2.47-2.28A2.38,2.38,0,0,1,317.64,327.75Z"/><path class="cls-2" d="M318.47,301.39a2.38,2.38,0,1,1-2.47-2.28A2.38,2.38,0,0,1,318.47,301.39Z"/><path class="cls-2" d="M283.65,343a2.38,2.38,0,1,1-2.47-2.29A2.39,2.39,0,0,1,283.65,343Z"/><path class="cls-2" d="M267.7,376.76a2.38,2.38,0,1,1-2.47-2.28A2.38,2.38,0,0,1,267.7,376.76Z"/><path class="cls-2" d="M268.34,430.39a2.38,2.38,0,1,1-2.47-2.28A2.38,2.38,0,0,1,268.34,430.39Z"/><path class="cls-2" d="M237.15,453.2a2.38,2.38,0,1,1-2.47-2.28A2.37,2.37,0,0,1,237.15,453.2Z"/><path class="cls-2" d="M226.19,467.43a2.38,2.38,0,1,1-2.47-2.28A2.38,2.38,0,0,1,226.19,467.43Z"/><path class="cls-2" d="M215.5,469.86a2.38,2.38,0,1,1-2.47-2.28A2.36,2.36,0,0,1,215.5,469.86Z"/><path class="cls-2" d="M235.47,486.37a2.38,2.38,0,1,1-2.47-2.28A2.39,2.39,0,0,1,235.47,486.37Z"/><path class="cls-2" d="M210.82,484.34a2.38,2.38,0,1,1-2.47-2.28A2.38,2.38,0,0,1,210.82,484.34Z"/><path class="cls-2" d="M209.25,495.44a2.38,2.38,0,1,1-2.47-2.28A2.37,2.37,0,0,1,209.25,495.44Z"/><path class="cls-2" d="M220,495.51a2.38,2.38,0,1,1-2.47-2.28A2.38,2.38,0,0,1,220,495.51Z"/><path class="cls-2" d="M246.74,479.65a2.38,2.38,0,1,1-2.48-2.28A2.38,2.38,0,0,1,246.74,479.65Z"/><path class="cls-2" d="M261.78,460.74a2.38,2.38,0,1,1-2.47-2.28A2.37,2.37,0,0,1,261.78,460.74Z"/><path class="cls-2" d="M271.67,463.61a2.38,2.38,0,1,1-2.47-2.28A2.38,2.38,0,0,1,271.67,463.61Z"/><path class="cls-2" d="M287.56,453.44a2.38,2.38,0,1,1-2.47-2.28A2.39,2.39,0,0,1,287.56,453.44Z"/><path class="cls-2" d="M257.62,438.34a2.38,2.38,0,1,1-2.47-2.28A2.38,2.38,0,0,1,257.62,438.34Z"/><path class="cls-2" d="M251.75,429.55a2.38,2.38,0,1,1-2.47-2.28A2.37,2.37,0,0,1,251.75,429.55Z"/><path class="cls-2" d="M238,418.82a2.38,2.38,0,1,1-2.47-2.29A2.39,2.39,0,0,1,238,418.82Z"/><path class="cls-2" d="M239.9,396.43a2.38,2.38,0,1,1-2.47-2.29A2.39,2.39,0,0,1,239.9,396.43Z"/><path class="cls-2" d="M227.48,430.77a2.38,2.38,0,1,1-2.47-2.28A2.38,2.38,0,0,1,227.48,430.77Z"/><path class="cls-2" d="M285.75,433.08a2.38,2.38,0,1,1-2.48-2.28A2.38,2.38,0,0,1,285.75,433.08Z"/><path class="cls-2" d="M292.47,425.67a2.38,2.38,0,1,1-2.47-2.28A2.38,2.38,0,0,1,292.47,425.67Z"/><path class="cls-2" d="M308.26,434.82a2.38,2.38,0,1,1-2.48-2.29A2.39,2.39,0,0,1,308.26,434.82Z"/><path class="cls-2" d="M283.57,403.71a2.38,2.38,0,1,1-2.47-2.28A2.38,2.38,0,0,1,283.57,403.71Z"/><path class="cls-2" d="M271.36,405.7a2.38,2.38,0,1,1-2.47-2.28A2.38,2.38,0,0,1,271.36,405.7Z"/><path class="cls-2" d="M288.42,361.89a2.38,2.38,0,1,1-2.47-2.28A2.38,2.38,0,0,1,288.42,361.89Z"/><path class="cls-2" d="M263,365.67a2.38,2.38,0,1,1-2.47-2.29A2.39,2.39,0,0,1,263,365.67Z"/><path class="cls-2" d="M319.84,370.16a2.38,2.38,0,1,1-2.47-2.28A2.37,2.37,0,0,1,319.84,370.16Z"/><path class="cls-2" d="M358,376.66a2.38,2.38,0,1,1-2.47-2.28A2.39,2.39,0,0,1,358,376.66Z"/><path class="cls-2" d="M334.24,329a2.38,2.38,0,1,1-2.47-2.28A2.38,2.38,0,0,1,334.24,329Z"/><path class="cls-2" d="M299.45,324.34a2.38,2.38,0,1,1-2.47-2.28A2.37,2.37,0,0,1,299.45,324.34Z"/><path class="cls-2" d="M335.7,302.83a2.38,2.38,0,1,1-2.47-2.28A2.37,2.37,0,0,1,335.7,302.83Z"/><path class="cls-2" d="M333.52,317.21a2.38,2.38,0,1,1-2.47-2.28A2.37,2.37,0,0,1,333.52,317.21Z"/><path class="cls-2" d="M406.83,319.55a2.38,2.38,0,1,1-2.47-2.28A2.38,2.38,0,0,1,406.83,319.55Z"/><path class="cls-2" d="M397.68,288.26a2.38,2.38,0,1,1-2.47-2.28A2.38,2.38,0,0,1,397.68,288.26Z"/><path class="cls-2" d="M400.76,299.42a2.38,2.38,0,1,1-2.47-2.28A2.38,2.38,0,0,1,400.76,299.42Z"/><path class="cls-2" d="M371.38,284.23a2.38,2.38,0,1,1-2.47-2.28A2.37,2.37,0,0,1,371.38,284.23Z"/><path class="cls-2" d="M360.62,273.76a2.38,2.38,0,1,1-2.47-2.29A2.39,2.39,0,0,1,360.62,273.76Z"/><path class="cls-2" d="M335.29,279.85a2.38,2.38,0,1,1-2.48-2.29A2.39,2.39,0,0,1,335.29,279.85Z"/><path class="cls-2" d="M366,242.89a2.38,2.38,0,1,1-2.47-2.28A2.38,2.38,0,0,1,366,242.89Z"/><path class="cls-2" d="M375.74,242.69a2.38,2.38,0,1,1-2.47-2.28A2.38,2.38,0,0,1,375.74,242.69Z"/><path class="cls-2" d="M381.21,224.23a2.38,2.38,0,1,1-2.48-2.28A2.38,2.38,0,0,1,381.21,224.23Z"/><path class="cls-2" d="M406.54,218.33a2.38,2.38,0,1,1-2.47-2.29A2.37,2.37,0,0,1,406.54,218.33Z"/><path class="cls-2" d="M408,244a2.38,2.38,0,1,1-2.47-2.28A2.37,2.37,0,0,1,408,244Z"/><path class="cls-2" d="M393.84,244a2.38,2.38,0,1,1-2.47-2.28A2.37,2.37,0,0,1,393.84,244Z"/><path class="cls-2" d="M394.36,233.48a2.38,2.38,0,1,1-2.47-2.28A2.38,2.38,0,0,1,394.36,233.48Z"/><path class="cls-2" d="M387.48,249.55a2.38,2.38,0,1,1-2.47-2.28A2.38,2.38,0,0,1,387.48,249.55Z"/><path class="cls-2" d="M403,253.07a2.38,2.38,0,1,1-2.47-2.28A2.37,2.37,0,0,1,403,253.07Z"/><path class="cls-2" d="M432.74,262a2.38,2.38,0,1,1-2.48-2.28A2.37,2.37,0,0,1,432.74,262Z"/><path class="cls-2" d="M459.68,255.51a2.38,2.38,0,1,1-2.47-2.29A2.39,2.39,0,0,1,459.68,255.51Z"/><path class="cls-2" d="M443.18,250.4a2.38,2.38,0,1,1-2.47-2.28A2.38,2.38,0,0,1,443.18,250.4Z"/><path class="cls-2" d="M427.63,240.86a2.38,2.38,0,1,1-2.47-2.28A2.39,2.39,0,0,1,427.63,240.86Z"/><path class="cls-2" d="M415.14,229.58a2.38,2.38,0,1,1-2.47-2.28A2.37,2.37,0,0,1,415.14,229.58Z"/><path class="cls-2" d="M429.1,280.92a2.38,2.38,0,1,1-2.47-2.28A2.36,2.36,0,0,1,429.1,280.92Z"/><path class="cls-2" d="M407.47,275.9a2.38,2.38,0,1,1-2.48-2.29A2.39,2.39,0,0,1,407.47,275.9Z"/><path class="cls-2" d="M411.26,282.89a2.38,2.38,0,1,1-2.48-2.28A2.38,2.38,0,0,1,411.26,282.89Z"/><path class="cls-2" d="M398.67,262.83a2.38,2.38,0,1,1-2.47-2.28A2.37,2.37,0,0,1,398.67,262.83Z"/><path class="cls-2" d="M385.7,301.43a2.38,2.38,0,1,1-2.47-2.28A2.38,2.38,0,0,1,385.7,301.43Z"/><path class="cls-2" d="M350.44,314a2.38,2.38,0,1,1-2.47-2.28A2.38,2.38,0,0,1,350.44,314Z"/><path class="cls-2" d="M474.79,238.35a2.38,2.38,0,1,1-2.47-2.28A2.37,2.37,0,0,1,474.79,238.35Z"/><path class="cls-2" d="M476.53,206.44a2.38,2.38,0,1,1-2.47-2.28A2.38,2.38,0,0,1,476.53,206.44Z"/><path class="cls-2" d="M490.43,190.34a2.38,2.38,0,1,1-2.48-2.28A2.38,2.38,0,0,1,490.43,190.34Z"/><path class="cls-2" d="M509,197.87a2.38,2.38,0,1,1-2.47-2.28A2.38,2.38,0,0,1,509,197.87Z"/><path class="cls-2" d="M500.61,206.73a2.38,2.38,0,1,1-2.47-2.28A2.38,2.38,0,0,1,500.61,206.73Z"/><path class="cls-2" d="M512.05,185.46a2.38,2.38,0,1,1-2.48-2.28A2.37,2.37,0,0,1,512.05,185.46Z"/><path class="cls-2" d="M508,172.09a2.38,2.38,0,1,1-2.47-2.29A2.39,2.39,0,0,1,508,172.09Z"/><path class="cls-2" d="M488.28,174.38a2.38,2.38,0,1,1-2.47-2.28A2.37,2.37,0,0,1,488.28,174.38Z"/><path class="cls-2" d="M491.66,158.45a2.38,2.38,0,1,1-2.47-2.28A2.38,2.38,0,0,1,491.66,158.45Z"/><path class="cls-2" d="M473.76,156.15a2.38,2.38,0,1,1-2.47-2.28A2.37,2.37,0,0,1,473.76,156.15Z"/><path class="cls-2" d="M464.06,176.85a2.38,2.38,0,1,1-2.47-2.28A2.38,2.38,0,0,1,464.06,176.85Z"/><path class="cls-2" d="M462,150.86a2.38,2.38,0,1,1-2.47-2.29A2.39,2.39,0,0,1,462,150.86Z"/><path class="cls-2" d="M460.06,139.4a2.38,2.38,0,1,1-2.47-2.28A2.38,2.38,0,0,1,460.06,139.4Z"/><path class="cls-2" d="M447.22,144.43a2.38,2.38,0,1,1-2.47-2.29A2.39,2.39,0,0,1,447.22,144.43Z"/><path class="cls-2" d="M439.06,153.53a2.38,2.38,0,1,1-2.47-2.28A2.38,2.38,0,0,1,439.06,153.53Z"/><path class="cls-2" d="M432.43,163.32A2.38,2.38,0,1,1,430,161,2.38,2.38,0,0,1,432.43,163.32Z"/><path class="cls-2" d="M441.35,179.51a2.38,2.38,0,1,1-2.47-2.28A2.38,2.38,0,0,1,441.35,179.51Z"/><path class="cls-2" d="M455.84,159.38a2.38,2.38,0,1,1-2.47-2.28A2.39,2.39,0,0,1,455.84,159.38Z"/><path class="cls-2" d="M463.3,164.09a2.38,2.38,0,1,1-2.47-2.28A2.37,2.37,0,0,1,463.3,164.09Z"/><path class="cls-2" d="M470.9,191.12a2.38,2.38,0,1,1-2.47-2.28A2.38,2.38,0,0,1,470.9,191.12Z"/><path class="cls-2" d="M460.38,191.29A2.38,2.38,0,1,1,457.9,189,2.38,2.38,0,0,1,460.38,191.29Z"/><path class="cls-2" d="M431.59,186.17a2.38,2.38,0,1,1-2.47-2.28A2.38,2.38,0,0,1,431.59,186.17Z"/><path class="cls-2" d="M423.1,174.48a2.38,2.38,0,1,1-2.48-2.29A2.39,2.39,0,0,1,423.1,174.48Z"/><path class="cls-2" d="M413.74,185.13a2.38,2.38,0,1,1-2.47-2.28A2.37,2.37,0,0,1,413.74,185.13Z"/><path class="cls-2" d="M415.67,195.58a2.38,2.38,0,1,1-2.48-2.28A2.37,2.37,0,0,1,415.67,195.58Z"/><path class="cls-2" d="M429.54,216.59a2.38,2.38,0,1,1-2.47-2.28A2.37,2.37,0,0,1,429.54,216.59Z"/><path class="cls-2" d="M449.92,230.82a2.38,2.38,0,1,1-2.47-2.28A2.38,2.38,0,0,1,449.92,230.82Z"/><path class="cls-2" d="M456.06,208.76a2.38,2.38,0,1,1-2.47-2.28A2.38,2.38,0,0,1,456.06,208.76Z"/><path class="cls-2" d="M464.59,221.46a2.38,2.38,0,1,1-2.47-2.28A2.38,2.38,0,0,1,464.59,221.46Z"/><path class="cls-2" d="M485.42,225.14a2.38,2.38,0,1,1-2.47-2.28A2.37,2.37,0,0,1,485.42,225.14Z"/><path class="cls-2" d="M410.66,208.38a2.38,2.38,0,1,1-2.47-2.28A2.38,2.38,0,0,1,410.66,208.38Z"/><path class="cls-2" d="M400.28,202.78a2.38,2.38,0,1,1-2.47-2.28A2.38,2.38,0,0,1,400.28,202.78Z"/><path class="cls-2" d="M447.19,270.67a2.38,2.38,0,1,1-2.47-2.28A2.37,2.37,0,0,1,447.19,270.67Z"/><path class="cls-2" d="M437,236.48a2.38,2.38,0,1,1-2.47-2.28A2.38,2.38,0,0,1,437,236.48Z"/><path class="cls-2" d="M475,144.13a2.38,2.38,0,1,1-2.47-2.28A2.38,2.38,0,0,1,475,144.13Z"/><path class="cls-2" d="M331.59,350.39a2.38,2.38,0,1,1-2.48-2.28A2.38,2.38,0,0,1,331.59,350.39Z"/><path class="cls-2" d="M253.47,378.33a2.38,2.38,0,1,1-2.47-2.28A2.38,2.38,0,0,1,253.47,378.33Z"/><path class="cls-2" d="M259.21,471.88a2.38,2.38,0,1,1-2.47-2.28A2.37,2.37,0,0,1,259.21,471.88Z"/><path class="cls-2" d="M222.52,444.76a2.38,2.38,0,1,1-2.47-2.28A2.37,2.37,0,0,1,222.52,444.76Z"/><path class="cls-2" d="M238,430.85a2.38,2.38,0,1,1-2.48-2.28A2.38,2.38,0,0,1,238,430.85Z"/><path class="cls-2" d="M343.19,378.82a2.38,2.38,0,1,1-2.47-2.28A2.38,2.38,0,0,1,343.19,378.82Z"/><path class="cls-2" d="M303.61,334.2a2.38,2.38,0,1,1-2.47-2.28A2.39,2.39,0,0,1,303.61,334.2Z"/><path class="cls-2" d="M275.28,353.14a2.38,2.38,0,1,1-2.47-2.28A2.38,2.38,0,0,1,275.28,353.14Z"/><path class="cls-2" d="M378.39,323.32a2.38,2.38,0,1,1-2.47-2.28A2.37,2.37,0,0,1,378.39,323.32Z"/><path class="cls-2" d="M367.26,333.42a2.38,2.38,0,1,1-2.47-2.28A2.37,2.37,0,0,1,367.26,333.42Z"/><path class="cls-2" d="M391.62,212a2.38,2.38,0,1,1-2.47-2.28A2.39,2.39,0,0,1,391.62,212Z"/><path class="cls-2" d="M428.54,227.6a2.38,2.38,0,1,1-2.47-2.28A2.38,2.38,0,0,1,428.54,227.6Z"/><path class="cls-2" d="M440.18,208.33a2.38,2.38,0,1,1-2.47-2.28A2.38,2.38,0,0,1,440.18,208.33Z"/><path class="cls-2" d="M476.1,222.32a2.38,2.38,0,1,1-2.48-2.28A2.38,2.38,0,0,1,476.1,222.32Z"/><path class="cls-2" d="M447.83,202a2.38,2.38,0,1,1-2.47-2.28A2.38,2.38,0,0,1,447.83,202Z"/><path class="cls-2" d="M481.18,166.07a2.38,2.38,0,1,1-2.47-2.28A2.37,2.37,0,0,1,481.18,166.07Z"/><path class="cls-2" d="M487.55,206.25a2.38,2.38,0,1,1-2.47-2.28A2.38,2.38,0,0,1,487.55,206.25Z"/><path class="cls-2" d="M435.85,274.13a2.38,2.38,0,1,1-2.47-2.28A2.38,2.38,0,0,1,435.85,274.13Z"/><path class="cls-2" d="M299,444.46a2.38,2.38,0,1,1-2.47-2.28A2.38,2.38,0,0,1,299,444.46Z"/><path class="cls-2" d="M224.8,485.92a2.38,2.38,0,1,1-2.48-2.29A2.39,2.39,0,0,1,224.8,485.92Z"/><path class="cls-2" d="M309.72,311.39a2.38,2.38,0,1,1-2.47-2.28A2.39,2.39,0,0,1,309.72,311.39Z"/><path class="cls-2" d="M287.18,375a2.38,2.38,0,1,1-2.47-2.28A2.37,2.37,0,0,1,287.18,375Z"/><path class="cls-2" d="M298.7,349.44a2.38,2.38,0,1,1-2.47-2.28A2.39,2.39,0,0,1,298.7,349.44Z"/><path class="cls-2" d="M305.14,372.51a2.38,2.38,0,1,1-2.47-2.28A2.39,2.39,0,0,1,305.14,372.51Z"/><path class="cls-2" d="M338.32,368.42a2.38,2.38,0,1,1-2.47-2.28A2.37,2.37,0,0,1,338.32,368.42Z"/><path class="cls-2" d="M363.32,347.62a2.38,2.38,0,1,1-2.47-2.29A2.39,2.39,0,0,1,363.32,347.62Z"/><path class="cls-2" d="M369,314.29a2.38,2.38,0,1,1-2.47-2.28A2.38,2.38,0,0,1,369,314.29Z"/><path class="cls-2" d="M383,286.65a2.38,2.38,0,1,1-2.47-2.28A2.39,2.39,0,0,1,383,286.65Z"/><path class="cls-2" d="M372.69,299.85a2.38,2.38,0,1,1-2.47-2.28A2.37,2.37,0,0,1,372.69,299.85Z"/><path class="cls-2" d="M354.93,282a2.38,2.38,0,1,1-2.47-2.28A2.38,2.38,0,0,1,354.93,282Z"/><path class="cls-2" d="M340.78,342a2.38,2.38,0,1,1-2.47-2.28A2.38,2.38,0,0,1,340.78,342Z"/><path class="cls-2" d="M328.07,337.74a2.38,2.38,0,1,1-2.47-2.28A2.38,2.38,0,0,1,328.07,337.74Z"/><path class="cls-2" d="M315.66,347.26a2.38,2.38,0,1,1-2.47-2.28A2.37,2.37,0,0,1,315.66,347.26Z"/><path class="cls-2" d="M317,385.82a2.38,2.38,0,1,1-2.47-2.28A2.37,2.37,0,0,1,317,385.82Z"/><path class="cls-2" d="M366.36,367.3a2.38,2.38,0,1,1-2.47-2.28A2.38,2.38,0,0,1,366.36,367.3Z"/><path class="cls-2" d="M309.67,423.22a2.38,2.38,0,1,1-2.47-2.28A2.38,2.38,0,0,1,309.67,423.22Z"/><path class="cls-2" d="M251.45,396.72a2.38,2.38,0,1,1-2.48-2.28A2.38,2.38,0,0,1,251.45,396.72Z"/><path class="cls-2" d="M269.48,445a2.38,2.38,0,1,1-2.47-2.28A2.37,2.37,0,0,1,269.48,445Z"/><path class="cls-2" d="M280.21,445.09a2.38,2.38,0,1,1-2.47-2.28A2.38,2.38,0,0,1,280.21,445.09Z"/><path class="cls-2" d="M249.74,463.79a2.38,2.38,0,1,1-2.47-2.28A2.39,2.39,0,0,1,249.74,463.79Z"/><path class="cls-2" d="M236.59,468.83a2.38,2.38,0,1,1-2.47-2.28A2.38,2.38,0,0,1,236.59,468.83Z"/><path class="cls-2" d="M253.78,452a2.38,2.38,0,1,1-2.47-2.28A2.37,2.37,0,0,1,253.78,452Z"/><polygon class="cls-2" points="475.67 233.91 466.19 230.35 457.45 225.65 446.39 218.36 437.98 211.4 429.17 204.07 421.84 195.2 417.58 189.28 414.93 183.38 412.64 185.85 416.85 193.83 421.2 200.1 426.98 206.75 435.8 215.21 448.04 225.09 456.4 229.43 465.52 234.12 473.6 236.69 475.67 233.91"/><polygon class="cls-2" points="469.62 241.18 460.14 237.62 451.4 232.92 440.34 225.63 431.93 218.67 423.13 211.34 415.8 202.47 411.54 196.55 408.88 190.65 406.6 193.12 410.8 201.1 415.15 207.38 420.93 214.02 429.75 222.48 441.99 232.37 450.35 236.7 459.47 241.39 467.55 243.96 469.62 241.18"/><path class="cls-7" d="M199,507a.86.86,0,0,1-.72,1,.87.87,0,0,1-1-.72A.87.87,0,0,1,199,507Z"/><path class="cls-7" d="M218,494.61a.7.7,0,0,1-.58.8.71.71,0,0,1-.8-.59.7.7,0,0,1,.59-.79A.69.69,0,0,1,218,494.61Z"/><path class="cls-7" d="M228.25,499.67a2.63,2.63,0,1,1-3-2.2A2.63,2.63,0,0,1,228.25,499.67Z"/><path class="cls-7" d="M230.09,483.22a1,1,0,1,1-1.09-.8A1,1,0,0,1,230.09,483.22Z"/><path class="cls-7" d="M253,475.62a1.77,1.77,0,1,1-2-1.48A1.77,1.77,0,0,1,253,475.62Z"/><path class="cls-7" d="M268.55,481.78a1.3,1.3,0,1,1-2.57.4,1.3,1.3,0,0,1,2.57-.4Z"/><circle class="cls-7" cx="276.02" cy="460.56" r="1.77"/><path class="cls-7" d="M272.75,450.6a1.54,1.54,0,0,1-3,.47,1.54,1.54,0,1,1,3-.47Z"/><path class="cls-7" d="M288.22,437.27a2.77,2.77,0,1,1-3.16-2.32A2.76,2.76,0,0,1,288.22,437.27Z"/><path class="cls-7" d="M304.41,426.74a2.45,2.45,0,1,1-4.84.75,2.45,2.45,0,0,1,4.84-.75Z"/><path class="cls-7" d="M338.54,417.37a1.2,1.2,0,1,1-1.37-1A1.2,1.2,0,0,1,338.54,417.37Z"/><path class="cls-7" d="M355.38,414.83a2.58,2.58,0,1,1-2.95-2.16A2.56,2.56,0,0,1,355.38,414.83Z"/><path class="cls-7" d="M366.16,402a.94.94,0,1,1-1.07-.79A.94.94,0,0,1,366.16,402Z"/><path class="cls-7" d="M384.21,373a2,2,0,1,1-2.25-1.65A2,2,0,0,1,384.21,373Z"/><path class="cls-7" d="M366.56,353.07a1.67,1.67,0,1,1-1.91-1.4A1.67,1.67,0,0,1,366.56,353.07Z"/><path class="cls-7" d="M381.75,345.72a2.46,2.46,0,1,1-2.81-2.05A2.46,2.46,0,0,1,381.75,345.72Z"/><path class="cls-7" d="M400.92,335.15a2.81,2.81,0,1,1-3.21-2.34A2.82,2.82,0,0,1,400.92,335.15Z"/><path class="cls-7" d="M403.8,323.91a2.35,2.35,0,1,1-2.69-2A2.35,2.35,0,0,1,403.8,323.91Z"/><path class="cls-7" d="M410.84,290.12a2.1,2.1,0,1,1-2.4-1.75A2.1,2.1,0,0,1,410.84,290.12Z"/><path class="cls-7" d="M445.42,297.29a.61.61,0,0,1-.51.69.61.61,0,0,1-.19-1.2A.61.61,0,0,1,445.42,297.29Z"/><path class="cls-7" d="M427.25,271.78a.45.45,0,0,1-.38.52.46.46,0,1,1-.14-.9A.45.45,0,0,1,427.25,271.78Z"/><path class="cls-7" d="M452.77,252.41a2.33,2.33,0,1,1-2.66-1.95A2.34,2.34,0,0,1,452.77,252.41Z"/><path class="cls-7" d="M463.81,251.15a3.13,3.13,0,1,1-3.57-2.62A3.12,3.12,0,0,1,463.81,251.15Z"/><path class="cls-7" d="M475.93,242.1a1.92,1.92,0,0,1-1.61,2.2,1.93,1.93,0,1,1,1.61-2.2Z"/><path class="cls-7" d="M494,251.23a2.2,2.2,0,1,1-2.5-1.83A2.19,2.19,0,0,1,494,251.23Z"/><path class="cls-7" d="M491.3,235.09a1.53,1.53,0,1,1-1.75-1.28A1.53,1.53,0,0,1,491.3,235.09Z"/><path class="cls-7" d="M502.18,203.14a1.73,1.73,0,1,1-2-1.44A1.73,1.73,0,0,1,502.18,203.14Z"/><path class="cls-7" d="M516.66,192a1.37,1.37,0,1,1-1.56-1.14A1.36,1.36,0,0,1,516.66,192Z"/><path class="cls-7" d="M511.82,183.36a1.11,1.11,0,0,1-.93,1.27,1.13,1.13,0,0,1-1.27-.93,1.11,1.11,0,1,1,2.2-.34Z"/><path class="cls-7" d="M512.94,165.7a2.6,2.6,0,1,1-3-2.17A2.6,2.6,0,0,1,512.94,165.7Z"/><path class="cls-7" d="M506.29,129.9a2.52,2.52,0,1,1-2.87-2.1A2.51,2.51,0,0,1,506.29,129.9Z"/><path class="cls-7" d="M464.92,136.82a.54.54,0,1,1-.61-.45A.54.54,0,0,1,464.92,136.82Z"/><path class="cls-7" d="M427.58,136.88a2.57,2.57,0,1,1-2.93-2.15A2.56,2.56,0,0,1,427.58,136.88Z"/><path class="cls-7" d="M426,158.48a.82.82,0,1,1-.94-.69A.82.82,0,0,1,426,158.48Z"/><path class="cls-7" d="M420.76,170.12a1.66,1.66,0,1,1-1.9-1.39A1.66,1.66,0,0,1,420.76,170.12Z"/><path class="cls-7" d="M401.17,184.41a1.64,1.64,0,1,1-1.87-1.36A1.64,1.64,0,0,1,401.17,184.41Z"/><path class="cls-7" d="M380.24,198.56a3.18,3.18,0,1,1-3.64-2.66A3.18,3.18,0,0,1,380.24,198.56Z"/><path class="cls-7" d="M352.06,221.4a.5.5,0,0,1-1,.15.5.5,0,0,1,1-.15Z"/><path class="cls-7" d="M362.92,268.05a.81.81,0,0,1-1.61.25.81.81,0,0,1,1.61-.25Z"/><path class="cls-7" d="M339.54,250.76a2.94,2.94,0,1,1-3.35-2.45A2.94,2.94,0,0,1,339.54,250.76Z"/><path class="cls-7" d="M353.39,274.47a.52.52,0,0,1-.44.6.53.53,0,0,1-.61-.44.55.55,0,0,1,.45-.61A.53.53,0,0,1,353.39,274.47Z"/><path class="cls-7" d="M350,275.2a2.06,2.06,0,1,1-2.35-1.72A2.06,2.06,0,0,1,350,275.2Z"/><path class="cls-7" d="M334.84,302.53a1,1,0,1,1-1.18-.87A1,1,0,0,1,334.84,302.53Z"/><path class="cls-7" d="M317,295.39a2.26,2.26,0,1,1-2.58-1.88A2.26,2.26,0,0,1,317,295.39Z"/><path class="cls-7" d="M314.91,325.22a2.8,2.8,0,1,1-3.2-2.35A2.8,2.8,0,0,1,314.91,325.22Z"/><path class="cls-7" d="M290.66,323.1a2.82,2.82,0,1,1-3.22-2.35A2.82,2.82,0,0,1,290.66,323.1Z"/><circle class="cls-7" cx="267.22" cy="348.18" r="1.76" transform="translate(-143.18 192.6) rotate(-31.73)"/><path class="cls-7" d="M251.59,350.89a2,2,0,1,1-2.28-1.66A2,2,0,0,1,251.59,350.89Z"/><path class="cls-7" d="M247,372.34a2.58,2.58,0,1,1-2.94-2.15A2.58,2.58,0,0,1,247,372.34Z"/><path class="cls-7" d="M238.36,399.46a2.24,2.24,0,1,1-2.55-1.86A2.24,2.24,0,0,1,238.36,399.46Z"/><path class="cls-7" d="M208.2,414.87a.77.77,0,1,1-1.52.23.77.77,0,0,1,1.52-.23Z"/><path class="cls-7" d="M217,435.88a2.27,2.27,0,1,1-2.59-1.89A2.28,2.28,0,0,1,217,435.88Z"/><path class="cls-7" d="M229.91,446.9a1.44,1.44,0,1,1-2.85.44,1.44,1.44,0,1,1,2.85-.44Z"/><path class="cls-7" d="M208.34,451.37a.85.85,0,1,1-1.69.26.85.85,0,0,1,1.69-.26Z"/><path class="cls-7" d="M218.87,479.61a1.57,1.57,0,0,1-1.32,1.81,1.58,1.58,0,1,1-.48-3.13A1.57,1.57,0,0,1,218.87,479.61Z"/><path class="cls-7" d="M294.47,240.18a1,1,0,1,1-1.19-.87A1,1,0,0,1,294.47,240.18Z"/><path class="cls-7" d="M317.63,221.7a2.38,2.38,0,1,1-2.72-2A2.37,2.37,0,0,1,317.63,221.7Z"/><path class="cls-7" d="M339.22,197.27A2.73,2.73,0,1,1,336.1,195,2.73,2.73,0,0,1,339.22,197.27Z"/><path class="cls-7" d="M352,176.2a2.18,2.18,0,1,1-2.49-1.82A2.18,2.18,0,0,1,352,176.2Z"/><path class="cls-7" d="M375.09,196.37a1.56,1.56,0,1,1-1.78-1.3A1.55,1.55,0,0,1,375.09,196.37Z"/><path class="cls-7" d="M383.7,168.14a2.91,2.91,0,1,1-3.33-2.44A2.92,2.92,0,0,1,383.7,168.14Z"/><path class="cls-7" d="M395.51,179.61a2.72,2.72,0,1,1-3.11-2.27A2.72,2.72,0,0,1,395.51,179.61Z"/><path class="cls-7" d="M404.53,148.68a3.12,3.12,0,1,1-3.56-2.61A3.12,3.12,0,0,1,404.53,148.68Z"/><path class="cls-7" d="M412.18,157a.81.81,0,0,1-.67.93.83.83,0,0,1-.93-.68.82.82,0,0,1,.68-.92A.8.8,0,0,1,412.18,157Z"/><path class="cls-7" d="M407.51,127a2.1,2.1,0,1,1-2.4-1.75A2.1,2.1,0,0,1,407.51,127Z"/><path class="cls-7" d="M438.11,130a.48.48,0,0,1-.95.15.49.49,0,0,1,.4-.56A.48.48,0,0,1,438.11,130Z"/><path class="cls-7" d="M464.06,109.05a1.76,1.76,0,1,1-2-1.46A1.76,1.76,0,0,1,464.06,109.05Z"/><path class="cls-7" d="M485.74,107.34a1.74,1.74,0,1,1-2-1.45A1.73,1.73,0,0,1,485.74,107.34Z"/><path class="cls-7" d="M473.4,71.22a2.34,2.34,0,1,1-2.67-2A2.33,2.33,0,0,1,473.4,71.22Z"/><path class="cls-7" d="M495,85.69a1.41,1.41,0,0,1-2.78.43,1.41,1.41,0,1,1,2.78-.43Z"/><path class="cls-7" d="M493.7,73.61A3.15,3.15,0,1,1,490.1,71,3.14,3.14,0,0,1,493.7,73.61Z"/><path class="cls-7" d="M486.36,78a.57.57,0,0,1-.47.65.58.58,0,0,1-.65-.48.56.56,0,0,1,.47-.64A.57.57,0,0,1,486.36,78Z"/><path class="cls-7" d="M488.86,95.19a2.8,2.8,0,1,1-3.19-2.34A2.79,2.79,0,0,1,488.86,95.19Z"/><circle class="cls-7" cx="465.6" cy="100.93" r="2.18" transform="translate(318.27 553.99) rotate(-84.22)"/><path class="cls-7" d="M457.47,95.35a1.89,1.89,0,1,1-2.16-1.58A1.9,1.9,0,0,1,457.47,95.35Z"/><path class="cls-7" d="M439.47,117.62a1.18,1.18,0,1,1-1.35-1A1.18,1.18,0,0,1,439.47,117.62Z"/><path class="cls-7" d="M408.6,107a.58.58,0,1,1-.67-.49A.58.58,0,0,1,408.6,107Z"/><path class="cls-7" d="M412.41,137a1.19,1.19,0,1,1-1.36-1A1.2,1.2,0,0,1,412.41,137Z"/><path class="cls-7" d="M408.48,155.45a2.79,2.79,0,1,1-3.18-2.32A2.79,2.79,0,0,1,408.48,155.45Z"/><path class="cls-7" d="M350.85,144.39a1.08,1.08,0,1,1-1.23-.9A1.08,1.08,0,0,1,350.85,144.39Z"/><path class="cls-7" d="M368.17,118.24a.57.57,0,0,1-.47.64.56.56,0,0,1-.17-1.11A.58.58,0,0,1,368.17,118.24Z"/><path class="cls-7" d="M360.3,114.53a2.16,2.16,0,1,1-2.46-1.8A2.15,2.15,0,0,1,360.3,114.53Z"/><path class="cls-7" d="M361,96a2.73,2.73,0,1,1-3.11-2.28A2.73,2.73,0,0,1,361,96Z"/><path class="cls-7" d="M356.17,95.37a1.53,1.53,0,1,1-1.75-1.28A1.54,1.54,0,0,1,356.17,95.37Z"/><path class="cls-7" d="M353.2,84a2.09,2.09,0,1,1-2.39-1.75A2.1,2.1,0,0,1,353.2,84Z"/><path class="cls-7" d="M356.6,59.64a2.46,2.46,0,1,1-2.81-2A2.45,2.45,0,0,1,356.6,59.64Z"/><path class="cls-7" d="M368.75,54.14a1.93,1.93,0,1,1-2.2-1.61A1.93,1.93,0,0,1,368.75,54.14Z"/><circle class="cls-7" cx="354.28" cy="46" r="2.4"/><path class="cls-7" d="M346,48.41a3,3,0,1,1-3.41-2.5A3,3,0,0,1,346,48.41Z"/><path class="cls-7" d="M354.27,73.33a.43.43,0,0,1-.37.5.44.44,0,0,1-.51-.37.46.46,0,0,1,.38-.51A.44.44,0,0,1,354.27,73.33Z"/><path class="cls-7" d="M335.7,87.38A1.67,1.67,0,1,1,333.8,86,1.67,1.67,0,0,1,335.7,87.38Z"/><path class="cls-7" d="M363.21,114.36a2.58,2.58,0,1,1-2.94-2.16A2.57,2.57,0,0,1,363.21,114.36Z"/><path class="cls-7" d="M342,126.14a2.28,2.28,0,1,1-2.6-1.9A2.28,2.28,0,0,1,342,126.14Z"/><path class="cls-7" d="M346.29,147.27a2.29,2.29,0,0,1-4.53.7,2.29,2.29,0,1,1,4.53-.7Z"/><path class="cls-7" d="M355.78,170.19a1.5,1.5,0,1,1-1.71-1.25A1.5,1.5,0,0,1,355.78,170.19Z"/><path class="cls-7" d="M301.44,190.44a2.11,2.11,0,1,1-2.4-1.75A2.11,2.11,0,0,1,301.44,190.44Z"/><path class="cls-7" d="M311.22,156.85a2.37,2.37,0,1,1-2.71-2A2.37,2.37,0,0,1,311.22,156.85Z"/><path class="cls-7" d="M281.57,151.21a2.54,2.54,0,1,1-2.9-2.12A2.54,2.54,0,0,1,281.57,151.21Z"/><path class="cls-7" d="M280.53,132.63a1.54,1.54,0,1,1-1.76-1.29A1.54,1.54,0,0,1,280.53,132.63Z"/><path class="cls-7" d="M240.63,151.5a1.71,1.71,0,0,1-3.38.53,1.71,1.71,0,1,1,3.38-.53Z"/><circle class="cls-7" cx="226.06" cy="138.67" r="2.85" transform="translate(-27.76 61.81) rotate(-14.68)"/><path class="cls-7" d="M240,111.82a1.94,1.94,0,1,1-2.22-1.63A1.94,1.94,0,0,1,240,111.82Z"/><path class="cls-7" d="M203.06,120.33a2.33,2.33,0,1,1-2.66-1.94A2.33,2.33,0,0,1,203.06,120.33Z"/><path class="cls-7" d="M189.91,110.16a2.25,2.25,0,1,1-2.57-1.88A2.25,2.25,0,0,1,189.91,110.16Z"/><path class="cls-7" d="M174.63,97.36a2,2,0,1,1-2.27-1.65A2,2,0,0,1,174.63,97.36Z"/><path class="cls-7" d="M208.09,105.16a2.27,2.27,0,1,1-2.6-1.9A2.27,2.27,0,0,1,208.09,105.16Z"/><path class="cls-7" d="M210.15,130.09a1.24,1.24,0,1,1-1.42-1A1.24,1.24,0,0,1,210.15,130.09Z"/><path class="cls-7" d="M227.25,141.59a3.16,3.16,0,1,1-3.61-2.64A3.17,3.17,0,0,1,227.25,141.59Z"/><path class="cls-7" d="M224.39,158.58a.52.52,0,0,1-.44.6.53.53,0,0,1-.61-.44.55.55,0,0,1,.45-.61A.53.53,0,0,1,224.39,158.58Z"/><path class="cls-7" d="M251.94,173a.48.48,0,1,1-.95.15.48.48,0,0,1,.95-.15Z"/><path class="cls-7" d="M271.26,152.5a1.27,1.27,0,0,1-1.05,1.45,1.28,1.28,0,0,1-1.45-1.06,1.27,1.27,0,0,1,1.06-1.44A1.25,1.25,0,0,1,271.26,152.5Z"/><path class="cls-7" d="M295.51,169.56a.45.45,0,1,1-.5-.37A.43.43,0,0,1,295.51,169.56Z"/><path class="cls-7" d="M310.82,187.91a1.78,1.78,0,1,1-2-1.49A1.78,1.78,0,0,1,310.82,187.91Z"/><path class="cls-7" d="M320.85,187.5a.8.8,0,1,1-.92-.67A.8.8,0,0,1,320.85,187.5Z"/><path class="cls-7" d="M291.72,218.52a2.16,2.16,0,1,1-2.46-1.81A2.16,2.16,0,0,1,291.72,218.52Z"/><path class="cls-7" d="M273.38,214.23a.55.55,0,1,1-1.09.17.56.56,0,0,1,.47-.63A.54.54,0,0,1,273.38,214.23Z"/><path class="cls-7" d="M269.74,213.52a1.47,1.47,0,1,1-1.67-1.23A1.46,1.46,0,0,1,269.74,213.52Z"/><path class="cls-7" d="M265.84,205.9a2.78,2.78,0,1,1-3.17-2.32A2.78,2.78,0,0,1,265.84,205.9Z"/><path class="cls-7" d="M244.65,226.07a2.22,2.22,0,1,1-2.53-1.85A2.21,2.21,0,0,1,244.65,226.07Z"/><path class="cls-7" d="M228.49,214.72a1.2,1.2,0,1,1-1.37-1A1.22,1.22,0,0,1,228.49,214.72Z"/><path class="cls-7" d="M223.44,259.12a2.6,2.6,0,1,1-3-2.16A2.59,2.59,0,0,1,223.44,259.12Z"/><path class="cls-7" d="M201.86,261.59a3.14,3.14,0,1,1-3.58-2.62A3.14,3.14,0,0,1,201.86,261.59Z"/><path class="cls-7" d="M190.75,259.82a1.28,1.28,0,1,1-1.47-1.07A1.29,1.29,0,0,1,190.75,259.82Z"/><path class="cls-7" d="M175.18,256.86a.87.87,0,0,1-.72,1,.87.87,0,1,1,.72-1Z"/><path class="cls-7" d="M202.57,248.1a3,3,0,1,1-3.37-2.46A3,3,0,0,1,202.57,248.1Z"/><path class="cls-7" d="M234.09,249.08a1.56,1.56,0,0,1-1.31,1.79,1.57,1.57,0,1,1,1.31-1.79Z"/><path class="cls-7" d="M257.38,282.8a1.68,1.68,0,1,1-1.91-1.4A1.68,1.68,0,0,1,257.38,282.8Z"/><path class="cls-7" d="M260.86,282.21a1.82,1.82,0,1,1-2.08-1.52A1.82,1.82,0,0,1,260.86,282.21Z"/><path class="cls-7" d="M281.45,252.61a.37.37,0,0,1-.31.42.36.36,0,0,1-.42-.31.38.38,0,0,1,.31-.42A.37.37,0,0,1,281.45,252.61Z"/><path class="cls-7" d="M301.7,288.15a1.11,1.11,0,1,1-1.27-.93A1.1,1.1,0,0,1,301.7,288.15Z"/><path class="cls-7" d="M302.57,102.84a1.89,1.89,0,1,1-2.15-1.57A1.88,1.88,0,0,1,302.57,102.84Z"/><path class="cls-7" d="M273.42,83.86a.58.58,0,0,1-.49.66.57.57,0,0,1-.66-.48.58.58,0,0,1,.48-.67A.59.59,0,0,1,273.42,83.86Z"/><path class="cls-7" d="M274.29,62.48a1.19,1.19,0,0,1-1,1.37,1.2,1.2,0,0,1-.37-2.37A1.19,1.19,0,0,1,274.29,62.48Z"/><path class="cls-7" d="M292.26,45.82a2.92,2.92,0,1,1-3.33-2.44A2.92,2.92,0,0,1,292.26,45.82Z"/><path class="cls-7" d="M293.42,27.92a3.15,3.15,0,1,1-3.6-2.63A3.14,3.14,0,0,1,293.42,27.92Z"/><path class="cls-7" d="M319.84,5a2.61,2.61,0,1,1-3-2.17A2.61,2.61,0,0,1,319.84,5Z"/><path class="cls-7" d="M321.06,10.46a.41.41,0,1,1-.81.12.41.41,0,0,1,.34-.47A.4.4,0,0,1,321.06,10.46Z"/><path class="cls-7" d="M334.25,16.35a.6.6,0,1,1-1.18.18.59.59,0,0,1,.5-.67A.6.6,0,0,1,334.25,16.35Z"/><path class="cls-7" d="M362.24,37.33A1.59,1.59,0,1,1,360.43,36,1.59,1.59,0,0,1,362.24,37.33Z"/><circle class="cls-7" cx="355.95" cy="57.37" r="2.57"/><path class="cls-7" d="M378.13,36.82A2.74,2.74,0,1,1,375,34.53,2.74,2.74,0,0,1,378.13,36.82Z"/><path class="cls-7" d="M400.29,52a1.2,1.2,0,1,1-2.38.37,1.19,1.19,0,0,1,1-1.37A1.21,1.21,0,0,1,400.29,52Z"/><path class="cls-7" d="M411.35,36.88a2.16,2.16,0,1,1-2.47-1.8A2.16,2.16,0,0,1,411.35,36.88Z"/><path class="cls-7" d="M396,4.61A3.08,3.08,0,1,1,392.47,2,3.08,3.08,0,0,1,396,4.61Z"/><path class="cls-7" d="M414.63,12.52a2.83,2.83,0,1,1-3.24-2.37A2.83,2.83,0,0,1,414.63,12.52Z"/><path class="cls-7" d="M415.22,41.8a1.83,1.83,0,1,1-2.09-1.53A1.84,1.84,0,0,1,415.22,41.8Z"/><path class="cls-7" d="M443.68,70.13a3.08,3.08,0,1,1-3.51-2.57A3.07,3.07,0,0,1,443.68,70.13Z"/><path class="cls-7" d="M429.73,86a2.75,2.75,0,1,1-3.14-2.3A2.75,2.75,0,0,1,429.73,86Z"/><path class="cls-7" d="M37.57,502.22a2.13,2.13,0,1,1-2.12-2.12A2.12,2.12,0,0,1,37.57,502.22Z"/><path class="cls-7" d="M55.51,498a2.35,2.35,0,1,1-2.35-2.35A2.35,2.35,0,0,1,55.51,498Z"/><path class="cls-7" d="M77.67,485a2.79,2.79,0,1,1-2.79-2.78A2.79,2.79,0,0,1,77.67,485Z"/><path class="cls-7" d="M91.47,486.94a2.35,2.35,0,1,1-2.34-2.34A2.35,2.35,0,0,1,91.47,486.94Z"/><path class="cls-7" d="M82.69,471.44a2,2,0,1,1-2-2A2.05,2.05,0,0,1,82.69,471.44Z"/><path class="cls-7" d="M108.09,484.94a1.87,1.87,0,1,1-1.87-1.87A1.87,1.87,0,0,1,108.09,484.94Z"/><circle class="cls-7" cx="134.43" cy="483.8" r="1.11"/><path class="cls-7" d="M153.66,476.84a2.32,2.32,0,1,1-2.32-2.32A2.31,2.31,0,0,1,153.66,476.84Z"/><path class="cls-7" d="M176.49,477.5A1.47,1.47,0,1,1,175,476,1.47,1.47,0,0,1,176.49,477.5Z"/><path class="cls-7" d="M187.76,491.07a2.1,2.1,0,1,1-2.1-2.1A2.1,2.1,0,0,1,187.76,491.07Z"/></g></g></svg>