<svg xmlns="http://www.w3.org/2000/svg" viewBox="0 0 550 510"><defs><style>.cls-1,.cls-4{opacity:0.2;}.cls-2{fill:#5fffe0;}.cls-3{opacity:0.5;}.cls-4,.cls-5,.cls-6,.cls-7{fill:#00ffcf;}.cls-5{opacity:0.4;}.cls-7{opacity:0.1;}.cls-10,.cls-8{fill:none;stroke:#00ffcf;stroke-linecap:round;stroke-linejoin:round;}.cls-9{fill:#0097cc;}.cls-10{stroke-width:2px;}.cls-11{fill:#017862;}</style></defs><title>Digital</title><g id="Layer_4" data-name="Layer 4"><g id="Digital"><g class="cls-1"><polygon class="cls-2" points="411.5 2 138.5 2 2 255 138.5 508 411.5 508 548 255 411.5 2"/></g><g id="_Group_" data-name="&lt;Group&gt;"><g class="cls-3"><polygon class="cls-4" points="388.46 238.27 369.8 273.36 406.3 254.68 388.46 238.27"/><path class="cls-4" d="M347.85,435.34c.81.14,63.22-11.73,63.22-11.73l-33.75,18.22Z"/><polygon class="cls-4" points="350.64 442.71 350.64 458.35 368.46 448.15 350.64 442.71"/><polygon class="cls-4" points="462.2 382.48 409.95 425.01 444.22 410.41 462.2 382.48"/><polygon class="cls-4" points="474.63 405.9 480.39 435.05 464.46 422.32 474.63 405.9"/><polygon class="cls-4" points="360.22 398.24 381.07 401.02 390.89 419.16 360.22 398.24"/><polygon class="cls-4" points="386.46 396.1 414.25 363.6 415.48 383.38 386.46 396.1"/><path class="cls-4" d="M431.56,349.66c.42.38,18.78,3.39,18.78,3.39l7.51,13.63Z"/><path class="cls-4" d="M391.17,188.83c1.34.09,25.63-9.49,25.63-9.49l-17.68-3.17Z"/><polygon class="cls-4" points="390.88 213.67 414.75 210.67 393.63 200.02 390.88 213.67"/><polyline class="cls-4" points="390.82 291.18 402.81 296.64 379.81 296.64 377.5 285.1 390.82 291.18"/><polygon class="cls-4" points="312.33 336.9 349.74 376.65 348.27 353.33 312.33 336.9"/><polygon class="cls-4" points="384.61 359.4 425.58 332.52 391.67 340.54 384.61 359.4"/><polygon class="cls-4" points="358.48 334.94 382.51 348.3 368.94 333.38 358.48 334.94"/><polygon class="cls-4" points="437.31 239.55 440.55 290.87 427.85 263.46 437.31 239.55"/><polygon class="cls-4" points="390.88 112.33 399.07 136.7 382.56 124.52 390.88 112.33"/><polygon class="cls-4" points="375.79 152.65 393.63 179.51 402.81 160.32 375.79 152.65"/><polygon class="cls-4" points="419.34 175.63 434.99 218.28 422.73 232.54 419.34 175.63"/><polygon class="cls-5" points="229.02 166.45 214.48 167.78 219.1 190.39 229.02 166.45"/><polygon class="cls-5" points="222.84 225.49 209.57 241.41 219.76 252.12 222.84 225.49"/><path class="cls-5" d="M233.84,125.09c-.83-.14-14.08,1.51-14.08,1.51l-5.28,14.47Z"/><polygon class="cls-4" points="233.34 212.71 229.54 259.39 235.36 227.45 233.34 212.71"/><polygon class="cls-4" points="227.45 268.59 226.61 296.07 230.24 288.57 227.45 268.59"/><polygon class="cls-4" points="233.34 299.47 292.63 313.34 265.24 303.17 233.34 299.47"/><polygon class="cls-4" points="315.62 314.56 349.74 316.03 344.06 309.28 315.62 314.56"/><polygon class="cls-4" points="355.93 304.72 360.91 241.39 352.75 277.29 355.93 304.72"/><polygon class="cls-4" points="360.51 224.14 360.1 197.48 369.62 138.64 360.51 224.14"/><polygon class="cls-4" points="366.61 142.92 366.86 115.1 372.5 110.47 366.61 142.92"/><polygon class="cls-4" points="372.67 87.65 376.84 36.58 370.86 61.12 372.67 87.65"/><polygon class="cls-4" points="270.86 16.78 322.34 16.46 295.64 23.05 270.86 16.78"/><polygon class="cls-4" points="352.9 14.38 368.81 19.76 362 21.39 352.9 14.38"/><polygon class="cls-4" points="250.41 50.3 246.35 38.38 241.31 109.8 250.41 50.3"/><polygon class="cls-4" points="246.31 111.91 238.39 195.31 237.37 148.52 246.31 111.91"/><polygon class="cls-5" points="272.24 42.85 262.21 100.24 305.44 49.84 272.24 42.85"/><polygon class="cls-5" points="343.56 53.29 354.63 117.77 318.66 134.34 343.56 53.29"/><polygon class="cls-5" points="273.53 233.72 247.69 283.57 281.56 285.45 273.53 233.72"/><polygon class="cls-5" points="324.53 194.74 346.98 269.82 305.44 288.95 324.53 194.74"/></g><polygon class="cls-4" points="355.93 304.72 357.59 282.87 360.91 241.39 364.48 199.3 369.62 138.64 371.24 116.01 377.23 48.92 376.67 21.54 361.46 12.69 284.31 15.45 256.38 18.5 246.14 31.77 244.49 58.32 241.17 106.71 239.1 130.3 237.3 151.4 233.7 194.65 231.18 225.9 227.97 264.06 225.68 293.38 233.15 303.34 258.87 308.59 282.68 312.04 299.08 314.79 334.08 318.82 348.06 316.25 355.93 304.72 347.36 306.38 333.26 312.74 287.35 305.83 251.4 300.3 235.36 295.32 230.52 284.83 233.98 248.13 237.57 206.82 243.1 156.15 246.14 115.56 250.57 63.02 253.33 33.43 264.06 23.5 276.01 21.54 360.91 20.16 368.65 24.86 371.14 38.96 366.72 106.16 363.4 140.18 360.08 187.47 354.55 251.62 351.23 295.6 347.36 306.38 355.93 304.72"/><polygon class="cls-4" points="371.24 116.01 377.7 105.04 384.48 102.87 393.43 106.45 397.66 126.64 415.88 146.97 424.21 177.62 439.89 214.34 438.76 249.64 441.86 287.63 438.05 314.17 451.05 347.08 435.79 330.16 422.59 336.63 399.08 357.81 371.4 370.94 354.41 370.1 373.54 359.22 377.23 349.34 357.59 332.95 352.62 320.95 374.3 333.21 395.4 336.2 417.93 322.65 394.27 318.13 426.05 314.17 431.7 300.9 427.68 278.4 409.95 261.22 428.45 251.62 428.03 217.02 414.81 179.98 412.77 152.91 405.29 157.71 406.21 145 393.43 135.11 391.87 123.96 383.97 119.86 381.52 108.85 371.24 116.01"/><polygon class="cls-4" points="369.6 138.64 373.22 155.45 378.73 164.49 383.63 171.26 383.9 187.47 388.19 201.34 385.51 217.02 386.35 230.43 369.08 265.16 375.76 296.52 396.5 309.28 415.87 295.6 390.15 292.62 381.19 265.17 403.44 269.83 390.17 257.55 416.64 247.8 422.57 237.85 401.82 241.39 396.5 233.4 419.18 230.43 421.09 218.36 409.02 225.14 401.82 219.54 417.07 210.1 403.44 206.71 398.64 190.19 409.9 175.36 396.5 182.06 393.42 169.14 400.92 158.35 390.17 161.59 376.61 148.67 369.6 138.64"/><path class="cls-4" d="M350.64,397.91l-4.24-16.52-15-10.45-22.45-24L282.68,312l24,22.82,26.54,9.67s22.54-1.18,22.47-1.27-16.83,20.83-16.83,20.83l14.7,15.47Z"/><polygon class="cls-4" points="461.05 375.3 451.05 347.08 434.8 343.26 406.28 359.22 378.75 390.99 386.79 402.57 399.03 418.64 396.52 388.24 427.25 358.94 449.7 359.22 461.05 375.3"/><polygon class="cls-4" points="353.6 430.94 350.64 397.91 363.49 393.25 378.74 391.98 399.03 418.64 380.66 404.34 363.49 396.71 355.73 404.34 353.6 430.94"/><polygon class="cls-4" points="367.16 408.61 368.08 414.58 376.2 414.58 377.47 406.1 370.27 402.64 367.16 408.61"/><g class="cls-1"><polygon class="cls-6" points="346.12 468.73 344.64 431.45 366.86 430.18 399.03 418.64 441.44 395.87 467.49 368.54 490.8 450.73 465.46 397.95 434.34 428.59 383.36 433.98 359.47 444.27 346.12 468.73"/></g><polygon class="cls-4" points="231.18 225.9 222.98 221.29 210.41 230.01 207.02 246.39 226.28 262.63 217.77 251.62 224.41 242.86 214.01 242.86 217.97 231.99 231.18 225.9"/><polygon class="cls-4" points="232.61 208.04 220.02 198.1 208.01 180.59 213.8 164.94 228.77 164.34 235.36 172.39 222.98 175.15 219.1 185.67 227.78 198.1 232.61 208.04"/><polygon class="cls-4" points="236.17 164.94 222.98 154.32 209.71 139.77 213.8 126.14 230.38 121.98 239.1 130.3 226.87 126.64 219.1 135.32 227.78 149.73 236.17 164.94"/><polygon class="cls-7" points="333.26 312.74 287.35 305.83 251.4 300.3 235.36 295.32 230.52 284.83 237.57 206.82 243.1 156.15 246.14 115.56 250.57 63.02 253.33 33.43 264.06 23.5 276.01 21.54 360.91 20.16 368.65 24.86 371.14 38.96 366.72 106.16 363.4 140.18 360.08 187.47 354.55 251.62 351.23 295.6 347.36 306.38 333.26 312.74"/><path class="cls-8" d="M391.06,242.84l32.38-22,.26-.13,15.64,10.69v-.16l-15.51-10.6,15.51-7.59-.05-.13-15.05,7.37,14.11-9.57-.06-.13-14.63,9.93-36-24.62,6.35-.47,43.84,14.06-.07-.17-43.41-13.92,36.32-2.7-.06-.13L394,195.31l-5.45-1.74,11.66-15.69,20.73-6.45,2,1.37-.06-.21-1.73-1.21,1.3-.4,0-.13-1.4.43L410.52,164l7.32-9.83,0-.18-7.38,9.93-19-13.2,18.35-10.57-.09-.11L391.3,150.64l-4.05-2.82,5.86-24.56,4.14,1.4,0-.16-4.08-1.38,2-8.46-.07-.32c-.68,2.88-1.37,5.8-2.08,8.74l-20.09-6.8,3.75-4.08,15.2-6.38-.18-.07L376.88,112l8.14-8.87-.14-.06-8.3,9-7.18,3-27.59-9.34-1.35-18.4,10.2-11.1L385.3,91.63v-.14L350.76,76.15l12.6-13.73,23.7,4.75V67l-23.6-4.73q6.16-6.69,11.86-12.92l12.25,8.21v-.16l-12.17-8.15,5.1-5.55,1-.32,6.29,6.33v-.19l-6.15-6.19L388,41.29v-.15l-6.46,2.11-.29-.29,5.91-6.46-.08-.12-5.93,6.48-10.64-10.7,13.93.45-.1-.14-14-.45-18.78-18.9h-.19L370.15,32l-21.57-.7L335.72,22.7l-.65-8.87h-.14l.64,8.76-10.88-7.29.92-1.17h-.18l-.86,1.1-1.52-1h-.24l1.68,1.12-11.6,14.8-1.81-.06,2.31-15.56h-.14l-2.31,15.56-7.46-.24,6.6-15.22h-.16l-6.59,15.2-13.14-.42,19.48-14.78h-.23L290,29.41,276.85,29l-.36-.68-1.16-11.87-.14,0L276.31,28l-5.88-11-.15,0,6.07,11.36.06.63L251,28.15l0-2.62-.14.17,0,2.44L249,28.08l-.11.13,2,.07,0,3.52-3.53-1.57-.09.11L250.86,32l.06,7.82-5.21-1v.13l5.22,1L251,53l-5.94-4.13v.16L251,53.2l0,5.72-7,5.29v.18l7-5.3.12,16-7.66-2.58v.14l7.67,2.59.07,10.59-8.84,2.89v.15L251.24,86l.12,16.77-9.48-6.48v.16l9.49,6.49,0,5.67-11.71,14.94,0,.25,11.73-15,.28,40.06-.29.67-25.5-8.18,10.62-13.56-.1-.1-10.66,13.61-15.06-4.83,0,.13,15,4.82L219,150l.1.1,6.7-8.56,25.54,8.2L243.41,168l-3.29,1.38L236,166.7v.15l4,2.56-4.34,1.82-.6.25L209.2,182.32l.08.11,25.84-10.84.48-.2,4.5-1.89,2.07,1.32-9.7,22.38L212,186.45l.13.19,20.25,6.69-4.78,11,.11.08,4.8-11.06,7.88,2.6-9.89,10.75.11.09L240.56,196,252,199.81l0,6-20.75,1.54.16.13L252.08,206l.13,17.77-17.84,5.54-3.75-3.7-.46-.26,4.05,4-20,6.21L219.67,223l-.22.17-5.38,12.39-5.14,1.6,0,.15,5.11-1.58-2.66,6.13-3.15-1.13,0,.14,3.13,1.12-2.53,5.82.11.09,2.55-5.87,13.07,4.66-10.14,5.84.12.1,10.19-5.88L246,254.41,227.09,275l0,.22,19.09-20.8,6.28,2.24.24,35.46L227,276.26l0,.16,25.7,15.9.09,11.92-4.48,2.19.22.05,4.26-2.09,0,3,.14,0,0-3.05,10.7-5.25,6.78,4.2-1,6.83.14,0,1-6.77,16.24,10.05-2,1.37.08.11,2.07-1.4,8.43,5.22-3.78,5.09.09.12,3.81-5.14,9.83,6.08,1.93,19.71.15.21L305.42,325l29.65,18.34-15.54,14.31-.47.11.11.11.15,0-.1.09.1.1.28-.26,17.81-4.21L332.92,372l.12.09,4.52-18.59,10.1-2.39,12.57,7.79,2.09,28.49L349.63,394l0,.14,12.66-6.61,2.05,27.94-12.56-4.37v.15l12.56,4.37v.06l-11.9,3.05,0,.14,11.89-3.05,2.35,32-21.62-16.42h-.21L366.77,448l.21,2.82-21.47,2.6v.14L367,451l.45,6.2.14-.07-.46-6.14,3-.37,3.93,3,.13-.07-3.86-2.94,10.47-1.26-2.56,4.85.15,0,2.57-4.9,17.72-2.15-2.85,10.07.14,0,2.86-10.11L434,442.87l-3.47,16.44.16-.05,3.46-16.41,6.26-.76,8.78,3.06-17.31,13.68.4-.15,17.06-13.48,4.88,1.7,2.87,2.83.14-.05L454.53,447l5.16,1.8.2-.08-5.59-1.94-3.08-3,4.4-3.48,30.19-3.66,1.19.74-.06-.2-.91-.57.72-.09,0-.13-.88.11-14.25-8.82,10.34-8.17,0-.14-10.42,8.23L441.32,408.9l2.87-13.59L468.93,389l9.27,17.36-.18-.63-8.95-16.76,3.92-1,0-.13-3.94,1-7.48-14-1.95-3.66-7.38-13.81.93-4.38-.09-.25-.94,4.44-6.86-12.84,3.9-2-.05-.13-3.91,2.05-4.51-8.45,3.36-6.4-.06-.18-3.38,6.44-3.07-5.76,6.14-1.45-.05-.13-6.16,1.46-3.47-6.5.46-1.61,7.62,2.72-.07-.17-7.52-2.68,5.13-18.11.15-1-5.41,19.09-1.62-.58L410,278.32l30.39,19.47,0-.15-30.56-19.57-1.23-2.31L428,257.94l11.75,3.88v-.15l-11.62-3.83L438.81,248v-.19l-10.85,10-35.12-11.61m78.63,181.54,14.14,8.75-29.79,3.61Zm-30.28-18.9-14.55-9L444,395.35Zm-37.27-3.17,6.82-1.75.17.17-7.12,25.12-10.35-3.6Zm-10.61,19.89L365,415.66l38.78-10Zm-141-201.69,25.79-8-25.74,14.83Zm0,23.24L242,236.82l10.28-5.92Zm0-23.39L252.22,206l15.07-1.12,16.88,5.58-.31,2.1-5.18,3Zm134.54-28.13-.21.29-11.15.83,1.6-6.65,3.15,1Zm-6.14-4.37,7.58,2.44L387,195.46ZM355.56,293.33l-.78-10.74q2.18-9,4.38-18.12l14.19-9.63,34.1,21.84L379.92,302Zm24.25,8.79L357.7,322.47l-2.12-29Zm-79.39-28.46-5.83-59.79L325.14,224l26.44,16.94.14,2-15.14,20.36L309,276.72Zm8.4,3.15-7.73,3.78-.66-6.78Zm-25.05-62.73,5.9-1.84,4.77,1.58,5.83,59.79L276.21,265Zm-.12-.11-.49.15.55-.6Zm-3.08-61.45,7.58-3.18,1.21,12.41L276,157.47Zm-4.69,4.9-4-1.27,8.36-3.5Zm7.6-111,3.32,1.47,4.8,9-.42,1-10.5,13.41-2.53-25.9Zm-5.35-1.21L278,44l4.88,2.17Zm27.16,23-6.39,2.09-7-13.11L296,52l11,4.89Zm1.81-11.26,13.84,6.14-15.5,5.07ZM353.71,268l-.92-12.55,9.54-4.67L359,264.39Zm5.28-3.41-4.25,17.53-1-14ZM290.31,170l1.11-7.48,30,9.63-27.95,30.47Zm3.12,33.46-.33-.21.28-.3Zm3.86-69.15,10,6.82-13.53,5.68,1.53-10.32Zm-2,1.94.44-3,1.42,1ZM293.6,146.9l-5.33,2.24-.44-4.51,7.29-7.93Zm.13.1,13.69-5.75,26.06,17.82-11.93,13-30.11-9.66Zm54.55,47,14.2-4.41,4.13,7.74-18,1.33Zm.2,4.67-20,1.48,19.65-6.11Zm11.44-14.16,9.08,2.91-6.46,2Zm2.49,4.95-14.14,4.4-1-13.41,12.44,4Zm-14.28,4.44-20.25,6.3-25.68,1.91,40.27-23.2,4.68,1.5Zm-51.67,11.51,5.47-3.15,25.37-1.88-26.05,8.1Zm4.62,3.12-6.81,2.12-.36-3.77,2.42-1.39Zm.8-6.4-8.3.61,28-30.53,20.7,6.64Zm40.75-23.32,4.22-2.43.29,3.88Zm3.73-11,6.87,4.69-6.26,3.6Zm.48,8.37-4.39,2.53-20.76-6.66,11.9-13,12.63,8.63Zm-45.23,26.06-5.28,3-2.75-1.76-.06-.68Zm-5.41,3.11-2.31,1.33-.29-3Zm-2.06,5.29-4.47,1.39-3-1,7.15-4.12Zm0,.14.28,2.82-4.54-1.5Zm.14,0,6.94-2.16,23.44,15-30.1-9.94Zm7.11-2.21,26.51-8.24,20.59-1.53L351,232.34l-25.75-8.5ZM351,232.49l.61,8.24-25.9-16.59Zm.15,0,6.65,2.2-5,6.74-1-.66Zm1.56,9.05-.82,1.1-.12-1.7Zm-.93,1.48.9,12.29-15.79,7.73Zm.12-.17.92-1.23L363,248.18c-.19.81-.39,1.62-.58,2.42l-9.6,4.7Zm10.64,7.8,2.48-1.22,8.25,5.28-14,9.51Q360.85,257.52,362.5,250.7Zm0-.18.54-2.26,1.76,1.13ZM363,248l-10.12-6.48,5-6.77,7.68,2.53C364.71,240.91,363.85,244.47,363,248Zm-5-13.37,12.18-16.39c-1.52,6.3-3,12.62-4.56,18.91Zm-.14,0-6.75-2.23-2.47-33.57,18.05-1.34,5.86,11c-.76,3.15-1.52,6.32-2.29,9.48Zm14.79-26,1.89,3.54-4.06,5.45Q371.56,213.1,372.64,208.65Zm-.05-.4-5.76-10.78,8.51-.63C374.42,200.64,373.51,204.43,372.59,208.25Zm-5.83-10.91-4.15-7.77,6.61-2.06L377,190c-.54,2.23-1.07,4.46-1.61,6.7Zm2.7-9.9,3.8-1.18,4,2.72c-.08.3-.14.58-.22.89Zm-.23-.07-9.41-3-6.11-11.45,19.4,13.26Zm-9.59-3.08-12.36-4-.3-4,6.37-3.67.11.07ZM346.35,167.7l-.7-9.6,7.67,14.36Zm-.14-.1-12.52-8.55,7.88-8.59,3.91,7.34Zm-4.54-17.25,3-3.31.76,10.42Zm-.07-.13-10.17-19,11.74-4.93,1.51,20.6Zm-.1.11L333.57,159l-26-17.77,23.73-10Zm-34.07-9.23-10-6.87,22.46-24.43,11.38,21.31Zm5.28-45,11.9,8.28-4.73,5.15Zm7.07,13.54c-7.41,8.06-14.93,16.25-22.51,24.48l-1.48-1,6-40.75L312.48,96ZM298.83,70.44l4.79,9-1.37,9.27-18.66-13,.14-.32Zm-15,4.76,7.5-17.28.5-.64,7,13Zm18.55,13.72,9.79,6.81-10.29-3.48Zm-.13-.09-.5,3.38-19.65-6.65-.51-5.19,2-4.54Zm.15-.06,1.36-9.16,8.58,16.07Zm1.29-9.59L299,70.39l6.31-2.06ZM291.83,57l-.08-.14,2.47-5.68,1.61.71Zm-.16-.29L287,48l7.09,3.15Zm-10.89,17-1.22-.84,1-1.29Zm-.08-2.29L291,58.35l-7.33,16.91-.45.15-2.25-1.57Zm2.31,4-1.86.62-.21-2Zm.14.1.27.19-1.88,4.33-.38-3.86Zm-1.22,10-2.27-.76,1.79-4.12Zm0,.16,4,40.72-18.75-12.82,12.45-28.69Zm.15,0,19.61,6.64-6,40.7-9.6-6.56Zm13.55,47.49-.49,3.26-7.34,8-1.73-17.77Zm-7.5,16-7.34,3.09,6.91-7.52Zm.15.09,5.29-2.22-2.27,15.31-1.8-.58Zm3,13.23-1,7-.73-7.52Zm2.08,40.27-.93.07L286,198.76l4.19-28.17Zm-.12.15-.25.27-.36-.23Zm-.23.45.44.29.31,3.16L286.45,211l-.35-.12Zm-6.72,7.75-.82.47L286,211Zm-1.22.7-1.06.61.29-2,1.55.51Zm-.31.34-.84.92.07-.47Zm.4-.23,1.31-.75,3,1-5.65,1.76.09-.59Zm51.24,51.52-13.53,18.21-13.69-4.88Zm-13.48,18.37,6.81,2.43-17.4,11.81Zm.08-.11,13.67-18.39,16-7.82.92,12.58-23.69,16.08Zm30.59-13.47,1.05,14.31-2.33,9.61L330,284.23ZM354.67,283l.75,10.25-3-1.06Q353.55,287.65,354.67,283Zm18.68-28.35-8.23-5.27,14.93-7.31,8,2.63ZM365,249.32l-1.87-1.2q1.29-5.35,2.59-10.75L379.86,242Zm7.7-40.88q1.43-5.88,2.8-11.61l11.07-.82-11.94,16.05Zm4.46-18.53c.07-.28.13-.57.2-.85l2.52,1.72Zm.11-1.08-3.84-2.62,4.84-1.51C377.92,186.09,377.6,187.44,377.26,188.83Zm-4-2.72-19.71-13.48,0-.07,32.07-18.48c-2.39,10-4.83,20.18-7.31,30.47Zm-19.82-13.67-7.84-14.68-.79-10.86,15.91-17.35,26.35,18.33c-.48,2-1,4-1.45,6Zm-8.65-25.73-1.5-20.51,7.87-3.31,9.45,6.58Zm-1.51-20.66-.67-9.11,8.42,5.86Zm-.14.06-11.8,5L320,109.69l4.78-5.2,17.75,12.35Zm-18.45-21.8L313,96.18l14.62,4.94C326.66,102.18,325.69,103.23,324.71,104.31Zm-12.1-8.42-.05,0-8.79-16.48,1.64-11.09,15.72-5.15,18,8,1.19,16.18L327.74,101Zm8.72-32.81,16.81-5.49,1,13.39Zm-.19-.08-14-6.23.81-5.44,30.19,6v.07ZM307.81,51.16l-9.69-1.94L310.44,33.5Zm0,.14-.8,5.42-10.94-4.86,2-2.52Zm-11.87.5-1.65-.73,1-2.28,2.61.52ZM294.15,51,286.9,47.8l-.41-.77,8.63,1.73Zm-7.46-3.3-2.59-1.16,2.21.45Zm-3.17-1.41L278,43.85,277.53,39l3.22-2.44,5.48,10.26Zm-5.66-2.52-4.17-1.85,3.71-2.81Zm0,.16.12,1.25-6.8-1.36,2.37-1.8Zm.14,1.39,2.54,26.08-1.1,1.41L255.2,56l15.84-12ZM279.48,73l1.31.91.22,2.2-5.34,1.75ZM281,76.26l.4,4.08-1.89,4.36-7.29-2.46,3.28-4.18Zm-8.92,5.93-4.53-1.53,7.71-2.52Zm0,.17,7.33,2.47L267,113.49l-12.56-8.58Zm-5,31.34,18.83,12.87,1.76,18-7.2,7.82-8.78,3.69-19.89-6.38v-.78Zm4.42,42.47-19.59,8.22-.1-14.54Zm.2.06,4,1.31-20,21.8L252,177l-.09-12.42Zm4.2,1.35,13.46,4.32.79,8.12-4.25,28.66-30.08-19.27ZM286,198.91l6.18,4-6.84.5ZM292.4,203l.49.32L286,210.87l-1.62-.54,1-6.82Zm-8.21,7.3-16.54-5.46,17.55-1.31Zm-.36,2.42-.08.56-.85.93-3.62,1.13Zm-.86,1.61.65-.2L276.07,265l-8.78-3.13-14.64-14.47Zm-6.92,50.8-.69,4.7-7.84-7.74Zm-.6,5L291,285.51l-19.26,9.43Zm0-.16.71-4.78,24.1,8.59.67,6.89-9.8,4.8ZM301,280.8l1.56,15.89-11.27-11.14Zm.14-.06,7.9-3.87,13.77,4.91L312,296.3l-5.84,4-3.46-3.43ZM306,300.35l-2.81,1.91-.51-5.2Zm.1.1,1.61,1.58-4,5.4-.49-5Zm.12-.08,5.49-3.73-3.92,5.28Zm5.84-4,17.82-12.09,22.38,8c-3.64,15-7.17,29.55-10.49,43.22L307.91,302Zm29.79,39.38.66.65-1.06,1C341.6,336.87,341.73,336.33,341.87,335.79Zm0-.16c3.33-13.71,6.85-28.24,10.5-43.28l3,1.08,2.14,29.16-14.94,13.76Zm15.67-12.86,1.87,25.39-3.93.93-12.8-12.65Zm1.88,25.53.37,5.06-4.2-4.15Zm.13,0,72-17-6.66,23.51-38.58,20.11L373.63,367,360,353.5Zm54.78,44.11,11.93,7.38-15.12,3.89ZM411,403.69l-.24.06-3.86-3.81,4.82-9.18,2.5,1.55Zm3.26-11.52-2.47-1.53,6.31-12Zm-2.59-1.61-25.24-15.62,38.38-20L418.32,378ZM425,354.84l7.52-3.91-13.91,26.45Zm-38.83,20.09-3,1.55-9.14-9Zm.14.09,25.31,15.67-4.8,9.14-23.51-23.25Zm20.54,25,3.77,3.73-6.62,1.7Zm4.17,4.12,25.77,25.48-2.17,10.27-30.7-10.69Zm0-.15.07-.23,15.33-3.94,14.7,9.1-4.34,20.54Zm41.09-46.49L459.89,372l1.54,2.88,7.44,13.93-24.65,6.33Zm-.1-.19-8,37.85-17.58,4.52-12.08-7.48,4-14.21,14.3-27.21,12.38-6.46Zm-11.47-21.47,4.46,8.36-12.19,6.36Zm-.08-.15-7.87,15-7.57,4,6.64-23.45,5.67-1.34Zm-3.2-6-5.55,1.31,2.17-7.65Zm-3-8.19-.42,1.48-1.08-2Zm-.48,1.67-2.23,7.87-72,17-1.87-25.48L380,302.17,432.62,321Zm-1.31-2.45-52.45-18.7,27.5-25.31,2.2,1.41Zm-22.89-42.85-2-1.26.87-.8Zm-17-31.8-4.33-1.43,2.62-1.78m.05-.2h0s-.08,0-.11.08h0l-2.72,1.84L380.23,242l8.11-4h0c.05,0,.08-.06.13-.07h0l34.09-16.68ZM374.7,212.2,386.75,196l.67-.05,36.12,24.69-.17.12-35,17.11m5.23-42.52-6.17.46-.38-.26,1.38-1.86Zm-5.22-1.82-8.08-2.59-2.94-2q.51-2.14,1-4.26L400,178Zm22-29.39,10.36,7.2-20.45,6.36Zm-.11-.08-10.2,13.71-21.68,6.74q3.82-15.9,7.32-30.52l5.52-3.18Zm-19.16-13.33-5.36,3.08q.7-2.94,1.4-5.84Zm1.8-27.51c-1.9,8-3.85,16.18-5.85,24.52l-26.28-18.28,12-13.06Zm-16.62-10.88-3.58,3.9-3.17-1.07Zm-6.94,2.91,3.26,1.11-11.94,13-9.4-6.54Zm-.2-.06-18,7.55-8.58-6-.8-10.85Zm-26.74,1.48-17.65-12.27,3-3.22,13.9,4.7Zm-.8-10.94-13.79-4.66,12.45-13.55Zm-1.22-18.54-1.18-16,11.26,5Zm10.18-11.09-11.37-5-1-13.5.27-.09,24.67,4.94Zm12.69-13.82-24.51-4.91,32.54-10.64,3.86,2.59Zm12-13.07-3.79-2.53,8.73-2.86Zm5.82-6.14.24.24-.66.22ZM370.29,32.15,381,43l-.59.65-9.07,3L348.8,31.46Zm.92,14.48L338.53,57.31l-.28-.06-1.92-26.2,12.21.4ZM348.32,31.3l-12-.39-.59-8ZM324.6,15.42l11,7.35.6,8.14-23.12-.75ZM313,30.29l23.24.76,1.92,26.18-30.16-6,2.66-17.91Zm-1.89-.06,1.72.06L310.65,33ZM303.42,30l7.5.25-.44,3L298,49.19l-2.65-.53ZM290,29.55l13.25.43-8.09,18.65-8.78-1.76-5.54-10.38Zm-.22,0-9,6.83-3.86-7.25Zm-13-.42,3.91,7.34-3.16,2.4-1-9.75ZM251,28.28l25.45.83,1,9.85-3.85,2.91L251,31.86ZM251,32l22.42,10L271,43.79l-19.95-4Zm.06,7.93,19.8,4-15.78,12-3.93-2.73Zm.09,13.35L255,56l-3.78,2.87Zm0,5.7,3.9-3,24.28,16.9-3.93,5-8.09,2.65L251.3,75.16Zm.11,16.31,15.83,5.36-15.75,5.15ZM251.38,86l16-5.22L272,82.31l-17.64,22.52-2.87-2ZM251.5,103l2.78,1.91-2.74,3.5Zm0,5.63L254.4,105,267,113.62l-15.17,35Zm-.07,41.08.22.07.1,14.64-8.19,3.43Zm-7.95,18.33,8.27-3.47.09,12.27-9.53-6.1Zm-3.26,1.36,3.07-1.29-1.1,2.55Zm.26,26.43-7.92-2.61,9.69-22.35,9.59,6.14,0,6.43Zm.14,0,11.26-12.24.12,16ZM252,177.13l3.61,2.31-3.57,3.88Zm0,6.39,3.69-4,30.14,19.32-.67,4.55-17.91,1.33-15.13-5Zm.12,16.34L267,204.74l-14.73,1.09Zm0,24,0,6.85-10.38,6-7.39-7.32Zm-27.56,22.75-13.18-4.7,2.71-6.23,20.15-6.26,7.42,7.34Zm21.47,7.66-21.3-7.6,17-9.81,10.52,10.4v.19Zm.14,0,6.11-6.67.07,8.87Zm6.13-23.53,26.35-15.18,4-1.23-30.16,32.87,0-.05Zm.17,16.66L267,261.74l-14.41-5.14-.06-9.07Zm.35,56.69-.09-11.76L263.48,299Zm-.09-11.93-.25-35.49L267.21,262l8.12,8-3.71,25-8,3.92Zm17.59,10.89L263.76,299l7.83-3.83Zm16.48,10.2-16.35-10.12,1.2-8.1,19.39-9.49,11.42,11.29.53,5.44Zm8.52,5.27L287,313.4l16.07-10.9.5,5.09Zm.12.07,8.08-10.87,1.65,16.89Zm9.87,6.11-1.67-17.14,4.09-5.51,33.93,33.54c-.15.64-.31,1.28-.46,1.91l-6.12,5.63Zm35.83,13c-.65,2.69-1.3,5.32-1.93,7.94l-4-2.48Zm-3.78,15.55-17.65,4.17,15.39-14.16,4.08,2.52C338.65,348.43,338.05,350.91,337.45,353.37Zm.15,0c.59-2.41,1.19-4.87,1.79-7.35l8.1,5Zm1.83-7.49c.65-2.69,1.31-5.43,2-8.19l1.21-1.11,12.74,12.59L347.68,351Zm8.42,5.21,7.62-1.81,4.37,4.32.38,5.15ZM360,353.71l13.12,13-12.74-7.88Zm.39,5.26,13.17,8.15,9.53,9.43L362.46,387.3Zm2.09,28.48,20.72-10.8L406.76,400l-2.93,5.58-39.11,10-.2-.07Zm4.65,63.39-.2-2.69,3.08,2.34Zm13.78-1.67-10.7,1.3L366.9,448l-2.36-32.19.18,0,28.53,9.93ZM398.75,447l-17.68,2.15,12.32-23.44,10.37,3.61ZM434,442.73,398.9,447l5-17.61,30.71,10.69Zm.15,0,.55-2.6,5.39,1.88Zm.57-2.74,2.16-10.19L448.26,441l-7.82.95Zm14.57,5.08-8.6-3,7.66-.93,2.62,2.6Zm4.67,1.62-4.52-1.57,1.63-1.29Zm-2.88-3-2.56-2.53,6.8-.82ZM448.44,441,437,429.62,441.29,409l30.06,18.61-15.78,12.46Z"/><polygon class="cls-8" points="387 195.65 387.24 195.82 386.85 195.84 387 195.65"/><polygon class="cls-8" points="283.48 75.62 283.32 75.51 283.55 75.43 283.48 75.62"/><polygon class="cls-8" points="291.52 57.42 291.68 57.05 291.73 57.14 291.52 57.42"/><path class="cls-8" d="M388.28,237.92,380,242l-14.29-4.72,4.2-17.42c.15-.61.29-1.22.44-1.82l4.21-5.67-1.27-1.41"/><polygon class="cls-8" points="410.98 403.84 410.96 403.92 410.9 403.86 410.98 403.84"/><polygon class="cls-8" points="276.69 28.98 276.55 28.98 276.52 28.66 276.69 28.98"/><polygon class="cls-8" points="251.68 149.24 251.69 149.66 251.53 149.61 251.68 149.24"/><polygon class="cls-9" points="426.1 480.37 426.24 480.37 426.39 479.65 426.26 479.62 426.1 480.37"/><polygon class="cls-8" points="355.62 304.92 347.5 306.49 348.03 315.39 354.28 306.76 355.62 304.92"/><polygon class="cls-8" points="356.53 343.96 347.82 315.94 334.35 318.91 356.53 343.96"/><polygon class="cls-8" points="347.77 315.67 347.24 306.68 334.55 318.58 347.77 315.67"/><polygon class="cls-8" points="347.25 306.28 351.08 295.61 323.49 250.31 333.36 312.54 347.25 306.28"/><polygon class="cls-8" points="359.88 187.53 312.26 166.67 323.33 249.22 359.88 187.53"/><polygon class="cls-8" points="383.83 186.47 383.83 171.31 379.01 165.07 383.83 186.47"/><polygon class="cls-8" points="377.59 331.24 357.08 344.55 377.09 362.17 377.59 331.24"/><polygon class="cls-8" points="367.12 392.82 379.16 391.86 377.13 363.03 363.71 393.1 367.12 392.82"/><polygon class="cls-8" points="363.73 303.09 365.51 300.38 356.09 304.8 357.63 312.38 363.73 303.09"/><polygon class="cls-8" points="357.4 312.65 355.86 305.06 348.27 315.52 355.08 313.38 357.4 312.65"/><polygon class="cls-8" points="377.5 330.96 357.69 313.05 357 344.28 377.5 330.96"/><polygon class="cls-8" points="290.16 89.11 329.06 76.91 276.24 21.98 290.16 89.11"/><polygon class="cls-8" points="360.38 185.23 369.44 138.82 363.53 140.29 360.38 185.23"/><polygon class="cls-8" points="369.69 139.61 369.07 148.21 364.8 197.14 373.09 155.45 372.35 152 369.69 139.61"/><polygon class="cls-8" points="378.99 392.15 369.46 392.91 363.75 393.37 370.28 402.42 378.99 392.15"/><polygon class="cls-8" points="312.32 166.4 359.96 187.26 363.26 140.17 366.54 106.56 312.32 166.4"/><polygon class="cls-8" points="373.3 155.82 364.87 198.24 375.01 173.29 378.59 164.5 374.71 158.14 373.3 155.82"/><polygon class="cls-8" points="376.77 185.57 383.78 187.52 378.79 165.35 376.77 185.57"/><polygon class="cls-8" points="312.06 165.85 329.14 77.18 290.23 89.38 312.06 165.85"/><polygon class="cls-8" points="311.84 166.64 268.26 176.21 279.45 235.28 311.84 166.64"/><polygon class="cls-8" points="312.01 166.93 279.59 235.65 323.08 249.44 312.01 166.93"/><polygon class="cls-8" points="279.2 235.42 268.01 176.38 237.79 206.8 279.2 235.42"/><polygon class="cls-8" points="268.08 175.63 289.84 89.58 246.31 115.62 268.08 175.63"/><polygon class="cls-8" points="268.29 175.92 311.91 166.34 290.07 89.82 268.29 175.92"/><polygon class="cls-8" points="359.89 188.06 323.48 249.51 354.42 251.48 359.89 188.06"/><polygon class="cls-8" points="369.78 138.72 373.31 155.15 397.18 127 369.78 138.72"/><polygon class="cls-8" points="373.4 155.46 374.7 157.59 378.73 164.2 397.03 127.61 373.4 155.46"/><polygon class="cls-8" points="366.81 106.69 363.66 138.9 371 116.06 366.81 106.69"/><polygon class="cls-8" points="370.93 117.17 363.61 139.98 369.49 138.53 370.23 127.45 370.93 117.17"/><polygon class="cls-8" points="378.96 164.54 383.99 171.07 414.75 147.66 378.96 164.54"/><polygon class="cls-8" points="384.1 187.48 384.12 187.53 423.52 177.65 384.1 171.43 384.1 187.48"/><polygon class="cls-8" points="367.85 92.45 366.86 106.14 370.98 115.35 369.44 70.59 367.85 92.45"/><polygon class="cls-8" points="366.6 105.89 369.35 67.99 370.99 39.29 329.53 76.97 366.6 105.89"/><polygon class="cls-8" points="370.2 57.92 369.67 67.17 377.07 48.93 371.25 39.41 370.2 57.92"/><polygon class="cls-8" points="377.11 51.58 372.66 98.16 371.43 115.3 377.57 105 377.11 51.58"/><polygon class="cls-8" points="372.38 98.17 372.39 98.13 374.65 74.45 377 49.84 369.62 68.02 371.19 113.57 372.38 98.17"/><polygon class="cls-8" points="388.46 201.34 411.71 216.1 423.96 177.95 388.46 201.34"/><polygon class="cls-8" points="440.6 369.53 413.39 390.91 441.3 395.7 440.6 369.53"/><polygon class="cls-8" points="413.13 391.15 398.99 417.36 441.01 395.93 413.13 391.15"/><polygon class="cls-8" points="412.74 391.28 387.01 402.63 398.63 417.43 412.74 391.28"/><polygon class="cls-8" points="394.53 419.16 398.43 417.62 387.4 403.57 394.31 418.68 394.53 419.16"/><polygon class="cls-8" points="393.94 418.55 386.72 402.75 377.75 406.15 394.09 418.88 393.94 418.55"/><polygon class="cls-8" points="426 234.09 411.87 216.63 403.63 262.42 438.53 249.57 426 234.09"/><polygon class="cls-8" points="377.57 406.36 376.35 414.48 393.84 419.03 377.57 406.36"/><polygon class="cls-8" points="407.2 330.78 437.7 314.21 396.74 301.12 407.2 330.78"/><polygon class="cls-8" points="368.2 414.44 376.08 414.44 377.32 406.19 370.33 402.83 367.31 408.63 368.2 414.44"/><polygon class="cls-8" points="403.55 262.86 396.69 300.7 441.54 287.58 403.55 262.86"/><polygon class="cls-8" points="407.44 330.97 434.69 343.06 437.88 314.42 407.44 330.97"/><polygon class="cls-8" points="406.63 359.18 440.55 369.05 434.71 343.47 406.63 359.18"/><polygon class="cls-8" points="312.32 165.99 366.51 106.18 329.41 77.22 312.32 165.99"/><polygon class="cls-8" points="368.94 265.15 361 242.07 357.84 282.24 368.94 265.15"/><polygon class="cls-8" points="385.61 220.57 385.41 217.5 371.61 242.3 386.23 230.37 385.61 220.57"/><polygon class="cls-8" points="361.09 241.28 371.02 242.7 376.34 187.19 361.09 241.28"/><polygon class="cls-8" points="379.4 392.35 377.64 405.89 386.58 402.51 379.4 392.35"/><polygon class="cls-8" points="377.36 405.9 379.11 392.43 370.49 402.6 377.36 405.9"/><polygon class="cls-8" points="370.22 254.44 369.3 264.44 385.96 230.95 371.27 242.93 370.22 254.44"/><polygon class="cls-8" points="361.12 241.56 369.01 264.51 370.99 242.98 361.12 241.56"/><polygon class="cls-8" points="360.23 188.3 361.01 238.62 364.31 199.65 360.23 188.3"/><polygon class="cls-8" points="385.67 217.15 386.4 228.75 386.49 230.21 411.23 216.47 385.67 217.15"/><polygon class="cls-8" points="379.94 190.39 376.96 186.36 385.49 216.39 388.06 201.38 379.94 190.39"/><polygon class="cls-8" points="386.37 230.74 369.33 265.01 403.23 262.51 386.37 230.74"/><polygon class="cls-8" points="371.34 242.21 385.37 217 376.69 186.41 371.34 242.21"/><polygon class="cls-8" points="396.23 300.75 369.2 265.53 366.04 299.92 396.23 300.75"/><polygon class="cls-8" points="298.97 314.26 328.81 312.82 284.8 312.21 298.97 314.26"/><polygon class="cls-8" points="460.83 375.09 451.03 347.44 440.93 369.16 460.83 375.09"/><polygon class="cls-8" points="333.14 312.88 300.56 314.46 333.92 318.67 333.14 312.88"/><polygon class="cls-8" points="361.28 20.54 370.86 38.15 368.53 24.94 361.28 20.54"/><polygon class="cls-8" points="490.87 451.48 467.58 369.34 464.46 414.39 490.87 451.48"/><polygon class="cls-8" points="329.85 76.31 370.97 38.93 360.91 20.44 329.85 76.31"/><polygon class="cls-8" points="300.75 21 343.93 20.29 326.35 20.29 300.75 21"/><polygon class="cls-8" points="329.29 76.75 360.67 20.3 276.33 21.67 329.29 76.75"/><polygon class="cls-8" points="279.18 235.75 237.69 207.07 234.11 247.76 234.11 247.77 230.56 284.16 279.18 235.75"/><polygon class="cls-8" points="237.43 206.84 233.84 195.31 234.1 244.77 236.59 216.42 237.43 206.84"/><polygon class="cls-8" points="368.9 265.71 357.79 282.82 356.09 304.5 365.76 299.96 368.9 265.71"/><polygon class="cls-8" points="406.15 358.9 406.98 331.12 378.07 331.12 406.15 358.9"/><polygon class="cls-8" points="440.44 369.31 406.46 359.42 413.15 390.75 440.44 369.31"/><polygon class="cls-8" points="405.98 359.12 390.33 343.64 377.86 331.3 377.37 362.31 405.98 359.12"/><polygon class="cls-8" points="406.2 359.53 379.61 391.83 412.89 390.86 406.2 359.53"/><polygon class="cls-8" points="412.35 391.15 379.57 392.11 386.84 402.4 412.35 391.15"/><polygon class="cls-8" points="405.95 359.4 377.37 362.59 379.42 391.63 405.95 359.4"/><polygon class="cls-8" points="407.26 331.19 406.42 358.98 434.49 343.28 407.26 331.19"/><polygon class="cls-8" points="380.88 326.19 377.98 330.84 406.93 330.84 396.48 301.22 380.88 326.19"/><polygon class="cls-8" points="375.9 171.85 364.89 198.92 376.49 185.61 378.51 165.43 375.9 171.85"/><polygon class="cls-8" points="384.2 187.8 388.28 201.13 423.46 177.95 384.2 187.8"/><polygon class="cls-8" points="369.36 265.29 396.44 300.57 403.29 262.78 369.36 265.29"/><polygon class="cls-8" points="411.6 216.57 386.55 230.49 403.39 262.21 411.6 216.57"/><polygon class="cls-8" points="385.69 216.88 411.33 216.19 388.3 201.57 385.69 216.88"/><polygon class="cls-8" points="357.02 224.52 354.74 251.06 360.77 241.35 359.98 190.19 357.02 224.52"/><polygon class="cls-8" points="357.58 281.31 360.73 241.95 354.69 251.66 357.58 281.31"/><polygon class="cls-8" points="369.26 141.17 360.22 187.46 364.36 198.99 368.22 153.53 369.26 141.17"/><polygon class="cls-8" points="351.42 294.9 357.45 282.85 354.57 253.23 351.42 294.9"/><polygon class="cls-8" points="361.17 239.96 376.32 186.22 364.58 199.69 361.17 239.96"/><polygon class="cls-8" points="357.74 312.72 377.39 330.49 365.86 300.35 363.97 303.23 357.74 312.72"/><polygon class="cls-8" points="376.97 185.91 382.08 192.83 387.83 200.6 383.86 187.83 376.97 185.91"/><polygon class="cls-8" points="384.83 319.35 396.27 301.03 366.09 300.2 377.76 330.67 384.83 319.35"/><polygon class="cls-8" points="355.73 304.62 351.25 295.94 347.57 306.2 355.73 304.62"/><polygon class="cls-8" points="357.4 283.57 351.39 295.59 355.83 304.22 357.4 283.57"/><polygon class="cls-8" points="351.13 295.16 354.4 251.75 323.5 249.79 351.13 295.16"/><polygon class="cls-8" points="233.91 303.35 258.48 308.37 251.35 300.44 233.91 303.35"/><polygon class="cls-8" points="208.17 180.57 219.76 197.48 213.76 165.45 208.17 180.57"/><polygon class="cls-8" points="213.97 165.07 220.04 197.46 228.59 164.49 213.97 165.07"/><polygon class="cls-8" points="237.16 150.95 238.92 130.82 223.16 154.29 236.02 164.66 237.16 150.95"/><polygon class="cls-8" points="233.84 247.73 233.58 197.84 232.76 207.83 231.31 225.91 231.31 225.94 231.07 228.96 228.19 263.05 233.84 247.73"/><polygon class="cls-8" points="235.38 172.09 231.48 167.65 228.84 164.63 220.39 197.2 235.38 172.09"/><polygon class="cls-8" points="237.43 205.9 237.17 154.47 236.28 164.95 236.28 164.95 235.68 172.09 235.69 172.09 233.86 194.42 237.43 205.9"/><polygon class="cls-8" points="232.47 208.01 233.56 194.37 235.36 172.66 220.2 198.06 232.46 208.13 232.47 208.01"/><polygon class="cls-8" points="216.69 225.45 210.57 230.06 216.36 253.62 222.22 221.29 216.69 225.45"/><polygon class="cls-8" points="229.02 249.84 216.65 254.33 227.85 263.78 229.02 249.84"/><polygon class="cls-8" points="227.99 265.43 227.75 268.23 225.87 292.73 230.24 284.51 227.99 265.43"/><polygon class="cls-8" points="264.46 23.33 254.44 32.59 253.51 33.45 289.78 88.61 275.9 21.69 264.46 23.33"/><polygon class="cls-8" points="230.99 225.96 222.52 221.19 216.68 253.41 230.99 225.96"/><polygon class="cls-8" points="216.67 254.03 229.05 249.54 230.65 230.51 230.98 226.58 216.67 254.03"/><polygon class="cls-8" points="250.48 62.48 253.09 34.52 244.65 58.27 250.45 62.76 250.48 62.48"/><polygon class="cls-8" points="244.6 58.59 241.44 104.8 250.41 63.08 244.6 58.59"/><polygon class="cls-8" points="248.97 80.37 250.25 65.16 241.31 106.69 246.04 115.1 248.97 80.37"/><polygon class="cls-8" points="246.27 31.94 244.68 57.35 253.15 33.53 246.27 31.94"/><polygon class="cls-8" points="256.12 19.05 246.38 31.68 253.23 33.26 256.12 19.05"/><polygon class="cls-8" points="264.17 23.22 256.47 18.71 253.56 33.04 264.17 23.22"/><polygon class="cls-8" points="209.86 139.74 222.65 153.75 213.81 126.61 209.86 139.74"/><polygon class="cls-8" points="223.28 153.62 238.92 130.32 231.1 122.85 230.46 122.25 228.86 129.24 223.28 153.62"/><polygon class="cls-8" points="213.98 126.24 222.96 153.8 230.19 122.17 213.98 126.24"/><polygon class="cls-8" points="244.47 136.41 245.95 116.29 239.25 130.32 243.06 155.53 244.47 136.41"/><polygon class="cls-8" points="242.9 156.37 239.14 131.48 237.47 150.95 242.9 156.37"/><polygon class="cls-8" points="241.26 107.17 239.31 129.55 245.99 115.57 241.26 107.17"/><polygon class="cls-8" points="367.06 430.37 374.38 453.3 406.89 439.54 367.06 430.37"/><polygon class="cls-8" points="407.29 439.67 374.78 453.43 394.05 456.76 422.92 461.76 413.21 448.05 407.29 439.67"/><polygon class="cls-8" points="346.25 468.5 374.04 453.46 344.79 431.74 346.25 468.5"/><polygon class="cls-8" points="366.98 408.65 350.8 398.18 352.76 419.99 353.7 430.51 366.98 408.65"/><polygon class="cls-8" points="366.76 430.33 351.42 431.2 345.03 431.57 374.03 453.12 366.76 430.33"/><polygon class="cls-8" points="407.55 439.56 414.16 448.9 423.2 461.68 439.05 426.84 407.55 439.56"/><path class="cls-8" d="M467.63,368.5l-.24-.05L461.11,375l-9.93-28h0l-13-32.87L442,287.64v0l-3.1-38,1.13-35.3v-.06l-15.68-36.7L416,146.94l0-.06-18.19-20.31-4.23-20.15-.08-.1-8.85-3.54,3-41.61.56-23.35,0-.08L376.79,21.46h0l0,0-15.21-8.85-.07,0-25.17,1.11-52,1.66-27.93,3-.09.05L246,31.69l0,.07-1.66,26.55L241,106.7,239,130l-8.51-8.12-.13,0L213.77,126l-.1.09-4.1,13.63,0,.14,13.29,14.56L236,165l-.55,6.74-6.56-7.49-.11,0-15,.59-.13.09-5.79,15.65,0,.12,12,17.51,0,0,12.5,10.26-1.37,17.22-8.58-4.83h-.15l-12,9-.05.08-3.39,16.38,0,.13,20.89,17.63-.34,4.09-1.94,25.16,0,.1,7.47,9.95.08.05,25.73,5.26,23.75,3.44L308.87,347h0l22.45,24h0l14.93,10.41,4.22,16.47,2.95,32.87-8.82.51-.13.14L346,468.74l.21.11,28.13-15.22,48.88,8.46h.07l41.06-14.81,26.86,5.08.16-.18Zm-.05.84,23.29,82.14-26.41-37.09Zm-6.75,5.75-19.9-5.93L451,347.44ZM333.14,312.88l.78,5.78-33.36-4.2ZM299,314.26l-14.17-2.05,44,.61Zm-64.86-66.49h0l3.58-40.69,41.49,28.68-48.62,48.41Zm-.27-52.47,3.59,11.54-.84,9.58-2.49,28.35Zm126.83-175L329.29,76.74l-53-55.07Zm-59.92.7,25.6-.71h17.58ZM371,38.93,329.85,76.31l31.06-55.87Zm-9.69-18.39,7.25,4.4,2.33,13.21ZM379.4,392.35l7.18,10.16-8.94,3.38Zm-2,13.55-6.87-3.3,8.62-10.17ZM386,231,369.3,264.44l.92-10,1.06-11.51ZM371.61,242.3l13.8-24.8.2,3.07.61,9.8ZM369,264.51l-7.91-22.95L371,243Zm2-21.81-9.93-1.42,15.25-54.09Zm-2.08,22.45-11.1,17.09L361,242.07Zm-8.71-76.85,4.08,11.35-3.3,39Zm9,77.23,27,35.22L366,299.92Zm17.17-34.79,16.86,31.77-33.9,2.5Zm0-2-.73-11.6,25.56-.68-24.74,13.74Zm-.91-12.36-8.53-30,3,4,8.12,11Zm-.12.61-14,25.21,5.35-55.8Zm-8.88-31.39-11.6,13.31,11-27.07,2.61-6.42Zm-.17.61L361.17,240l3.41-40.27Zm-12,12.77-4.14-11.54,9-46.28-1,12.36Zm-3.59,42.36-6,9.71L357,224.52l3-34.33Zm0,.6-3.15,39.36-2.89-29.65Zm-3.28,40.9-6,12,3.15-41.67Zm-6.32,12.31L323.5,249.79l30.9,2Zm.12.78,4.48,8.68-8.16,1.58Zm.14-.35,6-12-1.57,20.65Zm6.4-12.77,11.12-17.11L365.76,300l-9.67,4.53Zm8.07,17.53,11.53,30.14-19.65-17.77,6.23-9.49Zm.23-.15,30.18.83-11.44,18.32-7.07,11.32Zm11.77,31.1,12.47,12.34L406,359.12l-28.61,3.19ZM406,359.4l-26.53,32.23-2.05-29Zm-26.38,32.71,32.78-1L386.84,402.4Zm0-.27,26.59-32.31,6.69,31.33Zm26.85-32.42,34,9.88-27.29,21.45Zm0-.44.84-27.79,27.23,12.09Zm-.27-.08-28.08-27.78H407ZM378,330.84l2.9-4.65,15.6-25,10.45,29.62Zm18.46-30.27-27.08-35.28,33.93-2.51Zm-9.89-70.08,25.05-13.92-8.21,45.64Zm-.86-13.61,2.61-15.31,23,14.62Zm2.59-15.75L384.2,187.8,423.46,178Zm-.45-.53-5.75-7.77L377,185.91l6.89,1.92Zm-4-14.13L379,165.07l4.82,6.24Zm-.05,1.05-7-2,2-20.22ZM375,173.29l-10.14,25,8.43-42.42,1.41,2.32,3.88,6.36ZM364.8,197.14l4.27-48.93.62-8.6L372.35,152l.74,3.45Zm-4.42-11.91,3.15-44.94,5.91-1.47Zm2.88-45.06L360,187.26,312.32,166.4l54.22-59.84ZM312.32,166l17.09-88.77,37.11,29Zm-.26-.14L290.23,89.38l38.91-12.2Zm-.15.49-43.62,9.58,21.78-86.1Zm-43.83,9.29-21.77-60,43.53-26Zm11.12,59.79L237.79,206.8,268,176.38Zm-10.94-59.21,43.58-9.57-32.39,68.64ZM312,166.93l11.07,82.51-43.49-13.8Zm.25-.26,47.62,20.86-36.55,61.69Zm47.63,21.39-5.47,63.42-30.94-2Zm-8.81,107.55-3.83,10.67-13.89,6.26-9.87-62.23Zm-3.31,20.06-13.22,2.91,12.69-11.9Zm.05.27,8.71,28-22.19-25Zm-.32-9.45,8.12-1.57-1.34,1.84L348,315.39Zm8.36-1.43,1.54,7.59-2.32.73-6.81,2.14Zm.23-.26,9.42-4.42-1.78,2.71-6.1,9.29Zm1.6,8.25L377.5,331,357,344.28Zm19.9,18.19-.5,30.93-20-17.62ZM377.13,363l2,28.82-12,1-3.41.28Zm-7.67,29.88,9.53-.76-8.71,10.27-6.53-9.05Zm.87,9.92,7,3.35-1.24,8.26H368.2l-.89-5.81Zm7.24,3.53L393.84,419l-17.49-4.56Zm.18-.21,9-3.4,7.22,15.8.15.33Zm9.65-2.58,11,14.05-3.9,1.54-.22-.49Zm-.39-.94,25.73-11.35-14.11,26.15Zm26.12-11.48L441,395.93l-42,21.43Zm.26-.24,27.21-21.38.7,26.17Zm-6.76-31.73,28.08-15.71,5.84,25.58Zm28.06-16.12L407.44,331l30.44-16.55ZM407.2,330.78l-10.46-29.66,41,13.09ZM396.69,300.7l6.86-37.84,38,24.72Zm15.18-84.07L426,234.09l12.53,15.48-34.9,12.85Zm-.16-.53-23.25-14.76L424,178Zm-27.59-28.57,0-.05v-16l39.42,6.22ZM384,171.07l-5-6.53,35.79-16.88Zm-5.26-6.87-4-6.61-1.3-2.13L397,127.61Zm-5.42-9.06-3.53-16.42L397.18,127Zm-3.82-16.61L363.61,140l7.32-22.81-.7,10.28Zm-5.83.37,3.14-32.21,4.19,9.37Zm3.2-32.76,1-13.69,1.58-21.86L371,115.35ZM369.62,68,377,49.85l-2.35,24.6-2.26,23.68v0l-1.18,15.4Zm3,30.13,4.45-46.57.46,53.42-6.14,10.3Zm-3-31,.53-9.25,1.06-18.51,5.81,9.52Zm-.33.82-2.74,37.9L329.53,77,371,39.29Zm-40.28,8.92-38.9,12.2L276.24,22Zm-39.28,11.7L253.51,33.45l.93-.86,10-9.26,11.44-1.64Zm.08.64L246.3,115.31,250.71,63l2.73-29.19Zm-21.92,86.82-30.19,30.38,3-27.42,2.46-22.25h0l3-40.56ZM242.27,163l-4.57,41.42-.26-53v-.1l5.52,5.51Zm-11.9,120.24-2.26-19.17,5.62-15.26ZM279,236.34l-27.66,63.79-15.86-4.93-4.91-10.64Zm.49-.44,43.47,13.79L251.72,299.9Zm43.67,14,9.95,62.7-81.33-12.37Zm10.27,62.94,13.25-6-12.47,11.69Zm23.2,31.65-19,6.23-3.36-31.46Zm-8.52-28.6,9.33-2.94-.69,30.75Zm8.84,28.91L377,362.45l-30.36,18.64Zm20,18-13.49,30.23L346.66,381.4Zm-13.48,30.6,6.5,9-18.82-4.53Zm6.62,9.32-2.95,5.67-15.72-10.17Zm-2.13,11.79-13.41,15.16L367.08,409Zm0,.45-1.18,15.07-2.47.14-10.34.59Zm.3-.26H376L367,429.61Zm8.06,0L394,419.36l-15.88,6.24-10.94,4.3Zm9.87,8,8.36-3.29h0l4-1.57.07,0,8.53,21.45-39.78-9.16Zm12.74-4.88,40,8.75-31.45,12.7Zm.18-.24,42.23-21.53-2.09,30.31Zm41.57-8,.93-13.49,22.5,18.26-22.5,10.94-2.08,1Zm.25-40.2,19.92,5.94-19.23,20.16Zm-.1-.61L435,343.45l15.86,3.72Zm10-21.94L435,343.16l3.18-28.42Zm-12.63-34.62-.25,1.73L397,300.9l44.71-13.08Zm3.51-24.91-37.94-24.68,34.87-12.84Zm-3.07-38.09-17.08-21.1-9.49-11.73,27.69-2Zm1.06-35L412,216.16,424.23,178ZM424,177.45l-39.71-6.27,31.49-24Zm-8.37-30.52L379,164.19l18.66-37.31ZM397.5,126.56,370,138.31,385.09,118l8.27-11.17Zm-12.37-9.13-15.34,20.74,1.58-22.07L393,106.78Zm-13.65-1.68,6.3-10.57,15.09,1.36Zm21-9.53L378.4,105l6.08-1.94Zm-8.15-3.45-3,1-3.42,1.09L387.22,63Zm-6.52,1.06-.46-54.53,10,11.9Zm9.69-49.23-.15,6.2-4.23-5-5.73-6.84,10.5-10.76Zm.36-16.8L377.36,48.58,376.82,22ZM376.57,23.42l.51,25-5.79-9.47,5.26-16.56Zm-5.39,15-2.37-13.44,7.64-3.16Zm5.18-16.86-7.65,3.16-6.86-11.6Zm-14.79-8.38,6.68,11.31-7.2-4.37ZM360.78,20H327.66l33.65-7.16ZM336.3,13.93l23.5-1L326.34,20l-40.1-4.49ZM284.35,15.6l40,4.47-1.92.05-46,1.27Zm-.54.05L276,21.39l-18.55-2.87Zm-8.74,5.88-10.65,1.52-7.35-4.31Zm-18.6-2.82,7.69,4.51L253.56,33Zm-.35.34-2.89,14.21-6.84-1.58Zm-9.85,12.89,6.88,1.59-8.47,23.82Zm6.82,2.58-2.61,28,0,.28-5.8-4.49ZM244.6,58.59l5.81,4.49-9,41.72Zm5.65,6.57L249,80.37,246,115.1l-4.73-8.41Zm-9,42,4.72,8.4-6.68,14Zm4.68,9.12-1.48,20.12-1.42,19.12-3.8-25.21Zm-6.81,15.19,3.76,24.89L237.47,151Zm-8.68-9.23.64.6,7.82,7.47-15.64,23.3,5.58-24.38Zm-20.6,17.49,3.95-13.14,8.84,27.15Zm4.12-13.5,16.22-4.07L223,153.8Zm9.18,28.05,15.76-23.46L237.16,151,236,164.66Zm12.52,17.8.6-7.14h0l.89-10.49.26,51.44-3.57-11.48,1.82-22.33Zm-6.84-7.46,2.64,3,3.9,4.44-15,25.11Zm-20.67,15.94,5.59-15.12,6,32Zm5.8-15.5,14.62-.58-8.55,33Zm6.23,33,15.16-25.4-1.8,21.71L232.47,208v.12ZM231.07,229l.24-3v0l1.45-18.08.82-10,.26,49.89-5.65,15.32Zm-2,20.58L216.67,254,231,226.58l-.33,3.93Zm-6.53-28.35L231,226l-14.31,27.45Zm-15.34,25.15,3.25-15.7,5.71,23.26Zm3.39-16.28,6.12-4.61,5.53-4.16-5.86,32.33Zm6.08,24.27L229,249.84l-1.17,13.94Zm11.1,13.9.24-2.8,2.25,19.08-4.37,8.22Zm2.62,16.61,3.69,8,1.06,2.29-9.23-1.85ZM233.09,303,226,293.59l9.18,1.83Zm2.36-7.54,15.35,4.77-17.46,2.91Zm-1.55,7.86,17.45-2.9,7.13,7.92Zm17.86-2.86,20,3.07,14.52,2.24-27.32,2.65Zm8.26,8.13,27-2.62-4.43,5.89ZM287.41,306l43.81,6.59L283,311.91ZM283,312.23l.53.07,15.34,2.22,9.76,31.7Zm16.17,2.33,34.65,4.37L309,346.66ZM334,319.15l3.37,31.58-28.09-3.9Zm-4.79,49.19-19.84-21.21,28,3.88-6,19.66Zm8.07,6.5-5.67-3.95,5.91-19.51,8.66,29.67Zm.42-23.86,19-6.23L346.4,380.89Zm8.95,30.74,16.56,11.49L353,396.9l-2.3.83ZM352.76,420l-2-21.81L367,408.65,353.7,430.51Zm-1.34,11.21,15.34-.87L374,453.12l-29-21.55Zm-5.17,37.3-1.46-36.76L374,453.46Zm20.81-38.13,39.83,9.17L374.38,453.3Zm27,26.39-19.27-3.33,32.51-13.76,5.92,8.37,9.71,13.72Zm29.15,4.92-9-12.78-6.61-9.34,31.5-12.72Zm.29,0,15.88-34.91,23.53,19.34,1.14.94Zm40.69-14.88-1.86-1.53-22.74-18.69,24.6-12Zm0-32.68-22.56-18.3,25.69-26.94Zm.26,32.86V414.86L490.91,452Z"/><polygon class="cls-8" points="464.46 447.01 490.91 452.01 464.46 414.86 464.46 447.01"/><polygon class="cls-8" points="363.19 393.21 346.63 381.72 350.74 397.73 353.04 396.9 363.19 393.21"/><polygon class="cls-8" points="441.64 395.85 464.2 414.15 467.33 368.92 441.64 395.85"/><polygon class="cls-8" points="439.37 426.8 423.49 461.71 464.04 447.08 462.9 446.14 439.37 426.8"/><polygon class="cls-8" points="462.32 445.31 464.18 446.83 464.18 414.65 439.58 426.61 462.32 445.31"/><polygon class="cls-8" points="235.45 295.49 233.34 303.17 250.8 300.26 235.45 295.49"/><polygon class="cls-8" points="287.41 305.98 282.95 311.91 331.22 312.57 287.41 305.98"/><polygon class="cls-8" points="260.02 308.62 282.62 311.89 287.05 306 260.02 308.62"/><polygon class="cls-8" points="271.72 303.56 251.76 300.49 258.92 308.45 286.24 305.8 271.72 303.56"/><polygon class="cls-8" points="234.06 292.84 230.37 284.84 225.89 293.28 235.12 295.13 234.06 292.84"/><polygon class="cls-8" points="226.01 293.59 233.09 303.03 235.19 295.43 226.01 293.59"/><polygon class="cls-8" points="337.68 350.98 346.4 380.89 356.65 344.75 337.68 350.98"/><polygon class="cls-8" points="331.6 370.89 337.26 374.84 346.16 381.05 337.5 351.38 331.6 370.89"/><polygon class="cls-8" points="283.52 312.3 282.99 312.23 308.62 346.22 298.86 314.52 283.52 312.3"/><polygon class="cls-8" points="309.35 347.13 329.19 368.34 331.37 370.67 337.33 351 309.35 347.13"/><polygon class="cls-8" points="333.98 319.15 309.26 346.83 337.35 350.73 333.98 319.15"/><polygon class="cls-8" points="299.16 314.56 309.04 346.66 333.81 318.93 299.16 314.56"/><polygon class="cls-8" points="207.18 246.34 216.14 253.9 210.43 230.63 207.18 246.34"/><polygon class="cls-8" points="275.07 21.53 257.07 18.74 264.42 23.05 275.07 21.53"/><polygon class="cls-8" points="368.21 414.71 367.04 429.61 375.96 414.71 368.21 414.71"/><polygon class="cls-8" points="367.93 414.53 367.08 409.01 354.52 429.69 367.93 414.53"/><polygon class="cls-8" points="369.94 402.42 363.44 393.42 351.12 397.89 369.94 402.42"/><polygon class="cls-8" points="376.92 362.82 346.66 381.4 363.43 393.05 376.92 362.82"/><polygon class="cls-8" points="394.01 419.36 376.26 414.74 367.19 429.9 378.13 425.6 394.01 419.36"/><polygon class="cls-8" points="370.06 402.74 351.39 398.24 367.11 408.41 370.06 402.74"/><polygon class="cls-8" points="440.88 369.43 441.57 395.53 460.8 375.37 440.88 369.43"/><polygon class="cls-8" points="464.06 414.4 441.56 396.14 440.63 409.63 439.48 426.35 441.56 425.34 464.06 414.4"/><polygon class="cls-8" points="438.86 426.62 398.88 417.87 407.41 439.32 438.86 426.62"/><polygon class="cls-8" points="441.29 396.1 399.06 417.63 439.2 426.41 441.29 396.1"/><polygon class="cls-8" points="398.57 417.86 398.51 417.89 394.5 419.46 394.5 419.46 386.14 422.75 367.33 430.15 407.11 439.31 398.57 417.86"/><polygon class="cls-8" points="357.42 312.93 348.09 315.87 356.73 343.69 357.42 312.93"/><polygon class="cls-8" points="237.44 151.41 237.7 204.42 242.27 163 242.96 156.82 237.44 151.31 237.44 151.41"/><polygon class="cls-8" points="377 362.45 356.93 344.78 346.63 381.09 377 362.45"/><polygon class="cls-8" points="251.32 300.13 278.98 236.34 230.55 284.56 235.46 295.2 251.32 300.13"/><polygon class="cls-8" points="250.71 63.03 246.3 115.31 289.86 89.25 253.44 33.84 250.71 63.03"/><polygon class="cls-8" points="243.24 156.78 243.24 156.78 240.78 179.03 237.75 206.45 267.94 176.06 246.23 116.22 243.24 156.78"/><polygon class="cls-8" points="230.37 283.24 233.73 248.81 228.11 264.07 230.37 283.24"/><polygon class="cls-8" points="440.78 368.82 450.85 347.17 434.99 343.45 440.78 368.82"/><polygon class="cls-8" points="356.61 344.47 334.27 319.24 337.63 350.7 356.61 344.47"/><polygon class="cls-8" points="279.47 235.9 251.72 299.9 322.94 249.69 279.47 235.9"/><polygon class="cls-8" points="323.14 249.88 251.76 300.21 333.09 312.58 323.14 249.88"/><polygon class="cls-8" points="346.66 306.85 333.41 312.82 334.19 318.54 346.66 306.85"/><polygon class="cls-8" points="364.26 430.19 366.73 430.05 367.91 414.98 353.92 430.78 364.26 430.19"/><polygon class="cls-8" points="377.08 48.41 376.57 23.42 376.55 22.38 371.29 38.94 377.08 48.41"/><polygon class="cls-8" points="371.18 38.38 376.45 21.78 368.81 24.94 371.18 38.38"/><polygon class="cls-8" points="383.14 55.76 387.37 60.8 387.52 54.6 387.91 38.16 377.41 48.92 383.14 55.76"/><polygon class="cls-8" points="387.88 37.8 376.82 21.99 377.36 48.58 387.88 37.8"/><polygon class="cls-8" points="376.36 21.52 361.85 13.07 368.71 24.68 376.36 21.52"/><polygon class="cls-8" points="359.8 12.9 336.3 13.93 286.24 15.53 326.33 20.02 359.8 12.9"/><polygon class="cls-8" points="283.81 15.65 257.43 18.52 275.98 21.39 283.81 15.65"/><polygon class="cls-8" points="322.43 20.13 324.35 20.07 284.35 15.6 276.45 21.39 322.43 20.13"/><polygon class="cls-8" points="360.78 20.02 361.31 12.86 327.66 20.02 360.78 20.02"/><polygon class="cls-8" points="377.83 103.83 387.35 61.2 377.37 49.3 377.83 103.83"/><polygon class="cls-8" points="434.95 343.16 450.82 346.88 438.13 314.74 434.95 343.16"/><polygon class="cls-8" points="368.25 24.45 361.57 13.14 361.06 20.08 368.25 24.45"/><polygon class="cls-8" points="421.55 228.16 438.63 249.26 439.75 214.48 412.06 216.43 421.55 228.16"/><polygon class="cls-8" points="439.69 214.21 424.23 178.01 411.98 216.16 439.69 214.21"/><polygon class="cls-8" points="424.02 177.45 415.8 147.21 384.31 171.18 424.02 177.45"/><polygon class="cls-8" points="437.94 313.99 438.19 312.26 441.7 287.82 396.99 300.9 437.94 313.99"/><polygon class="cls-8" points="403.76 262.67 441.7 287.36 438.63 249.83 403.76 262.67"/><polygon class="cls-8" points="371.48 115.75 392.87 106.53 377.78 105.18 371.48 115.75"/><polygon class="cls-8" points="378.4 104.96 392.5 106.22 384.48 103.02 378.4 104.96"/><polygon class="cls-8" points="381.31 103.74 384.35 102.77 387.23 63.02 377.89 104.83 381.31 103.74"/><polygon class="cls-8" points="370.03 138.31 397.5 126.56 393.36 106.78 385.09 117.95 370.03 138.31"/><polygon class="cls-8" points="369.79 138.17 385.13 117.43 393.01 106.78 371.37 116.1 369.79 138.17"/><polygon class="cls-8" points="415.65 146.93 397.7 126.88 379.04 164.19 415.65 146.93"/><path class="cls-8" d="M368.9,468.63l-16.31,16.53.11.23,76.47-5.08V480L369,468.6Zm59.17,11.48-75,5,16-16.21Z"/><path class="cls-8" d="M517.11,481.52l-29.68-10.27L498,456.74l-.19-.2-18.61,11.88-23.35-8.08-.14,0-37.91,33.46.11.25,49.57-6.15,1.46,8.15.25.06,6.77-9.26,41.08-5.09Zm-19.73-24.35-10.23,14-7.58-2.62ZM487,471.39l-11.13,15.23-8.11,1-1.86-10.36,13.39-8.54Zm-68.63,22.36,37.53-33.12,23.06,8-13.28,8.48-.07.14,1.88,10.43Zm50.85,2-1.41-7.81,7.83-1Zm7-9.13,11-15.09,29.19,10.1Z"/><path class="cls-8" d="M331.31,479.38l6,14.61.12.09,32.83,2.11.06-.26L331.49,479.2Zm38.17,16.49-32-2.06-5.84-14.23Z"/><polygon class="cls-10" points="467.11 367.98 460.83 374.58 450.89 346.57 450.89 346.57 450.89 346.56 437.91 313.69 441.72 287.18 441.72 287.15 438.62 249.17 439.75 213.88 439.74 213.82 424.06 177.12 415.73 146.48 415.7 146.42 397.51 126.11 393.28 105.95 393.2 105.86 384.35 102.32 387.35 60.7 387.92 37.36 387.89 37.27 376.5 21 376.49 21 376.46 20.96 361.25 12.11 361.18 12.09 336.01 13.19 284.01 14.85 256.08 17.9 255.99 17.95 245.75 31.22 245.72 31.3 244.06 57.85 240.75 106.24 238.71 129.54 230.19 121.42 230.07 121.38 213.49 125.54 213.39 125.64 209.29 139.27 209.32 139.4 222.61 153.96 235.71 164.53 235.15 171.28 228.59 163.79 228.48 163.74 213.51 164.34 213.39 164.43 207.6 180.07 207.62 180.2 219.62 197.71 219.65 197.74 232.15 208 230.78 225.21 222.2 220.39 222.05 220.4 210.05 229.44 210 229.52 206.61 245.9 206.65 246.03 227.54 263.65 227.2 267.74 225.26 292.91 225.29 293 232.75 302.96 232.84 303.01 258.56 308.27 282.32 311.71 308.59 346.56 308.59 346.56 308.6 346.57 331.05 370.57 331.07 370.59 331.07 370.59 346 381.01 350.22 397.47 353.17 430.35 344.35 430.85 344.22 431 345.7 468.27 345.9 468.39 374.04 453.16 422.92 461.63 422.99 461.62 464.05 446.81 490.91 451.88 491.07 451.71 467.35 368.04 467.11 367.98"/><path class="cls-8" d="M319.17,403.52l-.08-.12-27.16-39.73,43.61,27.95Zm-26.25-38.88,26.32,38.49,15.81-11.5Z"/><path class="cls-8" d="M216.59,347.31,201.44,296.8l.28.14,62.37,30.29-.28.12Zm-14.71-50,14.89,49.62,46.66-19.72Z"/><path class="cls-8" d="M229.16,382.08l17.12-28.52.1,0,25.81,5.33-.34.18Zm17.26-28.21-16.5,27.49L271.39,359Z"/><path class="cls-8" d="M201.09,220.6,176,206.7l9.78-23.14Zm-24.73-14L200.53,220l-14.74-35.7Z"/><path class="cls-8" d="M180.23,269.72l-.21-.32-16.71-26,25.4-36.32-.08.56Zm-16.59-26.34,16.41,25.56,8.23-60.8Z"/><path class="cls-8" d="M494.73,277.41l-34.09-26.73,20.35-16,.06.19Zm-33.64-26.73,33.1,25.95-13.34-41.49Z"/><path class="cls-8" d="M487.67,331.34,468.2,294l.2,0,58.29-7.39-.24.27Zm-19-37.09,19.09,36.6L526,287Z"/><path class="cls-8" d="M195.57,351.57l-25-18.23,50-19.28Zm-24.41-18.15,24.34,17.76,24.34-36.55Z"/><polygon class="cls-4" points="376.55 22.38 387.88 37.8 387.37 60.8 384.48 102.87 378.4 104.96 371.24 116.01 377.23 48.92 376.55 22.38"/><polygon class="cls-4" points="369.62 138.64 373.23 155.45 378.74 164.49 376.77 185.57 371.27 242.93 369.09 265.16 366.04 299.92 357.74 312.72 348.06 316.25 355.93 304.72 360.91 241.39 364.48 199.3 369.62 138.64"/><path class="cls-10" d="M466.94,367.77l-.23,0-6.28,6.59-9.94-28h0l-13-32.86,3.81-26.52v0l-3.11-38,1.13-35.3v-.06l-15.67-36.7-8.33-30.64,0-.06-18.19-20.31-4.23-20.15-.08-.1L384,102.05l3-41.61.57-23.35,0-.08L376.1,20.73h0l0,0-15.21-8.85-.08,0-25.16,1.11-52,1.66-27.93,3-.1.05L245.35,31l0,.07-1.66,26.55L240.35,106l-2,23.3-8.52-8.12-.13,0-16.57,4.16-.1.09L208.89,139l0,.13,13.29,14.57,13.1,10.57-.56,6.74-6.56-7.49-.11-.05-15,.6-.12.09-5.79,15.65,0,.12,12,17.51,0,0,12.5,10.26L230.37,225l-8.57-4.83h-.15l-12,9-.05.08-3.39,16.38,0,.13,20.89,17.63-.35,4.09-1.93,25.16,0,.09,7.46,10,.09.05L258.16,308l23.76,3.44,26.27,34.85h0l22.45,24h0l14.93,10.42,4.22,16.47,2.95,32.87-8.82.5-.13.15L345.3,468l.2.11,28.13-15.22,48.89,8.46h.07l41.06-14.81,26.86,5.08.16-.18Zm-.05.84,23.29,82.14M333.24,317.93l-33.37-4.2m32.58-1.58-4.32-.06-29.84,1.44-14.17-2m-54.25-28.05,3.56-36.4h0L237,206.34m-3.85-11.77,3.59,11.54-.84,9.58L233.42,244m42.23-223.1L360,19.57m-59.93.7,25.6-.71h17.59Zm60.17-.56L370.29,38.2m-.11-.78-9.59-17.61m24.69,210.4-3.07,6.16-13.59,27.34.92-10,1-11.51m14.14-25.43.19,3.07.62,9.8m-14.61,11.93-.62.68-2,21.53m7.33-77.32L370.34,242m-2.08,22.45-8.71-76.86,27.82,13.09-2.57,15m-8.52-30-5.62,55.85,5.35-55.8m8.68,30.59-6.86-51.57-2,20.18m-.17.61-7.06-45.05-9,46.28-5.49,63.61,2.29-26.54,3-34.33M354,250.93m-3.27,43.24,3.15-41.67m-.17-1.48-3.28,43.4m-3.55,11.05,3.68-10.26m.13-.35M368.22,265l-3.14,34.25M383.17,187.1l4,12.77m-10.86-14.69,2-20.85,4.82,6.25v15.16m-7.06-.9,2-20.22m5,22.17-10.48-31.7,1.41,2.32,3.87,6.36M369,138.88l2.67,12.39.74,3.45m-3.65-16.63-9.07,46.41,3.16-44.94m3-33.73-3.28,33.61-3.31,47.09m6.56-81.08-120.2,9.44-8.53,91.18M359.2,186.8m0,.53-5.47,63.42m-3.34,44.13-3.83,10.67-13.89,6.26m14.41,3.13-13.22,2.91M346.56,306m.79,8.71-.53-8.9,9.9,6.16-2.33.73-6.8,2.14m17.23-15.14-1.77,2.71-6.1,9.29m13.3-195.21-.7,10.28-.75,11.08m-5.88,1.45,7.39-23.92M363,138.17,366.12,106m4.18,8.66-4.12-9.21,1-13.69,1.58-21.86m1.76,43-1.57-45.55,7.95,37-6.14,10.29M369,66.44l.53-9.25,1.05-18.51m-.27-.12-1.64,28.7-2.74,37.9M275.56,21.25,252.83,32.72l.93-.86,10-9.26L275.22,21m-29.6,93.62L250,62.3l2.73-29.2M237.07,205.71l3-27.41,2.46-22.25h0l3-40.56m-8.8,35.19v-.1m5.51,5.51-.68,6.18L237,203.69m-9.59,59.65,5.62-15.26-3.36,34.43m20.95,16.89-15.86-4.93-4.92-10.64M251,299.17m81.37,12.67-81.33-12.36m82.42,18.33-.78-5.72,13.26-6m20.66,123.3,18.81-7.4,8.37-3.29h0l4-1.57.06,0m.31,0,.18-.24,42.22-21.53m.28,0M386.54,62.29,383.67,102l-3.05,1-3.41,1.09m9.45-43.63-9.51,42.63,10.08-65.67-.39,16.44-.15,6.19m-10.55-38.8L387.2,37.07M375.87,21.65m-5.26,16.56,5.16-17.16-5.27,16.6-9.33-25.31,14.51,8.45m-14.79-8.38-.52,6.94.26-7.22-.53,7.16H327M285.55,14.8l50.07-1.6,23.5-1m-33.47,7.11-42-4.41,40,4.47-1.93.05-46,1.27m-19-2.87,26.38-2.87m-7.84,5.74M256.39,18m18,2.79-10.65,1.52m-8-4.34,7.69,4.51-10.61,9.82M245.7,31l9.74-12.63m-2.9,14.21M244,56.61l1.59-25.4m6.88,1.59M244,57.54m8.44-23.75-2.61,28,0,.29m-9,42,3.17-46.21m5.81,4.49M240.63,106m8.94-41.53-1.28,15.21-2.93,34.73m-6.74,14.45,2-22.38m4.73,8.4-6.75,14.75,6.71-14-1.49,20.12-1.41,19.12m-5.58-4.58,1.67-19.47m3.76,24.89-12.44-34.12.63.6,7.83,7.47m-15.64,23.3M222,153l-12.79-14,3.95-13.14m9.14,27.2-9-27.56,16.21-4.07m8.73,8.65-1.77,20.13-1.13,13.71-12.86-10.37m14.27,51.61-3.57-11.48L235,171.36h0l.59-7.13h0l.9-10.49m-16.78,42.73,8.45-32.56,2.64,3,3.89,4.44m-15.61,25.39-11.59-16.92,5.59-15.11m6.28,32-6.08-32.39,14.63-.58m6.77,8.17-1.8,21.71-1.09,13.64v.12l-12.27-10.07m8,65,2.88-34.09.24-3v0l1.45-18.08.82-10m.26,49.89M216,253.3m14.32-27.45-.33,3.93-1.6,19M216,252.68m5.84-32.22,8.47,4.77m-14.85,27.94-9-7.56,3.25-15.71m5.94,23-5.79-23.56,6.12-4.61,5.52-4.16m6.81,28.55-1.17,13.94L216,253.6m9.22,38.4,1.88-24.5.24-2.8m2.25,19.08-4.35,8.77,4.48-8.44,3.69,8,1.06,2.29m-2,7.9-7.09-9.44m9.18,1.83-1.85,7.75,2.12-7.68,15.35,4.76m7.68,8.12-24.58-5m17.44-2.91,7.58,8-7.16-8,20,3.07,14.52,2.24m-3.63,6.09-22.6-3.27m27-2.63-4.1,5.92,4.46-5.94,43.81,6.6m13.8,119,6.4-.37,15.34-.88m7.27,22.79,0,.35-27.78,15L344.11,431m29.59,21.56-7.32-22.93M422.23,461l-28.86-5L374.1,452.7M422.52,461m40.84-14.6L422.8,461m40.7-14.88-22.54-51,25.69-26.94m23.57,83.1-26.45-5"/><path class="cls-6" d="M274.23,156.37a1.9,1.9,0,1,1-1.9-1.89A1.9,1.9,0,0,1,274.23,156.37Z"/><path class="cls-6" d="M253.42,149.66a1.9,1.9,0,1,1-1.89-1.89A1.9,1.9,0,0,1,253.42,149.66Z"/><path class="cls-6" d="M466,414.65a2,2,0,1,1-2-2A2,2,0,0,1,466,414.65Z"/><path class="cls-6" d="M440.81,426.41a2,2,0,1,1-1.95-2A2,2,0,0,1,440.81,426.41Z"/><path class="cls-6" d="M457.79,439.93a2,2,0,1,1-2-2A2,2,0,0,1,457.79,439.93Z"/><path class="cls-6" d="M442.71,368.73a2,2,0,1,1-1.95-2A1.95,1.95,0,0,1,442.71,368.73Z"/><path class="cls-6" d="M424.21,363.6a2,2,0,1,1-2-2A2,2,0,0,1,424.21,363.6Z"/><path class="cls-6" d="M392.7,377a2,2,0,1,1-2-2A2,2,0,0,1,392.7,377Z"/><path class="cls-6" d="M378.87,362.82a2,2,0,1,1-1.95-2A2,2,0,0,1,378.87,362.82Z"/><path class="cls-6" d="M358.6,344.28a2,2,0,1,1-2-2A1.95,1.95,0,0,1,358.6,344.28Z"/><path class="cls-6" d="M339.63,350.46a2,2,0,1,1-1.95-1.95A2,2,0,0,1,339.63,350.46Z"/><path class="cls-6" d="M344,336.35a2,2,0,1,1-2-2A2,2,0,0,1,344,336.35Z"/><path class="cls-6" d="M399,300.7a2,2,0,1,1-2-1.95A2,2,0,0,1,399,300.7Z"/><path class="cls-6" d="M379.93,330.78a2,2,0,1,1-1.95-2A1.95,1.95,0,0,1,379.93,330.78Z"/><path class="cls-6" d="M437.15,343.47a2,2,0,1,1-2-2A2,2,0,0,1,437.15,343.47Z"/><path class="cls-6" d="M436.31,322.15a2,2,0,1,1-2-2A2,2,0,0,1,436.31,322.15Z"/><path class="cls-6" d="M420.43,295a2,2,0,1,1-2-2A2,2,0,0,1,420.43,295Z"/><path class="cls-6" d="M405.19,262.78a2,2,0,1,1-2-1.95A2,2,0,0,1,405.19,262.78Z"/><path class="cls-6" d="M413.43,216.2a2,2,0,1,1-2-1.95A2,2,0,0,1,413.43,216.2Z"/><path class="cls-6" d="M397.8,196a2,2,0,1,1-2-2A2,2,0,0,1,397.8,196Z"/><path class="cls-6" d="M441.84,214.33a2,2,0,1,1-1.95-2A2,2,0,0,1,441.84,214.33Z"/><path class="cls-6" d="M441.64,249.22a2,2,0,1,1-1.95-1.95A2,2,0,0,1,441.64,249.22Z"/><path class="cls-6" d="M444.46,287.35a2,2,0,1,1-2-2A2,2,0,0,1,444.46,287.35Z"/><path class="cls-6" d="M440.91,313.35a2,2,0,1,1-2-2A2,2,0,0,1,440.91,313.35Z"/><path class="cls-6" d="M446.66,328.66a2,2,0,1,1-2-2A2,2,0,0,1,446.66,328.66Z"/><path class="cls-6" d="M454,347.13a2,2,0,1,1-1.95-2A1.95,1.95,0,0,1,454,347.13Z"/><path class="cls-6" d="M469.28,366.68a2,2,0,1,1-1.95-1.95A2,2,0,0,1,469.28,366.68Z"/><path class="cls-6" d="M484.3,419.16a2,2,0,1,1-1.95-2A1.95,1.95,0,0,1,484.3,419.16Z"/><path class="cls-6" d="M489.53,435.86a2,2,0,1,1-2-1.95A2,2,0,0,1,489.53,435.86Z"/><path class="cls-6" d="M466.42,448.24a2,2,0,1,1-2-2A2,2,0,0,1,466.42,448.24Z"/><path class="cls-6" d="M425.44,463a2,2,0,1,1-1.95-2A1.95,1.95,0,0,1,425.44,463Z"/><path class="cls-6" d="M397.92,458.14a2,2,0,1,1-2-2A2,2,0,0,1,397.92,458.14Z"/><path class="cls-6" d="M378.31,455.07a2,2,0,1,1-2-1.95A2,2,0,0,1,378.31,455.07Z"/><path class="cls-6" d="M346.33,430.88a2,2,0,1,1-2-1.95A2,2,0,0,1,346.33,430.88Z"/><path class="cls-6" d="M351.08,398a2,2,0,1,1-2-1.95A2,2,0,0,1,351.08,398Z"/><path class="cls-6" d="M346.3,381.72a2,2,0,1,1-2-2A2,2,0,0,1,346.3,381.72Z"/><path class="cls-6" d="M333.55,372a2,2,0,1,1-2-1.95A2,2,0,0,1,333.55,372Z"/><path class="cls-6" d="M309.87,346.88a2,2,0,1,1-2-1.95A2,2,0,0,1,309.87,346.88Z"/><path class="cls-6" d="M253.72,308a2,2,0,1,1-2-2A2,2,0,0,1,253.72,308Z"/><path class="cls-6" d="M227.28,294.4a2,2,0,1,1-2-2A2,2,0,0,1,227.28,294.4Z"/><path class="cls-6" d="M217.42,254.3a2,2,0,1,1-2-2A2,2,0,0,1,217.42,254.3Z"/><path class="cls-6" d="M227.14,275.31a2,2,0,1,1-1.95-2A1.95,1.95,0,0,1,227.14,275.31Z"/><path class="cls-6" d="M221,197.84a2,2,0,1,1-1.95-2A1.95,1.95,0,0,1,221,197.84Z"/><path class="cls-6" d="M224.23,154.72a2,2,0,1,1-2-2A2,2,0,0,1,224.23,154.72Z"/><path class="cls-6" d="M425.93,177.88a2,2,0,1,1-1.95-1.95A2,2,0,0,1,425.93,177.88Z"/><path class="cls-6" d="M417.41,148a2,2,0,1,1,.45-2.73A2,2,0,0,1,417.41,148Z"/><path class="cls-6" d="M398.65,128.58a2,2,0,1,1,.44-2.73A2,2,0,0,1,398.65,128.58Z"/><path class="cls-6" d="M394.11,107.42a2,2,0,1,1,.45-2.73A1.94,1.94,0,0,1,394.11,107.42Z"/><path class="cls-6" d="M379,105.41a2,2,0,1,1,.44-2.73A2,2,0,0,1,379,105.41Z"/><path class="cls-6" d="M370.58,139.89a2,2,0,1,1,.45-2.72A1.94,1.94,0,0,1,370.58,139.89Z"/><path class="cls-6" d="M416.21,392a2,2,0,1,1-2-2A2,2,0,0,1,416.21,392Z"/><path class="cls-6" d="M408.42,419.6a2,2,0,1,1-2-2A2,2,0,0,1,408.42,419.6Z"/><path class="cls-6" d="M390.37,435.05a2,2,0,1,1-2-1.95A2,2,0,0,1,390.37,435.05Z"/><path class="cls-6" d="M368.47,447.39a2,2,0,1,1-2-2A1.95,1.95,0,0,1,368.47,447.39Z"/><path class="cls-6" d="M278.82,28.82a1.9,1.9,0,1,1-1.89-1.9A1.89,1.89,0,0,1,278.82,28.82Z"/><path class="cls-6" d="M282.76,45.36a1.9,1.9,0,1,1-1.9-1.89A1.9,1.9,0,0,1,282.76,45.36Z"/><path class="cls-6" d="M302.29,46.55a1.9,1.9,0,1,1-1.89-1.89A1.89,1.89,0,0,1,302.29,46.55Z"/><path class="cls-6" d="M313.61,30.23a1.9,1.9,0,1,1-1.89-1.89A1.9,1.9,0,0,1,313.61,30.23Z"/><path class="cls-6" d="M325.56,12.86A1.9,1.9,0,1,1,323.67,11,1.9,1.9,0,0,1,325.56,12.86Z"/><path class="cls-6" d="M286,14.37a1.9,1.9,0,1,1-1.89-1.89A1.89,1.89,0,0,1,286,14.37Z"/><path class="cls-6" d="M257.57,17.63a1.9,1.9,0,1,1-1.89-1.9A1.89,1.89,0,0,1,257.57,17.63Z"/><path class="cls-6" d="M246.54,31.05a1.9,1.9,0,1,1-1.89-1.89A1.9,1.9,0,0,1,246.54,31.05Z"/><path class="cls-6" d="M244.65,58.59a1.9,1.9,0,1,1-1.9-1.9A1.9,1.9,0,0,1,244.65,58.59Z"/><path class="cls-6" d="M241.5,106a1.9,1.9,0,1,1-1.9-1.89A1.9,1.9,0,0,1,241.5,106Z"/><path class="cls-6" d="M322.86,62.47A1.89,1.89,0,1,1,321,60.58,1.89,1.89,0,0,1,322.86,62.47Z"/><path class="cls-6" d="M363.75,11.82a1.9,1.9,0,1,1-1.9-1.89A1.89,1.89,0,0,1,363.75,11.82Z"/><path class="cls-6" d="M379.12,21.05a1.9,1.9,0,1,1-1.89-1.9A1.89,1.89,0,0,1,379.12,21.05Z"/><path class="cls-6" d="M390.45,37.65a1.9,1.9,0,1,1-1.89-1.89A1.89,1.89,0,0,1,390.45,37.65Z"/><path class="cls-6" d="M389.81,63a1.9,1.9,0,1,1-1.9-1.9A1.9,1.9,0,0,1,389.81,63Z"/><path class="cls-6" d="M370.84,67.29a1.9,1.9,0,1,1-1.9-1.89A1.9,1.9,0,0,1,370.84,67.29Z"/><path class="cls-6" d="M379,48.93a1.9,1.9,0,1,1-1.9-1.9A1.89,1.89,0,0,1,379,48.93Z"/><path class="cls-6" d="M379.05,66.24a1.9,1.9,0,1,1-1.9-1.89A1.9,1.9,0,0,1,379.05,66.24Z"/><path class="cls-6" d="M368.43,106.56a1.9,1.9,0,1,1-1.89-1.89A1.89,1.89,0,0,1,368.43,106.56Z"/><path class="cls-6" d="M280.86,72.82a1.9,1.9,0,1,1-1.89-1.9A1.89,1.89,0,0,1,280.86,72.82Z"/><path class="cls-6" d="M305.52,79.61a1.9,1.9,0,1,1-1.9-1.89A1.9,1.9,0,0,1,305.52,79.61Z"/><path class="cls-6" d="M291.67,89.11a1.9,1.9,0,1,1-1.89-1.89A1.9,1.9,0,0,1,291.67,89.11Z"/><path class="cls-6" d="M256.18,105a1.9,1.9,0,1,1-1.9-1.89A1.9,1.9,0,0,1,256.18,105Z"/><path class="cls-6" d="M314.6,96.18a1.9,1.9,0,1,1-1.89-1.9A1.89,1.89,0,0,1,314.6,96.18Z"/><path class="cls-6" d="M331,77.18a1.9,1.9,0,1,1-1.9-1.9A1.9,1.9,0,0,1,331,77.18Z"/><path class="cls-6" d="M300.2,117.77a1.9,1.9,0,1,1-1.89-1.89A1.9,1.9,0,0,1,300.2,117.77Z"/><path class="cls-6" d="M308.54,141.1a1.9,1.9,0,1,1-1.9-1.9A1.9,1.9,0,0,1,308.54,141.1Z"/><path class="cls-6" d="M353.23,122.89a1.9,1.9,0,1,1-1.9-1.89A1.9,1.9,0,0,1,353.23,122.89Z"/><path class="cls-6" d="M338,140.26a1.9,1.9,0,1,1-1.89-1.89A1.89,1.89,0,0,1,338,140.26Z"/><path class="cls-6" d="M355.43,172.35a1.9,1.9,0,1,1-1.89-1.9A1.88,1.88,0,0,1,355.43,172.35Z"/><path class="cls-6" d="M329.65,200.4a1.9,1.9,0,1,1-1.89-1.89A1.89,1.89,0,0,1,329.65,200.4Z"/><path class="cls-6" d="M313.74,166.64a1.9,1.9,0,1,1-1.9-1.89A1.9,1.9,0,0,1,313.74,166.64Z"/><path class="cls-6" d="M295.16,203a1.9,1.9,0,1,1-1.89-1.9A1.89,1.89,0,0,1,295.16,203Z"/><path class="cls-6" d="M281.18,235.42a1.9,1.9,0,1,1-1.9-1.89A1.9,1.9,0,0,1,281.18,235.42Z"/><path class="cls-6" d="M268.84,204.85A1.9,1.9,0,1,1,267,203,1.9,1.9,0,0,1,268.84,204.85Z"/><path class="cls-6" d="M283.32,123.47a1.9,1.9,0,1,1-1.9-1.89A1.9,1.9,0,0,1,283.32,123.47Z"/><path class="cls-6" d="M292.12,170.59a1.9,1.9,0,1,1-1.89-1.89A1.9,1.9,0,0,1,292.12,170.59Z"/><path class="cls-6" d="M254.07,217.5a1.9,1.9,0,1,1-1.89-1.9A1.89,1.89,0,0,1,254.07,217.5Z"/><path class="cls-6" d="M254.11,247.48a1.9,1.9,0,1,1-1.89-1.9A1.89,1.89,0,0,1,254.11,247.48Z"/><path class="cls-6" d="M325.37,249.37a1.9,1.9,0,1,1-1.89-1.89A1.9,1.9,0,0,1,325.37,249.37Z"/><path class="cls-6" d="M330.7,284.17a1.9,1.9,0,1,1-1.89-1.9A1.89,1.89,0,0,1,330.7,284.17Z"/><path class="cls-6" d="M304.57,296.84a1.9,1.9,0,1,1-1.89-1.89A1.9,1.9,0,0,1,304.57,296.84Z"/><path class="cls-6" d="M409.1,330.78a1.9,1.9,0,1,1-1.9-1.9A1.89,1.89,0,0,1,409.1,330.78Z"/><path class="cls-6" d="M408.32,359a1.9,1.9,0,1,1-1.9-1.9A1.89,1.89,0,0,1,408.32,359Z"/><path class="cls-6" d="M321.7,334.39a1.9,1.9,0,1,1-1.9-1.89A1.9,1.9,0,0,1,321.7,334.39Z"/><path class="cls-6" d="M416.87,270.11a1.9,1.9,0,1,1-1.9-1.89A1.9,1.9,0,0,1,416.87,270.11Z"/><path class="cls-6" d="M382.49,301.07a1.9,1.9,0,1,1-1.89-1.9A1.89,1.89,0,0,1,382.49,301.07Z"/><path class="cls-6" d="M278,265.17a1.9,1.9,0,1,1-1.9-1.9A1.9,1.9,0,0,1,278,265.17Z"/><path class="cls-6" d="M255.55,292.73a1.9,1.9,0,1,1-1.89-1.89A1.9,1.9,0,0,1,255.55,292.73Z"/><path class="cls-6" d="M270.18,176.38a1.89,1.89,0,1,1-1.89-1.89A1.89,1.89,0,0,1,270.18,176.38Z"/><polygon class="cls-5" points="144.29 189.2 125.96 175.94 171.24 182.24 144.29 189.2"/><path class="cls-6" d="M144.19,189.75,124,175.15l49.86,6.94Zm-16.27-13,16.48,11.93,24.22-6.26Z"/><polygon class="cls-5" points="246.49 17.27 258.05 23.46 231.56 23.36 246.49 17.27"/><path class="cls-6" d="M260.1,24,229,23.86l17.54-7.15Zm-26-1.12,21.87.08-9.54-5.11Z"/><polygon class="cls-5" points="196.11 131.6 167.56 114.42 191.74 114.82 196.11 131.6"/><path class="cls-6" d="M196.92,132.68l-31.25-18.8,26.47.44ZM169.45,115l25.86,15.55-4-15.2Z"/><path class="cls-6" d="M203.13,115.73l-10.73-2.46-4.73-17.76Zm-9.9-3.32,7.37,1.69L190,100.21Z"/><path class="cls-6" d="M213.49,60.83l3.75-11.59,31.84-10Zm4.56-10.78-2.74,8.48,26-15.82Z"/><path class="cls-6" d="M185.65,162.68l3.17-7.33,20.86-5.43.35,1Zm3.91-6.47-1.88,4.35,17.24-8.35Z"/><polygon class="cls-5" points="129.57 151.25 144.46 137.06 140.28 151.39 129.57 151.25"/><path class="cls-6" d="M140.66,151.9l-12.34-.15,17.16-16.37Zm-9.83-1.14,9.06.11,3.55-12.14Z"/><path class="cls-6" d="M139.85,211.53l32.21-31-1.21,13-.23.14Zm30.94-28.35-24.15,23.24,23.24-13.48Z"/><path class="cls-6" d="M129.29,265.25l-19.83-9.39,6.47-1.78,13.89,10.3Zm-16.91-9.14,12.67,6-9.33-6.92Z"/><path class="cls-6" d="M114.28,164.18l-.88-.51,11-23.64,2.11,7.44-.15.2ZM124.15,143l-7.64,16.44,8.86-12.13Z"/><path class="cls-6" d="M132.18,247.74l-.58-.83L162,222.25l-2.27,9Zm28-22.76-22.42,18.21,21-12.58Z"/><path class="cls-6" d="M106.71,198.83l-19.13-10,.19-15.05Zm-18.1-10.61,14.54,7.6-14.4-19Z"/><polygon class="cls-5" points="111.67 130.82 110.66 116.14 126.37 141.38 111.67 130.82"/><path class="cls-6" d="M128.16,143.3l-17-12.21-1.17-17Zm-16-12.76,12.41,8.92-13.26-21.32Z"/><polygon class="cls-5" points="85.9 80.09 95.99 70.47 93.16 80.18 85.9 80.09"/><path class="cls-6" d="M93.54,80.69l-8.89-.11L97,68.79Zm-6.38-1.1,5.62.07L95,72.15Z"/><path class="cls-6" d="M89.7,86.56l3.67-6.84,13,.1ZM94,80.75l-2,3.8,9.25-3.75Z"/><path class="cls-6" d="M105.08,93.45,126,73.31l-.78,8.46ZM124.74,76,111.87,88.34l12.39-7.19Z"/><path class="cls-6" d="M94.36,131.56,78,123.81l5.55-1.53,11.33,8.4Zm-13.44-7.5,9.19,4.36-6.77-5Z"/><path class="cls-6" d="M95.58,63.18l-3.3-17.8L96.77,49l-.18,14.1ZM93.78,47.9l1.86,10,.1-8.43Z"/><polygon class="cls-5" points="150.81 113.83 153.87 130.28 154.04 116.42 150.81 113.83"/><path class="cls-6" d="M153.36,130.37l-3.3-17.79,4.49,3.6-.17,14.11Zm-1.8-15.28,1.86,10,.11-8.43Z"/><polygon class="cls-5" points="35.19 132.6 38.24 149.05 38.41 135.19 35.19 132.6"/><path class="cls-6" d="M37.74,149.14l-3.31-17.8,4.5,3.61-.18,14.1Zm-1.8-15.28,1.86,10,.1-8.43Z"/><polygon class="cls-5" points="236.5 74.61 224.69 90.97 230.26 50.59 236.5 74.61"/><path class="cls-6" d="M223.91,92.94l6.2-45,6.95,26.74Zm6.5-39.73L225.48,89,236,74.51Z"/><path class="cls-6" d="M184.67,82l3.8-7.59,23-3.57Zm4.48-6.66L186.81,80l16.49-6.87Z"/><path class="cls-6" d="M182.34,23.84l-4.11-4,1.58-14h1Zm-3-4.42,1.8,1.77-.86-10.14Z"/><polygon class="cls-5" points="158.88 59.65 143.2 53.83 155 61.1 158.88 59.65"/><path class="cls-6" d="M154.94,61.66l-12-7.39.44-.91,17,6.29Zm-7.06-5.54,7.18,4.41,2.35-.88Z"/><polygon class="cls-5" points="43.28 67.85 27.02 71.78 40.86 71.21 43.28 67.85"/><path class="cls-6" d="M27,72.29l-.14-1L44.49,67l-3.36,4.68Zm15-3.62-9.89,2.39,8.42-.35Z"/><path class="cls-11" d="M518.82,442.28a1.51,1.51,0,1,1-1.51-1.51A1.52,1.52,0,0,1,518.82,442.28Z"/><path class="cls-11" d="M508.84,464.66a1.67,1.67,0,1,1-1.67-1.67A1.67,1.67,0,0,1,508.84,464.66Z"/><path class="cls-11" d="M491.41,450.47a1.24,1.24,0,1,1-2.48,0,1.24,1.24,0,0,1,2.48,0Z"/><path class="cls-11" d="M486.92,477.81a1.74,1.74,0,1,1-1.74-1.74A1.74,1.74,0,0,1,486.92,477.81Z"/><circle class="cls-11" cx="482.21" cy="487.79" r="0.74"/><circle class="cls-11" cx="477.69" cy="489.23" r="2.56"/><path class="cls-11" d="M455,491.38a2.36,2.36,0,1,1-2.36-2.36A2.36,2.36,0,0,1,455,491.38Z"/><path class="cls-11" d="M444.44,504.8a.48.48,0,0,1-.95,0,.48.48,0,1,1,.95,0Z"/><path class="cls-11" d="M417,493.35a1.11,1.11,0,1,1-1.1-1.11A1.1,1.1,0,0,1,417,493.35Z"/><circle class="cls-11" cx="410.4" cy="507.57" r="0.43"/><path class="cls-11" d="M403.37,487.72a.53.53,0,1,1-.53-.53A.53.53,0,0,1,403.37,487.72Z"/><path class="cls-11" d="M394.85,486.14a2.25,2.25,0,1,1-2.24-2.24A2.24,2.24,0,0,1,394.85,486.14Z"/><path class="cls-11" d="M360.54,495.42a1.08,1.08,0,1,1-1.08-1.08A1.07,1.07,0,0,1,360.54,495.42Z"/><path class="cls-11" d="M362.3,468a1.29,1.29,0,1,1-1.29-1.29A1.29,1.29,0,0,1,362.3,468Z"/><path class="cls-11" d="M371.15,447.55a1.25,1.25,0,1,1-1.24-1.25A1.24,1.24,0,0,1,371.15,447.55Z"/><circle class="cls-11" cx="338.94" cy="450.13" r="1.88"/><path class="cls-11" d="M348.16,426.81a2.4,2.4,0,1,1-2.39-2.4A2.39,2.39,0,0,1,348.16,426.81Z"/><circle class="cls-11" cx="336.19" cy="409.73" r="1.19"/><path class="cls-11" d="M321.94,388.83a1.73,1.73,0,1,1-1.73-1.74A1.73,1.73,0,0,1,321.94,388.83Z"/><path class="cls-11" d="M302.68,392.07a1.92,1.92,0,1,1-1.92-1.93A1.92,1.92,0,0,1,302.68,392.07Z"/><path class="cls-11" d="M316.73,376.39a1.77,1.77,0,1,1-1.77-1.77A1.77,1.77,0,0,1,316.73,376.39Z"/><path class="cls-11" d="M308.75,387.05a2.65,2.65,0,1,1-2.65-2.65A2.65,2.65,0,0,1,308.75,387.05Z"/><path class="cls-11" d="M282.8,369.15a1.78,1.78,0,1,1-1.78-1.78A1.78,1.78,0,0,1,282.8,369.15Z"/><path class="cls-11" d="M275,389.11a2.23,2.23,0,1,1-2.23-2.22A2.23,2.23,0,0,1,275,389.11Z"/><circle class="cls-11" cx="250.88" cy="389.03" r="0.51"/><path class="cls-11" d="M244,372.89a2.47,2.47,0,1,1-2.47-2.47A2.48,2.48,0,0,1,244,372.89Z"/><path class="cls-11" d="M215.86,376.47a2.31,2.31,0,1,1-2.31-2.31A2.31,2.31,0,0,1,215.86,376.47Z"/><path class="cls-11" d="M213.42,354.28a2.57,2.57,0,1,1-2.56-2.57A2.56,2.56,0,0,1,213.42,354.28Z"/><path class="cls-11" d="M199.89,343.48a2.24,2.24,0,1,1-2.24-2.24A2.24,2.24,0,0,1,199.89,343.48Z"/><circle class="cls-11" cx="183.93" cy="340.81" r="0.94"/><path class="cls-11" d="M195.49,324.35a.47.47,0,1,1-.47-.46A.47.47,0,0,1,195.49,324.35Z"/><path class="cls-11" d="M193.6,323a1.67,1.67,0,1,1-1.67-1.67A1.67,1.67,0,0,1,193.6,323Z"/><circle class="cls-11" cx="185.01" cy="309.02" r="2.07"/><path class="cls-11" d="M194.15,283.8a1,1,0,1,1-1-1A1,1,0,0,1,194.15,283.8Z"/><path class="cls-11" d="M170.56,254.57a.41.41,0,1,1-.41-.4A.41.41,0,0,1,170.56,254.57Z"/><path class="cls-11" d="M191.3,240.69a.69.69,0,0,1-.69.69.68.68,0,0,1-.68-.69.67.67,0,0,1,.68-.68A.68.68,0,0,1,191.3,240.69Z"/><path class="cls-11" d="M193.05,227.81a1.6,1.6,0,1,1-1.6-1.6A1.6,1.6,0,0,1,193.05,227.81Z"/><path class="cls-11" d="M177.85,234.51a.46.46,0,1,1-.46-.45A.45.45,0,0,1,177.85,234.51Z"/><circle class="cls-11" cx="163.83" cy="232.12" r="2"/><path class="cls-11" d="M147.55,211.31a1.89,1.89,0,1,1-1.89-1.89A1.89,1.89,0,0,1,147.55,211.31Z"/><path class="cls-11" d="M157.32,196.1a.66.66,0,1,1-.66-.65A.65.65,0,0,1,157.32,196.1Z"/><path class="cls-11" d="M158.47,179.67a1.6,1.6,0,1,1-3.19,0,1.6,1.6,0,0,1,3.19,0Z"/><circle class="cls-11" cx="154.44" cy="171.66" r="2.43"/><path class="cls-11" d="M139.66,176.55a2.47,2.47,0,1,1-2.47-2.48A2.47,2.47,0,0,1,139.66,176.55Z"/><circle class="cls-11" cx="128.92" cy="165.65" r="1.32"/><path class="cls-11" d="M119.73,193.43a.85.85,0,1,1-.85-.85A.85.85,0,0,1,119.73,193.43Z"/><path class="cls-11" d="M99.41,173.59a.93.93,0,1,1-.93-.93A.94.94,0,0,1,99.41,173.59Z"/><path class="cls-11" d="M95.3,168.62A1.62,1.62,0,1,1,93.68,167,1.62,1.62,0,0,1,95.3,168.62Z"/><path class="cls-11" d="M109.06,175.51a1.08,1.08,0,1,1-1.07-1.08A1.07,1.07,0,0,1,109.06,175.51Z"/><path class="cls-11" d="M85.14,159.17a2.44,2.44,0,1,1-2.44-2.45A2.44,2.44,0,0,1,85.14,159.17Z"/><circle class="cls-11" cx="88.36" cy="160.34" r="2.77"/><path class="cls-11" d="M110.22,149.08a1.59,1.59,0,1,1-1.59-1.59A1.59,1.59,0,0,1,110.22,149.08Z"/><path class="cls-11" d="M121.91,149.84a1,1,0,1,1-1-1A1,1,0,0,1,121.91,149.84Z"/><path class="cls-11" d="M105.34,127.27a.58.58,0,1,1-.58-.58A.58.58,0,0,1,105.34,127.27Z"/><path class="cls-11" d="M135.87,117.12a1.91,1.91,0,1,1-1.91-1.91A1.92,1.92,0,0,1,135.87,117.12Z"/><path class="cls-11" d="M103.73,124.8a.48.48,0,1,1-.48-.48A.48.48,0,0,1,103.73,124.8Z"/><path class="cls-11" d="M99.53,127.29a2,2,0,1,1-2-2A2,2,0,0,1,99.53,127.29Z"/><path class="cls-11" d="M83.43,120a.61.61,0,1,1-.6-.6A.6.6,0,0,1,83.43,120Z"/><path class="cls-11" d="M91.85,89.26a1,1,0,1,1-2.08,0,1,1,0,1,1,2.08,0Z"/><circle class="cls-11" cx="69.28" cy="98.35" r="2.21"/><circle class="cls-11" cx="54.45" cy="92.65" r="1.63"/><path class="cls-11" d="M45.41,68.25a2.6,2.6,0,1,1-2.6-2.59A2.6,2.6,0,0,1,45.41,68.25Z"/><path class="cls-11" d="M35,48.35a1.9,1.9,0,1,1-1.9-1.9A1.9,1.9,0,0,1,35,48.35Z"/><path class="cls-11" d="M41.43,45.56a1.16,1.16,0,1,1-1.16-1.16A1.16,1.16,0,0,1,41.43,45.56Z"/><path class="cls-11" d="M39,37.75a.84.84,0,0,1-1.68,0,.84.84,0,0,1,1.68,0Z"/><path class="cls-11" d="M52.7,35A.86.86,0,1,1,51,35a.86.86,0,0,1,1.71,0Z"/><path class="cls-11" d="M72.11,29a.39.39,0,0,1-.39.38.39.39,0,1,1,0-.77A.39.39,0,0,1,72.11,29Z"/><path class="cls-11" d="M90.2,36.36a2.48,2.48,0,1,1-2.48-2.47A2.48,2.48,0,0,1,90.2,36.36Z"/><circle class="cls-11" cx="95.95" cy="51.38" r="1.65"/><path class="cls-11" d="M123.67,52.12a.69.69,0,1,1-.68-.69A.69.69,0,0,1,123.67,52.12Z"/><path class="cls-11" d="M127.73,50.83a1.95,1.95,0,1,1-2-1.94A1.95,1.95,0,0,1,127.73,50.83Z"/><path class="cls-11" d="M144.22,27.57a.88.88,0,1,1-.88-.88A.87.87,0,0,1,144.22,27.57Z"/><path class="cls-11" d="M138.49,2.59A.59.59,0,1,1,137.9,2,.59.59,0,0,1,138.49,2.59Z"/><circle class="cls-11" cx="151.83" cy="6.84" r="0.88"/><circle class="cls-11" cx="190.48" cy="9.55" r="1.75"/><path class="cls-11" d="M188.59,28.43a1,1,0,0,1-2,0,1,1,0,1,1,2,0Z"/><circle class="cls-11" cx="207.23" cy="32.31" r="0.43"/><path class="cls-11" d="M206.38,63a2.26,2.26,0,1,1-2.25-2.25A2.25,2.25,0,0,1,206.38,63Z"/><path class="cls-11" d="M220.11,29.94a1.1,1.1,0,1,1-1.1-1.1A1.1,1.1,0,0,1,220.11,29.94Z"/><path class="cls-11" d="M229,28a.88.88,0,1,1-.87-.88A.88.88,0,0,1,229,28Z"/><path class="cls-11" d="M258.56,21.91a2.3,2.3,0,1,1-2.29-2.29A2.29,2.29,0,0,1,258.56,21.91Z"/><path class="cls-11" d="M254.63,58.83a1.35,1.35,0,1,1-1.35-1.35A1.35,1.35,0,0,1,254.63,58.83Z"/><circle class="cls-11" cx="257.52" cy="59.01" r="0.95"/><path class="cls-11" d="M255.69,65.84a.5.5,0,1,1-.5-.49A.5.5,0,0,1,255.69,65.84Z"/><circle class="cls-11" cx="264.79" cy="75.32" r="0.85"/><path class="cls-11" d="M264.73,104.29a.84.84,0,1,1-.84-.84A.85.85,0,0,1,264.73,104.29Z"/><path class="cls-11" d="M280.08,89.14a1.73,1.73,0,1,1-1.73-1.73A1.73,1.73,0,0,1,280.08,89.14Z"/><path class="cls-11" d="M291.31,91.57a1.81,1.81,0,1,1-1.81-1.81A1.81,1.81,0,0,1,291.31,91.57Z"/><circle class="cls-11" cx="296.52" cy="100.49" r="1.15"/><circle class="cls-11" cx="309.77" cy="106.28" r="1.58"/><path class="cls-11" d="M336.66,84.11a1.86,1.86,0,1,1-1.86-1.86A1.86,1.86,0,0,1,336.66,84.11Z"/><path class="cls-11" d="M343.29,110.87a2.68,2.68,0,1,1-2.68-2.68A2.68,2.68,0,0,1,343.29,110.87Z"/><path class="cls-11" d="M392.48,77.22a2.68,2.68,0,1,1-2.67-2.67A2.67,2.67,0,0,1,392.48,77.22Z"/><path class="cls-11" d="M402.14,33.58a2.68,2.68,0,1,1-2.68-2.67A2.68,2.68,0,0,1,402.14,33.58Z"/><circle class="cls-11" cx="354.5" cy="118.46" r="2.68"/><circle class="cls-11" cx="358.88" cy="121.11" r="2.16"/><circle class="cls-11" cx="354.39" cy="135.52" r="1.39"/><circle class="cls-11" cx="357.08" cy="145.2" r="0.81"/><path class="cls-11" d="M369.86,155a1.82,1.82,0,1,1-1.82-1.82A1.83,1.83,0,0,1,369.86,155Z"/><path class="cls-11" d="M441.67,151.34a1.82,1.82,0,1,1-1.82-1.82A1.83,1.83,0,0,1,441.67,151.34Z"/><path class="cls-11" d="M429.66,115a1.82,1.82,0,1,1-1.82-1.82A1.82,1.82,0,0,1,429.66,115Z"/><path class="cls-11" d="M407.8,109.61a1.82,1.82,0,1,1-1.82-1.82A1.82,1.82,0,0,1,407.8,109.61Z"/><path class="cls-11" d="M418.06,70.82A1.82,1.82,0,1,1,416.24,69,1.82,1.82,0,0,1,418.06,70.82Z"/><path class="cls-11" d="M391,172.5a.74.74,0,1,1-.73-.73A.73.73,0,0,1,391,172.5Z"/><path class="cls-11" d="M428.63,163.77a.73.73,0,0,1-1.46,0,.73.73,0,0,1,1.46,0Z"/><path class="cls-11" d="M418,132.06a.73.73,0,1,1-1.46,0,.73.73,0,1,1,1.46,0Z"/><path class="cls-11" d="M408.54,86.31a.74.74,0,1,1-.74-.73A.73.73,0,0,1,408.54,86.31Z"/><path class="cls-11" d="M407.16,54.5a.73.73,0,1,1-.73-.73A.73.73,0,0,1,407.16,54.5Z"/><path class="cls-11" d="M434,145.9a.74.74,0,1,1-.74-.73A.73.73,0,0,1,434,145.9Z"/><path class="cls-11" d="M398.22,197a1.16,1.16,0,1,1-1.16-1.16A1.16,1.16,0,0,1,398.22,197Z"/><path class="cls-11" d="M436.49,181.39a1.16,1.16,0,1,1-1.15-1.16A1.15,1.15,0,0,1,436.49,181.39Z"/><path class="cls-11" d="M450.32,176.79a1.16,1.16,0,0,1-2.31,0,1.16,1.16,0,1,1,2.31,0Z"/><path class="cls-11" d="M450.32,198a1.16,1.16,0,1,1-1.15-1.16A1.15,1.15,0,0,1,450.32,198Z"/><path class="cls-11" d="M376.7,228.75a2.06,2.06,0,1,1-2.06-2.06A2.06,2.06,0,0,1,376.7,228.75Z"/><path class="cls-11" d="M384.44,255.25a1.62,1.62,0,1,1-1.61-1.62A1.61,1.61,0,0,1,384.44,255.25Z"/><path class="cls-11" d="M461.69,223.8a1.62,1.62,0,1,1-1.61-1.62A1.61,1.61,0,0,1,461.69,223.8Z"/><path class="cls-11" d="M394.39,277.67a1.92,1.92,0,1,1-1.92-1.92A1.92,1.92,0,0,1,394.39,277.67Z"/><path class="cls-11" d="M454.89,291.23a1.93,1.93,0,1,1-1.93-1.92A1.92,1.92,0,0,1,454.89,291.23Z"/><path class="cls-11" d="M401.29,285.6a2.09,2.09,0,1,1-2.09-2.09A2.1,2.1,0,0,1,401.29,285.6Z"/><path class="cls-11" d="M451.32,245.74a2.17,2.17,0,0,1-3.06,3.06h0A2.17,2.17,0,0,1,451.32,245.74Z"/><path class="cls-11" d="M475.38,226a2.17,2.17,0,0,1-3.06,3.06h0A2.17,2.17,0,0,1,475.38,226Z"/><path class="cls-11" d="M451.32,208.76a2.17,2.17,0,0,1-3.06,3.06h0A2.17,2.17,0,0,1,451.32,208.76Z"/><path class="cls-11" d="M457.18,276.89a2.09,2.09,0,1,1-2.09-2.09A2.08,2.08,0,0,1,457.18,276.89Z"/><path class="cls-11" d="M405,299.65a1.22,1.22,0,1,1-1.22-1.21A1.22,1.22,0,0,1,405,299.65Z"/><path class="cls-11" d="M408.07,326.65a1.43,1.43,0,1,1-1.43-1.43A1.43,1.43,0,0,1,408.07,326.65Z"/><path class="cls-11" d="M423.31,321.63a1.32,1.32,0,1,1-1.31-1.32A1.31,1.31,0,0,1,423.31,321.63Z"/><path class="cls-11" d="M469.1,301.42a1.32,1.32,0,1,1-1.31-1.32A1.31,1.31,0,0,1,469.1,301.42Z"/><path class="cls-11" d="M434.7,336.74a2.63,2.63,0,1,1-2.63-2.63A2.63,2.63,0,0,1,434.7,336.74Z"/><path class="cls-11" d="M456.08,322.52a2.63,2.63,0,1,1-2.63-2.63A2.63,2.63,0,0,1,456.08,322.52Z"/><path class="cls-11" d="M431.08,350.14a1.42,1.42,0,1,1-1.41-1.42A1.42,1.42,0,0,1,431.08,350.14Z"/><path class="cls-11" d="M428.77,369.81a.9.9,0,1,1-1.8,0,.9.9,0,0,1,1.8,0Z"/><path class="cls-11" d="M453.89,373.23a2.2,2.2,0,1,1-2.2-2.2A2.19,2.19,0,0,1,453.89,373.23Z"/><path class="cls-11" d="M468.2,345.43a2.2,2.2,0,1,1-2.19-2.2A2.19,2.19,0,0,1,468.2,345.43Z"/><path class="cls-11" d="M457.53,380.6a.82.82,0,1,1-.82-.82A.82.82,0,0,1,457.53,380.6Z"/><path class="cls-11" d="M472.82,354.11a.82.82,0,1,1-.82-.82A.82.82,0,0,1,472.82,354.11Z"/><circle class="cls-11" cx="472.24" cy="398.74" r="1.94"/><circle class="cls-11" cx="482.35" cy="385.91" r="1.94"/><path class="cls-11" d="M496.92,411.56a2.59,2.59,0,1,1-2.58-2.59A2.57,2.57,0,0,1,496.92,411.56Z"/><path class="cls-11" d="M498.8,424.27a1.75,1.75,0,1,1-1.75-1.75A1.75,1.75,0,0,1,498.8,424.27Z"/><path class="cls-11" d="M491.52,428.45a1,1,0,1,1-1.95,0,1,1,0,0,1,1.95,0Z"/><path class="cls-11" d="M480.54,438.14a2.41,2.41,0,1,1-2.41-2.41A2.41,2.41,0,0,1,480.54,438.14Z"/><circle class="cls-11" cx="462.34" cy="454.09" r="2.69"/><path class="cls-11" d="M464.83,461.28a.57.57,0,1,1-.57-.57A.57.57,0,0,1,464.83,461.28Z"/><path class="cls-11" d="M462.38,469.21a2.49,2.49,0,1,1-2.49-2.49A2.48,2.48,0,0,1,462.38,469.21Z"/><path class="cls-11" d="M444.37,472.1a1.62,1.62,0,1,1-1.62-1.62A1.62,1.62,0,0,1,444.37,472.1Z"/><circle class="cls-11" cx="428.68" cy="490.28" r="2.01"/><path class="cls-11" d="M407.89,488.27a2.57,2.57,0,1,1-2.57-2.57A2.57,2.57,0,0,1,407.89,488.27Z"/><path class="cls-11" d="M393,507.42a.33.33,0,1,1-.33-.32A.32.32,0,0,1,393,507.42Z"/><path class="cls-11" d="M366.76,35.08a1,1,0,1,1-1.05-1A1,1,0,0,1,366.76,35.08Z"/><path class="cls-11" d="M334.37,35a1,1,0,1,1-1-1A1,1,0,0,1,334.37,35Z"/><path class="cls-11" d="M330.53,40.18a.63.63,0,1,1-.63-.63A.63.63,0,0,1,330.53,40.18Z"/><path class="cls-11" d="M323.58,43.68a2.35,2.35,0,1,1-2.35-2.35A2.35,2.35,0,0,1,323.58,43.68Z"/><path class="cls-11" d="M305.76,32.86a1.26,1.26,0,1,1-1.26-1.25A1.26,1.26,0,0,1,305.76,32.86Z"/><path class="cls-11" d="M282.17,45.5a.72.72,0,1,1-.72-.72A.72.72,0,0,1,282.17,45.5Z"/><path class="cls-11" d="M255.06,22.51a1.19,1.19,0,1,1-1.19-1.18A1.19,1.19,0,0,1,255.06,22.51Z"/><path class="cls-11" d="M229.7,26.29a.36.36,0,0,1-.36.35.36.36,0,0,1,0-.71A.36.36,0,0,1,229.7,26.29Z"/><path class="cls-11" d="M206.11,24.28a1.63,1.63,0,1,1-1.62-1.62A1.62,1.62,0,0,1,206.11,24.28Z"/><circle class="cls-11" cx="199.66" cy="58.36" r="0.59"/><path class="cls-11" d="M168.44,43.58a1.79,1.79,0,1,1-1.79-1.78A1.79,1.79,0,0,1,168.44,43.58Z"/><circle class="cls-11" cx="165.58" cy="65.08" r="1.12"/><circle class="cls-11" cx="161.98" cy="73.29" r="0.92"/><path class="cls-11" d="M136.89,89.64a1.47,1.47,0,1,1-1.46-1.46A1.46,1.46,0,0,1,136.89,89.64Z"/><path class="cls-11" d="M162.82,119.77a2.16,2.16,0,1,1-2.16-2.16A2.16,2.16,0,0,1,162.82,119.77Z"/><path class="cls-11" d="M128,117.06a2.36,2.36,0,1,1-2.36-2.35A2.36,2.36,0,0,1,128,117.06Z"/><path class="cls-11" d="M126.4,123.91a2.37,2.37,0,1,1-2.37-2.37A2.37,2.37,0,0,1,126.4,123.91Z"/><path class="cls-11" d="M157.86,137.12a.92.92,0,1,1-.92-.92A.92.92,0,0,1,157.86,137.12Z"/><path class="cls-11" d="M146.81,146.79a1.19,1.19,0,1,1-1.18-1.18A1.18,1.18,0,0,1,146.81,146.79Z"/><circle class="cls-11" cx="133.05" cy="163.67" r="0.8"/><path class="cls-11" d="M123.17,172a2,2,0,1,1-2-2A2,2,0,0,1,123.17,172Z"/><path class="cls-11" d="M142.64,193.16a1.39,1.39,0,1,1-1.39-1.39A1.4,1.4,0,0,1,142.64,193.16Z"/><circle class="cls-11" cx="121.3" cy="219.72" r="2.25"/><path class="cls-11" d="M138.33,221.5a2.37,2.37,0,1,1-2.37-2.37A2.37,2.37,0,0,1,138.33,221.5Z"/></g></g></g></svg>