<svg xmlns="http://www.w3.org/2000/svg" xmlns:xlink="http://www.w3.org/1999/xlink" viewBox="0 0 500 500"><defs><style>.cls-1{fill:#2884f6;}.cls-2{fill:url(#linear-gradient);}.cls-3{fill:url(#linear-gradient-2);}</style><linearGradient id="linear-gradient" x1="300.65" y1="362.45" x2="300.65" y2="274.27" gradientUnits="userSpaceOnUse"><stop offset="0" stop-color="#2884f6"/><stop offset="1" stop-color="#1c6fc9"/></linearGradient><linearGradient id="linear-gradient-2" x1="118.98" y1="154.72" x2="140.06" y2="108.81" xlink:href="#linear-gradient"/></defs><title>Artboard 14</title><g id="Layer_3" data-name="Layer 3"><path class="cls-1" d="M113.41,101.14,2,420.46H116.45L182,230.11Z"/><polygon class="cls-1" points="414.69 420.46 283.31 420.46 223.89 308.71 344 308.71 414.69 420.46"/><polygon class="cls-2" points="377.42 361.59 252.47 362.45 223.89 308.71 344 308.71 377.42 361.59"/><path class="cls-1" d="M494,157.2l-25.39,73.86q-11.31,31.73-41.95,54.69t-80.29,23H223.89l-33.48-63,0,0L182,230.11H346.94q7.59,0,9.42-6.15l19.24-55.88c1.61-4.09-.12-6.15-5.17-6.15L145.8,162,101.92,79.54H425.25q40.29,0,60.1,22.73T494,157.2Z"/><polygon class="cls-3" points="115.04 200.08 95.28 153.12 113.41 101.14 145.8 162.01 115.04 200.08"/></g></svg>