<svg xmlns="http://www.w3.org/2000/svg" viewBox="0 0 550 510"><defs><style>.cls-1,.cls-5{fill:#ff872e;}.cls-1{opacity:0.2;}.cls-2{fill:#fff;opacity:0.6;}.cls-3,.cls-4{fill:none;stroke:#ff872e;stroke-miterlimit:10;}.cls-4{stroke-width:2px;}.cls-6{fill:#8c4401;}.cls-7,.cls-8{fill:#ffac5e;}.cls-7{opacity:0.3;}</style></defs><title>Media</title><g id="Layer_4" data-name="Layer 4"><g id="Media"><polygon class="cls-1" points="275 491.4 2 18.6 548 18.6 275 491.4"/><polygon class="cls-1" points="220.56 359.19 238.82 325.56 326.22 294.18 220.56 359.19"/><polygon class="cls-1" points="249.52 341.17 220.56 359.19 220.56 298.72 249.52 341.17"/><polygon class="cls-1" points="220.56 359.19 285.95 308.32 353.16 277.64 220.56 359.19"/><polygon class="cls-1" points="220.56 359.19 220.56 209.4 232.59 291.85 220.56 359.19"/><path class="cls-1" d="M280.5,441.31l69.74-29.83,21.93,1.31S337,439.52,280.5,441.31Z"/><path class="cls-1" d="M341.77,428.6l-117.37,6S279.18,453.26,341.77,428.6Z"/><path class="cls-1" d="M341.77,428.6l57.5-52.14L414.33,362l29.37-35.2S421.69,396,341.77,428.6Z"/><path class="cls-1" d="M414.71,375.9l11.67-42.54,29.36-53.65S451.6,332.23,414.71,375.9Z"/><path class="cls-1" d="M446.52,266.16l-2.82,60.61s18.73-42.54,11.1-92.8Z"/><path class="cls-1" d="M280.5,441.31s-58.5,6.26-115.11-35.95Z"/><path class="cls-1" d="M138.75,381.55s34.45,39.34,85.65,53.08Z"/><path class="cls-1" d="M165.39,405.36l-65.9-93.3S114.85,369.12,165.39,405.36Z"/><path class="cls-1" d="M124.45,329.22l-7.34,22.4S96,319.24,92.07,271.8Z"/><path class="cls-1" d="M131.22,232.84s0-15.53,18.36-49.41c0,0,14.4-26.83,46.87-47.72l-37.84,14.4L136,188.79Z"/><path class="cls-1" d="M246.14,115.94l-46.3,2.26-29.37,27.39-20.89,37.84S177.53,129.78,246.14,115.94Z"/><path class="cls-1" d="M196.45,135.71s41.5-30.87,104-20l-54-14.31Z"/><path class="cls-1" d="M377.72,156S330.57,101,246.14,115.94l34.73-13,71.72,17.5Z"/><path class="cls-1" d="M339.32,128.37s54.49,24,74,87.25L400,160.27l-40.66-31.05Z"/><polygon class="cls-1" points="220.78 161.81 380.99 260.48 322.4 234.49 220.78 161.81"/><polygon class="cls-1" points="220.78 161.81 257.58 199.52 341.58 236.13 220.78 161.81"/><polygon class="cls-1" points="341.58 236.13 274.1 194.58 292.87 225.07 341.58 236.13"/><polygon class="cls-1" points="220.78 161.81 235.88 205.4 274.1 194.58 220.78 161.81"/><path class="cls-1" d="M117.67,165.92s24.61-49.22,86.45-75.2Z"/><path class="cls-1" d="M282,77s-56.75-5.65-111,31.62Z"/><path class="cls-1" d="M101.22,201.64s14-54.07,69.82-93Z"/><path class="cls-1" d="M244.45,79.1l131.17,28.41S323.37,66.82,244.45,79.1Z"/><path class="cls-1" d="M282,77l123.27,55.09S360.33,79.91,282,77Z"/><path class="cls-1" d="M353.18,94.38l93.17,103.34S426,130.38,353.18,94.38Z"/><path class="cls-1" d="M204.12,90.72A179.5,179.5,0,0,1,244.45,79.1L226.28,96.56Z"/><path class="cls-2" d="M129,271.8s2.16,76.9,79,117.28l-51.25-21.56-20.09-30.21L121.91,281.4Z"/><path class="cls-2" d="M146.61,329.69l10.07,37.83,58.12,39.81,59.86-2S190.8,408.75,146.61,329.69Z"/><path class="cls-1" d="M207.93,389.08s65.16,36.92,136.19-1.6L329.44,410l-80.19,9.22Z"/><path class="cls-1" d="M274.66,405.08s68.19,4.65,115.77-57.6l-18.78,29.93L356.4,398.72l-27,11.25Z"/><path class="cls-3" d="M238.56,264.51l-4.68-36.12-13.29-66.9,18.92,54.29,27.11,58.16,86.53,3.54-21.52-32.77-30.91-33.88L245.38,203l-24.79,55.09,28.93,83.1c.5-.37,4.49-43.68,4.49-43.68l.18-17.07-12.33-22.35,37.47-8"/><path class="cls-3" d="M281.92,245.45s49.7-.81,49.7-.69-41.78,14.3-41.78,14.3l-7.92-13.61s-7.88-50.54-7.45-50.71,15,36.76,15,36.76l3.29,13.68,20.37,5.91,22.27,8.59,17.74,17.8"/><polyline class="cls-3" points="257.44 199.36 256.42 221.25 278.06 220.41 267.5 239.84 239.51 215.78 241.85 258.07"/><polyline class="cls-3" points="266.62 273.94 281.92 293.68 293.42 295.54 300.1 310.01 307.89 287.87 315.56 259.55 338.44 246.94"/><polyline class="cls-3" points="307.89 287.87 289.84 259.06 266.62 273.94 241.85 258.07 267.5 239.84 289.84 259.06 353.15 277.48 270.05 296.65 238.56 264.51 232.46 291.95 220.59 358.73"/><line class="cls-3" x1="309.01" y1="237.83" x2="289.84" y2="259.06"/><path class="cls-3" d="M396.37,179.23,431.8,167l-2.41,39.7-9.09,57.87S452,300.73,452,300.81,412.32,307,412.32,307l2.13,68.86-21.68-6.07L371.89,413,329,410.17l-54.91-5-40.44,2.42-68.07-2.05-8.53-37.46-20.78-30.61L110.53,285,93.28,234.51l22.07-38.58,24.48-39,23.75-23.18,40.62-43s16.1,32.65,16.28,32.67S235,109.3,235,109.3"/><path class="cls-3" d="M196.78,135.46l17.07-26.53,29.86-29.49,13.54,24.85,23.16-1.55,1.51-25.9L237.65,99.29l-23.8,9.64-14.16,9.4-22.76,16.2-18.05,15.21s-16.2-17.06-16.32-16.69-21.15,53-21.15,53l16.07-9.28L114.36,215,92.6,272.41l23.47-.75s12.88.38,12.88.63c0,.74-29.18,39.94-29.18,39.94l31.86,41.83,6.35,6L167,384.57l16.69,14L216.88,414s34.85,26.18,35.34,26.18,43.8-15.3,43.8-15.3l33-14.72,27.33-11.37,15.08-21.27,43-1.63,5.51-20.75,6.61-21L435,303.33l6.18-14.47S455.08,234.42,455,234s-31.3-44.79-31.3-44.79L410.1,174.6,400.27,161l-24.49-53.39L311,103l-30.57-.26S304.34,79,304.55,79.13s-3,15.33-3,15.33l-1.23,20.9,32.95-10.88L353,94.59l-.25,26.12"/><polyline class="cls-3" points="131.49 353.41 136.31 337.46 146.7 330.23 157.09 368.06"/><line class="cls-3" x1="137.48" y1="176.82" x2="170.81" y2="145.29"/><path class="cls-3" d="M220.48,123.42l36.77-19.13S303.56,79,304.55,79.13l28.75,25.35,19.48,16.23,24.11,10.11L400.27,161,411,184.61l16,36.92,9.46,28.56,4.76,38.77,2.29,12.8.14,25.47L414,362.21s-17.89,32.44-18.26,33-45.58,16.45-45.58,16.45S311.32,438,310.58,438s-31.73-7.08-31.73-7.08l-29.32-11.62L216.88,414l-48.67-54.29"/><polyline class="cls-3" points="412.32 307.04 443.63 327.13 426.98 221.53"/><polyline class="cls-3" points="252.22 440.19 320.59 397.55 371.89 412.95 330.94 424.84 280.5 441.41 193.16 422.02 167.04 384.57"/><line class="cls-3" x1="149.3" y1="356.7" x2="99.77" y2="312.23"/><polyline class="cls-3" points="117.39 351.43 117.67 306.82 128.95 272.29 114.36 215.03"/><polyline class="cls-3" points="110.53 284.96 146.7 330.23 127.69 319.95 117.67 306.82 92.6 272.41 117.67 324.32"/><circle class="cls-4" cx="274.38" cy="259.1" r="182.4"/><circle class="cls-4" cx="274.38" cy="259.1" r="145.91"/><polygon class="cls-4" points="381.19 260.34 220.56 161.5 220.56 359.19 381.19 260.34"/><path class="cls-3" d="M274.38,405l67.39,23.59,2.11-41.18s51.56,8.16,51.81,7.79S390.06,348,390.06,348s53.43-20,53.61-21-23.49-62-23.49-62.23S455,234.42,455,234.05s-41.21-18.18-41.28-18.37,18.34-48.5,18.34-48.5-53.55-10.39-54-10.64-1.61-48.78-1.92-48.91-75.87,7.86-75.87,7.86-18.11-38.65-18.36-38.65-34.56,39-35.55,39-42-25.23-42-25.23-7.29,44.64-7.6,45-53.55-3.28-54-2.72,7,50,6.68,50.64-47.95,17.62-48,17.87,29.37,31.72,29.37,31.9-38.22,38.9-38.22,39.36,41.74,27.73,41.86,28.23-17.43,50.08-17.06,50.7,51.07,7.91,51.07,7.91l-2.72,46.13,42.42-16.45,16,45.14S273.14,405.22,274.38,405Z"/><path class="cls-3" d="M266.63,273.94,315.7,259.3s25.7-23.36,25.74-23.34-15.07,58.09-15.07,58.09-105.82,4.7-105.8,4.88,54,27,54.07,26.9-8-51.89-8-51.89l-45.71-63.82,160.36,50.25s-160.65-2.74-160.68-2.3,105.72,36.06,105.78,36-25.65-83.22-25.65-83.22L220.56,359.19"/><path class="cls-3" d="M149.39,183.5l34.53-61.27,20.4-31.6,95.9,24.86,52.68,5.07s52.84,12.09,53,12.21c.37.23,7.79,82.91,7.79,82.91s41.74,63.63,41.74,64.28l-43.13,27.26-16.63,88-39.48,3.55-35.52-1s-39.51,43.59-40.07,43.66-72.52-52.25-72.52-52.25-68.76-7.54-68.95-7.61-4.76-80.68-4.76-80.68S93.46,235.44,93.46,234.7,149.39,183.5,149.39,183.5Z"/><path class="cls-3" d="M117.33,351.56l90.77,37.59-14.84,33.51,54.41-20.15s4.2,37.59,4.57,37.59S274.38,405,274.38,405s35.49,32.86,36.23,32.86,33.27-50.45,33.27-50.45l84.58-30.48-8.28-92.1s26.21-66.13,25.84-67.12-49.34-18.05-49.4-18.36,9.3-46.59,9.3-46.59l-66.62-4.55L281.86,76.84l-85.14,58.74s-79,29.83-79.14,30.11,31.81,17.81,31.81,17.81l21.48-74.82"/><path class="cls-3" d="M196.72,135.58s-25.91-26.77-25.85-26.9,63.94.62,63.94.62l9-30,56.39,36.24s26.51-31.06,27.47-30.83,11.61,43.56,11.61,43.56l36.79-20.59"/><path class="cls-3" d="M130.75,233.27s-13-67.58-13.17-67.58-3.34,49.59-3.34,49.59l-7,42L106.1,272l-2,8.24s-4.26,32-4.21,32S130.75,233.27,130.75,233.27Z"/><polyline class="cls-3" points="134.39 300.86 100.07 312.28 168.4 359.47 193.26 422.66"/><polyline class="cls-3" points="320.69 397.74 341.77 428.6 371.27 368.22 395.69 395.21"/><line class="cls-3" x1="280.62" y1="441.4" x2="274.38" y2="405.01"/><line class="cls-3" x1="420.18" y1="264.84" x2="455.45" y2="279.96"/><path class="cls-3" d="M274.64,325.83,315.7,259.3l-48.25-19.41s-47-78.33-46.89-78.4,68.86,70.11,68.86,70.11-69.33,25.48-68.83,26.47c.3.62,33.32,39.25,33.32,39.25l20.73,28.51,26.08-115s-80-.59-80-.85,53.57-15.37,53.69-15.26-5.84,15.84-5.84,15.84l-1.95,63.38-46.05,25,26.85-51.5,9-26.21,12.12-10.66"/><polyline class="cls-3" points="107.28 257.37 110.53 284.78 124.66 329.27 139.15 381.55 168.4 359.47"/><path class="cls-3" d="M246.31,115.86l81.37-31.24L378,156.54l27.91-23.77,17.72,56,11.87,36.11,19.94,55-28.84,54-22.82,17.74-11.07,18.12-21.51-1.49s.88,44.76.72,44.86-28.05-25.81-28.05-25.81"/><line class="cls-3" x1="252.24" y1="440.1" x2="208.1" y2="389.15"/><polyline class="cls-3" points="390.06 348.03 403.79 351.74 428.46 356.94 412.32 307.22 436.5 250.4 446.02 197.72 413.71 215.68"/><path class="cls-3" d="M220.57,298.93l29,42.24c1.24,0,17.1-67.23,17.1-67.23"/><path class="cls-3" d="M315.7,259.3s37.08,18.31,37.45,18.18S341.47,236,341.47,236l-52.38-4.39"/><line class="cls-3" x1="238.33" y1="325.64" x2="326.37" y2="294.05"/><polyline class="cls-3" points="93.46 234.7 130.75 233.27 142.71 132.86 234.81 109.3 257.07 104.3"/><path class="cls-3" d="M249.52,341.17l-28.93-11.91c-.05-.28,25.55-17.5,25.55-17.5l-1.83-25.7,2.54-18.91,20.6-27.26-33.57-11.5"/><path class="cls-3" d="M220.72,210c.28-.56,24.49-33.18,24.4-33.29s-24.53,12-24.53,12c0,.61,24.79,14.33,24.79,14.33s0-26-.23-26.33"/><path class="cls-3" d="M257.44,199.36s-11.65-22.64-12.32-22.67"/><path class="cls-3" d="M353.15,277.48s10.08-28.26,9.94-28.31-27.68,10.51-27.68,10.51l-3.78-15"/><circle class="cls-5" cx="220.78" cy="161.81" r="2.77"/><circle class="cls-5" cx="196.69" cy="135.27" r="2.39" transform="translate(-36.89 86.04) rotate(-22.62)"/><circle class="cls-5" cx="220.78" cy="358.65" r="3.34" transform="translate(-171.9 510.87) rotate(-79.57)"/><path class="cls-5" d="M222.66,210.12a1.88,1.88,0,1,1-1.88-1.88A1.88,1.88,0,0,1,222.66,210.12Z"/><path class="cls-5" d="M258.28,221.55a1.88,1.88,0,1,1-1.88-1.88A1.88,1.88,0,0,1,258.28,221.55Z"/><circle class="cls-5" cx="245.46" cy="202.77" r="1.87"/><path class="cls-5" d="M270.56,210.82a1.88,1.88,0,1,1-1.88-1.88A1.88,1.88,0,0,1,270.56,210.82Z"/><path class="cls-5" d="M279.88,220.49a1.88,1.88,0,1,1-1.88-1.88A1.88,1.88,0,0,1,279.88,220.49Z"/><path class="cls-5" d="M241.62,216.18a1.88,1.88,0,1,1-1.88-1.87A1.87,1.87,0,0,1,241.62,216.18Z"/><circle class="cls-5" cx="234.03" cy="228.53" r="1.87"/><circle class="cls-5" cx="245.3" cy="177.03" r="1.48"/><circle class="cls-5" cx="220.47" cy="188.86" r="1.95"/><circle class="cls-5" cx="257.58" cy="199.52" r="1.34"/><circle class="cls-5" cx="247.37" cy="247.15" r="1.87"/><circle class="cls-5" cx="267.6" cy="239.99" r="2.45"/><path class="cls-5" d="M269.9,225a1.88,1.88,0,1,1-1.87-1.87A1.88,1.88,0,0,1,269.9,225Z"/><circle class="cls-5" cx="289.53" cy="231.62" r="1.87"/><circle class="cls-5" cx="282.07" cy="245.6" r="1.44"/><circle class="cls-5" cx="238.66" cy="264.52" r="1.44"/><circle class="cls-5" cx="253.98" cy="297.42" r="2.54"/><circle class="cls-5" cx="238.83" cy="325.56" r="1.67"/><circle class="cls-5" cx="246.07" cy="311.91" r="2.47"/><circle class="cls-5" cx="241.93" cy="258.26" r="1.67"/><circle class="cls-5" cx="246.92" cy="267.13" r="1.98"/><circle class="cls-5" cx="244.24" cy="286.12" r="1.24"/><circle class="cls-5" cx="270.12" cy="296.62" r="1.52"/><circle class="cls-5" cx="293.44" cy="295.66" r="1.52"/><path class="cls-5" d="M286.48,280.32A1.52,1.52,0,1,1,285,278.8,1.51,1.51,0,0,1,286.48,280.32Z"/><circle class="cls-5" cx="309.01" cy="237.83" r="1.88"/><circle class="cls-5" cx="274.92" cy="258.72" r="1.65"/><circle class="cls-5" cx="313.46" cy="251.24" r="1.65"/><circle class="cls-5" cx="307.88" cy="287.99" r="1.98"/><path class="cls-5" d="M222.66,258.28a1.88,1.88,0,1,1-1.88-1.88A1.88,1.88,0,0,1,222.66,258.28Z"/><circle class="cls-5" cx="220.78" cy="298.72" r="2.35" transform="translate(-120.56 445.24) rotate(-76.76)"/><circle class="cls-5" cx="249.6" cy="341.05" r="1.51"/><circle class="cls-5" cx="300.24" cy="310.27" r="1.51"/><circle class="cls-5" cx="326.22" cy="294.18" r="2.23"/><circle class="cls-5" cx="341.58" cy="236.13" r="1.81"/><circle class="cls-5" cx="331.72" cy="244.84" r="1.81"/><circle class="cls-5" cx="322.4" cy="234.49" r="1.32"/><circle class="cls-5" cx="363.2" cy="248.89" r="1.32"/><circle class="cls-5" cx="359.34" cy="260.18" r="1.72"/><circle class="cls-5" cx="348.28" cy="259.85" r="1.76"/><circle class="cls-5" cx="335.53" cy="259.71" r="1.76"/><circle class="cls-5" cx="333.37" cy="267.71" r="1.76"/><circle class="cls-5" cx="320.97" cy="276.28" r="1.76"/><circle class="cls-5" cx="380.99" cy="260.48" r="2.28" transform="translate(62.84 594.83) rotate(-80.78)"/><circle class="cls-5" cx="412.17" cy="307.15" r="1.74"/><circle class="cls-5" cx="455.58" cy="279.83" r="1.74"/><circle class="cls-5" cx="420.21" cy="264.96" r="1.74"/><path class="cls-5" d="M415.51,215.62a1.74,1.74,0,1,1-1.74-1.75A1.74,1.74,0,0,1,415.51,215.62Z"/><path class="cls-5" d="M398.52,179.19a1.74,1.74,0,1,1-1.74-1.74A1.74,1.74,0,0,1,398.52,179.19Z"/><circle class="cls-5" cx="378.1" cy="156.13" r="1.74"/><circle class="cls-5" cx="405.96" cy="132.79" r="1.74"/><circle class="cls-5" cx="431.65" cy="166.77" r="1.74"/><circle class="cls-5" cx="454.9" cy="234.06" r="1.36"/><circle class="cls-5" cx="436.52" cy="250.42" r="1.45"/><circle class="cls-6" cx="431.86" cy="294.93" r="1.27"/><circle class="cls-5" cx="435.11" cy="303.33" r="1.81"/><circle class="cls-6" cx="443.65" cy="302.23" r="1.27"/><circle class="cls-5" cx="451.91" cy="300.6" r="1.91"/><circle class="cls-6" cx="423.89" cy="305.31" r="1.53"/><circle class="cls-5" cx="438.38" cy="312.04" r="1.53"/><circle class="cls-6" cx="441.25" cy="288.79" r="1.27"/><circle class="cls-6" cx="421.98" cy="284.56" r="0.96"/><circle class="cls-6" cx="428.9" cy="268.42" r="0.96"/><circle class="cls-5" cx="429.74" cy="240.25" r="1.41"/><path class="cls-6" d="M440.41,235.1a1.05,1.05,0,1,1-1.34-.65A1,1,0,0,1,440.41,235.1Z"/><path class="cls-5" d="M437,225a1.47,1.47,0,1,1-1.87-.9A1.47,1.47,0,0,1,437,225Z"/><path class="cls-5" d="M425.13,188.66a1.47,1.47,0,1,1-1.87-.9A1.47,1.47,0,0,1,425.13,188.66Z"/><path class="cls-5" d="M412.42,184.21a1.47,1.47,0,0,1-2.77,1,1.47,1.47,0,1,1,2.77-1Z"/><path class="cls-5" d="M417,163.68a1.24,1.24,0,1,1-1.58-.77A1.24,1.24,0,0,1,417,163.68Z"/><path class="cls-6" d="M410,162.28a1.09,1.09,0,1,1-1.39-.67A1.09,1.09,0,0,1,410,162.28Z"/><path class="cls-6" d="M419.64,201.81a1.09,1.09,0,1,1-1.38-.67A1.09,1.09,0,0,1,419.64,201.81Z"/><path class="cls-6" d="M431.08,197.75a1.09,1.09,0,1,1-1.39-.67A1.09,1.09,0,0,1,431.08,197.75Z"/><path class="cls-5" d="M411.43,174.12a1.46,1.46,0,1,1-1.86-.9A1.46,1.46,0,0,1,411.43,174.12Z"/><path class="cls-5" d="M401.55,160.38a1.46,1.46,0,0,1-.9,1.87,1.47,1.47,0,1,1-1-2.77A1.46,1.46,0,0,1,401.55,160.38Z"/><circle class="cls-5" cx="446.19" cy="197.76" r="1.47"/><path class="cls-6" d="M441.83,227.2a1.06,1.06,0,0,1-2,.7,1.06,1.06,0,0,1,2-.7Z"/><path class="cls-6" d="M428,221.41a1.06,1.06,0,1,1-1.35-.65A1.06,1.06,0,0,1,428,221.41Z"/><path class="cls-6" d="M441.36,212.7a1.06,1.06,0,0,1-2,.7,1,1,0,0,1,.65-1.35A1.07,1.07,0,0,1,441.36,212.7Z"/><path class="cls-6" d="M443.48,216a.82.82,0,0,1-1.54.54.82.82,0,1,1,1.54-.54Z"/><path class="cls-6" d="M443.7,244.64a1,1,0,0,1-.63,1.31,1,1,0,0,1-1.3-.63,1,1,0,0,1,1.93-.68Z"/><path class="cls-6" d="M432.42,235.4a.81.81,0,1,1-1-.5A.81.81,0,0,1,432.42,235.4Z"/><path class="cls-5" d="M431,206.43a1.53,1.53,0,1,1-2-.94A1.54,1.54,0,0,1,431,206.43Z"/><circle class="cls-6" cx="446.92" cy="266.58" r="0.96"/><circle class="cls-6" cx="448.26" cy="260.44" r="0.96"/><circle class="cls-6" cx="444.66" cy="275.33" r="0.96"/><circle class="cls-6" cx="425.09" cy="277.45" r="1.27"/><circle class="cls-5" cx="443.37" cy="326.91" r="1.42"/><path class="cls-5" d="M392.33,348.18a2,2,0,1,1-2-2A2,2,0,0,1,392.33,348.18Z"/><circle class="cls-5" cx="426.66" cy="334.06" r="1.45"/><circle class="cls-6" cx="405.81" cy="342.18" r="1.45"/><circle class="cls-6" cx="413.44" cy="344.3" r="1.2"/><circle class="cls-5" cx="392.76" cy="369.78" r="1.55"/><circle class="cls-5" cx="371.44" cy="377.69" r="1.55"/><circle class="cls-6" cx="377.58" cy="375.29" r="1.27"/><circle class="cls-6" cx="379.65" cy="377.26" r="0.89"/><circle class="cls-6" cx="393.89" cy="376.56" r="1.27"/><circle class="cls-6" cx="385.91" cy="384.25" r="1.27"/><circle class="cls-5" cx="343.84" cy="387.57" r="1.69"/><circle class="cls-5" cx="356.26" cy="398.68" r="1.69"/><path class="cls-5" d="M330.59,410.16a1.34,1.34,0,1,1-1.34-1.34A1.34,1.34,0,0,1,330.59,410.16Z"/><circle class="cls-6" cx="364.54" cy="406.49" r="1.34"/><circle class="cls-6" cx="371.93" cy="404.02" r="1.34"/><circle class="cls-6" cx="337.01" cy="398.23" r="1.69"/><circle class="cls-5" cx="343.16" cy="404.16" r="1.69"/><circle class="cls-6" cx="336.66" cy="420.82" r="1.2"/><circle class="cls-6" cx="371.7" cy="397.36" r="1.22"/><circle class="cls-6" cx="379.89" cy="396.64" r="0.98"/><circle class="cls-6" cx="381.4" cy="393.25" r="0.98"/><circle class="cls-6" cx="350.24" cy="411.48" r="1.22"/><circle class="cls-6" cx="342.61" cy="410.91" r="1.22"/><circle class="cls-6" cx="342.33" cy="417.05" r="0.8"/><circle class="cls-6" cx="365.77" cy="379.38" r="1.22"/><circle class="cls-6" cx="371.7" cy="391.81" r="1.32"/><circle class="cls-6" cx="360.69" cy="389.92" r="1.13"/><circle class="cls-5" cx="320.68" cy="397.73" r="1.69"/><circle class="cls-5" cx="274.43" cy="405.17" r="1.69"/><circle class="cls-5" cx="247.55" cy="402.44" r="1.69"/><circle class="cls-5" cx="193.34" cy="422.21" r="1.69"/><circle class="cls-5" cx="224.03" cy="434.44" r="1.41"/><circle class="cls-5" cx="216.68" cy="413.83" r="1.41"/><circle class="cls-5" cx="249.44" cy="419.26" r="1.41"/><circle class="cls-5" cx="260.66" cy="427.24" r="1.06"/><circle class="cls-6" cx="278.73" cy="431.05" r="1.06"/><circle class="cls-6" cx="311.56" cy="418.16" r="1.06"/><circle class="cls-6" cx="310.92" cy="408.49" r="1.06"/><path class="cls-6" d="M263.58,424.46a1.06,1.06,0,1,1-1.06-1A1.06,1.06,0,0,1,263.58,424.46Z"/><circle class="cls-5" cx="233.44" cy="407.71" r="1.6"/><circle class="cls-5" cx="280.5" cy="441.31" r="1.69"/><circle class="cls-5" cx="252.07" cy="439.81" r="1.69"/><circle class="cls-5" cx="207.84" cy="389.36" r="2.16"/><circle class="cls-5" cx="139.22" cy="381.03" r="2.16"/><circle class="cls-5" cx="117.39" cy="351.57" r="2.16"/><circle class="cls-5" cx="136.59" cy="337.83" r="2.16"/><circle class="cls-5" cx="124.82" cy="329.45" r="1.84"/><circle class="cls-5" cx="99.98" cy="312.13" r="1.84"/><circle class="cls-5" cx="110.57" cy="285.17" r="1.84"/><circle class="cls-5" cx="107.08" cy="257.59" r="1.84"/><circle class="cls-6" cx="121.34" cy="242.63" r="1.46"/><circle class="cls-5" cx="111.04" cy="234.02" r="1.46"/><circle class="cls-6" cx="119.18" cy="233.59" r="1.08"/><circle class="cls-6" cx="106.99" cy="234.25" r="1.08"/><circle class="cls-6" cx="101.95" cy="248.13" r="1.08"/><path class="cls-6" d="M123.37,281.59a1.09,1.09,0,1,1-1.09-1.08A1.09,1.09,0,0,1,123.37,281.59Z"/><circle class="cls-6" cx="113.3" cy="293.83" r="1.08"/><circle class="cls-5" cx="116.82" cy="289.12" r="1.74"/><path class="cls-5" d="M130.75,271.9a1.84,1.84,0,1,1-1.83-1.84A1.83,1.83,0,0,1,130.75,271.9Z"/><circle class="cls-5" cx="134.33" cy="301.03" r="1.84"/><circle class="cls-5" cx="92.4" cy="272.23" r="2.4"/><circle class="cls-5" cx="131.41" cy="353.83" r="1.74"/><circle class="cls-5" cx="138" cy="360.13" r="1.74"/><circle class="cls-6" cx="137.81" cy="355.05" r="1.46"/><circle class="cls-5" cx="146.75" cy="330.39" r="1.46"/><circle class="cls-5" cx="117.58" cy="306.58" r="1.46"/><path class="cls-5" d="M105.62,280.32a1.46,1.46,0,1,1-1.45-1.46A1.45,1.45,0,0,1,105.62,280.32Z"/><circle class="cls-5" cx="106.07" cy="272.06" r="1.46"/><circle class="cls-5" cx="116.12" cy="271.76" r="1.46"/><circle class="cls-6" cx="102.78" cy="261.88" r="1.46"/><circle class="cls-5" cx="123.57" cy="251.68" r="1.46"/><circle class="cls-5" cx="93.62" cy="234.53" r="2.45"/><circle class="cls-5" cx="130.61" cy="233.12" r="2.45"/><circle class="cls-5" cx="114.05" cy="215.43" r="2.45" transform="translate(-74.08 60.43) rotate(-22.62)"/><circle class="cls-5" cx="149.72" cy="183.62" r="2.45"/><circle class="cls-5" cx="234.94" cy="108.89" r="2.45"/><circle class="cls-5" cx="243.98" cy="79.52" r="2.26" transform="translate(126.32 307.57) rotate(-80.76)"/><circle class="cls-5" cx="246.24" cy="115.85" r="1.98"/><circle class="cls-6" cx="246.33" cy="101.64" r="1.41"/><path class="cls-6" d="M263.18,90.72a1.42,1.42,0,1,1-1.41-1.41A1.41,1.41,0,0,1,263.18,90.72Z"/><circle class="cls-6" cx="266.43" cy="93.83" r="1.18"/><circle class="cls-6" cx="268.68" cy="107.45" r="1.18"/><circle class="cls-6" cx="287.25" cy="88.18" r="1.18"/><circle class="cls-6" cx="291.63" cy="85.57" r="0.96"/><circle class="cls-6" cx="294.87" cy="88.39" r="1.18"/><circle class="cls-6" cx="289.86" cy="93.47" r="1.18"/><circle class="cls-5" cx="220.78" cy="123.38" r="1.41"/><circle class="cls-6" cx="237.86" cy="99.29" r="1.41"/><circle class="cls-5" cx="280.68" cy="102.96" r="1.69"/><circle class="cls-5" cx="257.34" cy="104.27" r="1.69"/><circle class="cls-5" cx="300.17" cy="115.57" r="1.98"/><path class="cls-5" d="M306.57,79.1a2,2,0,1,1-2-2A2,2,0,0,1,306.57,79.1Z"/><circle class="cls-5" cx="327.88" cy="84.89" r="1.98"/><circle class="cls-5" cx="339.74" cy="128.09" r="1.98"/><circle class="cls-6" cx="359.08" cy="129.78" r="1.48"/><circle class="cls-5" cx="376.94" cy="130.91" r="1.48"/><circle class="cls-6" cx="376.87" cy="126.04" r="1.2"/><circle class="cls-5" cx="352.87" cy="120.6" r="1.98"/><circle class="cls-5" cx="376.03" cy="107.97" r="1.98"/><circle class="cls-5" cx="335.01" cy="111.78" r="1.98"/><path class="cls-6" d="M329.72,118.2a1.56,1.56,0,1,1-1.55-1.55A1.56,1.56,0,0,1,329.72,118.2Z"/><circle class="cls-6" cx="322.59" cy="113.12" r="1.55"/><circle class="cls-5" cx="311.3" cy="102.96" r="1.55"/><circle class="cls-5" cx="301.32" cy="94.49" r="1.55"/><circle class="cls-6" cx="292.28" cy="98.44" r="1.55"/><circle class="cls-5" cx="333.04" cy="104.56" r="1.55"/><circle class="cls-6" cx="337.06" cy="119.12" r="1.06"/><circle class="cls-6" cx="346.1" cy="110.79" r="1.2"/><circle class="cls-5" cx="117.91" cy="165.64" r="2.45"/><circle class="cls-5" cx="115.46" cy="196.32" r="1.98"/><circle class="cls-6" cx="123.22" cy="193.36" r="1.65"/><circle class="cls-5" cx="121.44" cy="186.06" r="1.6"/><circle class="cls-5" cx="137.44" cy="177.22" r="1.6"/><circle class="cls-5" cx="139.88" cy="157.07" r="1.6"/><circle class="cls-5" cx="158.8" cy="149.73" r="1.6"/><path class="cls-5" d="M172.54,145.78a1.6,1.6,0,1,1-1.6-1.6A1.6,1.6,0,0,1,172.54,145.78Z"/><circle class="cls-5" cx="142.8" cy="132.89" r="2.07"/><circle class="cls-5" cx="170.66" cy="108.6" r="2.07"/><circle class="cls-5" cx="204.17" cy="90.53" r="2.07"/><circle class="cls-5" cx="281.96" cy="77.12" r="2.07"/><circle class="cls-5" cx="145.53" cy="155" r="1.32"/><circle class="cls-5" cx="163.84" cy="133.87" r="1.32"/><circle class="cls-6" cx="171.27" cy="125.5" r="0.99"/><circle class="cls-6" cx="188.07" cy="126.72" r="0.99"/><circle class="cls-6" cx="179.11" cy="117.33" r="0.99"/><circle class="cls-6" cx="187.08" cy="108.65" r="0.99"/><circle class="cls-6" cx="177.18" cy="134.51" r="1.32"/><circle class="cls-6" cx="199.7" cy="118.42" r="1.32"/><circle class="cls-5" cx="192.64" cy="108.6" r="1.84"/><circle class="cls-5" cx="201.25" cy="108.89" r="1.84"/><circle class="cls-5" cx="213.46" cy="109.24" r="1.84"/><circle class="cls-6" cx="221.65" cy="101.19" r="1.41"/><circle class="cls-6" cx="209.65" cy="115.66" r="0.92"/><circle class="cls-6" cx="226.17" cy="104.02" r="0.92"/><circle class="cls-6" cx="226.59" cy="96.39" r="0.92"/><circle class="cls-6" cx="165.39" cy="126.82" r="1.32"/><circle class="cls-5" cx="183.88" cy="122.3" r="1.84"/><circle class="cls-5" cx="136.07" cy="188.65" r="1.65"/><circle class="cls-5" cx="135.27" cy="196.32" r="1.65"/><circle class="cls-5" cx="125.2" cy="205.26" r="1.41"/><circle class="cls-5" cx="101.53" cy="201.03" r="1.98"/><circle class="cls-5" cx="168.31" cy="359.71" r="2.16"/><circle class="cls-5" cx="165.77" cy="405.45" r="1.79"/><circle class="cls-5" cx="183.77" cy="398.39" r="1.53"/><circle class="cls-5" cx="167.01" cy="384.53" r="1.53"/><circle class="cls-5" cx="156.99" cy="368.02" r="1.53"/><circle class="cls-6" cx="151.98" cy="371.83" r="1.13"/><circle class="cls-6" cx="174.71" cy="375.29" r="1.13"/><circle class="cls-6" cx="160.8" cy="383.9" r="1.13"/><circle class="cls-6" cx="186.78" cy="380.37" r="1.13"/><circle class="cls-6" cx="178.8" cy="386.09" r="1.62"/><circle class="cls-5" cx="167.51" cy="372.32" r="1.62"/><circle class="cls-6" cx="198.1" cy="393.24" r="1.25"/><circle class="cls-6" cx="226.17" cy="410.3" r="1.25"/><path class="cls-6" d="M232.85,416.3a1.25,1.25,0,1,1-1.25-1.25A1.25,1.25,0,0,1,232.85,416.3Z"/><circle class="cls-6" cx="235.2" cy="427.59" r="1.25"/><circle class="cls-5" cx="239.3" cy="425.41" r="1.62"/><circle class="cls-5" cx="193.37" cy="387.52" r="1.53"/><circle class="cls-5" cx="200.5" cy="406.37" r="1.79"/><circle class="cls-6" cx="186.87" cy="406.23" r="1.46"/><circle class="cls-6" cx="214.33" cy="406.86" r="1.46"/><circle class="cls-6" cx="210.52" cy="406.77" r="0.99"/><circle class="cls-6" cx="203.7" cy="399.24" r="1.13"/><circle class="cls-6" cx="223.74" cy="407.29" r="1.46"/><circle class="cls-5" cx="311.27" cy="437.78" r="1.69"/><circle class="cls-5" cx="296.03" cy="424.94" r="1.69"/><path class="cls-5" d="M305.91,415.48a1.7,1.7,0,1,1-1.7-1.7A1.7,1.7,0,0,1,305.91,415.48Z"/><circle class="cls-5" cx="321.86" cy="421.69" r="1.69"/><circle class="cls-5" cx="341.65" cy="428.3" r="1.98"/><circle class="cls-5" cx="372.07" cy="413.12" r="1.62"/><circle class="cls-5" cx="399.39" cy="376.28" r="1.62"/><path class="cls-5" d="M397.49,394.91a1.77,1.77,0,1,1-1.77-1.76A1.77,1.77,0,0,1,397.49,394.91Z"/><circle class="cls-5" cx="370.87" cy="368.37" r="1.76"/><circle class="cls-5" cx="414.64" cy="376.06" r="1.55"/><path class="cls-6" d="M426.78,348.53a1.2,1.2,0,1,1-1.2-1.2A1.2,1.2,0,0,1,426.78,348.53Z"/><circle class="cls-6" cx="424.03" cy="342.82" r="1.2"/><circle class="cls-6" cx="421.56" cy="336.04" r="0.85"/><circle class="cls-6" cx="414.07" cy="361.88" r="1.2"/><circle class="cls-6" cx="400.94" cy="366.68" r="1.2"/><circle class="cls-6" cx="400.1" cy="371.9" r="0.99"/><circle class="cls-6" cx="407.51" cy="373.73" r="0.99"/><circle class="cls-6" cx="420" cy="355.17" r="1.55"/><circle class="cls-5" cx="403.79" cy="351.76" r="1.74"/><circle class="cls-5" cx="428.17" cy="357.03" r="1.93"/><path class="cls-5" d="M276.41,325.8a1.91,1.91,0,1,1-1.91-1.91A1.91,1.91,0,0,1,276.41,325.8Z"/><circle class="cls-5" cx="266.67" cy="273.95" r="2.36"/><circle class="cls-5" cx="289.63" cy="258.7" r="2.36"/><circle class="cls-5" cx="315.51" cy="259.27" r="2.36" transform="translate(-9.31 506.77) rotate(-76.72)"/><circle class="cls-5" cx="353.16" cy="277.64" r="2.36"/><circle class="cls-5" cx="274.85" cy="194.63" r="1.95"/><circle class="cls-5" cx="300.68" cy="210.79" r="1.95"/><path class="cls-6" d="M97.77,267.46A1.43,1.43,0,1,1,96.34,266,1.43,1.43,0,0,1,97.77,267.46Z"/><path class="cls-6" d="M111.23,267.1a.93.93,0,1,1-.92-.92A.92.92,0,0,1,111.23,267.1Z"/><circle class="cls-6" cx="89.34" cy="278.79" r="1.34"/><path class="cls-6" d="M120.1,278.42a1,1,0,1,1-1-1A1,1,0,0,1,120.1,278.42Z"/><circle class="cls-6" cx="106.22" cy="283.94" r="0.89"/><path class="cls-6" d="M113.4,286.56a1,1,0,1,1-1-1A1,1,0,0,1,113.4,286.56Z"/><circle class="cls-6" cx="97.42" cy="304.5" r="1.3"/><path class="cls-6" d="M114.38,313.07a1,1,0,0,1-2.09,0,1,1,0,1,1,2.09,0Z"/><circle class="cls-6" cx="133.68" cy="321.82" r="0.8"/><path class="cls-6" d="M121.16,332.7a.81.81,0,1,1-.8-.81A.8.8,0,0,1,121.16,332.7Z"/><circle class="cls-6" cx="220.55" cy="121.91" r="1.16"/><path class="cls-6" d="M184.28,103.16a1.36,1.36,0,1,1-1.36-1.36A1.35,1.35,0,0,1,184.28,103.16Z"/><path class="cls-6" d="M188.66,123.71a1.35,1.35,0,1,1-1.35-1.34A1.35,1.35,0,0,1,188.66,123.71Z"/><path class="cls-6" d="M181,115.91a1.18,1.18,0,1,1-1.18-1.17A1.18,1.18,0,0,1,181,115.91Z"/><path class="cls-6" d="M181.48,141.36a1.17,1.17,0,1,1-1.16-1.16A1.17,1.17,0,0,1,181.48,141.36Z"/><circle class="cls-6" cx="171.86" cy="140.13" r="0.65"/><path class="cls-6" d="M143.51,137.09a1,1,0,1,1-1-1A1,1,0,0,1,143.51,137.09Z"/><path class="cls-6" d="M133.18,149.32a1.4,1.4,0,1,1-1.4-1.4A1.4,1.4,0,0,1,133.18,149.32Z"/><path class="cls-6" d="M135.71,165.52a.66.66,0,1,1-.66-.65A.65.65,0,0,1,135.71,165.52Z"/><circle class="cls-6" cx="129.78" cy="183.33" r="0.87"/><circle class="cls-6" cx="427.01" cy="216.55" r="0.72"/><circle class="cls-6" cx="433.4" cy="199.02" r="0.99"/><path class="cls-6" d="M424.52,186.35a.88.88,0,1,1-.88-.88A.87.87,0,0,1,424.52,186.35Z"/><circle class="cls-6" cx="416.74" cy="184.84" r="1.06"/><path class="cls-6" d="M424.29,169.12a.77.77,0,0,1-.77.78.78.78,0,1,1,0-1.56A.77.77,0,0,1,424.29,169.12Z"/><path class="cls-6" d="M402.86,173.47a.62.62,0,1,1-.62-.62A.61.61,0,0,1,402.86,173.47Z"/><path class="cls-6" d="M411,144.32a.58.58,0,1,1-.58-.58A.58.58,0,0,1,411,144.32Z"/><path class="cls-6" d="M382.85,153.47a.73.73,0,0,1-1.46,0,.73.73,0,0,1,1.46,0Z"/><path class="cls-6" d="M384.71,139.08a.74.74,0,1,1-.74-.74A.74.74,0,0,1,384.71,139.08Z"/><path class="cls-6" d="M373.19,138.19A1.18,1.18,0,1,1,372,137,1.17,1.17,0,0,1,373.19,138.19Z"/><path class="cls-6" d="M367.67,114a.57.57,0,0,1-.57.57.57.57,0,0,1,0-1.14A.57.57,0,0,1,367.67,114Z"/><path class="cls-6" d="M342.4,120.69a.76.76,0,1,1-.76-.76A.76.76,0,0,1,342.4,120.69Z"/><circle class="cls-6" cx="329.58" cy="94.75" r="1.07"/><circle class="cls-6" cx="322.84" cy="106.97" r="0.59"/><path class="cls-6" d="M190.64,397.64a.64.64,0,0,1-.64.64.64.64,0,0,1,0-1.28A.64.64,0,0,1,190.64,397.64Z"/><path class="cls-6" d="M200,409.23a1,1,0,1,1-1-1A1,1,0,0,1,200,409.23Z"/><circle class="cls-6" cx="201.47" cy="422.44" r="0.92"/><circle class="cls-6" cx="221.05" cy="418.98" r="1.32"/><circle class="cls-6" cx="230.71" cy="407.23" r="0.71"/><path class="cls-6" d="M247.73,425.35a.78.78,0,1,1-1.56,0,.78.78,0,0,1,1.56,0Z"/><path class="cls-6" d="M255.73,410a1.28,1.28,0,1,1-1.27-1.28A1.27,1.27,0,0,1,255.73,410Z"/><path class="cls-6" d="M302.45,418.79a.89.89,0,1,1-.89-.9A.89.89,0,0,1,302.45,418.79Z"/><path class="cls-6" d="M315.16,423a.8.8,0,0,1-1.6,0,.8.8,0,1,1,1.6,0Z"/><circle class="cls-6" cx="338.51" cy="397.91" r="1.04"/><path class="cls-6" d="M354.25,388.32a1.31,1.31,0,1,1-1.31-1.31A1.31,1.31,0,0,1,354.25,388.32Z"/><path class="cls-6" d="M363.87,380.58a.68.68,0,0,1-.68.67.67.67,0,0,1-.67-.67.68.68,0,0,1,.67-.68A.69.69,0,0,1,363.87,380.58Z"/><path class="cls-6" d="M407.55,382.07a.74.74,0,1,1-.74-.74A.74.74,0,0,1,407.55,382.07Z"/><path class="cls-6" d="M398.49,353.34a1.16,1.16,0,1,1-1.16-1.16A1.16,1.16,0,0,1,398.49,353.34Z"/><circle class="cls-6" cx="422.3" cy="353.74" r="0.7"/><circle class="cls-6" cx="431.06" cy="346.34" r="1.19"/><path class="cls-6" d="M425.08,337.81a1.05,1.05,0,1,1-1.05-1.05A1,1,0,0,1,425.08,337.81Z"/><path class="cls-6" d="M420.55,302.89a1.37,1.37,0,1,1-1.36-1.37A1.36,1.36,0,0,1,420.55,302.89Z"/><path class="cls-6" d="M175.78,412.43a.78.78,0,0,1-1.56,0,.78.78,0,1,1,1.56,0Z"/><path class="cls-6" d="M182.83,394.27a1,1,0,1,1-1-1A1,1,0,0,1,182.83,394.27Z"/><path class="cls-6" d="M152.94,387.15a1,1,0,1,1-1-1A1,1,0,0,1,152.94,387.15Z"/><circle class="cls-6" cx="145.53" cy="383.77" r="1.36"/><path class="cls-6" d="M142.39,380.51a.94.94,0,1,1-.94-.94A.95.95,0,0,1,142.39,380.51Z"/><circle class="cls-6" cx="128.23" cy="372.76" r="0.82"/><path class="cls-6" d="M128.51,350a.83.83,0,1,1-.83-.83A.83.83,0,0,1,128.51,350Z"/><circle class="cls-6" cx="118.67" cy="332.79" r="0.69"/><path class="cls-6" d="M107.84,321a1,1,0,1,1-1-1A1,1,0,0,1,107.84,321Z"/><circle class="cls-6" cx="110.11" cy="298.12" r="1.06"/><path class="cls-6" d="M102.2,274.79a1.27,1.27,0,1,1-1.27-1.27A1.27,1.27,0,0,1,102.2,274.79Z"/><circle class="cls-6" cx="406.43" cy="387.36" r="0.7"/><path class="cls-6" d="M333.61,436.74a1,1,0,1,1-.95-.95A1,1,0,0,1,333.61,436.74Z"/><path class="cls-6" d="M313.58,426.13a.69.69,0,1,1-.69-.69A.69.69,0,0,1,313.58,426.13Z"/><circle class="cls-6" cx="294.1" cy="438.42" r="1.3"/><circle class="cls-6" cx="289.94" cy="434.67" r="0.98"/><circle class="cls-6" cx="202.16" cy="428.35" r="0.93"/><path class="cls-6" d="M435.21,316.21a1,1,0,1,1-2.09,0,1,1,0,0,1,2.09,0Z"/><path class="cls-6" d="M424.11,315.84a1.1,1.1,0,1,1-1.09-1.1A1.09,1.09,0,0,1,424.11,315.84Z"/><path class="cls-6" d="M422.75,333.32a1.43,1.43,0,1,1-1.43-1.43A1.43,1.43,0,0,1,422.75,333.32Z"/><path class="cls-6" d="M397.15,337.22a1.29,1.29,0,1,1-1.29-1.28A1.28,1.28,0,0,1,397.15,337.22Z"/><path class="cls-6" d="M410,353.82a1,1,0,0,1-1.91,0,1,1,0,1,1,1.91,0Z"/><path class="cls-6" d="M448.89,205.44a1.34,1.34,0,1,1-1.34-1.34A1.34,1.34,0,0,1,448.89,205.44Z"/><circle class="cls-6" cx="448.88" cy="219.17" r="0.93"/><path class="cls-6" d="M439.41,243.83a.95.95,0,0,1-1.9,0,1,1,0,0,1,1.9,0Z"/><path class="cls-6" d="M429.83,249.66a.84.84,0,1,1-.84-.84A.84.84,0,0,1,429.83,249.66Z"/><path class="cls-6" d="M452,266.71a.81.81,0,1,1-.81-.81A.81.81,0,0,1,452,266.71Z"/><circle class="cls-6" cx="221.57" cy="108.71" r="0.63"/><path class="cls-6" d="M214.21,104.52a.74.74,0,1,1-1.48,0,.74.74,0,0,1,1.48,0Z"/><path class="cls-6" d="M211.07,99.88a1.15,1.15,0,1,1-1.15-1.15A1.15,1.15,0,0,1,211.07,99.88Z"/><path class="cls-6" d="M196.31,118.27a.61.61,0,1,1-.61-.6A.61.61,0,0,1,196.31,118.27Z"/><circle class="cls-6" cx="191.76" cy="121.31" r="1.14"/><circle class="cls-6" cx="179.21" cy="120.48" r="0.83"/><path class="cls-6" d="M169.23,127.41a1.13,1.13,0,1,1-1.12-1.13A1.12,1.12,0,0,1,169.23,127.41Z"/><circle class="cls-6" cx="149.14" cy="134.45" r="0.67"/><circle class="cls-6" cx="143.76" cy="138.51" r="0.96"/><path class="cls-5" d="M166.63,155.78a1.31,1.31,0,1,1-1.3-1.31A1.31,1.31,0,0,1,166.63,155.78Z"/><circle class="cls-6" cx="143.11" cy="160.11" r="1.31"/><path class="cls-6" d="M124,159.2a.65.65,0,1,1-.65-.65A.65.65,0,0,1,124,159.2Z"/><circle class="cls-6" cx="349.32" cy="96.6" r="1.04"/><path class="cls-6" d="M339.59,112.69a1.26,1.26,0,1,1-2.52,0,1.26,1.26,0,0,1,2.52,0Z"/><path class="cls-6" d="M328.47,114.35a.91.91,0,1,1-.9-.9A.9.9,0,0,1,328.47,114.35Z"/><circle class="cls-6" cx="319.91" cy="78.86" r="0.93"/><path class="cls-6" d="M309.66,76.61a1.1,1.1,0,1,1-1.1-1.1A1.1,1.1,0,0,1,309.66,76.61Z"/><path class="cls-6" d="M299.31,97.35a1.4,1.4,0,1,1-1.4-1.4A1.4,1.4,0,0,1,299.31,97.35Z"/><circle class="cls-6" cx="287.42" cy="93.81" r="1.11"/><path class="cls-6" d="M281.5,76.85a1.07,1.07,0,1,1-1.07-1.07A1.07,1.07,0,0,1,281.5,76.85Z"/><path class="cls-6" d="M280.71,105.89a1.22,1.22,0,1,1-1.22-1.22A1.22,1.22,0,0,1,280.71,105.89Z"/><path class="cls-6" d="M275,109.13a1.12,1.12,0,1,1-1.12-1.12A1.12,1.12,0,0,1,275,109.13Z"/><path class="cls-6" d="M427.2,207.58a1.11,1.11,0,1,1-1.1-1.1A1.1,1.1,0,0,1,427.2,207.58Z"/><path class="cls-6" d="M438.75,183.16a1.1,1.1,0,1,1-1.1-1.1A1.09,1.09,0,0,1,438.75,183.16Z"/><path class="cls-6" d="M425.35,168.74a1,1,0,1,1-1-1A1,1,0,0,1,425.35,168.74Z"/><circle class="cls-6" cx="419.87" cy="159.05" r="0.97"/><path class="cls-6" d="M450,245.84a1,1,0,1,1-1-1A1,1,0,0,1,450,245.84Z"/><circle class="cls-6" cx="428.93" cy="229.67" r="0.7"/><circle class="cls-6" cx="413.89" cy="224.1" r="0.78"/><circle class="cls-6" cx="288.86" cy="232.29" r="0.71"/><circle class="cls-6" cx="128.74" cy="249.75" r="0.88"/><circle class="cls-6" cx="120.3" cy="250.44" r="0.8"/><path class="cls-6" d="M102.58,256.13A1.18,1.18,0,1,1,101.4,255,1.18,1.18,0,0,1,102.58,256.13Z"/><circle class="cls-6" cx="92.61" cy="240.33" r="0.88"/><path class="cls-6" d="M442.41,263a.9.9,0,1,1-.9-.9A.9.9,0,0,1,442.41,263Z"/><path class="cls-6" d="M426,263.51a1.28,1.28,0,1,1-1.27-1.27A1.27,1.27,0,0,1,426,263.51Z"/><path class="cls-6" d="M433.05,228.89a1.43,1.43,0,1,1-1.43-1.43A1.43,1.43,0,0,1,433.05,228.89Z"/><path class="cls-6" d="M424.57,236.59a.95.95,0,1,1-.94-.94A.95.95,0,0,1,424.57,236.59Z"/><path class="cls-6" d="M415.89,214.39a1,1,0,1,1-1-1A1,1,0,0,1,415.89,214.39Z"/><path class="cls-6" d="M130.3,213.37a1.19,1.19,0,1,1-1.19-1.19A1.19,1.19,0,0,1,130.3,213.37Z"/><path class="cls-6" d="M125.78,218a1.06,1.06,0,1,1-1.06-1.06A1.05,1.05,0,0,1,125.78,218Z"/><path class="cls-6" d="M130.46,242.41a.81.81,0,1,1-.81-.81A.81.81,0,0,1,130.46,242.41Z"/><path class="cls-6" d="M122.75,227.44a1,1,0,1,1-1-1A1,1,0,0,1,122.75,227.44Z"/><circle class="cls-6" cx="105.01" cy="219.29" r="1.05"/><path class="cls-6" d="M100.76,216.17a1.43,1.43,0,1,1-1.42-1.42A1.43,1.43,0,0,1,100.76,216.17Z"/><circle class="cls-6" cx="135.74" cy="319.5" r="1.06"/><path class="cls-6" d="M117.61,321.6a1.07,1.07,0,1,1-1.07-1.07A1.07,1.07,0,0,1,117.61,321.6Z"/><circle class="cls-6" cx="106.18" cy="297.27" r="1.02"/><path class="cls-6" d="M106.05,289.18a1.18,1.18,0,1,1-1.18-1.18A1.18,1.18,0,0,1,106.05,289.18Z"/><path class="cls-6" d="M455.21,252a.89.89,0,1,1-.89-.89A.88.88,0,0,1,455.21,252Z"/><circle class="cls-6" cx="442.47" cy="223.82" r="0.83"/><circle class="cls-6" cx="432.21" cy="216.42" r="0.68"/><path class="cls-6" d="M433.8,209.23a1.43,1.43,0,1,1-1.43-1.43A1.42,1.42,0,0,1,433.8,209.23Z"/><path class="cls-6" d="M415.2,210.44a.62.62,0,0,1-.61.61.61.61,0,0,1-.61-.61.61.61,0,0,1,.61-.61A.61.61,0,0,1,415.2,210.44Z"/><path class="cls-6" d="M441.7,272.36a1.34,1.34,0,1,1-1.34-1.34A1.34,1.34,0,0,1,441.7,272.36Z"/><path class="cls-6" d="M436.66,298.35a1,1,0,1,1-1-1A1,1,0,0,1,436.66,298.35Z"/><path class="cls-6" d="M424.89,295.05a1.08,1.08,0,1,1-1.08-1.08A1.08,1.08,0,0,1,424.89,295.05Z"/><path class="cls-5" d="M413.69,306.69a1.36,1.36,0,1,1-1.36-1.36A1.36,1.36,0,0,1,413.69,306.69Z"/><path class="cls-6" d="M430.18,190.27a.83.83,0,1,1-.83-.83A.83.83,0,0,1,430.18,190.27Z"/><path class="cls-6" d="M421.22,270.73a.85.85,0,1,1-.85-.85A.85.85,0,0,1,421.22,270.73Z"/><circle class="cls-6" cx="418.9" cy="239.64" r="0.77"/><path class="cls-6" d="M223.78,86.17a.93.93,0,1,1-1.85,0,.93.93,0,0,1,1.85,0Z"/><path class="cls-6" d="M207.37,87.08a.87.87,0,1,1-.87-.87A.87.87,0,0,1,207.37,87.08Z"/><circle class="cls-6" cx="202.76" cy="109.87" r="0.73"/><path class="cls-6" d="M178,106.49a1.26,1.26,0,1,1-1.26-1.26A1.26,1.26,0,0,1,178,106.49Z"/><path class="cls-6" d="M424.13,191.93a.59.59,0,1,1-.59-.59A.58.58,0,0,1,424.13,191.93Z"/><path class="cls-6" d="M414.39,158.85a1.08,1.08,0,1,1-1.07-1.07A1.07,1.07,0,0,1,414.39,158.85Z"/><path class="cls-6" d="M419.81,154.39a.7.7,0,1,1-1.39,0,.7.7,0,1,1,1.39,0Z"/><circle class="cls-6" cx="392.55" cy="130.65" r="0.71"/><circle class="cls-6" cx="394.72" cy="120.55" r="0.65"/><path class="cls-6" d="M337.42,89.72a.78.78,0,0,1-1.56,0,.78.78,0,1,1,1.56,0Z"/><path class="cls-6" d="M268.38,103.74a1.42,1.42,0,1,1-1.41-1.42A1.41,1.41,0,0,1,268.38,103.74Z"/><circle class="cls-6" cx="215.26" cy="115.39" r="0.91"/><circle class="cls-6" cx="134.81" cy="192.36" r="0.72"/><circle class="cls-6" cx="139.23" cy="202.07" r="1.29"/><path class="cls-6" d="M416.84,177a1.16,1.16,0,1,1-1.16-1.16A1.16,1.16,0,0,1,416.84,177Z"/><circle class="cls-6" cx="405.91" cy="166.22" r="0.72"/><path class="cls-6" d="M400,165.3a1.29,1.29,0,1,1-1.28-1.28A1.28,1.28,0,0,1,400,165.3Z"/><circle class="cls-6" cx="377.1" cy="159.85" r="0.76"/><path class="cls-6" d="M379.11,150.79a1.18,1.18,0,1,1-1.18-1.18A1.18,1.18,0,0,1,379.11,150.79Z"/><circle class="cls-6" cx="386.97" cy="138.04" r="0.57"/><path class="cls-6" d="M383.74,135a1.27,1.27,0,1,1-1.26-1.27A1.26,1.26,0,0,1,383.74,135Z"/><path class="cls-6" d="M373.62,128a.59.59,0,1,1-.59-.58A.58.58,0,0,1,373.62,128Z"/><path class="cls-6" d="M230.91,399.77a.88.88,0,1,1-.87-.87A.88.88,0,0,1,230.91,399.77Z"/><circle class="cls-6" cx="211.01" cy="390.02" r="1.01"/><circle class="cls-6" cx="198.11" cy="391.35" r="0.61"/><circle class="cls-6" cx="96.44" cy="329.94" r="1.06"/><circle class="cls-6" cx="110.36" cy="328.14" r="0.91"/><path class="cls-6" d="M95.28,224.24a.91.91,0,1,1-.91-.91A.91.91,0,0,1,95.28,224.24Z"/><circle class="cls-6" cx="456.64" cy="271.2" r="1.37"/><path class="cls-6" d="M434.5,324.63a1.06,1.06,0,1,1-1.06-1.06A1.06,1.06,0,0,1,434.5,324.63Z"/><path class="cls-6" d="M416.93,349.82a.77.77,0,1,1-.76-.77A.76.76,0,0,1,416.93,349.82Z"/><path class="cls-6" d="M399.12,382.76a1.22,1.22,0,1,1-1.22-1.21A1.22,1.22,0,0,1,399.12,382.76Z"/><path class="cls-6" d="M385.05,390.34a1,1,0,1,1-1-1A1,1,0,0,1,385.05,390.34Z"/><path class="cls-6" d="M382.68,397.78a1.44,1.44,0,1,1-2.87,0,1.44,1.44,0,0,1,2.87,0Z"/><path class="cls-6" d="M376,152a.88.88,0,1,1-.88-.88A.88.88,0,0,1,376,152Z"/><circle class="cls-6" cx="217.69" cy="98.79" r="1.76"/><path class="cls-6" d="M183.55,71a.47.47,0,1,1-.47-.46A.47.47,0,0,1,183.55,71Z"/><path class="cls-6" d="M168.76,63.35a2.14,2.14,0,1,1-2.14-2.14A2.14,2.14,0,0,1,168.76,63.35Z"/><path class="cls-6" d="M128.17,67.07a1.94,1.94,0,1,1-1.93-1.93A1.93,1.93,0,0,1,128.17,67.07Z"/><path class="cls-6" d="M153.78,107a3.65,3.65,0,1,1-3.65-3.65A3.64,3.64,0,0,1,153.78,107Z"/><path class="cls-6" d="M123.05,102.25a2.69,2.69,0,1,1-2.69-2.69A2.69,2.69,0,0,1,123.05,102.25Z"/><path class="cls-6" d="M108.74,142.57a2.28,2.28,0,1,1-2.28-2.27A2.28,2.28,0,0,1,108.74,142.57Z"/><circle class="cls-6" cx="75.8" cy="127.67" r="0.78"/><circle class="cls-6" cx="68.7" cy="104.86" r="0.73"/><path class="cls-6" d="M68.16,76.94a2.51,2.51,0,1,1-2.51-2.51A2.51,2.51,0,0,1,68.16,76.94Z"/><path class="cls-6" d="M43.46,83.4a1.19,1.19,0,1,1-1.19-1.18A1.18,1.18,0,0,1,43.46,83.4Z"/><path class="cls-6" d="M50.87,94.86A2.92,2.92,0,1,1,48,91.94,2.92,2.92,0,0,1,50.87,94.86Z"/><path class="cls-6" d="M35.32,97.4a1.64,1.64,0,1,1-1.64-1.64A1.64,1.64,0,0,1,35.32,97.4Z"/><path class="cls-6" d="M27,116.08a2.29,2.29,0,1,1-2.29-2.29A2.29,2.29,0,0,1,27,116.08Z"/><path class="cls-6" d="M12.61,123.37a2,2,0,1,1-2-2A2,2,0,0,1,12.61,123.37Z"/><circle class="cls-6" cx="26.05" cy="142.57" r="0.47"/><path class="cls-6" d="M40.56,175.79a1.75,1.75,0,1,1-1.75-1.74A1.75,1.75,0,0,1,40.56,175.79Z"/><circle class="cls-6" cx="49.78" cy="196.07" r="1.92"/><path class="cls-6" d="M92.52,165a.56.56,0,1,1-.56-.55A.56.56,0,0,1,92.52,165Z"/><path class="cls-6" d="M85.05,216.9a1.31,1.31,0,1,1-2.61,0,1.31,1.31,0,0,1,2.61,0Z"/><path class="cls-6" d="M96.4,241.73a1.66,1.66,0,1,1-1.66-1.66A1.65,1.65,0,0,1,96.4,241.73Z"/><path class="cls-6" d="M68,218.8A2.76,2.76,0,1,1,65.27,216,2.76,2.76,0,0,1,68,218.8Z"/><circle class="cls-6" cx="59.65" cy="269.72" r="1.31"/><path class="cls-6" d="M6,281.71a2,2,0,1,1-2-2A2,2,0,0,1,6,281.71Z"/><path class="cls-6" d="M19.87,294.94A1.94,1.94,0,1,1,17.93,293,1.94,1.94,0,0,1,19.87,294.94Z"/><path class="cls-6" d="M47.1,277.59a3.49,3.49,0,1,1-3.49-3.49A3.49,3.49,0,0,1,47.1,277.59Z"/><circle class="cls-6" cx="39.16" cy="276.93" r="2.92"/><path class="cls-6" d="M76.22,292.65a2.47,2.47,0,1,1-2.46-2.46A2.46,2.46,0,0,1,76.22,292.65Z"/><path class="cls-6" d="M95.09,306.53a3.8,3.8,0,1,1-3.79-3.79A3.79,3.79,0,0,1,95.09,306.53Z"/><path class="cls-6" d="M98.91,313.15A2.18,2.18,0,1,1,96.74,311,2.17,2.17,0,0,1,98.91,313.15Z"/><path class="cls-6" d="M133.18,337.14a1.88,1.88,0,1,1-1.87-1.87A1.87,1.87,0,0,1,133.18,337.14Z"/><path class="cls-6" d="M124.8,381.41a2.46,2.46,0,1,1-2.46-2.46A2.46,2.46,0,0,1,124.8,381.41Z"/><path class="cls-6" d="M138.78,409.84a3.64,3.64,0,1,1-3.64-3.64A3.64,3.64,0,0,1,138.78,409.84Z"/><path class="cls-6" d="M169.57,431.19a2.77,2.77,0,1,1-2.77-2.77A2.77,2.77,0,0,1,169.57,431.19Z"/><path class="cls-6" d="M187.13,432.18a1.4,1.4,0,0,1-2.79,0,1.4,1.4,0,1,1,2.79,0Z"/><path class="cls-6" d="M198.37,452.06a2.08,2.08,0,1,1-2.08-2.08A2.08,2.08,0,0,1,198.37,452.06Z"/><path class="cls-6" d="M230.86,463.55a1.62,1.62,0,1,1-1.62-1.62A1.61,1.61,0,0,1,230.86,463.55Z"/><circle class="cls-6" cx="258.45" cy="466.88" r="3.64"/><path class="cls-6" d="M291.59,465.2a.44.44,0,1,1-.44-.44A.44.44,0,0,1,291.59,465.2Z"/><path class="cls-6" d="M319.33,453.16a3.77,3.77,0,1,1-3.77-3.76A3.76,3.76,0,0,1,319.33,453.16Z"/><path class="cls-6" d="M363.56,482.87a3.38,3.38,0,1,1-3.38-3.37A3.38,3.38,0,0,1,363.56,482.87Z"/><path class="cls-6" d="M366.29,485.06a.66.66,0,0,1-.66.67.67.67,0,1,1,0-1.34A.66.66,0,0,1,366.29,485.06Z"/><circle class="cls-6" cx="369.34" cy="481.16" r="3.4"/><circle class="cls-6" cx="378.59" cy="481.38" r="3.2"/><path class="cls-6" d="M398,472.7a2.65,2.65,0,1,1-2.65-2.65A2.65,2.65,0,0,1,398,472.7Z"/><path class="cls-6" d="M435.31,460.68a2.42,2.42,0,1,1-2.42-2.42A2.42,2.42,0,0,1,435.31,460.68Z"/><circle class="cls-6" cx="451.69" cy="417.77" r="2.67"/><circle class="cls-6" cx="473.98" cy="403.46" r="1.11"/><circle class="cls-6" cx="481.65" cy="398.46" r="2.43"/><circle class="cls-6" cx="476.74" cy="380.36" r="0.55"/><path class="cls-6" d="M482.05,369.72a3.53,3.53,0,1,1-3.53-3.52A3.53,3.53,0,0,1,482.05,369.72Z"/><path class="cls-6" d="M505.08,368.17a1.51,1.51,0,1,1-1.51-1.51A1.5,1.5,0,0,1,505.08,368.17Z"/><circle class="cls-6" cx="491.28" cy="357.15" r="2.9"/><path class="cls-6" d="M483.81,312.76a3.34,3.34,0,1,1-3.34-3.34A3.34,3.34,0,0,1,483.81,312.76Z"/><path class="cls-6" d="M513.48,316.52a2.68,2.68,0,1,1-2.68-2.68A2.68,2.68,0,0,1,513.48,316.52Z"/><path class="cls-6" d="M536.9,298.72a1.19,1.19,0,1,1-1.18-1.19A1.19,1.19,0,0,1,536.9,298.72Z"/><path class="cls-6" d="M519.05,267.46a2.35,2.35,0,1,1-2.35-2.35A2.35,2.35,0,0,1,519.05,267.46Z"/><path class="cls-6" d="M527.89,249a2.84,2.84,0,1,1-2.83-2.83A2.84,2.84,0,0,1,527.89,249Z"/><circle class="cls-6" cx="546.87" cy="233.36" r="1.13"/><path class="cls-6" d="M506.74,208.67a.8.8,0,1,1-.8-.8A.8.8,0,0,1,506.74,208.67Z"/><path class="cls-6" d="M502.27,167.88a2,2,0,1,1-2-2A2,2,0,0,1,502.27,167.88Z"/><circle class="cls-6" cx="469.91" cy="158.38" r="1.55"/><circle class="cls-6" cx="478.5" cy="133.29" r="3.63"/><circle class="cls-6" cx="470.54" cy="113.96" r="3.37"/><circle class="cls-6" cx="425.56" cy="112.27" r="2.96"/><circle class="cls-6" cx="406.38" cy="118.07" r="2.07"/><path class="cls-6" d="M381.1,135a2.75,2.75,0,1,1-2.74-2.75A2.75,2.75,0,0,1,381.1,135Z"/><path class="cls-6" d="M369.39,118.72a.91.91,0,1,1-.91-.92A.91.91,0,0,1,369.39,118.72Z"/><path class="cls-6" d="M376.33,96.61a1.05,1.05,0,1,1-1.05-1A1,1,0,0,1,376.33,96.61Z"/><path class="cls-6" d="M357.08,115.35a3.69,3.69,0,1,1-3.68-3.69A3.68,3.68,0,0,1,357.08,115.35Z"/><path class="cls-6" d="M368.09,100.16a3.67,3.67,0,1,1-3.67-3.67A3.66,3.66,0,0,1,368.09,100.16Z"/><path class="cls-6" d="M333.54,104.7a1.29,1.29,0,1,1-1.28-1.28A1.28,1.28,0,0,1,333.54,104.7Z"/><circle class="cls-6" cx="314.71" cy="83.43" r="1.34"/><path class="cls-6" d="M327.12,26a2.28,2.28,0,1,1-2.28-2.29A2.28,2.28,0,0,1,327.12,26Z"/><path class="cls-6" d="M293,51.7a3.47,3.47,0,1,1-3.47-3.47A3.48,3.48,0,0,1,293,51.7Z"/><path class="cls-6" d="M250.66,50.46a2.14,2.14,0,1,1-2.14-2.13A2.14,2.14,0,0,1,250.66,50.46Z"/><circle class="cls-6" cx="273.66" cy="80.31" r="2.38"/><path class="cls-6" d="M254.32,84.06a3.59,3.59,0,1,1-3.59-3.59A3.59,3.59,0,0,1,254.32,84.06Z"/><circle class="cls-6" cx="242.77" cy="99.52" r="3.25"/><path class="cls-6" d="M262.11,127.13A1.16,1.16,0,1,1,261,126,1.16,1.16,0,0,1,262.11,127.13Z"/><path class="cls-6" d="M246.42,133.67a.78.78,0,0,1-.78.78.77.77,0,0,1-.77-.78.76.76,0,0,1,.77-.77A.77.77,0,0,1,246.42,133.67Z"/><circle class="cls-6" cx="259.27" cy="150.82" r="3.67"/><path class="cls-6" d="M275.23,160.79a3,3,0,1,1-3-3A3,3,0,0,1,275.23,160.79Z"/><circle class="cls-6" cx="282.02" cy="175.68" r="2.33"/><circle class="cls-6" cx="252.87" cy="173.7" r="2.02"/><path class="cls-6" d="M264.1,211.18a3.7,3.7,0,1,1-3.7-3.7A3.7,3.7,0,0,1,264.1,211.18Z"/><circle class="cls-6" cx="245.11" cy="248.21" r="2.18"/><circle class="cls-6" cx="261.55" cy="267.25" r="3.75"/><path class="cls-6" d="M277.67,273.63a3.8,3.8,0,1,1-3.8-3.8A3.8,3.8,0,0,1,277.67,273.63Z"/><circle class="cls-6" cx="275.27" cy="290.88" r="2.78"/><path class="cls-6" d="M284.78,306.54a1.89,1.89,0,1,1-1.89-1.88A1.89,1.89,0,0,1,284.78,306.54Z"/><circle class="cls-6" cx="296.4" cy="322.73" r="1.64"/><path class="cls-6" d="M315.65,321a2.37,2.37,0,1,1-2.37-2.37A2.37,2.37,0,0,1,315.65,321Z"/><path class="cls-6" d="M364.11,326.67a.91.91,0,1,1-.91-.91A.91.91,0,0,1,364.11,326.67Z"/><path class="cls-6" d="M330.16,299.16a3.25,3.25,0,1,1-3.25-3.24A3.26,3.26,0,0,1,330.16,299.16Z"/><path class="cls-6" d="M348.12,266.26a1.52,1.52,0,1,1-1.52-1.52A1.52,1.52,0,0,1,348.12,266.26Z"/><path class="cls-6" d="M330.28,253.45a3.31,3.31,0,1,1-3.31-3.3A3.31,3.31,0,0,1,330.28,253.45Z"/><circle class="cls-6" cx="367.93" cy="243.67" r="2.56"/><circle class="cls-6" cx="362.38" cy="212.2" r="2.84"/><circle class="cls-6" cx="351.86" cy="188.87" r="2.11"/><path class="cls-6" d="M359.36,168.07a1.78,1.78,0,1,1-1.78-1.78A1.78,1.78,0,0,1,359.36,168.07Z"/><path class="cls-6" d="M337.6,185.73a2.59,2.59,0,1,1-2.59-2.59A2.59,2.59,0,0,1,337.6,185.73Z"/><path class="cls-6" d="M353.16,185.28a1.74,1.74,0,1,1-1.73-1.74A1.72,1.72,0,0,1,353.16,185.28Z"/><path class="cls-6" d="M377.66,199.68a3.59,3.59,0,1,1-3.59-3.59A3.58,3.58,0,0,1,377.66,199.68Z"/><path class="cls-6" d="M395.28,198.22a3.73,3.73,0,1,1-3.72-3.73A3.72,3.72,0,0,1,395.28,198.22Z"/><path class="cls-6" d="M370.29,222.79a1.49,1.49,0,1,1-1.49-1.49A1.48,1.48,0,0,1,370.29,222.79Z"/><path class="cls-6" d="M393.64,208.23a2.21,2.21,0,1,1-2.2-2.2A2.2,2.2,0,0,1,393.64,208.23Z"/><circle class="cls-6" cx="391.87" cy="235.22" r="1.38"/><circle class="cls-6" cx="389.71" cy="254.19" r="0.59"/><path class="cls-6" d="M427.9,255.09a1.85,1.85,0,1,1-1.85-1.84A1.85,1.85,0,0,1,427.9,255.09Z"/><path class="cls-6" d="M408.14,290.89a2.9,2.9,0,1,1-2.9-2.9A2.9,2.9,0,0,1,408.14,290.89Z"/><circle class="cls-6" cx="417.49" cy="304.26" r="3.82"/><path class="cls-6" d="M411.11,343.2a2.92,2.92,0,1,1-2.92-2.92A2.92,2.92,0,0,1,411.11,343.2Z"/><circle class="cls-6" cx="392.61" cy="355.01" r="3.2"/><circle class="cls-6" cx="374.84" cy="368.07" r="2.91"/><path class="cls-6" d="M351.87,361.38a2.05,2.05,0,1,1-2.05-2.05A2.05,2.05,0,0,1,351.87,361.38Z"/><path class="cls-6" d="M361.29,398.45a3.54,3.54,0,1,1-3.54-3.53A3.53,3.53,0,0,1,361.29,398.45Z"/><circle class="cls-6" cx="323.74" cy="361.85" r="3.38"/><path class="cls-6" d="M309.4,389.72a1.65,1.65,0,1,1-1.64-1.64A1.65,1.65,0,0,1,309.4,389.72Z"/><circle class="cls-6" cx="269.58" cy="387.36" r="3.41"/><path class="cls-6" d="M269.11,364.9a3.39,3.39,0,1,1-3.39-3.39A3.39,3.39,0,0,1,269.11,364.9Z"/><path class="cls-6" d="M232.31,370.11a3.54,3.54,0,1,1-3.53-3.54A3.53,3.53,0,0,1,232.31,370.11Z"/><circle class="cls-6" cx="216.96" cy="379.85" r="2.85"/><circle class="cls-6" cx="224.86" cy="331.85" r="3.57"/><circle class="cls-6" cx="206.4" cy="318.96" r="2.43"/><circle class="cls-6" cx="214.42" cy="309" r="1.9"/><circle class="cls-6" cx="182.14" cy="292.2" r="1.38"/><path class="cls-6" d="M176.54,249.12a3.27,3.27,0,1,1-3.27-3.27A3.26,3.26,0,0,1,176.54,249.12Z"/><circle class="cls-6" cx="180.56" cy="239.61" r="0.78"/><circle class="cls-6" cx="221.7" cy="249.23" r="1.44"/><circle class="cls-6" cx="188.01" cy="227.93" r="0.75"/><circle class="cls-6" cx="213.08" cy="199.7" r="0.76"/><path class="cls-6" d="M222.15,197.91a.84.84,0,1,1-.84-.83A.84.84,0,0,1,222.15,197.91Z"/><path class="cls-6" d="M228.27,184a3.57,3.57,0,1,1-3.57-3.57A3.57,3.57,0,0,1,228.27,184Z"/><path class="cls-6" d="M241,179.94a2.2,2.2,0,1,1-2.19-2.19A2.2,2.2,0,0,1,241,179.94Z"/><circle class="cls-6" cx="265.44" cy="165.73" r="1.39"/><path class="cls-6" d="M248.19,155.46a3.5,3.5,0,1,1-3.5-3.5A3.5,3.5,0,0,1,248.19,155.46Z"/><circle class="cls-6" cx="230.57" cy="135.47" r="2.68"/><path class="cls-6" d="M209.09,124.75a3.76,3.76,0,1,1-3.76-3.76A3.76,3.76,0,0,1,209.09,124.75Z"/><polygon class="cls-7" points="63.63 234.31 43.91 222.53 89.34 220.06 63.63 234.31"/><path class="cls-8" d="M63.62,234.89l-.24-.15L42.25,222.11l49.23-2.66Zm-18-11.95,18.07,10.8,23.55-13.06Z"/><polygon class="cls-7" points="143.01 6.57 155.18 11.41 129.04 17.13 143.01 6.57"/><path class="cls-8" d="M126.92,18.11,142.94,6l13.94,5.55Zm16.17-11-11.93,9,22.32-4.89Z"/><polygon class="cls-7" points="107.57 154.13 77.27 139.94 101.17 135.07 107.57 154.13"/><path class="cls-8" d="M108.41,155.08,75.69,139.75l25.81-5.25Zm-29.56-15,27.87,13.06-5.89-17.54Z"/><path class="cls-8" d="M112.3,133.52,101.61,133l-6.75-19.79Zm-10-1.53,7.68.4L97.49,117.77Z"/><path class="cls-8" d="M115.91,65.75l2.23-14.48.19-.12L147.91,32.5Zm3.14-13.87-1.67,10.9,24.11-25.05Z"/><polygon class="cls-7" points="203.47 55.47 186.15 30.29 196.73 54.41 203.47 55.47"/><path class="cls-8" d="M204.54,56.15l-8.16-1.29L185.7,30.49l.87-.48ZM197.08,54l5.32.84L188.73,34.92Z"/><path class="cls-8" d="M164.75,62.62l-.85-.52,21.54-41,.5,11.13ZM184.6,24.85,168.5,55.5,184.92,32Z"/><path class="cls-8" d="M106.28,155.07l19-26.64,19.8,14.17Zm19.26-25.24L108.85,153.2l34.06-10.94Z"/><polygon class="cls-7" points="44.4 192.27 57.31 172.04 54.97 190.07 44.4 192.27"/><path class="cls-8" d="M43.34,193l14.75-23.11-2.67,20.6Zm13.18-18.8L45.46,191.54l9.06-1.88Z"/><path class="cls-8" d="M74.16,217.92l27.69-43.76.42,15.68Zm26.78-40.45L79.8,210.87l21.46-21.43Z"/><path class="cls-8" d="M62.35,329.6l-24.53-8.09,5.9-3.4Zm-22.09-8.34L54.59,326,43.7,319.27Z"/><path class="cls-8" d="M30.94,211l-1-.33,7.88-30.59,3,8.37ZM38,183.5,32.49,205l7.3-16.57Z"/><path class="cls-8" d="M27.47,253.87,7.66,246.26,6,228.52ZM8.6,245.55l15.59,6L7.29,231.59Z"/><polygon class="cls-7" points="24.2 171.83 21.38 154.53 40.01 181.2 24.2 171.83"/><path class="cls-8" d="M41.74,182.8l-18-10.66-3.21-19.69ZM24.65,171.52l13.62,8.07-16.05-23Z"/><path class="cls-8" d="M13.26,128.41l17.92-28.32.27,10.15Zm17-25-11.36,18,11.53-11.52Z"/><polygon class="cls-8" points="60.68 142.93 65.74 161.88 64.19 145.3 60.68 142.93"/><path class="cls-8" d="M65.26,162l-5.41-20.25L64.66,145l1.58,16.81Zm-3.75-17.92L64.69,156l-1-10.41Z"/><polygon class="cls-7" points="140.3 77.21 130.69 99.35 131.15 49.91 140.3 77.21"/><path class="cls-8" d="M130.17,101.81l.51-54.88,10.15,30.3Zm1.46-48.91-.42,44,8.55-19.69Z"/><path class="cls-8" d="M90.15,97.37l2.74-9.68,21.75-9.12Zm3.57-9-1.79,6.31,16-12.26Z"/><path class="cls-8" d="M80.53,28.4,76,24.54l-.18-17,1-.1ZM77,24.08l2,1.75L76.9,13.62Z"/><polygon class="cls-7" points="61.89 76.48 45.7 73 58.25 79.06 61.89 76.48"/><path class="cls-8" d="M58.3,79.64l-16.57-8,21.38,4.6Zm-8.61-5.27,8.51,4.11,2.47-1.75Z"/><path class="cls-8" d="M172.66,93.13l-14.11-5.42-1.18-12.63ZM159.49,87l9.88,3.79L158.66,78.15Z"/></g></g></svg>