<svg xmlns="http://www.w3.org/2000/svg" viewBox="0 0 550 510"><defs><style>.cls-1,.cls-6{isolation:isolate;}.cls-2,.cls-5{opacity:0.2;}.cls-3,.cls-4,.cls-5{fill:#695bd3;}.cls-4{opacity:0.3;}.cls-6{fill:#aea3ff;opacity:0.4;}.cls-10,.cls-7,.cls-8,.cls-9{fill:none;stroke:#695bd3;}.cls-7,.cls-8{stroke-miterlimit:10;}.cls-7{stroke-width:3px;}.cls-8{stroke-width:2px;}.cls-10,.cls-9{stroke-linecap:round;stroke-linejoin:round;}.cls-10{mix-blend-mode:multiply;}.cls-11{fill:#433799;}</style></defs><title>Public Relations</title><g class="cls-1"><g id="Layer_4" data-name="Layer 4"><g id="Public_Relations" data-name="Public Relations"><g class="cls-2"><polygon class="cls-3" points="122.6 508 427.45 305.6 427.45 2 122.6 204.4 122.6 508"/></g><polygon class="cls-4" points="50.72 267.67 58.49 256.25 62.21 251.91 66.69 247.38 71.86 244.05 82.17 239.09 84.9 237.96 93.08 237.05 92.24 229.57 93.85 225.86 101.27 219.65 107.03 219.01 111.35 219.12 115.61 222 119.54 227.18 120.56 228.95 121.12 233.94 130.88 232.85 154.33 230.25 183.41 223.99 217.97 212.64 242.78 204.52 268.37 193.12 293.38 177.68 318.51 160.18 301.03 177.68 287.62 190.7 262.39 205.29 235.28 221.26 198.66 230.27 172.05 242.22 139.37 248.03 122.96 250.39 120.02 250.61 112.95 241.09 102.88 238.75 97.98 241.47 94.31 248.02 86.98 254.42 68.61 257.75 58.03 262.38 50.72 267.67"/><path class="cls-4" d="M359.83,102.16l-.36-3.24,1.61-3.72,3.64-3.48,4-2.17s.07-.49,1.24-.64,6.67-.74,6.67-.74l3.78,1.56,2,1.24L386,95.25l1.76,3,15.27,136.3,8,2.36,5.09,1.57,5.85,6.92,2.14,2.91,2.26,6.19.67,6-.43,5.26-1.13,3.49-2.85,6.21L420,278.82l-2.3,2.11-6.86,5.14-2,.22L424,422.09l-1.11,3.66L416.76,434,377,102.28l-.48-3.74-2.91.07-3.22.07-1.5,0-6.86,2.52L360,103.57Z"/><path class="cls-4" d="M268.68,482l1.41-5.36L267.56,468l-4.62-3.27-13.51-7.45L241,452.35l-9.13-10.79L224,428.72l-6.78-11.09-5.75-11.41-6.39-15.51-4.6-14.26-7.38-19.1-3.54-10.47-5.64-.27,2.24,19.95,9.19,20.66,6.81,20.94,5.94,15.54,10.25,17.54,11.14,16.09s6.41,9,9.18,9.07,13.51,5.41,13.51,5.41l8.69,5.09Z"/><polygon class="cls-5" points="131.76 195.11 115.9 175.93 162.46 195.17 131.76 195.11"/><path class="cls-3" d="M162.46,195.67h0l-30.69-.06a.51.51,0,0,1-.38-.18l-15.87-19.18a.5.5,0,0,1,.58-.78l46.56,19.24a.51.51,0,0,1,.3.56A.5.5,0,0,1,162.46,195.67ZM132,194.61l27.92.06-42.35-17.51Z"/><polygon class="cls-5" points="288.65 40.69 299.26 50.47 271.02 43.02 288.65 40.69"/><path class="cls-3" d="M299.26,51h-.12l-28.25-7.45a.51.51,0,0,1-.37-.52.5.5,0,0,1,.44-.46l17.63-2.34a.52.52,0,0,1,.41.13l10.61,9.79a.5.5,0,0,1-.35.86ZM273.6,43.19l23.84,6.29-8.95-8.27Z"/><polygon class="cls-5" points="203.09 148.24 177.4 122.08 203.09 129.2 203.09 148.24"/><path class="cls-3" d="M203.09,148.74a.51.51,0,0,1-.36-.15L177,122.43a.5.5,0,0,1,.49-.83l25.7,7.12a.5.5,0,0,1,.36.48v19a.5.5,0,0,1-.31.47A.58.58,0,0,1,203.09,148.74Zm-24-25.68,23.53,24V129.58Z"/><polygon class="cls-5" points="332.98 110.21 324.06 80.89 326.55 106.15 332.98 110.21"/><path class="cls-3" d="M333,110.71a.53.53,0,0,1-.27-.08l-6.43-4.06a.51.51,0,0,1-.23-.37l-2.49-25.26a.51.51,0,0,1,.4-.54.5.5,0,0,1,.58.35l8.92,29.32a.5.5,0,0,1-.18.54A.47.47,0,0,1,333,110.71Zm-6-4.85,5.08,3.21L325.06,85.9Z"/><polygon class="cls-5" points="213.99 172.58 240.93 160.54 204.31 207.44 213.99 172.58"/><path class="cls-3" d="M204.31,207.94a.46.46,0,0,1-.22-.06.49.49,0,0,1-.26-.58l9.68-34.85a.5.5,0,0,1,.27-.33l26.94-12a.49.49,0,0,1,.6.14.51.51,0,0,1,0,.62l-36.61,46.89A.51.51,0,0,1,204.31,207.94Zm10.1-35-8.94,32.2,33.82-43.32Z"/><polygon class="cls-5" points="126.61 150.7 146.45 139.73 138 153.81 126.61 150.7"/><path class="cls-3" d="M138,154.31l-.13,0-11.39-3.11a.48.48,0,0,1-.36-.42.49.49,0,0,1,.25-.5l19.83-11a.5.5,0,0,1,.61.09.48.48,0,0,1,.07.6l-8.45,14.08A.51.51,0,0,1,138,154.31Zm-10.07-3.77,9.83,2.69,7.3-12.16Z"/><polygon class="cls-5" points="140.47 238.16 138.28 268.71 145.01 244.24 140.47 238.16"/><path class="cls-3" d="M138.28,269.21h-.09a.51.51,0,0,1-.41-.53L140,238.12a.48.48,0,0,1,.36-.44.49.49,0,0,1,.54.18l4.54,6.08a.48.48,0,0,1,.09.43l-6.74,24.47A.5.5,0,0,1,138.28,269.21Zm2.59-29.68-1.73,24.15,5.32-19.34Z"/><polygon class="cls-5" points="113.19 124.02 116.2 108.14 125.94 139.32 113.19 124.02"/><path class="cls-3" d="M125.94,139.82a.5.5,0,0,1-.39-.18l-12.75-15.3a.5.5,0,0,1-.1-.41l3-15.88a.49.49,0,0,1,.46-.41.48.48,0,0,1,.51.35l9.74,31.18a.51.51,0,0,1-.24.59A.53.53,0,0,1,125.94,139.82Zm-12.21-15.94,11,13.18-8.38-26.86Z"/><polygon class="cls-5" points="248.93 178.41 257.47 164.68 255.29 197.26 248.93 178.41"/><path class="cls-3" d="M255.29,197.76a.51.51,0,0,1-.47-.34l-6.37-18.85a.48.48,0,0,1,.05-.42l8.55-13.74a.51.51,0,0,1,.58-.21.49.49,0,0,1,.34.51l-2.18,32.58a.49.49,0,0,1-.43.46Zm-5.81-19.28L255,194.71l1.88-28.06Z"/><polygon class="cls-5" points="99.81 62.97 113.25 55.54 107.52 65.08 99.81 62.97"/><path class="cls-3" d="M107.52,65.58l-.13,0-7.72-2.11a.5.5,0,0,1-.11-.92L113,55.1a.51.51,0,0,1,.68.7L108,65.33A.48.48,0,0,1,107.52,65.58Zm-6.39-2.77,6.16,1.68,4.57-7.61Z"/><polygon class="cls-5" points="159.69 116.81 158.37 135.14 162.41 120.46 159.69 116.81"/><path class="cls-3" d="M158.37,135.64h-.08a.49.49,0,0,1-.42-.53l1.32-18.32a.49.49,0,0,1,.36-.45.51.51,0,0,1,.54.18l2.72,3.65a.48.48,0,0,1,.09.43l-4,14.68A.51.51,0,0,1,158.37,135.64Zm1.72-17.45-.85,11.92,2.62-9.55Z"/><polygon class="cls-5" points="31.07 104.73 29.76 123.05 33.8 108.38 31.07 104.73"/><path class="cls-3" d="M29.76,123.55h-.08a.5.5,0,0,1-.42-.53l1.32-18.33a.49.49,0,0,1,.35-.44.51.51,0,0,1,.55.18l2.72,3.65a.48.48,0,0,1,.09.43l-4,14.68A.51.51,0,0,1,29.76,123.55Zm1.72-17.44L30.63,118l2.62-9.54Z"/><polygon class="cls-5" points="262.04 98.86 244.89 112.99 262.06 71.6 262.04 98.86"/><path class="cls-3" d="M244.89,113.49a.54.54,0,0,1-.3-.1.51.51,0,0,1-.17-.6L261.6,71.41a.49.49,0,0,1,.56-.3.5.5,0,0,1,.41.49l0,27.26a.5.5,0,0,1-.18.39l-17.15,14.12A.49.49,0,0,1,244.89,113.49Zm16.67-39.36-15.44,37.19,15.42-12.69ZM262,98.86h0Z"/><polygon class="cls-6" points="183.37 61.47 168.25 50.94 178.82 61.92 183.37 61.47"/><path class="cls-3" d="M178.83,62.42a.51.51,0,0,1-.37-.15l-10.57-11a.5.5,0,0,1,.65-.75l15.11,10.52a.5.5,0,0,1-.23.91l-4.54.46Zm-6.69-8.16L179,61.4l2.95-.3Z"/><polygon class="cls-5" points="57.72 38.15 39.28 37.83 54.21 41.06 57.72 38.15"/><path class="cls-3" d="M54.21,41.56l-.11,0L39.17,38.31a.5.5,0,0,1,.12-1l18.44.32a.5.5,0,0,1,.31.88l-3.51,2.91A.47.47,0,0,1,54.21,41.56Zm-9.84-3.14,9.71,2.1,2.28-1.89Z"/><path class="cls-3" d="M213.87,132.61a.46.46,0,0,1-.23-.06l-9.08-4.71a.5.5,0,0,1-.27-.44l-.09-17a.49.49,0,0,1,.4-.5.51.51,0,0,1,.56.3l9.17,21.74a.49.49,0,0,1-.12.56A.49.49,0,0,1,213.87,132.61Zm-8.58-5.52,7.58,3.93-7.66-18.14Z"/><path class="cls-3" d="M242.61,77.37a.5.5,0,0,1-.42-.77l6.25-9.76a.49.49,0,0,1,.4-.23L280.68,65a.49.49,0,0,1,.52.41.52.52,0,0,1-.35.57l-38.1,11.36A.34.34,0,0,1,242.61,77.37Zm6.54-9.78L243.76,76l32.82-9.79Z"/><path class="cls-3" d="M290.28,157.44h0a.52.52,0,0,1-.45-.36l-2.11-7.28a.5.5,0,0,1,.07-.43l14.93-20.57a.5.5,0,0,1,.87.5l-12.82,27.85A.5.5,0,0,1,290.28,157.44Zm-1.56-7.69,1.67,5.76,10.13-22Z"/><path class="cls-3" d="M184.65,178a.48.48,0,0,1-.42-.23.5.5,0,0,1,0-.57l4.32-5.51a.49.49,0,0,1,.39-.19h23.5a.5.5,0,0,1,.1,1L184.75,178Zm4.57-5.5-3.34,4.25,21.49-4.25Z"/><path class="cls-3" d="M291.28,98.12a.5.5,0,0,1-.29-.91L325.1,73.8a.51.51,0,0,1,.59,0,.52.52,0,0,1,.18.56l-2.67,7.86a.53.53,0,0,1-.26.29L291.5,98.07A.44.44,0,0,1,291.28,98.12Zm33.15-22.65L297.35,94.06l25-12.34Z"/><path class="cls-3" d="M243.73,156a.49.49,0,0,1-.4-.21l-14.22-19.91a.5.5,0,0,1,0-.58.5.5,0,0,1,.55-.19l49,14.72a.5.5,0,0,1,.35.52.51.51,0,0,1-.42.46L243.81,156Zm-12.95-19.51L244,155l32.27-4.81Z"/><path class="cls-3" d="M125.15,216.33a.5.5,0,0,1-.25-.93l37.62-21a.5.5,0,0,1,.57.06.48.48,0,0,1,.14.55l-4.29,11.81a.5.5,0,0,1-.34.31l-33.32,9.2A.3.3,0,0,1,125.15,216.33Zm36.68-20.42L129,214.25l29.06-8Z"/><path class="cls-3" d="M95,271.85a.49.49,0,0,1-.32-.12l-17.39-14.5a.51.51,0,0,1,.31-.89l5.61-.08a.51.51,0,0,1,.4.19L95.36,271a.49.49,0,0,1,0,.67A.52.52,0,0,1,95,271.85Zm-16-14.53,12.44,10.39L83,257.27Z"/><path class="cls-3" d="M106.34,160.27a.5.5,0,0,1-.39-.82l17.33-20.91a.5.5,0,0,1,.55-.15.51.51,0,0,1,.34.46l.14,6.7a.49.49,0,0,1-.18.4l-17.47,14.21A.56.56,0,0,1,106.34,160.27Zm16.85-20.05L110,156.17l13.33-10.84Z"/><path class="cls-3" d="M291.75,177.66a.52.52,0,0,1-.43-.24.51.51,0,0,1,.13-.66l21.82-16.22a.51.51,0,0,1,.57,0,.5.5,0,0,1,.22.53l-1.46,6.55a.49.49,0,0,1-.27.34L292,177.61A.54.54,0,0,1,291.75,177.66Zm21-15.51-16.65,12.37,15.53-7.38Z"/><path class="cls-3" d="M102.4,253.93a.49.49,0,0,1-.2-1l37.7-17.1a.51.51,0,0,1,.58.12.5.5,0,0,1,.07.58l-4,7.27a.48.48,0,0,1-.3.24l-33.69,9.82A.39.39,0,0,1,102.4,253.93Zm36.54-16.52L109,251l26.75-7.79Z"/><path class="cls-3" d="M87.5,193.34a.5.5,0,0,1-.34-.13l-15.52-14a.49.49,0,0,1-.14-.5l3.86-14a.49.49,0,0,1,.45-.37.5.5,0,0,1,.5.31L88,192.65a.5.5,0,0,1-.17.6A.52.52,0,0,1,87.5,193.34Zm-15-14.69L86.18,191,75.94,166.33Z"/><path class="cls-3" d="M103.53,70.64a.5.5,0,0,1-.45-.27.52.52,0,0,1,.08-.57l4.53-4.86a.52.52,0,0,1,.5-.15l10.74,2.87a.51.51,0,0,1,.38.52.5.5,0,0,1-.44.46l-15.27,2Zm4.69-4.8-3.37,3.62L116.23,68Z"/><path class="cls-3" d="M120.89,81.21a.5.5,0,0,1-.46-.31.49.49,0,0,1,.22-.63l22.56-12.6a.52.52,0,0,1,.57,0,.5.5,0,0,1,.14.55l-2.57,7.09a.53.53,0,0,1-.34.31l-20,5.52Zm21.63-12-17.76,9.92,15.73-4.35Z"/><path class="cls-3" d="M94.87,120.08a.51.51,0,0,1-.32-.12L80.41,108.17a.5.5,0,0,1-.15-.55.52.52,0,0,1,.47-.34l4.56-.06a.68.68,0,0,1,.4.19l9.58,11.86a.5.5,0,0,1,0,.67A.54.54,0,0,1,94.87,120.08ZM82.09,108.26l9.2,7.67-6.23-7.71Z"/><path class="cls-3" d="M115.4,48.22h-.09a.5.5,0,0,1-.41-.53l1.31-18.32a.49.49,0,0,1,.36-.44.51.51,0,0,1,.55.18l2.72,3.64a.51.51,0,0,1,.08.43l-4,14.68A.5.5,0,0,1,115.4,48.22Zm1.72-17.45-.86,11.92,2.63-9.55Z"/><path class="cls-3" d="M206.09,92.11a.5.5,0,0,1-.44-.27.48.48,0,0,1,.06-.56l5-5.67a.51.51,0,0,1,.43-.17l20.63,2.09a.5.5,0,0,1,0,1L206.16,92.1Zm5.19-5.65-3.92,4.47,20.16-2.82Z"/><path class="cls-3" d="M218.07,28.82a.5.5,0,0,1-.43-.25l-2.35-3.89a.52.52,0,0,1,0-.44L220.74,10a.53.53,0,0,1,.61-.31.51.51,0,0,1,.36.57l-3.14,18.1a.51.51,0,0,1-.41.41Zm-1.79-4.45,1.53,2.54,2-11.77Z"/><path class="cls-3" d="M354.74,117.89h-.08L330.13,114a.5.5,0,0,1-.42-.41A.5.5,0,0,1,330,113l4.43-2.31a.53.53,0,0,1,.39,0l20.1,6.24a.49.49,0,0,1,.34.59A.5.5,0,0,1,354.74,117.89Zm-23-4.68,16.09,2.58-13.19-4.1Z"/><path class="cls-3" d="M288,126.19a.51.51,0,0,1-.33-.13l-10.52-9.5a.51.51,0,0,1-.15-.51l2.62-9.5a.5.5,0,0,1,.45-.37.51.51,0,0,1,.5.31l7.9,19a.51.51,0,0,1-.18.6A.52.52,0,0,1,288,126.19ZM278,116l8.63,7.8-6.48-15.6Z"/><path class="cls-7" d="M139,348.94,191.7,481.45l4.55,7.68,4.65,5.33,3.36,2.78,3.58,1.88,3.67.67,5.85-.21,4.71-.95,5.09-1.11,19.5-7.27,13.21-4.93,8.81-3.28,1.45-2,0-3.36-.31-2.79-.83-3.31L267.56,468l-2-1.94-8.88-4.54L241,452.35a20.07,20.07,0,0,1-4.2-4.08c-1.59-2-3.25-4.53-4.93-6.71A72.65,72.65,0,0,1,227,434c-.93-1.46-14.78-26.15-15.48-27.8l-10.06-25.7-8.31-23.17-3.54-10.47Z"/><polygon class="cls-4" points="117.28 367.14 123.79 366.42 127.29 366.03 131.1 361.57 133.47 357.77 134.58 354.11 120.56 228.95 118.36 225.15 114.68 220.94 110.26 219.24 107.03 219.01 102.78 219.56 98.47 221.81 96.33 223.06 93.85 225.86 92.24 229.57 92.61 232.81 106.23 354.49 106.76 359.22 110.18 362.63 112.41 364.4 117.28 367.14"/><path class="cls-3" d="M117.07,368.17l-5.29-3-2.31-1.84-3.67-3.66-.57-5.08-14-125.18,1.89-4.22,2.58-2.92L98,221l4.51-2.35L107,218l3.63.31,4.64,1.78,4,4.56,2.31,4,0,.21,14,125.37-1.28,4.09-2.45,3.91L127.8,367Zm-4.1-4.6,4.52,2.54,9.3-1,3.5-4.1,2.25-3.62,1-3.34-14-124.75-2-3.53-3.46-4-4-1.55-3-.22-4,.52-4.15,2.17-2,1.14-2.27,2.56-1.44,3.32,14.45,129,3.13,3.12Z"/><polygon class="cls-4" points="147.43 271.98 147.7 274.41 147.85 275.72 149.53 277.15 150.96 278.03 152.34 278.45 199.53 273.2 200.96 272.38 202.55 271.01 203.19 269.36 203.28 268.14 203.07 266.56 202.22 264.94 201.75 264.14 200.69 263.22 199.29 262.62 198.07 262.75 152.2 267.85 150.41 268.05 149.13 269.32 148.46 270.16 147.43 271.98"/><path class="cls-3" d="M152.25,279.46l-1.82-.58-1.55-1-2-1.68-.5-4.46,1.29-2.24.74-.91,1.53-1.53,49.5-5.5,1.91.88,1.17,1,.56.94.95,1.81.24,1.86-.15,1.61-.73,1.88-1.94,1.65-1.61.93-.21,0Zm-.87-2.35,1.05.32,46.78-5.2,1.16-.67,1.33-1.15.5-1.28.07-.95-.18-1.32L201,264.79l-.81-.72-1-.43L150.87,269l-1,1-.59.73-.83,1.47.34,3,1.32,1.12Z"/><polygon class="cls-4" points="149.34 289.06 149.61 291.5 149.76 292.81 151.44 294.23 152.87 295.12 154.25 295.53 201.44 290.29 202.87 289.47 204.46 288.09 205.1 286.44 205.19 285.23 204.98 283.64 204.13 282.03 203.66 281.23 202.61 280.3 201.21 279.7 199.99 279.84 154.11 284.93 152.32 285.13 151.04 286.41 150.37 287.24 149.34 289.06"/><path class="cls-3" d="M154.16,296.55l-1.82-.58-1.55-1-2-1.69-.5-4.46,1.28-2.23.74-.92,1.53-1.52,49.5-5.5,1.91.87,1.18,1,.55.94.95,1.81.25,1.86-.16,1.6-.73,1.88-1.94,1.66-1.61.92-.21,0Zm-.87-2.35,1.06.32,46.77-5.2,1.17-.67,1.33-1.15.49-1.28.07-1L204,284l-1.13-2.08-.82-.71-1-.44-48.26,5.37-1,1-.58.72-.84,1.48.34,3,1.32,1.12Z"/><polygon class="cls-4" points="151.25 306.15 151.53 308.58 151.67 309.89 153.35 311.32 154.79 312.2 156.16 312.62 203.35 307.38 204.78 306.56 206.38 305.18 207.02 303.53 207.1 302.32 206.89 300.73 206.05 299.12 205.58 298.32 204.52 297.39 203.12 296.79 201.9 296.92 156.03 302.02 154.24 302.22 152.95 303.5 152.29 304.33 151.25 306.15"/><path class="cls-3" d="M156.07,313.63l-1.81-.58-1.56-1-2-1.68-.5-4.46,1.28-2.23.74-.92,1.54-1.53,49.49-5.5,1.91.88,1.18,1,.55.94,1,1.81.25,1.87-.16,1.6-.73,1.88-1.93,1.65-1.62.93-.2,0Zm-.87-2.35,1.06.32L203,306.41l1.17-.67,1.33-1.15.49-1.28.07-1-.17-1.31L204.79,299l-.81-.71-1-.44-48.27,5.36-1,1-.58.72-.83,1.47.34,3,1.32,1.12Z"/><polygon class="cls-8" points="406.75 435.12 413.26 434.4 416.76 434.01 420.57 429.55 422.93 425.75 424.04 422.09 387.79 98.3 385.59 94.5 381.9 90.28 377.49 88.58 374.25 88.36 370 88.91 365.69 91.16 363.55 92.41 361.08 95.2 359.47 98.92 359.83 102.16 395.7 422.46 396.23 427.2 399.65 430.61 401.88 432.38 406.75 435.12"/><polygon class="cls-8" points="105.89 351.41 93.08 237.05 84.9 237.96 74.89 242.1 66.69 247.38 60.32 253.81 55.91 259.69 50.72 267.67 49.27 272.88 46.75 280.57 45.82 288.12 46.84 302.43 49.26 313.1 53.53 325.25 58.87 334.42 69.33 343.35 78.72 348.03 86.77 351.18 98.38 352.24 105.89 351.41"/><polygon class="cls-8" points="121.12 233.94 143.65 231.43 163.18 229.26 186.82 223.1 207.79 215.73 236.72 206.96 260.97 197.2 278.16 187.72 296.57 175.57 318.51 160.18 330.67 148.06 341.16 136.12 349.17 126.15 354.69 118.13 360.53 108.39 395.2 418.06 388.53 412.74 376.8 401.59 367.21 394.41 353.35 385.35 334.6 374.81 322.3 369.11 299.71 362.02 282.96 357.32 260.98 351.18 243.51 349.08 222.59 347.87 197.2 347.16 180.9 347.23 156.22 348.24 134.06 349.49 121.12 233.94"/><polygon class="cls-8" points="408.84 286.29 410.84 286.07 413.66 284.07 417.7 280.93 420 278.82 422.67 275.5 424.02 272.49 425.52 269.29 426.65 265.8 427.28 262.37 426.77 257.79 426.18 252.56 424.99 249.49 422.01 245.45 419.28 242.22 416.27 239.52 412.71 237.9 410 236.35 407.04 235.5 403.05 234.6 408.84 286.29"/><polygon class="cls-9" points="58.87 334.42 93.08 237.05 134.06 349.49 102.41 320.33 84.19 350.17 50.72 267.67 120.56 228.95 98.47 221.81 124.66 265.52 50.72 267.67 102.41 320.33 124.66 265.52 47.59 305.77 102.41 320.33 123.79 366.42 124.66 265.52 110.26 219.24 93.08 237.05 124.66 265.52 106.76 359.22 134.06 349.49 117.28 367.14 102.41 320.33 120.56 228.95 84.19 350.17 71.86 244.05 124.66 265.52 44.97 285.81 129.66 310.23 102.41 320.33 53.53 325.25 105.89 351.41 71.86 244.05 50.72 267.67 47.59 305.77 69.33 343.35 102.41 320.33 131.39 325.69 50.72 267.67 93.08 237.05 120.56 228.95 92.24 229.57 122.52 246.4 50.72 267.67 69.33 343.35 93.08 237.05 128.27 297.76 53.53 325.25 134.06 349.49 242.78 204.52 379.29 275.94 403.05 234.6 425.52 269.29 424.99 249.49 408.84 286.29 416.27 239.52 379.29 275.94 408.84 286.29 395.2 418.06 416.76 434.01 379.29 275.94 387.79 98.3 359.47 98.92 377.49 88.58 403.05 234.6 242.78 204.52 425.52 269.29 379.29 275.94 396.68 177.75 341.16 136.12 379.29 275.94 263.95 352.01 408.84 286.29 353.35 385.35 242.78 204.52 396.68 177.75 359.47 98.92 391.02 127.22 341.16 136.12 313.13 319.57 293.38 177.68 403.05 234.6 128.27 297.76 313.13 319.57 415.22 343.31 353.35 385.35 420.73 392.51 394.19 425.58 422.93 425.75 353.35 385.35 417.9 367.24 313.13 319.57 396.68 177.75 318.51 160.18 379.29 275.94 121.12 233.94 222.59 347.87 131.39 325.69 242.78 204.52 263.95 352.01 183.41 223.99 134.06 349.49 258.37 313.11 121.12 233.94 173 348.67 176.17 442.39 241.01 452.35 211.51 499.79 211.47 406.22 139.01 348.94 246.66 490.25 267.56 468 189.06 474.81 211.47 406.22 189.56 346.88 176.17 442.39 233.9 495.01 241.01 452.35 268.68 482.04 189.06 474.81 211.51 499.79 233.9 495.01 226.95 434.02 176.17 442.39 267.56 468 211.51 499.79 189.56 346.88 154.61 388.18 211.47 406.22 165.59 415.78 173 348.67 211.47 406.22 226.95 434.02 165.59 415.78 148.75 329.91 189.06 474.81 241.01 452.35 154.61 388.18 200.48 376.45 139.01 348.94 154.61 388.18 173 348.67 189.06 474.81 233.9 495.01 198.85 492.11 256.66 461.52 246.66 490.25 176.17 442.39 200.48 376.45 173 348.67 183.8 304.32 263.95 352.01 278.66 263.19 293.38 177.68 379.29 275.94 353.35 385.35 258.37 313.11 379.29 275.94 415.22 343.31 381.26 405.84 313.13 319.57 408.84 286.29 312.51 366.04 313.13 319.57 183.41 223.99 278.66 263.19 396.68 177.75 293.38 177.68 216.99 277.37 124.66 265.52 183.41 223.99 284.96 226.59 313.13 319.57 216.99 277.37 183.8 304.32 189.56 346.88 258.37 313.11 222.59 347.87 216.99 277.37 154.33 230.25 124.66 265.52 183.8 304.32 131.39 325.69 173 348.67 216.99 277.37 217.97 212.64 124.66 265.52 148.75 329.91 129.66 310.23 183.41 223.99 183.8 304.32 202.03 347.29 216.99 277.37 379.29 275.94 330.5 372.91 313.13 319.57 291.22 359.64 258.37 313.11 278.66 263.19 412.32 317.37 313.13 319.57 400.05 371.25 420.73 392.51 406.75 435.12 400.05 371.25 312.51 366.04 278.66 263.19 268.37 193.12 379.29 275.94 399.94 208.35 318.51 160.18 393.26 147.16 341.16 136.12 387.79 98.3 360.53 108.39 393.26 147.16 354.51 185.09 330.67 148.06 393.26 147.16 354.69 118.13 354.51 185.09 298.69 215.76 318.51 160.18 320.55 232.08 354.51 185.09 403.05 234.6 389.49 295.07 320.55 232.08 357.83 318.58 278.66 263.19 298.69 215.76 216.99 277.37 242.78 204.52 222.59 347.87 313.13 319.57 320.55 232.08 367.57 299.23 258.37 313.11 312.51 366.04 415.22 343.31 357.83 318.58 216.99 277.37 243.51 349.08 242.78 204.52 284.96 226.59 212.25 245.24 154.12 270.99 154.33 230.25 122.52 246.4 154.12 270.99 126.78 284.47 183.8 304.32 139.01 348.94 179.9 337.49 278.66 263.19 217.97 212.64 183.8 304.32 202.03 347.29 154.25 300.83 229.68 297.54 134.06 349.49 102.41 320.33 58.87 334.42"/><polygon class="cls-10" points="464.39 252.25 464.66 254.68 464.81 255.99 466.49 257.42 467.92 258.3 469.3 258.71 516.49 253.47 517.92 252.65 519.51 251.27 520.15 249.62 520.24 248.41 520.03 246.82 519.18 245.21 518.71 244.41 517.66 243.49 516.26 242.88 515.03 243.02 469.16 248.11 467.38 248.31 466.09 249.59 465.42 250.43 464.39 252.25"/><polygon class="cls-9" points="464.81 255.99 481.68 246.72 516.49 253.47 467.38 248.31 520.24 248.41 496.63 255.68 515.03 243.02 520.24 248.41 516.49 253.47 515.03 243.02 474.6 258.13 481.68 246.72 496.63 255.68 465.42 250.43 467.92 258.3 481.68 246.72 499.71 244.72 496.63 255.68 518.71 244.41 464.81 255.99"/><polygon class="cls-10" points="449.27 205.24 450.39 207.42 450.99 208.59 453.06 209.34 454.72 209.66 456.15 209.57 498.48 188.13 499.52 186.86 500.53 185.01 500.54 183.25 500.2 182.08 499.44 180.67 498.08 179.46 497.36 178.87 496.04 178.38 494.52 178.3 493.42 178.86 452.28 199.7 450.68 200.51 449.93 202.16 449.6 203.17 449.27 205.24"/><polygon class="cls-9" points="450.99 208.59 463.51 194.01 498.48 188.13 450.68 200.51 500.2 182.08 480.66 197.16 493.42 178.86 500.2 182.08 498.48 188.13 493.42 178.86 460.9 207.16 463.51 194.01 480.66 197.16 449.6 203.17 454.72 209.66 463.51 194.01 479.68 185.82 480.66 197.16 497.36 178.87 450.99 208.59"/><polygon class="cls-10" points="428.29 162.05 430.19 163.61 431.21 164.45 433.41 164.3 435.06 163.94 436.34 163.28 466.52 126.78 466.97 125.2 467.15 123.11 466.45 121.48 465.67 120.55 464.41 119.56 462.67 118.99 461.77 118.74 460.37 118.81 458.94 119.34 458.16 120.29 428.82 155.78 427.68 157.16 427.65 158.97 427.75 160.03 428.29 162.05"/><polygon class="cls-9" points="431.21 164.45 436.83 146.09 466.52 126.78 427.68 157.16 465.67 120.55 453.81 142.15 458.16 120.29 465.67 120.55 466.52 126.78 458.16 120.29 439.72 159.19 436.83 146.09 453.81 142.15 427.75 160.03 435.06 163.94 436.83 146.09 448.36 132.15 453.81 142.15 461.77 118.74 431.21 164.45"/><polygon class="cls-10" points="449.5 351.52 451.01 349.58 451.82 348.54 454 348.2 455.69 348.19 457.08 348.55 494.6 377.53 495.39 378.98 496.03 380.98 495.71 382.72 495.15 383.8 494.14 385.04 492.57 385.98 491.75 386.42 490.36 386.66 488.85 386.45 487.88 385.7 451.41 357.52 449.99 356.42 449.57 354.66 449.43 353.61 449.5 351.52"/><polygon class="cls-9" points="451.82 348.54 461.37 365.21 494.6 377.53 449.99 356.42 495.15 383.8 478.81 365.33 487.88 385.7 495.15 383.8 494.6 377.53 487.88 385.7 461.29 351.8 461.37 365.21 478.81 365.33 449.43 353.61 455.69 348.19 461.37 365.21 475.7 376.28 478.81 365.33 491.75 386.42 451.82 348.54"/><polygon class="cls-10" points="460.42 304.79 461.02 302.42 461.35 301.14 463.21 299.95 464.75 299.27 466.17 299.05 512.2 310.68 513.5 311.69 514.89 313.27 515.3 314.99 515.22 316.2 514.79 317.74 513.73 319.23 513.15 319.95 511.98 320.73 510.51 321.13 509.32 320.83 464.58 309.53 462.84 309.09 461.74 307.65 461.19 306.73 460.42 304.79"/><polygon class="cls-9" points="461.35 301.14 476.79 312.62 512.2 310.68 462.84 309.09 515.22 316.2 492.82 305.78 509.32 320.83 515.22 316.2 512.2 310.68 509.32 320.83 471.34 300.36 476.79 312.62 492.82 305.78 461.19 306.73 464.75 299.27 476.79 312.62 494.37 317.06 492.82 305.78 513.15 319.95 461.35 301.14"/><ellipse class="cls-11" cx="333.8" cy="81.89" rx="1.91" ry="1.9"/><path class="cls-11" d="M341.37,51.61a.63.63,0,1,1-.63-.63A.63.63,0,0,1,341.37,51.61Z"/><path class="cls-11" d="M349.36,62.57a.53.53,0,1,1-.53-.53A.53.53,0,0,1,349.36,62.57Z"/><path class="cls-11" d="M362.63,65.69a2.7,2.7,0,1,1-2.7-2.69A2.69,2.69,0,0,1,362.63,65.69Z"/><ellipse class="cls-11" cx="385.11" cy="53.32" rx="2.92" ry="2.91"/><ellipse class="cls-11" cx="370.61" cy="89.03" rx="2.68" ry="2.67"/><ellipse class="cls-11" cx="395.84" cy="87.63" rx="2.85" ry="2.84"/><ellipse class="cls-11" cx="386.71" cy="122.22" rx="1.69" ry="1.69"/><path class="cls-11" d="M372.88,139.41a1.09,1.09,0,1,1-1.09-1.09A1.09,1.09,0,0,1,372.88,139.41Z"/><ellipse class="cls-11" cx="404.53" cy="174" rx="2.01" ry="2"/><path class="cls-11" d="M444.07,156.1a.86.86,0,1,1-.86-.86A.86.86,0,0,1,444.07,156.1Z"/><path class="cls-11" d="M449,131.09a1.08,1.08,0,1,1-1.08-1.07A1.08,1.08,0,0,1,449,131.09Z"/><path class="cls-11" d="M454.9,133.58a1.79,1.79,0,1,1-1.79-1.78A1.79,1.79,0,0,1,454.9,133.58Z"/><path class="cls-11" d="M429.16,120.34a.84.84,0,0,1-1.68,0,.84.84,0,0,1,1.68,0Z"/><path class="cls-11" d="M433.4,156.8a1.34,1.34,0,1,1-1.34-1.33A1.33,1.33,0,0,1,433.4,156.8Z"/><path class="cls-11" d="M416.61,174.65a1.68,1.68,0,1,1-1.68-1.67A1.67,1.67,0,0,1,416.61,174.65Z"/><path class="cls-11" d="M395.24,183.84a3.43,3.43,0,1,1-3.43-3.42A3.43,3.43,0,0,1,395.24,183.84Z"/><path class="cls-11" d="M424.43,201.22a.62.62,0,1,1-.62-.62A.62.62,0,0,1,424.43,201.22Z"/><ellipse class="cls-11" cx="423.7" cy="204.4" rx="3.26" ry="3.25"/><path class="cls-11" d="M407,230.69a1.35,1.35,0,1,1-1.35-1.34A1.34,1.34,0,0,1,407,230.69Z"/><path class="cls-11" d="M411,238.33a.85.85,0,1,1-.85-.85A.85.85,0,0,1,411,238.33Z"/><path class="cls-11" d="M411.18,255.39a.64.64,0,1,1-.63-.63A.63.63,0,0,1,411.18,255.39Z"/><path class="cls-11" d="M429.29,266.59a1.87,1.87,0,1,1-1.87-1.87A1.87,1.87,0,0,1,429.29,266.59Z"/><path class="cls-11" d="M423.88,278.68a.57.57,0,1,1-.57-.56A.56.56,0,0,1,423.88,278.68Z"/><path class="cls-11" d="M391.8,311a.75.75,0,1,1-.75-.75A.74.74,0,0,1,391.8,311Z"/><path class="cls-11" d="M428.9,322.77a.55.55,0,1,1-.55-.55A.55.55,0,0,1,428.9,322.77Z"/><path class="cls-11" d="M466.6,325.67a3.06,3.06,0,1,1-3.05-3A3,3,0,0,1,466.6,325.67Z"/><path class="cls-11" d="M469.54,351.81a3.15,3.15,0,1,1-3.15-3.14A3.14,3.14,0,0,1,469.54,351.81Z"/><path class="cls-11" d="M467.65,356.58a1,1,0,1,1-.95-.94A1,1,0,0,1,467.65,356.58Z"/><path class="cls-11" d="M438,374.19a2.29,2.29,0,1,1-2.29-2.28A2.28,2.28,0,0,1,438,374.19Z"/><path class="cls-11" d="M411.25,374a3,3,0,1,1-2.95-2.94A2.95,2.95,0,0,1,411.25,374Z"/><ellipse class="cls-11" cx="433.77" cy="381.77" rx="2.93" ry="2.92"/><ellipse class="cls-11" cx="438.6" cy="383.85" rx="1.67" ry="1.66"/><path class="cls-11" d="M433.62,419.22a.78.78,0,0,1-.78.78.78.78,0,1,1,0-1.56A.78.78,0,0,1,433.62,419.22Z"/><path class="cls-11" d="M414.38,427.21a3.07,3.07,0,1,1-3.07-3A3.06,3.06,0,0,1,414.38,427.21Z"/><ellipse class="cls-11" cx="369.64" cy="434.36" rx="3.3" ry="3.29"/><path class="cls-11" d="M351.44,420a.9.9,0,1,1-.9-.9A.9.9,0,0,1,351.44,420Z"/><path class="cls-11" d="M359.13,398.94a2.45,2.45,0,1,1-2.44-2.43A2.44,2.44,0,0,1,359.13,398.94Z"/><path class="cls-11" d="M341.22,377.7a3.43,3.43,0,1,1-3.43-3.42A3.43,3.43,0,0,1,341.22,377.7Z"/><path class="cls-11" d="M317.78,373.91a3.31,3.31,0,1,1-3.31-3.29A3.31,3.31,0,0,1,317.78,373.91Z"/><path class="cls-11" d="M310.7,370.46a1.55,1.55,0,1,1-1.54-1.54A1.54,1.54,0,0,1,310.7,370.46Z"/><path class="cls-11" d="M290.55,345.16a1.12,1.12,0,1,1-1.11-1.11A1.11,1.11,0,0,1,290.55,345.16Z"/><ellipse class="cls-11" cx="275.02" cy="355.6" rx="2.87" ry="2.86"/><path class="cls-11" d="M271.53,354.39a2.06,2.06,0,1,1-2-2.05A2.05,2.05,0,0,1,271.53,354.39Z"/><path class="cls-11" d="M238.71,362.23a1.71,1.71,0,1,1-1.71-1.7A1.7,1.7,0,0,1,238.71,362.23Z"/><path class="cls-11" d="M218.62,330.81a2.81,2.81,0,1,1-2.8-2.79A2.79,2.79,0,0,1,218.62,330.81Z"/><path class="cls-11" d="M210.92,331.86a2.14,2.14,0,1,1-2.14-2.13A2.13,2.13,0,0,1,210.92,331.86Z"/><ellipse class="cls-11" cx="213.36" cy="359.64" rx="2.37" ry="2.36"/><ellipse class="cls-11" cx="214.03" cy="366.26" rx="2.63" ry="2.62"/><ellipse class="cls-11" cx="241.26" cy="382.38" rx="3.12" ry="3.11"/><ellipse class="cls-11" cx="229.07" cy="416.62" rx="1.46" ry="1.45"/><ellipse class="cls-11" cx="267.31" cy="428.08" rx="2.2" ry="2.19"/><ellipse class="cls-11" cx="256.98" cy="466.67" rx="1.38" ry="1.37"/><path class="cls-11" d="M287.47,466.87a3.19,3.19,0,1,1-3.19-3.17A3.19,3.19,0,0,1,287.47,466.87Z"/><path class="cls-11" d="M271.28,483.11a1.89,1.89,0,1,1-1.88-1.88A1.88,1.88,0,0,1,271.28,483.11Z"/><path class="cls-11" d="M283.88,506.46a1.55,1.55,0,1,1-1.55-1.54A1.54,1.54,0,0,1,283.88,506.46Z"/><circle class="cls-11" cx="245.99" cy="505.6" r="0.39"/><ellipse class="cls-11" cx="227.14" cy="485.61" rx="1.39" ry="1.38"/><ellipse class="cls-11" cx="212.71" cy="476.34" rx="2.41" ry="2.4"/><path class="cls-11" d="M203.32,480.4a2.12,2.12,0,1,1-2.12-2.11A2.11,2.11,0,0,1,203.32,480.4Z"/><path class="cls-11" d="M188.4,448.85a3.38,3.38,0,1,1-3.38-3.37A3.37,3.37,0,0,1,188.4,448.85Z"/><path class="cls-11" d="M174.62,429.91a2.31,2.31,0,1,1-2.3-2.3A2.3,2.3,0,0,1,174.62,429.91Z"/><path class="cls-11" d="M150.83,441.93a3.34,3.34,0,1,1-3.34-3.32A3.33,3.33,0,0,1,150.83,441.93Z"/><ellipse class="cls-11" cx="139.23" cy="439.51" rx="1.35" ry="1.34"/><path class="cls-11" d="M156.26,426.65a1.82,1.82,0,1,1-1.82-1.81A1.81,1.81,0,0,1,156.26,426.65Z"/><path class="cls-11" d="M160.73,421.44a2.46,2.46,0,1,1-2.46-2.45A2.46,2.46,0,0,1,160.73,421.44Z"/><path class="cls-11" d="M126.87,398.9a1.41,1.41,0,0,1-2.81,0,1.41,1.41,0,0,1,2.81,0Z"/><path class="cls-11" d="M122,395.11a1.88,1.88,0,1,1-1.87-1.87A1.87,1.87,0,0,1,122,395.11Z"/><ellipse class="cls-11" cx="142.39" cy="364.87" rx="2.66" ry="2.65"/><path class="cls-11" d="M109.39,348a3,3,0,1,1-3-3A3,3,0,0,1,109.39,348Z"/><path class="cls-11" d="M91.26,331.08a2.4,2.4,0,1,1-2.4-2.38A2.4,2.4,0,0,1,91.26,331.08Z"/><ellipse class="cls-11" cx="57.92" cy="329.04" rx="3.27" ry="3.25"/><circle class="cls-11" cx="24.97" cy="342.33" r="0.73"/><ellipse class="cls-11" cx="21.78" cy="322.18" rx="3.31" ry="3.29"/><path class="cls-11" d="M47.57,310.67a2.76,2.76,0,1,1-2.76-2.75A2.75,2.75,0,0,1,47.57,310.67Z"/><path class="cls-11" d="M6.39,281.29A2.2,2.2,0,1,1,4.2,279.1,2.19,2.19,0,0,1,6.39,281.29Z"/><path class="cls-11" d="M33.31,277.45a.72.72,0,1,1-.71-.72A.71.71,0,0,1,33.31,277.45Z"/><path class="cls-11" d="M19.73,255.18A2.2,2.2,0,1,1,17.54,253,2.19,2.19,0,0,1,19.73,255.18Z"/><ellipse class="cls-11" cx="22.07" cy="244.18" rx="3.11" ry="3.09"/><path class="cls-11" d="M41.72,235a1.86,1.86,0,1,1-1.86-1.85A1.85,1.85,0,0,1,41.72,235Z"/><path class="cls-11" d="M37.44,209a2,2,0,1,1-2-2A2,2,0,0,1,37.44,209Z"/><path class="cls-11" d="M67.5,220a2.29,2.29,0,1,1-2.29-2.28A2.29,2.29,0,0,1,67.5,220Z"/><path class="cls-11" d="M91.42,210.68a3.26,3.26,0,1,1-3.26-3.24A3.25,3.25,0,0,1,91.42,210.68Z"/><path class="cls-11" d="M99.42,177.81a2.24,2.24,0,1,1-2.24-2.24A2.23,2.23,0,0,1,99.42,177.81Z"/><ellipse class="cls-11" cx="119.42" cy="197.72" rx="1.59" ry="1.59"/><path class="cls-11" d="M124.59,202.91a2.9,2.9,0,1,1-2.9-2.89A2.9,2.9,0,0,1,124.59,202.91Z"/><path class="cls-11" d="M139,177.13a2.77,2.77,0,1,1-2.77-2.76A2.76,2.76,0,0,1,139,177.13Z"/><ellipse class="cls-11" cx="169.98" cy="201.28" rx="1.67" ry="1.66"/><path class="cls-11" d="M172.83,196.48a1.67,1.67,0,1,1-1.67-1.66A1.67,1.67,0,0,1,172.83,196.48Z"/><path class="cls-11" d="M201.74,184.71a2.87,2.87,0,1,1-2.87-2.86A2.87,2.87,0,0,1,201.74,184.71Z"/><path class="cls-11" d="M214.05,168a.53.53,0,0,1-.53.53.53.53,0,1,1,0-1.06A.53.53,0,0,1,214.05,168Z"/><ellipse class="cls-11" cx="232.48" cy="178.87" rx="2.75" ry="2.74"/><path class="cls-11" d="M239.47,190.64a1.6,1.6,0,1,1-1.6-1.6A1.6,1.6,0,0,1,239.47,190.64Z"/><path class="cls-11" d="M244.16,155.61a2.89,2.89,0,1,1-2.89-2.87A2.87,2.87,0,0,1,244.16,155.61Z"/><ellipse class="cls-11" cx="257.33" cy="161.66" rx="1.35" ry="1.35"/><path class="cls-11" d="M288.47,167.72a2.67,2.67,0,1,1-2.67-2.66A2.67,2.67,0,0,1,288.47,167.72Z"/><ellipse class="cls-11" cx="302" cy="151.26" rx="1.28" ry="1.27"/><path class="cls-11" d="M319.88,127.89a3.3,3.3,0,1,1-3.29-3.29A3.28,3.28,0,0,1,319.88,127.89Z"/><ellipse class="cls-11" cx="343.1" cy="104.5" rx="1.7" ry="1.69"/><path class="cls-11" d="M349.55,89.51a1.82,1.82,0,1,1-1.82-1.81A1.81,1.81,0,0,1,349.55,89.51Z"/><path class="cls-11" d="M335,74.1A1.13,1.13,0,1,1,333.86,73,1.12,1.12,0,0,1,335,74.1Z"/><path class="cls-11" d="M353.84,82a1.55,1.55,0,1,1-1.55-1.54A1.54,1.54,0,0,1,353.84,82Z"/><path class="cls-11" d="M458.1,258.61a3.26,3.26,0,1,1-3.26-3.25A3.25,3.25,0,0,1,458.1,258.61Z"/><path class="cls-11" d="M483.75,251.36a2.53,2.53,0,1,1-2.53-2.51A2.52,2.52,0,0,1,483.75,251.36Z"/><path class="cls-11" d="M504.46,251.87a.51.51,0,1,1-.51-.51A.51.51,0,0,1,504.46,251.87Z"/><path class="cls-11" d="M526.82,218a1.31,1.31,0,1,1-1.31-1.3A1.3,1.3,0,0,1,526.82,218Z"/><path class="cls-11" d="M548,211.36a2.33,2.33,0,1,1-2.32-2.31A2.31,2.31,0,0,1,548,211.36Z"/><circle class="cls-11" cx="533.98" cy="214.12" r="0.43"/><path class="cls-11" d="M538.52,209.64a2,2,0,1,1-2-1.95A2,2,0,0,1,538.52,209.64Z"/><path class="cls-11" d="M541.89,193a2.19,2.19,0,1,1-2.19-2.18A2.18,2.18,0,0,1,541.89,193Z"/><path class="cls-11" d="M508.87,192.84a2.71,2.71,0,1,1-2.71-2.7A2.71,2.71,0,0,1,508.87,192.84Z"/><path class="cls-11" d="M469.77,198.24a2.95,2.95,0,1,1-2.94-2.93A2.94,2.94,0,0,1,469.77,198.24Z"/><ellipse class="cls-11" cx="482.65" cy="233.67" rx="1.65" ry="1.64"/><path class="cls-11" d="M451.88,220.48a1.18,1.18,0,1,1-2.36,0,1.18,1.18,0,0,1,2.36,0Z"/><path class="cls-11" d="M519.23,295.19a.86.86,0,1,1-.86-.85A.86.86,0,0,1,519.23,295.19Z"/><path class="cls-11" d="M507.84,297.51a1.39,1.39,0,1,1-1.39-1.39A1.39,1.39,0,0,1,507.84,297.51Z"/><path class="cls-11" d="M492,318.09a2.67,2.67,0,1,1-2.67-2.66A2.66,2.66,0,0,1,492,318.09Z"/><path class="cls-11" d="M492.48,298.28a2.36,2.36,0,1,1-2.35-2.35A2.35,2.35,0,0,1,492.48,298.28Z"/><ellipse class="cls-11" cx="470.02" cy="275.39" rx="3.19" ry="3.18"/><path class="cls-11" d="M495.69,147.3a.58.58,0,0,1-.58.58.58.58,0,0,1,0-1.15A.58.58,0,0,1,495.69,147.3Z"/><path class="cls-11" d="M459.61,144.32a2.41,2.41,0,1,1-2.4-2.4A2.4,2.4,0,0,1,459.61,144.32Z"/><path class="cls-11" d="M449.31,158.83a1,1,0,0,1-2,0,1,1,0,1,1,2,0Z"/><path class="cls-11" d="M439.68,177.59a1.23,1.23,0,1,1-1.23-1.22A1.23,1.23,0,0,1,439.68,177.59Z"/><path class="cls-11" d="M260.23,93.28a2.51,2.51,0,1,1-2.5-2.49A2.5,2.5,0,0,1,260.23,93.28Z"/><ellipse class="cls-11" cx="250.75" cy="104.56" rx="2.69" ry="2.68"/><ellipse class="cls-11" cx="233.06" cy="124.15" rx="1.67" ry="1.66"/><ellipse class="cls-11" cx="211.53" cy="122.4" rx="2.27" ry="2.27"/><path class="cls-11" d="M198.85,161.31a1.88,1.88,0,1,1-1.88-1.88A1.88,1.88,0,0,1,198.85,161.31Z"/><circle class="cls-11" cx="170.27" cy="136.29" r="0.5"/><circle class="cls-11" cx="137.57" cy="139.83" r="0.73"/><ellipse class="cls-11" cx="129.28" cy="153.77" rx="2.2" ry="2.19"/><path class="cls-11" d="M111.26,183.35a1.61,1.61,0,1,1-1.61-1.61A1.61,1.61,0,0,1,111.26,183.35Z"/><path class="cls-11" d="M110.86,4.33A2.34,2.34,0,1,1,108.53,2,2.32,2.32,0,0,1,110.86,4.33Z"/><path class="cls-11" d="M115.05,45a2.19,2.19,0,1,1-2.19-2.18A2.19,2.19,0,0,1,115.05,45Z"/><path class="cls-11" d="M130.39,37.47a.66.66,0,1,1-.66-.65A.66.66,0,0,1,130.39,37.47Z"/><path class="cls-11" d="M123.66,62.52a1,1,0,1,1-1-1A1,1,0,0,1,123.66,62.52Z"/><path class="cls-11" d="M148.57,59a.7.7,0,0,1-.7.7.7.7,0,1,1,0-1.4A.7.7,0,0,1,148.57,59Z"/><path class="cls-11" d="M149.13,80.9a1.66,1.66,0,1,1-1.66-1.65A1.66,1.66,0,0,1,149.13,80.9Z"/><path class="cls-11" d="M181.53,79.81a2.08,2.08,0,1,1-2.08-2.07A2.07,2.07,0,0,1,181.53,79.81Z"/><path class="cls-11" d="M194.09,104.11a3.44,3.44,0,1,1-3.44-3.42A3.43,3.43,0,0,1,194.09,104.11Z"/><ellipse class="cls-11" cx="176.91" cy="139.74" rx="2.72" ry="2.71"/><path class="cls-11" d="M194.09,144.06a.74.74,0,1,1-.74-.73A.74.74,0,0,1,194.09,144.06Z"/><path class="cls-11" d="M213.8,157.52a1,1,0,1,1-1-1A1,1,0,0,1,213.8,157.52Z"/></g></g></g></svg>