<svg id="Layer_1" data-name="Layer 1" xmlns="http://www.w3.org/2000/svg" xmlns:xlink="http://www.w3.org/1999/xlink" viewBox="0 0 800 220"><defs><style>.cls-1{fill:#fff;}.cls-2{fill:url(#linear-gradient);}.cls-3{fill:url(#linear-gradient-2);}.cls-4{fill:url(#linear-gradient-3);}.cls-5{fill:url(#linear-gradient-4);}.cls-6{fill:url(#linear-gradient-5);}</style><linearGradient id="linear-gradient" x1="676.76" y1="-1245.07" x2="682.19" y2="-1266.78" gradientTransform="translate(0 1280)" gradientUnits="userSpaceOnUse"><stop offset="0" stop-color="#fff" stop-opacity="0.3"/><stop offset="1" stop-opacity="0.3"/></linearGradient><linearGradient id="linear-gradient-2" x1="431.21" y1="-1244.82" x2="436.62" y2="-1266.46" xlink:href="#linear-gradient"/><linearGradient id="linear-gradient-3" x1="309.61" y1="-1142.15" x2="404.83" y2="-1163.39" gradientTransform="translate(0 1280)" gradientUnits="userSpaceOnUse"><stop offset="0" stop-color="#fff" stop-opacity="0.3"/><stop offset="0.08" stop-color="#eee" stop-opacity="0.3"/><stop offset="0.18" stop-color="#bfbfbf" stop-opacity="0.3"/><stop offset="0.29" stop-color="#6f6f6f" stop-opacity="0.3"/><stop offset="0.41" stop-color="#010101" stop-opacity="0.3"/><stop offset="0.41" stop-opacity="0.3"/></linearGradient><linearGradient id="linear-gradient-4" x1="133.89" y1="-1154.07" x2="133.89" y2="-1220.05" gradientTransform="translate(0 1280)" gradientUnits="userSpaceOnUse"><stop offset="0" stop-color="#fff" stop-opacity="0.3"/><stop offset="0.71" stop-opacity="0.3"/></linearGradient><linearGradient id="linear-gradient-5" x1="54.41" y1="-1244.82" x2="59.82" y2="-1266.47" xlink:href="#linear-gradient"/></defs><title>Artboard 2</title><g id="final_logo" data-name="final logo"><path class="cls-1" d="M3.69,207.46l9.25-5.37c1.7,3.88,4.58,6.56,10,6.56,5.18,0,6.37-2,6.37-3.88,0-2.88-2.68-4.08-9.75-6S5.58,193.53,5.58,184.47s7.66-14.32,15.82-14.32a18.36,18.36,0,0,1,17.31,10.64l-9.15,5.28c-1.59-3.39-3.88-5.48-8.16-5.48-3.38,0-5.07,1.7-5.07,3.59,0,2.18,1.19,3.68,8.46,5.87s15.12,4.67,15.12,14.62c0,9.16-7.26,14.53-17.51,14.53C12.65,219.1,6.28,214.42,3.69,207.46Z"/><path class="cls-1" d="M92,194.62a24.58,24.58,0,1,1,24.58,24.58h0A24.4,24.4,0,0,1,92,195.12Zm38.31,0c0-8.45-6.07-14-13.73-14s-13.74,5.58-13.74,14,6.07,13.93,13.74,13.93,13.73-5.57,13.73-13.93Z"/><path class="cls-1" d="M225.14,207.76V218.1H197.48V170.94h10.75v36.82Z"/><path class="cls-1" d="M287.86,202.88V170.94H298.6V202c0,3.58,1.69,6.56,7.47,6.56s7.46-3,7.46-6.56V170.94h10.74v31.94c0,10.15-7.86,16.22-18.2,16.22S287.86,213,287.86,202.88Z"/><path class="cls-1" d="M418.33,181.39H406.19V218.2H395.45V181.39H383.31V171h35Z"/><path class="cls-1" d="M501,170.94V218.1H490.2V170.94Z"/><path class="cls-1" d="M565.76,194.62a24.58,24.58,0,1,1,24.57,24.58h0a24.39,24.39,0,0,1-24.57-24.08Zm38.3,0c0-8.45-6.07-14-13.73-14s-13.73,5.58-13.73,14,6.07,14,13.73,14,13.73-5.67,13.73-14Z"/><path class="cls-1" d="M703.59,170.94V218.1h-8.06l-18.2-25.57V218.1H666.58V170.94h8.06l18.21,25.67V170.94Z"/><path class="cls-1" d="M761.68,207.46l9.26-5.37c1.69,3.88,4.57,6.56,9.95,6.56,5.17,0,6.36-2,6.36-3.88,0-2.88-2.68-4.08-9.75-6s-13.93-5.27-13.93-14.33,7.66-14.32,15.82-14.32a18.25,18.25,0,0,1,17.22,10.64l-9.06,5.28c-1.59-3.39-3.88-5.48-8.16-5.48-3.38,0-5.07,1.7-5.07,3.59,0,2.18,1.19,3.68,8.46,5.87S798,194.72,798,204.67c0,9.16-7.26,14.53-17.51,14.53C770.64,219.1,764.37,214.42,761.68,207.46Z"/><g id="RUMO"><g id="O"><path class="cls-1" d="M797.29,31.55,763,129a33.67,33.67,0,0,1-31.84,22.49H664.36c-24.38,0-35.82-13.93-29.35-32.24l38.5-109,30.35,56.92L692.92,98.81c-4.18,12,.3,18,13.53,18h2a11.28,11.28,0,0,0,10.64-7.47l20.2-57.11a11.33,11.33,0,0,0-7-14.33,11.67,11.67,0,0,0-3.68-.59H688L673.51,10.15h0l-5-9.35h99.9c10.64,0,18.6,3.78,24,10C797.49,16.82,799.08,23.68,797.29,31.55Z"/><polygon class="cls-2" points="674.11 54.03 665.36 33.24 673.51 10.15 688 37.32 674.11 54.03"/></g><g id="M"><path class="cls-1" d="M428,10.55l-49.25,141h50.55L458.2,67.46Z"/><path class="cls-1" d="M630.23,35.33l-40,116.21H539.59L578,40.1c.69-1.79-.1-2.68-2.29-2.68H522.58l16,30-29,84.08H459.1L498.89,37.42H442.38L423,1H600c11.84,0,20.69,3.38,26.56,10.05C632.22,17.71,633.52,25.77,630.23,35.33Z"/><polygon class="cls-3" points="428.65 54.23 419.99 33.53 427.95 10.55 442.28 37.42 428.65 54.23"/></g><g id="U"><polygon class="cls-1" points="397.01 1.3 344.07 151.74 305.37 117.21 346.26 1.3 397.01 1.3"/><path class="cls-1" d="M344.08,151.74H253.43c-24.37,0-35.82-13.93-29.35-32.24L262.49,10.55l-5-9.25h58.31L282,99.2c-4.18,12,.3,18,13.53,18h9.85Z"/><polygon class="cls-4" points="308.75 151.74 296.22 141.19 305.37 117.21 344.07 151.74 308.75 151.74"/></g><g id="R"><path class="cls-1" d="M51.15,10.55,2,151.54H52.55l29-84.08Z"/><polygon class="cls-1" points="184.28 151.54 126.27 151.54 100.01 102.19 153.04 102.19 184.28 151.54"/><polygon class="cls-5" points="167.76 125.57 112.64 125.97 100.01 102.19 153.04 102.19 167.76 125.57"/><path class="cls-1" d="M219.3,35.33,208.06,68q-4.92,14-18.51,24.18c-9.05,6.77-20.89,10.15-35.42,10.15h-54L85.28,74.53h0l-3.68-7h72.83c2.29,0,3.58-.89,4.18-2.68l8.46-24.68c.69-1.79-.1-2.68-2.29-2.68H65.58L46.18,1.1H189c11.84,0,20.69,3.38,26.56,10.05C221.29,17.62,222.59,25.77,219.3,35.33Z"/><polygon class="cls-6" points="51.95 54.23 43.19 33.53 51.15 10.55 65.48 37.42 51.95 54.23"/></g></g></g></svg>