<svg xmlns="http://www.w3.org/2000/svg" xmlns:xlink="http://www.w3.org/1999/xlink" viewBox="0 0 1000 1000"><defs><style>.cls-1{fill:#fff;}.cls-2{fill:url(#linear-gradient);}.cls-3{fill:url(#linear-gradient-2);}</style><linearGradient id="linear-gradient" x1="601.1" y1="724.45" x2="601.1" y2="548.44" gradientUnits="userSpaceOnUse"><stop offset="0" stop-color="#fff" stop-opacity="0.3"/><stop offset="1" stop-opacity="0.3"/></linearGradient><linearGradient id="linear-gradient-2" x1="241.9" y1="314.31" x2="266.36" y2="216.48" xlink:href="#linear-gradient"/></defs><title>Artboard 15</title><g id="Layer_3" data-name="Layer 3"><path class="cls-1" d="M227.37,202.88,5,840.23H233.43L364.34,460.3Z"/><polygon class="cls-1" points="828.72 840.23 566.49 840.23 447.88 617.18 687.63 617.18 828.72 840.23"/><polygon class="cls-2" points="754.32 722.74 504.92 724.45 447.88 617.18 687.63 617.18 754.32 722.74"/><path class="cls-1" d="M986.93,314.77,936.25,462.2q-22.54,63.33-83.72,109.15T692.28,617.19H447.88L381.06,491.52l-.08,0L364.34,460.3H693.49q15.13,0,18.79-12.28L750.7,336.49q4.81-12.25-10.33-12.27L292,324.38,204.43,159.77H849.79q80.41,0,120,45.37T986.93,314.77Z"/><polygon class="cls-3" points="230.62 400.37 191.18 306.62 227.37 202.88 292.02 324.38 230.62 400.37"/></g></svg>