<svg xmlns="http://www.w3.org/2000/svg" viewBox="0 0 550 510"><defs><style>.cls-1{isolation:isolate;}.cls-10,.cls-2,.cls-3,.cls-4,.cls-8,.cls-9{fill:#ff96d8;}.cls-2{opacity:0.2;}.cls-3{opacity:0.4;}.cls-5,.cls-6{fill:none;stroke:#ff96d8;}.cls-5{stroke-linecap:round;stroke-linejoin:round;}.cls-6{stroke-miterlimit:10;stroke-width:2px;}.cls-7{opacity:0.3;}.cls-8{mix-blend-mode:multiply;}.cls-9{opacity:0.9;}.cls-10{opacity:0.5;}.cls-11{fill:#a91f77;}</style></defs><title>Social Media</title><g class="cls-1"><g id="Layer_4" data-name="Layer 4"><g id="Social_Media" data-name="Social Media"><rect class="cls-2" x="96.1" y="76.1" width="357.8" height="357.8" transform="translate(-99.77 269.14) rotate(-45)"/><polygon class="cls-3" points="320.55 175.64 346.6 187.99 281.14 182.43 320.55 175.64"/><path class="cls-4" d="M349.27,188.71l-72-6.11,43.35-7.47ZM285,182.27l58.93,5-23.45-11.12Z"/><polygon class="cls-3" points="296 113.16 317.25 121.48 298.94 121.39 296 113.16"/><path class="cls-4" d="M319.89,122l-21.3-.1-3.42-9.58Zm-20.6-1.09,15.32.08-17.79-7Z"/><polygon class="cls-3" points="217.23 153.96 186.01 163.84 213.65 159.03 217.23 153.96"/><path class="cls-4" d="M186.09,164.33l-.23-1,32.62-10.32-4.55,6.43ZM216,154.88l-22.83,7.22,20.21-3.52Z"/><polygon class="cls-3" points="315.17 94.98 332.39 91.02 306.84 108.55 315.17 94.98"/><path class="cls-4" d="M305.21,110.27l9.65-15.72L334.81,90Zm10.27-14.85-7,11.41L330,92.08Z"/><polygon class="cls-3" points="333.23 199.55 351.26 199.82 318.04 210.45 333.23 199.55"/><path class="cls-4" d="M315.22,211.87l17.85-12.82,21.2.32ZM333.38,200l-12.51,9,27.37-8.75Z"/><polygon class="cls-3" points="368.19 64.19 382.6 69.82 370.19 69.77 368.19 64.19"/><path class="cls-4" d="M385.24,70.33l-15.4-.07-2.47-6.93Zm-14.7-1.06,9.42,0L369,65Z"/><polygon class="cls-2" points="346.79 121.3 328.06 127.22 344.64 124.33 346.79 121.3"/><path class="cls-4" d="M328.14,127.7l-.23-1L348,120.38l-3.12,4.4Zm17.4-5.49-10.34,3.26,9.15-1.59Z"/><polygon class="cls-2" points="290.85 36.73 272.12 42.66 288.7 39.77 290.85 36.73"/><path class="cls-3" d="M272.21,43.14l-.24-1,20.13-6.37L289,40.22Zm17.39-5.5-10.33,3.27,9.14-1.59Z"/><path class="cls-4" d="M374.35,218l7.74-5.12.17,0,28.11,1.73v1Zm8-4.11L378,216.8l24.62-1.63Z"/><polygon class="cls-3" points="418.43 178.45 395.49 172.96 445.27 168.44 418.43 178.45"/><path class="cls-4" d="M418.47,179l-26-6.23,56.43-5.13Zm-20-5.79,19.88,4.76,23.26-8.68Z"/><path class="cls-4" d="M359.84,161.7l-.18-8.75,19.81-7.5Zm.82-8.08.12,6,13.5-11.17Z"/><path class="cls-4" d="M464.17,180.3,428,157.72l14.91.35Zm-32.56-21.51L458,175.31l-15.52-16.26Z"/><path class="cls-4" d="M323.58,177.62l-25-19.07,9.59.83Zm-21.73-17.8L317,171.36l-9.34-11Z"/><path class="cls-4" d="M466.89,210.58l-32-13.92.34-.92L478.4,209Zm-23.52-11.3L467,209.57l6.79-.91Z"/><path class="cls-4" d="M377.49,209.12,352.38,188l12.95-17.32ZM353.72,187.8l21.81,18.38L365,172.77Z"/><polygon class="cls-2" points="413.75 115.68 416.13 102.39 410.9 113.02 413.75 115.68"/><path class="cls-4" d="M414.07,116.66l-3.77-3.53L417.24,99Zm-2.57-3.75,1.92,1.8,1.61-9Z"/><polygon class="cls-3" points="370.43 28.84 361.02 17.23 365.71 27.72 370.43 28.84"/><path class="cls-4" d="M371.72,29.65l-6.36-1.51L359,14Zm-5.66-2.35,3.07.72L363,20.46Z"/><polygon class="cls-3" points="255.01 132.71 265.51 115.77 271.13 151.85 255.01 132.71"/><path class="cls-4" d="M271.89,153.51,254.4,132.75l11.39-18.37Zm-16.27-20.85,14.75,17.52-5.14-33Z"/><polygon class="cls-3" points="489.72 173.63 485.69 183.84 478.12 163.5 489.72 173.63"/><path class="cls-4" d="M485.68,185.21,477,161.86l13.32,11.63Zm-6.42-20.06,6.44,17.31,3.44-8.69Z"/><polygon class="cls-3" points="338.75 159.9 350.94 134.27 357.49 152.89 338.75 159.9"/><path class="cls-4" d="M337.78,160.78,351,133l7.1,20.2Zm13.09-25.22L339.72,159l17.14-6.41Z"/><polygon class="cls-3" points="444.68 226.82 468.83 210.48 445.29 221.32 444.68 226.82"/><path class="cls-4" d="M444.08,227.82l.75-6.83,23.79-11,.49.85Zm1.67-6.17-.46,4.16,18.28-12.37Z"/><polygon class="cls-5" points="271.64 151.91 231.12 136.21 257.75 153.58 271.64 151.91"/><polygon class="cls-5" points="165.68 121.66 160.57 137.83 168.71 125.13 165.68 121.66"/><polygon class="cls-5" points="306.09 106.97 276.38 103.87 299.57 109.52 306.09 106.97"/><polygon class="cls-5" points="384.52 233.39 357.05 225.77 377.3 234.89 384.52 233.39"/><polygon class="cls-5" points="218.84 153.07 182.13 135.87 209.56 153.25 218.84 153.07"/><polygon class="cls-5" points="239.51 89.47 233.89 104.3 255.35 86.71 239.51 89.47"/><polygon class="cls-5" points="363.1 69.14 373.12 77.92 370.28 70.18 363.1 69.14"/><polygon class="cls-5" points="386.16 93.26 361.86 83.84 377.83 94.26 386.16 93.26"/><polygon class="cls-5" points="314.03 68.79 309.88 81.94 316.5 71.61 314.03 68.79"/><polygon class="cls-5" points="410.15 62.37 391.43 68.29 408 65.4 410.15 62.37"/><polygon class="cls-5" points="396.07 140.93 413.1 155.57 404.27 141.95 396.07 140.93"/><polygon class="cls-5" points="464.67 125.11 484.14 120.41 467.27 122.21 464.67 125.11"/><polygon class="cls-5" points="482.33 83.09 493.68 66.58 482.33 79.2 482.33 83.09"/><polygon class="cls-5" points="440.02 226.29 449.09 243.01 444.63 228.2 440.02 226.29"/><polygon class="cls-5" points="409.52 194.43 405.71 204.47 420.25 192.56 409.52 194.43"/><polygon class="cls-3" points="516.03 82.69 526.54 65.75 532.15 101.84 516.03 82.69"/><path class="cls-4" d="M532.91,103.5,515.43,82.74l11.39-18.38ZM516.64,82.65l14.76,17.52-5.15-33Z"/><polygon class="cls-5" points="426.7 71.65 421.6 87.82 429.74 75.12 426.7 71.65"/><polygon class="cls-5" points="454.45 55.02 437.57 53.4 451.7 58.71 454.45 55.02"/><polygon class="cls-5" points="547.01 31.01 517.3 27.91 540.49 33.57 547.01 31.01"/><polygon class="cls-5" points="479.86 103.06 443.15 85.86 470.59 103.24 479.86 103.06"/><polygon class="cls-5" points="500.53 39.46 494.92 54.28 516.38 36.7 500.53 39.46"/><path class="cls-6" d="M425.59,261.1,416,243.44l-9.59-14.13-10.09-11.1-11.11-10.6-13.62-9.08L360,191l-15.64-7.57-22.2-7.57L303,169.76l-18.67-3H219.2l-19.68,5-21.19,5.55-16.65,7.57-16.15,8.59L126.35,206.6l-16.14,13.12L97.59,236.37,87.5,253l-5,14.13-2.52,14.13-1.51,13.12,1.25,14.38,3,18.92,8.58,16.9,6.06,9.84,7.57,10.35L116,376.4l10.85,9.09,11.35,7.57,11.61,7.82,10.09,4.54,6.31,2.28,2,58.78,1.27,2.78h3.27l5.3-3.28,11.61-10.6L205.32,441,219,427.63l4-2.78,2.77-.25h59.55l27.25-4L337.78,411,356,402.4l15.65-8.59,24.22-20.68L410.45,357l9.08-16.65L427.1,323l4-17V284.32ZM204.32,299l-1.77,6.81L198,311.31l-5.3,3.53-.19.05-5.11,1.22h-9.08l-6.56-3.29L166,309.3l-4.28-9.09v-8.07l2.52-8.33L171,277l5.64-1.62,3.19-.9h10.34l6.32,4,4.79,5.3,3,6.81Zm74.17,0-1.76,6.81-4.54,5.55-5.3,3.53-.09,0-5.21,1.24h-9.08L246,312.82l-5.81-3.52-4.28-9.09v-8.07l2.52-8.33,6.81-6.81,5.65-1.62,3.18-.9h10.34l6.32,4,4.79,5.3,3,6.81Zm74.18,0-1.76,6.81-4.54,5.55-5.3,3.53h0l-5.29,1.27h-9.08l-6.56-3.29-5.81-3.52L310,300.21v-8.07l2.52-8.33,6.81-6.81,5.65-1.62,3.18-.9h10.34l6.31,4,4.8,5.3,3,6.81Z"/><g class="cls-7"><path class="cls-8" d="M220.42,423.82c-13.58-3.93-26.36,7.51-35.89,17.95-5.67,6.23-11.42,12.59-16.48,19.35l.19,5.36,1.26,2.78h3.28l5.3-3.28,11.6-10.6L205.33,441,219,427.63l4-2.78.18,0A20.07,20.07,0,0,0,220.42,423.82Z"/><path class="cls-9" d="M425.59,261.1,416,243.44l-9.58-14.13-10.1-11.1-11.1-10.6-13.62-9.08L360,191l-15.64-7.57-22.21-7.57-19.17-6-18.67-3H219.2l-19.68,5-21.19,5.56-16.65,7.56-16.15,8.58L126.35,206.6,110.2,219.72,97.59,236.38,87.5,253l-1.39,3.88c7.08-6.54,15.48-11.8,24.1-16.23,43.85-22.57,94.68-27,144-27.19,22.66-.08,45.62.69,67.39,7s42.46,18.81,54.7,37.88c9.69,15.12,13.47,33.28,15.19,51.15,2.49,26,.4,53.78-11.11,76.78l15.44-13.19L410.45,357l9.09-16.65L427.1,323l4-17v-21.7Z"/></g><path class="cls-10" d="M192.52,314.89a16.39,16.39,0,0,1-2.1,1.41,25.71,25.71,0,0,1-13,2.87c-6.38-.09-12.9-1.72-18-5.58s-8.58-10.09-8.18-16.47c.25-4.2,2.11-8.15,4.32-11.74a24.49,24.49,0,0,1,8.15-7.84c2.17-1,6.41-2.18,13-2.16L171,277l-6.81,6.81-2.52,8.33v8.07L166,309.3l5.81,3.52,6.56,3.29h9.08Z"/><path class="cls-10" d="M266.8,314.87a16.86,16.86,0,0,1-2.13,1.43,25.77,25.77,0,0,1-13,2.87c-6.38-.09-12.9-1.72-18-5.58s-8.58-10.09-8.19-16.47c.27-4.2,2.12-8.15,4.33-11.74a24.59,24.59,0,0,1,8.16-7.84c2.15-1,6.38-2.17,12.89-2.16L245.19,277l-6.81,6.81-2.52,8.33v8.07l4.28,9.09,5.81,3.52,6.56,3.29h9.08Z"/><path class="cls-10" d="M341.06,314.84a15.36,15.36,0,0,1-2.15,1.46,25.72,25.72,0,0,1-13,2.87c-6.38-.09-12.89-1.72-18-5.58s-8.57-10.09-8.18-16.47c.26-4.2,2.11-8.15,4.32-11.74a24.59,24.59,0,0,1,8.16-7.84c2.15-1,6.35-2.16,12.83-2.16L319.37,277l-6.81,6.81L310,292.14v8.07l4.28,9.09,5.81,3.52,6.56,3.29h9.08Z"/><polygon class="cls-5" points="122.57 381.89 245.95 312.82 222.99 424.85 326.69 316.11 375.43 390.54 269.92 312.82 295.93 423.02 326.69 316.11 419.54 340.33 317.54 347.9 341.06 409.43 419.54 340.33 421.55 254.54 352.67 290.62 419.54 340.33 354.5 188.31 341.06 275.38 274.2 166.74 264.36 274.48 354.5 188.31 421.55 254.54 312.3 228.65 316.59 173.3 264.36 274.48 186.4 174.81 190.18 274.48 274.2 166.74 225.43 166.74 264.36 274.48 190.18 274.48 235.86 300.21 227.22 226.99 312.3 228.65 278.5 290.62 310.04 292.14 288.26 228.18 341.06 275.38 421.55 254.54 375.43 390.54 352.67 290.62 431.14 295.29 360.48 324.92 378.47 244.33 393.21 215.24 404.43 305.02 295.93 423.02 310.04 292.14 269.92 312.82 326.69 316.11 166.22 407.69 245.95 312.82 295.93 423.02 234.49 368.73 171.77 312.82 82.7 327.71 164.2 283.81 110.2 219.72 227.22 226.99 225.43 166.74 188.29 224.57 164.2 283.81 153.6 189.19 188.29 224.57 264.36 274.48 341.06 275.38 393.21 215.24 312.3 228.65 225.43 166.74 157.35 222.65 135.14 200.59 82.7 327.71 157.35 222.65 190.18 274.48 288.26 228.18 354.5 188.31 274.2 166.74 378.47 244.33 278.5 290.62 349.19 222.54 377.3 202.33 378.47 244.33 375.43 390.54 403.89 364.04 360.48 324.92 317.54 347.9 360.55 399.88 281.81 363.17 317.54 347.9 245.95 312.82 256.92 389.27 256.92 424.85 317.54 347.9 348.54 308.66 360.48 324.92 341.06 409.43 281.81 363.17 317.97 418.5 317.54 347.9 281.81 363.17 234.49 368.73 256.92 424.85 166.22 407.69 256.92 389.27 122.57 381.89 171.77 312.82 97.34 354.45 157.35 222.65 92.43 244.89 164.2 283.81 171.77 312.82 166.22 407.69 97.34 354.45 245.95 312.82 202.55 305.76 214.18 350.63 281.81 363.17 310.04 292.14 278.5 290.62 317.54 347.9 214.18 350.63 235.86 300.21 188.29 224.57 274.2 166.74 288.26 228.18 225.43 166.74 316.59 173.3 227.22 226.99 153.6 189.19 186.4 174.81 225.43 166.74 190.18 274.48 110.2 219.72 153.6 189.19 79.93 281.29 166.22 407.69 202.55 305.76 214.18 350.63 97.34 354.45 234.49 368.73 222.99 424.85 214.18 350.63 201.09 444.89 166.22 407.69 184.53 460.08 168.05 461.12 201.09 444.89 167.25 437.67 220.42 423.81 207.34 399.86 167.25 437.67 168.05 461.12 207.34 399.86 256.92 424.85 256.92 389.27 341.06 409.43 295.93 423.02 274.2 423.02 256.92 389.27 269.92 312.82 214.18 350.63 202.55 305.76 232.93 275.38 288.26 228.18 186.4 174.81 157.35 222.65 110.2 219.72 123.79 296.35 166.22 407.69 171.77 312.82 123.79 296.35 164.2 283.81 127.89 264.12 176.67 253.15 173.45 209.43 188.29 224.57 227.22 226.99 304.33 275.38 312.3 228.65 404.43 305.02 352.67 290.62 378.47 244.33 410.96 234.86 404.43 305.02 429.39 277 378.47 244.33 404.43 305.02 428.75 316.11 419.54 340.33 403.89 364.04 404.43 305.02 375.43 390.54 354.78 359.02 281.81 363.17 354.78 359.02 403.89 364.04 354.78 359.02 348.54 308.66 317.54 347.9 281.81 363.17 234.49 368.73 214.18 350.63 123.79 296.35 176.67 253.15 232.93 275.38 214.18 350.63 218.1 290.21 203.1 307.89 182.05 363.27 171.77 312.82 123.79 296.35 122.57 381.89 82.7 327.71 92.43 244.89 123.79 296.35 79.93 281.29 127.89 264.12 123.79 296.35 82.7 327.71 182.05 363.27 207.34 399.86 122.57 381.89 122.57 381.89"/><path class="cls-4" d="M234.32,275.59a2,2,0,1,1-2-1.95A2,2,0,0,1,234.32,275.59Z"/><path class="cls-4" d="M229.27,228.16a2,2,0,1,1-2-2A2,2,0,0,1,229.27,228.16Z"/><path class="cls-4" d="M226.75,169.62a2,2,0,1,1-2-2A2,2,0,0,1,226.75,169.62Z"/><path class="cls-4" d="M276.2,168.11a2,2,0,1,1-2-2A2,2,0,0,1,276.2,168.11Z"/><path class="cls-4" d="M289.32,228.66a2,2,0,1,1-2-1.95A2,2,0,0,1,289.32,228.66Z"/><path class="cls-4" d="M269.64,229.17a2,2,0,1,1-2-2A2,2,0,0,1,269.64,229.17Z"/><path class="cls-4" d="M272.16,212.52a2,2,0,1,1-2-2A1.95,1.95,0,0,1,272.16,212.52Z"/><path class="cls-4" d="M273.68,199.9a2,2,0,1,1-2-2A2,2,0,0,1,273.68,199.9Z"/><path class="cls-4" d="M269.13,238.76a2,2,0,1,1-1.95-2A1.95,1.95,0,0,1,269.13,238.76Z"/><path class="cls-4" d="M267.62,253.89a2,2,0,1,1-2-1.95A2,2,0,0,1,267.62,253.89Z"/><path class="cls-4" d="M265.6,275.09a2,2,0,1,1-2-2A1.95,1.95,0,0,1,265.6,275.09Z"/><path class="cls-4" d="M258.79,255.91a2,2,0,1,1-2-1.95A2,2,0,0,1,258.79,255.91Z"/><path class="cls-4" d="M255,245.32a2,2,0,1,1-1.95-2A1.95,1.95,0,0,1,255,245.32Z"/><path class="cls-4" d="M245.42,218.07a2,2,0,1,1-2-2A2,2,0,0,1,245.42,218.07Z"/><path class="cls-4" d="M256.77,211.76a2,2,0,1,1-1.95-2A1.95,1.95,0,0,1,256.77,211.76Z"/><path class="cls-4" d="M255,195.11a2,2,0,1,1-1.95-2A1.95,1.95,0,0,1,255,195.11Z"/><path class="cls-4" d="M246.68,206.46a2,2,0,1,1-2-2A2,2,0,0,1,246.68,206.46Z"/><path class="cls-4" d="M239.61,202.93a2,2,0,1,1-2-2A1.95,1.95,0,0,1,239.61,202.93Z"/><circle class="cls-4" cx="235.14" cy="194.1" r="1.96"/><path class="cls-4" d="M251,185.27a2,2,0,1,1-2-2A2,2,0,0,1,251,185.27Z"/><path class="cls-4" d="M259.29,190.06a2,2,0,1,1-2-1.95A2,2,0,0,1,259.29,190.06Z"/><path class="cls-4" d="M249,228.16a2,2,0,1,1-2-2A2,2,0,0,1,249,228.16Z"/><path class="cls-4" d="M271.66,219.33a2,2,0,1,1-2-2A2,2,0,0,1,271.66,219.33Z"/><path class="cls-4" d="M286,208.73a2,2,0,1,1-2-1.95A2,2,0,0,1,286,208.73Z"/><circle class="cls-4" cx="280.55" cy="195.61" r="1.96"/><path class="cls-4" d="M290.58,191.32a2,2,0,1,1-2-1.95A2,2,0,0,1,290.58,191.32Z"/><path class="cls-4" d="M299.16,186.28a2,2,0,1,1-2-2A2,2,0,0,1,299.16,186.28Z"/><path class="cls-4" d="M318.08,174.67a2,2,0,1,1-1.95-2A2,2,0,0,1,318.08,174.67Z"/><path class="cls-4" d="M316.57,198.13a2,2,0,1,1-2-1.95A2,2,0,0,1,316.57,198.13Z"/><path class="cls-4" d="M309.5,192.08a2,2,0,1,1-1.95-2A1.95,1.95,0,0,1,309.5,192.08Z"/><path class="cls-4" d="M300.67,208a2,2,0,1,1-1.95-1.95A2,2,0,0,1,300.67,208Z"/><path class="cls-4" d="M296.38,217.06a2,2,0,1,1-1.95-2A1.95,1.95,0,0,1,296.38,217.06Z"/><path class="cls-4" d="M302.19,221.85a2,2,0,1,1-2-1.95A2,2,0,0,1,302.19,221.85Z"/><path class="cls-4" d="M306.22,218.57a2,2,0,1,1-2-1.95A2,2,0,0,1,306.22,218.57Z"/><path class="cls-4" d="M314.8,215a2,2,0,1,1-1.95-2A1.95,1.95,0,0,1,314.8,215Z"/><path class="cls-4" d="M281,261a2,2,0,1,1-1.95-2A1.95,1.95,0,0,1,281,261Z"/><path class="cls-4" d="M277,257.68a2,2,0,1,1-2-2A2,2,0,0,1,277,257.68Z"/><path class="cls-4" d="M268.63,246.83a2,2,0,1,1-2-2A2,2,0,0,1,268.63,246.83Z"/><path class="cls-4" d="M245.92,249.61a2,2,0,1,1-1.95-2A1.95,1.95,0,0,1,245.92,249.61Z"/><path class="cls-4" d="M254.25,260a2,2,0,1,1-2-2A2,2,0,0,1,254.25,260Z"/><path class="cls-4" d="M249.45,263.73a2,2,0,1,1-1.95-2A2,2,0,0,1,249.45,263.73Z"/><path class="cls-4" d="M235.83,254.9a2,2,0,1,1-2-2A2,2,0,0,1,235.83,254.9Z"/><path class="cls-4" d="M231.29,252.63a2,2,0,1,1-2-1.95A2,2,0,0,1,231.29,252.63Z"/><circle class="cls-4" cx="215.46" cy="243.3" r="1.96"/><path class="cls-4" d="M213.37,209.74a2,2,0,1,1-2-2A2,2,0,0,1,213.37,209.74Z"/><path class="cls-4" d="M219.43,192.84a2,2,0,1,1-2-2A2,2,0,0,1,219.43,192.84Z"/><path class="cls-4" d="M213.12,188.8a2,2,0,1,1-2-2A1.95,1.95,0,0,1,213.12,188.8Z"/><path class="cls-4" d="M206.31,184.26a2,2,0,1,1-2-2A2,2,0,0,1,206.31,184.26Z"/><circle class="cls-4" cx="185.94" cy="175.17" r="1.96"/><path class="cls-4" d="M172.75,199.9a2,2,0,1,1-1.95-2A2,2,0,0,1,172.75,199.9Z"/><path class="cls-4" d="M183.1,203.94a2,2,0,1,1-2-2A2,2,0,0,1,183.1,203.94Z"/><path class="cls-4" d="M188.65,207.47a2,2,0,1,1-2-2A2,2,0,0,1,188.65,207.47Z"/><path class="cls-4" d="M190.41,225.64a2,2,0,1,1-1.95-2A1.95,1.95,0,0,1,190.41,225.64Z"/><path class="cls-4" d="M204.8,235.48a2,2,0,1,1-2-2A2,2,0,0,1,204.8,235.48Z"/><path class="cls-4" d="M207.82,227.15a2,2,0,1,1-1.95-2A2,2,0,0,1,207.82,227.15Z"/><path class="cls-4" d="M210.35,218.82a2,2,0,1,1-2-1.95A2,2,0,0,1,210.35,218.82Z"/><path class="cls-4" d="M205.05,216.05a2,2,0,1,1-2-2A2,2,0,0,1,205.05,216.05Z"/><path class="cls-4" d="M198.74,212.77a2,2,0,1,1-2-2A2,2,0,0,1,198.74,212.77Z"/><path class="cls-4" d="M207.07,199.4a2,2,0,1,1-2-2A2,2,0,0,1,207.07,199.4Z"/><path class="cls-4" d="M200.25,190.06a2,2,0,1,1-1.95-1.95A2,2,0,0,1,200.25,190.06Z"/><path class="cls-4" d="M189.66,199.4a2,2,0,1,1-2-2A2,2,0,0,1,189.66,199.4Z"/><path class="cls-4" d="M228,199.65a2,2,0,1,1-2-2A2,2,0,0,1,228,199.65Z"/><path class="cls-4" d="M266.11,206a2,2,0,1,1-2-2A2,2,0,0,1,266.11,206Z"/><path class="cls-4" d="M208.08,254.9a2,2,0,1,1-2-2A2,2,0,0,1,208.08,254.9Z"/><path class="cls-4" d="M192.94,275.09a2,2,0,1,1-2-2A2,2,0,0,1,192.94,275.09Z"/><path class="cls-4" d="M196.72,262.22a2,2,0,1,1-1.95-2A2,2,0,0,1,196.72,262.22Z"/><path class="cls-4" d="M209.84,267a2,2,0,1,1-2-1.95A2,2,0,0,1,209.84,267Z"/><path class="cls-4" d="M214.89,264.74a2,2,0,1,1-2-1.95A2,2,0,0,1,214.89,264.74Z"/><path class="cls-4" d="M222.71,275.59a2,2,0,1,1-2-1.95A2,2,0,0,1,222.71,275.59Z"/><path class="cls-4" d="M226.49,283.92a2,2,0,1,1-2-2A1.95,1.95,0,0,1,226.49,283.92Z"/><circle class="cls-4" cx="229.84" cy="290.23" r="1.96"/><path class="cls-4" d="M237.85,301.08a2,2,0,1,1-2-2A2,2,0,0,1,237.85,301.08Z"/><path class="cls-4" d="M281.75,291.24a2,2,0,1,1-2-2A2,2,0,0,1,281.75,291.24Z"/><path class="cls-4" d="M289.82,276.35a2,2,0,1,1-1.95-2A2,2,0,0,1,289.82,276.35Z"/><path class="cls-4" d="M293.1,268.78a2,2,0,1,1-2-1.95A2,2,0,0,1,293.1,268.78Z"/><path class="cls-4" d="M305.47,276.1a2,2,0,1,1-2-2A2,2,0,0,1,305.47,276.1Z"/><path class="cls-4" d="M303.2,268.53a2,2,0,1,1-2-2A2,2,0,0,1,303.2,268.53Z"/><path class="cls-4" d="M299.66,257.93a2,2,0,1,1-2-2A2,2,0,0,1,299.66,257.93Z"/><path class="cls-4" d="M294.87,247.08a2,2,0,1,1-2-2A2,2,0,0,1,294.87,247.08Z"/><path class="cls-4" d="M302.19,241.28a2,2,0,1,1-2-2A2,2,0,0,1,302.19,241.28Z"/><path class="cls-4" d="M310.51,247.33a2,2,0,1,1-1.95-2A2,2,0,0,1,310.51,247.33Z"/><path class="cls-4" d="M317.58,255.41a2,2,0,1,1-2-2A2,2,0,0,1,317.58,255.41Z"/><path class="cls-4" d="M325.15,247.84a2,2,0,1,1-2-2A2,2,0,0,1,325.15,247.84Z"/><path class="cls-4" d="M331.2,243.3a2,2,0,1,1-1.95-2A1.95,1.95,0,0,1,331.2,243.3Z"/><path class="cls-4" d="M339,235.48a2,2,0,1,1-1.95-2A1.95,1.95,0,0,1,339,235.48Z"/><path class="cls-4" d="M313.79,228.92a2,2,0,1,1-2-2A1.95,1.95,0,0,1,313.79,228.92Z"/><path class="cls-4" d="M334.23,210.75a2,2,0,1,1-2-2A2,2,0,0,1,334.23,210.75Z"/><path class="cls-4" d="M327.42,206.71a2,2,0,1,1-2-2A2,2,0,0,1,327.42,206.71Z"/><circle class="cls-4" cx="353.97" cy="188.8" r="1.96"/><path class="cls-4" d="M350.63,223.11a2,2,0,1,1-2-2A2,2,0,0,1,350.63,223.11Z"/><path class="cls-4" d="M349.12,238.5a2,2,0,1,1-2-1.95A2,2,0,0,1,349.12,238.5Z"/><path class="cls-4" d="M345.33,255.66a2,2,0,1,1-1.95-1.95A2,2,0,0,1,345.33,255.66Z"/><circle class="cls-4" cx="334.29" cy="266.01" r="1.96"/><path class="cls-4" d="M342.81,275.85a2,2,0,1,1-2-2A2,2,0,0,1,342.81,275.85Z"/><path class="cls-4" d="M314.3,275.59a2,2,0,1,1-2-1.95A2,2,0,0,1,314.3,275.59Z"/><path class="cls-4" d="M312,292a2,2,0,1,1-2-1.95A2,2,0,0,1,312,292Z"/><path class="cls-4" d="M289.32,305.11a2,2,0,1,1-2-1.95A2,2,0,0,1,289.32,305.11Z"/><path class="cls-4" d="M273.42,313.94a2,2,0,1,1-1.95-1.95A2,2,0,0,1,273.42,313.94Z"/><path class="cls-4" d="M295.63,315.71a2,2,0,1,1-2-1.95A2,2,0,0,1,295.63,315.71Z"/><path class="cls-4" d="M309.5,316a2,2,0,1,1-1.95-1.95A2,2,0,0,1,309.5,316Z"/><circle class="cls-4" cx="326.72" cy="317.48" r="1.96"/><path class="cls-4" d="M311,335.64a2,2,0,1,1-2-1.95A2,2,0,0,1,311,335.64Z"/><path class="cls-4" d="M307.48,329.84a2,2,0,1,1-2-2A2,2,0,0,1,307.48,329.84Z"/><path class="cls-4" d="M298.91,333.88a2,2,0,1,1-2-2A2,2,0,0,1,298.91,333.88Z"/><path class="cls-4" d="M294.11,336.9a2,2,0,1,1-1.95-1.95A2,2,0,0,1,294.11,336.9Z"/><circle class="cls-4" cx="272.98" cy="326.56" r="1.96"/><path class="cls-4" d="M270.4,324.79a2,2,0,1,1-2-2A2,2,0,0,1,270.4,324.79Z"/><path class="cls-4" d="M248.19,314.7a2,2,0,1,1-1.95-1.95A2,2,0,0,1,248.19,314.7Z"/><path class="cls-4" d="M229.52,297.29a2,2,0,1,1-2-2A2,2,0,0,1,229.52,297.29Z"/><path class="cls-4" d="M219.93,292a2,2,0,1,1-2-1.95A2,2,0,0,1,219.93,292Z"/><path class="cls-4" d="M216.91,350.78a2,2,0,1,1-2-1.95A2,2,0,0,1,216.91,350.78Z"/><circle class="cls-4" cx="234.38" cy="370.46" r="1.96"/><path class="cls-4" d="M259.29,390.14a2,2,0,1,1-2-1.95A2,2,0,0,1,259.29,390.14Z"/><path class="cls-4" d="M284.27,364.41a2,2,0,1,1-1.95-2A1.95,1.95,0,0,1,284.27,364.41Z"/><path class="cls-4" d="M280.49,351.29a2,2,0,1,1-2-2A2,2,0,0,1,280.49,351.29Z"/><path class="cls-4" d="M297.14,349.27a2,2,0,1,1-2-2A2,2,0,0,1,297.14,349.27Z"/><path class="cls-4" d="M288.81,349.52a2,2,0,1,1-1.95-2A2,2,0,0,1,288.81,349.52Z"/><path class="cls-4" d="M305.47,354.06a2,2,0,1,1-2-1.95A2,2,0,0,1,305.47,354.06Z"/><path class="cls-4" d="M306.48,344.22a2,2,0,1,1-2-2A2,2,0,0,1,306.48,344.22Z"/><path class="cls-4" d="M342.05,337.16a2,2,0,1,1-1.95-2A1.95,1.95,0,0,1,342.05,337.16Z"/><path class="cls-4" d="M336.5,329.34a2,2,0,1,1-2-2A2,2,0,0,1,336.5,329.34Z"/><path class="cls-4" d="M342.05,321a2,2,0,1,1-1.95-2A1.95,1.95,0,0,1,342.05,321Z"/><path class="cls-4" d="M350.12,310.16a2,2,0,1,1-1.95-2A2,2,0,0,1,350.12,310.16Z"/><path class="cls-4" d="M362.24,325.3a2,2,0,1,1-2-2A2,2,0,0,1,362.24,325.3Z"/><path class="cls-4" d="M351.89,323.28a2,2,0,1,1-1.95-2A2,2,0,0,1,351.89,323.28Z"/><path class="cls-4" d="M352.9,330.6a2,2,0,1,1-2-2A2,2,0,0,1,352.9,330.6Z"/><path class="cls-4" d="M356.43,359.36a2,2,0,1,1-1.95-2A2,2,0,0,1,356.43,359.36Z"/><path class="cls-4" d="M336.5,360.62a2,2,0,1,1-2-1.95A2,2,0,0,1,336.5,360.62Z"/><circle class="cls-4" cx="322.94" cy="361.38" r="1.96"/><path class="cls-4" d="M315.31,362.64a2,2,0,1,1-2-2A2,2,0,0,1,315.31,362.64Z"/><path class="cls-4" d="M304.46,363.14a2,2,0,1,1-2-1.95A2,2,0,0,1,304.46,363.14Z"/><path class="cls-4" d="M301.43,372.48a2,2,0,1,1-2-2A2,2,0,0,1,301.43,372.48Z"/><circle class="cls-4" cx="292.66" cy="380.3" r="1.96"/><path class="cls-4" d="M300.92,391.15A2,2,0,1,1,299,389.2,2,2,0,0,1,300.92,391.15Z"/><path class="cls-4" d="M309,384.34a2,2,0,1,1-2-2A2,2,0,0,1,309,384.34Z"/><path class="cls-4" d="M311.52,377a2,2,0,1,1-1.95-1.95A2,2,0,0,1,311.52,377Z"/><path class="cls-4" d="M318.84,380.55a2,2,0,1,1-2-1.95A2,2,0,0,1,318.84,380.55Z"/><path class="cls-4" d="M320.1,391.4a2,2,0,1,1-2-1.95A2,2,0,0,1,320.1,391.4Z"/><path class="cls-4" d="M319.85,404a2,2,0,1,1-2-2A2,2,0,0,1,319.85,404Z"/><path class="cls-4" d="M331.71,387.37a2,2,0,1,1-2-2A2,2,0,0,1,331.71,387.37Z"/><path class="cls-4" d="M342.05,376a2,2,0,1,1-1.95-1.95A2,2,0,0,1,342.05,376Z"/><path class="cls-4" d="M348.11,370a2,2,0,1,1-2-2A2,2,0,0,1,348.11,370Z"/><path class="cls-4" d="M348.11,384.84a2,2,0,1,1-2-1.95A2,2,0,0,1,348.11,384.84Z"/><path class="cls-4" d="M362.49,400.23a2,2,0,1,1-2-2A2,2,0,0,1,362.49,400.23Z"/><path class="cls-4" d="M376.87,391.4a2,2,0,1,1-2-1.95A2,2,0,0,1,376.87,391.4Z"/><path class="cls-4" d="M371.07,386.1a2,2,0,1,1-2-2A2,2,0,0,1,371.07,386.1Z"/><path class="cls-4" d="M374.35,382.57a2,2,0,1,1-2-1.95A2,2,0,0,1,374.35,382.57Z"/><path class="cls-4" d="M383.43,375.51a2,2,0,1,1-2-2A2,2,0,0,1,383.43,375.51Z"/><path class="cls-4" d="M377.63,362.64a2,2,0,1,1-2-2A2,2,0,0,1,377.63,362.64Z"/><circle class="cls-4" cx="365.33" cy="347" r="1.96"/><path class="cls-4" d="M378.13,337.91a2,2,0,1,1-1.95-2A2,2,0,0,1,378.13,337.91Z"/><path class="cls-4" d="M354.67,346.24a2,2,0,1,1-2-2A2,2,0,0,1,354.67,346.24Z"/><path class="cls-4" d="M348.36,346.74a2,2,0,1,1-2-1.95A2,2,0,0,1,348.36,346.74Z"/><path class="cls-4" d="M319.6,348a2,2,0,1,1-2-2A2,2,0,0,1,319.6,348Z"/><path class="cls-4" d="M319.6,419.16a2,2,0,1,1-2-2A2,2,0,0,1,319.6,419.16Z"/><path class="cls-4" d="M343.06,410.33a2,2,0,1,1-2-2A2,2,0,0,1,343.06,410.33Z"/><path class="cls-4" d="M347.35,393.67a2,2,0,1,1-2-1.95A2,2,0,0,1,347.35,393.67Z"/><path class="cls-4" d="M312.78,407.8a2,2,0,1,1-1.95-1.95A2,2,0,0,1,312.78,407.8Z"/><path class="cls-4" d="M305.47,398a2,2,0,1,1-2-1.95A2,2,0,0,1,305.47,398Z"/><path class="cls-4" d="M292.09,398.72a2,2,0,1,1-1.95-2A2,2,0,0,1,292.09,398.72Z"/><path class="cls-4" d="M289.07,387.62a2,2,0,1,1-2-2A2,2,0,0,1,289.07,387.62Z"/><path class="cls-4" d="M283.77,394.43a2,2,0,1,1-2-1.95A2,2,0,0,1,283.77,394.43Z"/><path class="cls-4" d="M274.68,404.52a2,2,0,1,1-1.95-1.95A2,2,0,0,1,274.68,404.52Z"/><circle class="cls-4" cx="268.44" cy="411.34" r="1.96"/><circle class="cls-4" cx="257.84" cy="424.2" r="1.96"/><path class="cls-4" d="M276.2,425a2,2,0,1,1-2-2A2,2,0,0,1,276.2,425Z"/><path class="cls-4" d="M274.68,374.25a2,2,0,1,1-1.95-2A1.95,1.95,0,0,1,274.68,374.25Z"/><path class="cls-4" d="M271.91,367.18a2,2,0,1,1-2-1.95A2,2,0,0,1,271.91,367.18Z"/><path class="cls-4" d="M265.6,354.06a2,2,0,1,1-2-1.95A2,2,0,0,1,265.6,354.06Z"/><path class="cls-4" d="M252.73,350.28a2,2,0,1,1-1.95-2A1.95,1.95,0,0,1,252.73,350.28Z"/><path class="cls-4" d="M254,359.36a2,2,0,1,1-2-2A2,2,0,0,1,254,359.36Z"/><path class="cls-4" d="M255.76,367.43a2,2,0,1,1-1.95-1.95A2,2,0,0,1,255.76,367.43Z"/><path class="cls-4" d="M262.57,366.17a2,2,0,1,1-1.95-1.95A2,2,0,0,1,262.57,366.17Z"/><path class="cls-4" d="M243.65,388.88a2,2,0,1,1-2-2A2,2,0,0,1,243.65,388.88Z"/><path class="cls-4" d="M248.7,400.49a2,2,0,1,1-2-2A2,2,0,0,1,248.7,400.49Z"/><path class="cls-4" d="M221.45,397.71a2,2,0,1,1-2-1.95A2,2,0,0,1,221.45,397.71Z"/><path class="cls-4" d="M230.78,396.45a2,2,0,1,1-1.95-2A1.95,1.95,0,0,1,230.78,396.45Z"/><path class="cls-4" d="M227.76,409.82a2,2,0,1,1-2-1.95A2,2,0,0,1,227.76,409.82Z"/><path class="cls-4" d="M222.46,407.05a2,2,0,1,1-2-2A2,2,0,0,1,222.46,407.05Z"/><path class="cls-4" d="M235.32,413.61a2,2,0,1,1-1.95-2A1.95,1.95,0,0,1,235.32,413.61Z"/><path class="cls-4" d="M225,425.21a2,2,0,1,1-2-1.95A2,2,0,0,1,225,425.21Z"/><path class="cls-4" d="M203,445.14a2,2,0,1,1-2-1.95A2,2,0,0,1,203,445.14Z"/><path class="cls-4" d="M169.47,438.58a2,2,0,1,1-1.95-1.95A2,2,0,0,1,169.47,438.58Z"/><path class="cls-4" d="M170.23,460.79a2,2,0,1,1-2-2A2,2,0,0,1,170.23,460.79Z"/><circle class="cls-4" cx="184.42" cy="460.54" r="1.96"/><path class="cls-4" d="M189.91,432.53a2,2,0,1,1-2-2A2,2,0,0,1,189.91,432.53Z"/><circle class="cls-4" cx="207.13" cy="400.74" r="1.96"/><path class="cls-4" d="M169.22,408.31a2,2,0,1,1-2-2A2,2,0,0,1,169.22,408.31Z"/><path class="cls-4" d="M175.78,431.52a2,2,0,1,1-2-2A2,2,0,0,1,175.78,431.52Z"/><path class="cls-4" d="M183.1,425.21a2,2,0,1,1-2-1.95A2,2,0,0,1,183.1,425.21Z"/><path class="cls-4" d="M180.57,444.89a2,2,0,1,1-1.95-1.95A2,2,0,0,1,180.57,444.89Z"/><path class="cls-4" d="M204.8,429.5a2,2,0,1,1-2-1.95A2,2,0,0,1,204.8,429.5Z"/><path class="cls-4" d="M207.82,416.13a2,2,0,1,1-1.95-2A1.95,1.95,0,0,1,207.82,416.13Z"/><path class="cls-4" d="M195.46,414.11a2,2,0,1,1-2-1.95A2,2,0,0,1,195.46,414.11Z"/><path class="cls-4" d="M201,390.14a2,2,0,1,1-1.95-1.95A2,2,0,0,1,201,390.14Z"/><path class="cls-4" d="M194,378.54a2,2,0,1,1-2-2A2,2,0,0,1,194,378.54Z"/><path class="cls-4" d="M183.85,364.41a2,2,0,1,1-1.95-2A1.95,1.95,0,0,1,183.85,364.41Z"/><path class="cls-4" d="M177,385.6a2,2,0,1,1-1.95-2A2,2,0,0,1,177,385.6Z"/><path class="cls-4" d="M185.87,387.37a2,2,0,1,1-2-2A1.95,1.95,0,0,1,185.87,387.37Z"/><path class="cls-4" d="M180.32,395.19a2,2,0,1,1-1.95-2A1.95,1.95,0,0,1,180.32,395.19Z"/><path class="cls-4" d="M189.66,396.45a2,2,0,1,1-2-2A2,2,0,0,1,189.66,396.45Z"/><path class="cls-4" d="M211.1,387.11a2,2,0,1,1-1.95-1.95A2,2,0,0,1,211.1,387.11Z"/><path class="cls-4" d="M218.92,379.8a2,2,0,1,1-1.95-2A1.95,1.95,0,0,1,218.92,379.8Z"/><path class="cls-4" d="M214.13,368.19a2,2,0,1,1-1.95-1.95A2,2,0,0,1,214.13,368.19Z"/><path class="cls-4" d="M204,366.42a2,2,0,1,1-2-1.95A2,2,0,0,1,204,366.42Z"/><path class="cls-4" d="M239.61,355.07a2,2,0,1,1-2-1.95A2,2,0,0,1,239.61,355.07Z"/><path class="cls-4" d="M240.12,351a2,2,0,1,1-2-1.95A2,2,0,0,1,240.12,351Z"/><path class="cls-4" d="M243.9,332.87a2,2,0,1,1-2-2A1.95,1.95,0,0,1,243.9,332.87Z"/><path class="cls-4" d="M252.48,326.81a2,2,0,1,1-1.95-1.95A2,2,0,0,1,252.48,326.81Z"/><path class="cls-4" d="M261.56,321a2,2,0,1,1-1.95-2A1.95,1.95,0,0,1,261.56,321Z"/><path class="cls-4" d="M233.05,310.92a2,2,0,1,1-2-2A1.95,1.95,0,0,1,233.05,310.92Z"/><path class="cls-4" d="M218.92,308.9a2,2,0,1,1-1.95-2A1.95,1.95,0,0,1,218.92,308.9Z"/><circle class="cls-4" cx="221.51" cy="320.5" r="1.96"/><path class="cls-4" d="M217.66,330.34a2,2,0,1,1-1.95-1.95A2,2,0,0,1,217.66,330.34Z"/><path class="cls-4" d="M228.26,324.54a2,2,0,1,1-2-2A2,2,0,0,1,228.26,324.54Z"/><path class="cls-4" d="M208.83,325.05a2,2,0,1,1-2-2A1.95,1.95,0,0,1,208.83,325.05Z"/><path class="cls-4" d="M205.05,307.64a2,2,0,1,1-2-2A2,2,0,0,1,205.05,307.64Z"/><path class="cls-4" d="M181.08,351.29a2,2,0,1,1-2-2A2,2,0,0,1,181.08,351.29Z"/><path class="cls-4" d="M171.24,353.56a2,2,0,1,1-2-2A2,2,0,0,1,171.24,353.56Z"/><path class="cls-4" d="M172.5,335.9a2,2,0,1,1-2-2A2,2,0,0,1,172.5,335.9Z"/><path class="cls-4" d="M176.79,332.87a2,2,0,1,1-2-2A2,2,0,0,1,176.79,332.87Z"/><path class="cls-4" d="M173.51,314.7a2,2,0,1,1-2-1.95A2,2,0,0,1,173.51,314.7Z"/><path class="cls-4" d="M157.61,317a2,2,0,1,1-2-2A2,2,0,0,1,157.61,317Z"/><path class="cls-4" d="M167.2,322.52a2,2,0,1,1-1.95-1.95A2,2,0,0,1,167.2,322.52Z"/><path class="cls-4" d="M126.33,297a2,2,0,1,1-2-2A2,2,0,0,1,126.33,297Z"/><path class="cls-4" d="M86.21,328.33a2,2,0,1,1-2-2A2,2,0,0,1,86.21,328.33Z"/><path class="cls-4" d="M100.34,354.82a2,2,0,1,1-2-2A2,2,0,0,1,100.34,354.82Z"/><path class="cls-4" d="M124.81,382.57a2,2,0,1,1-2-1.95A2,2,0,0,1,124.81,382.57Z"/><circle class="cls-4" cx="123.11" cy="359.11" r="1.96"/><path class="cls-4" d="M124.56,343.21a2,2,0,1,1-2-1.95A2,2,0,0,1,124.56,343.21Z"/><circle class="cls-4" cx="136.73" cy="333.37" r="1.96"/><path class="cls-4" d="M133.64,320.5a2,2,0,1,1-1.95-1.95A2,2,0,0,1,133.64,320.5Z"/><path class="cls-4" d="M124.81,321.51a2,2,0,1,1-2-1.95A2,2,0,0,1,124.81,321.51Z"/><path class="cls-4" d="M112.2,327.06a2,2,0,1,1-2-1.95A2,2,0,0,1,112.2,327.06Z"/><path class="cls-4" d="M119,311.17a2,2,0,1,1-2-2A2,2,0,0,1,119,311.17Z"/><path class="cls-4" d="M128.85,305.62a2,2,0,1,1-2-2A2,2,0,0,1,128.85,305.62Z"/><path class="cls-4" d="M135.91,301.08a2,2,0,1,1-1.95-2A1.95,1.95,0,0,1,135.91,301.08Z"/><path class="cls-4" d="M105.39,317.22a2,2,0,1,1-2-2A2,2,0,0,1,105.39,317.22Z"/><path class="cls-4" d="M99.33,308.65a2,2,0,1,1-2-2A2,2,0,0,1,99.33,308.65Z"/><path class="cls-4" d="M88,293.51a2,2,0,1,1-2-2A2,2,0,0,1,88,293.51Z"/><circle class="cls-4" cx="80.72" cy="282.66" r="1.96"/><path class="cls-4" d="M100.59,289a2,2,0,1,1-2-2A1.95,1.95,0,0,1,100.59,289Z"/><path class="cls-4" d="M110.43,292a2,2,0,1,1-2-1.95A2,2,0,0,1,110.43,292Z"/><path class="cls-4" d="M116.49,284.42a2,2,0,1,1-2-1.95A2,2,0,0,1,116.49,284.42Z"/><path class="cls-4" d="M129.1,266.26a2,2,0,1,1-1.95-2A1.95,1.95,0,0,1,129.1,266.26Z"/><path class="cls-4" d="M120,268a2,2,0,1,1-2-1.95A2,2,0,0,1,120,268Z"/><path class="cls-4" d="M108.67,270.55a2,2,0,1,1-2-2A2,2,0,0,1,108.67,270.55Z"/><path class="cls-4" d="M89.74,278.37a2,2,0,1,1-1.95-2A1.95,1.95,0,0,1,89.74,278.37Z"/><path class="cls-4" d="M91.51,270.55a2,2,0,1,1-2-2A2,2,0,0,1,91.51,270.55Z"/><path class="cls-4" d="M94.79,246.58a2,2,0,1,1-2-2A2,2,0,0,1,94.79,246.58Z"/><path class="cls-4" d="M100.59,257.43a2,2,0,1,1-2-2A1.95,1.95,0,0,1,100.59,257.43Z"/><path class="cls-4" d="M105.13,252.89a2,2,0,1,1-1.95-2A1.95,1.95,0,0,1,105.13,252.89Z"/><path class="cls-4" d="M114,256.92a2,2,0,1,1-1.95-2A2,2,0,0,1,114,256.92Z"/><path class="cls-4" d="M118.76,259.45a2,2,0,1,1-2-2A2,2,0,0,1,118.76,259.45Z"/><path class="cls-4" d="M115.48,239.26a2,2,0,1,1-2-1.95A2,2,0,0,1,115.48,239.26Z"/><path class="cls-4" d="M112.2,221.6a2,2,0,1,1-2-2A2,2,0,0,1,112.2,221.6Z"/><path class="cls-4" d="M129.35,222.61a2,2,0,1,1-1.95-2A1.95,1.95,0,0,1,129.35,222.61Z"/><path class="cls-4" d="M122.79,233.71a2,2,0,1,1-2-2A2,2,0,0,1,122.79,233.71Z"/><circle class="cls-4" cx="128.41" cy="234.21" r="1.96"/><path class="cls-4" d="M158.87,224.37a2,2,0,1,1-2-2A2,2,0,0,1,158.87,224.37Z"/><path class="cls-4" d="M148.53,245.82a2,2,0,1,1-2-1.95A2,2,0,0,1,148.53,245.82Z"/><path class="cls-4" d="M137.93,252.13a2,2,0,1,1-2-2A1.95,1.95,0,0,1,137.93,252.13Z"/><path class="cls-4" d="M143.74,258.18a2,2,0,1,1-2-1.95A2,2,0,0,1,143.74,258.18Z"/><path class="cls-4" d="M138.44,269.79a2,2,0,1,1-2-2A2,2,0,0,1,138.44,269.79Z"/><path class="cls-4" d="M155.59,272.57a2,2,0,1,1-2-2A1.95,1.95,0,0,1,155.59,272.57Z"/><path class="cls-4" d="M149.79,276.6a2,2,0,1,1-1.95-2A2,2,0,0,1,149.79,276.6Z"/><path class="cls-4" d="M163.42,257.68a2,2,0,1,1-2-2A2,2,0,0,1,163.42,257.68Z"/><path class="cls-4" d="M178.56,254.65a2,2,0,1,1-2-2A2,2,0,0,1,178.56,254.65Z"/><path class="cls-4" d="M174.77,263.48a2,2,0,1,1-2-2A2,2,0,0,1,174.77,263.48Z"/><path class="cls-4" d="M165.44,284.68a2,2,0,1,1-2-2A2,2,0,0,1,165.44,284.68Z"/><circle class="cls-4" cx="104.94" cy="337.16" r="1.96"/><path class="cls-4" d="M110.68,363.9a2,2,0,1,1-2-1.95A2,2,0,0,1,110.68,363.9Z"/><circle class="cls-4" cx="122.35" cy="375.76" r="1.96"/><path class="cls-4" d="M129.86,378.28a2,2,0,1,1-2-1.95A2,2,0,0,1,129.86,378.28Z"/><path class="cls-4" d="M138.69,386.1a2,2,0,1,1-2-2A2,2,0,0,1,138.69,386.1Z"/><path class="cls-4" d="M143,372.73a2,2,0,1,1-2-2A2,2,0,0,1,143,372.73Z"/><path class="cls-4" d="M140.71,359.86a2,2,0,1,1-2-1.95A2,2,0,0,1,140.71,359.86Z"/><circle class="cls-4" cx="151.12" cy="367.43" r="1.96"/><path class="cls-4" d="M150,360.87a2,2,0,1,1-1.95-1.95A2,2,0,0,1,150,360.87Z"/><path class="cls-4" d="M146.51,350a2,2,0,1,1-1.95-1.95A2,2,0,0,1,146.51,350Z"/><path class="cls-4" d="M142.73,343a2,2,0,1,1-2-2A2,2,0,0,1,142.73,343Z"/><path class="cls-4" d="M154.59,339.68a2,2,0,1,1-2-2A2,2,0,0,1,154.59,339.68Z"/><path class="cls-4" d="M191.42,345a2,2,0,1,1-1.95-2A1.95,1.95,0,0,1,191.42,345Z"/><path class="cls-4" d="M196,333.62a2,2,0,1,1-2-1.95A2,2,0,0,1,196,333.62Z"/><circle class="cls-4" cx="188.96" cy="329.59" r="1.96"/><path class="cls-4" d="M202.52,339.68a2,2,0,1,1-2-2A2,2,0,0,1,202.52,339.68Z"/><path class="cls-4" d="M169.22,385.35a2,2,0,1,1-2-2A2,2,0,0,1,169.22,385.35Z"/><path class="cls-4" d="M152.06,384.84a2,2,0,1,1-1.95-1.95A2,2,0,0,1,152.06,384.84Z"/><path class="cls-4" d="M160.39,389.89a2,2,0,1,1-2-2A2,2,0,0,1,160.39,389.89Z"/><circle class="cls-4" cx="174.58" cy="225.13" r="1.96"/><path class="cls-4" d="M175.28,211.25a2,2,0,1,1-2-1.95A2,2,0,0,1,175.28,211.25Z"/><path class="cls-4" d="M155.85,190.57a2,2,0,1,1-2-2A2,2,0,0,1,155.85,190.57Z"/><path class="cls-4" d="M137.43,201.67a2,2,0,1,1-2-2A2,2,0,0,1,137.43,201.67Z"/><path class="cls-4" d="M142.73,206.21a2,2,0,1,1-2-2A2,2,0,0,1,142.73,206.21Z"/><path class="cls-4" d="M184.11,219.33a2,2,0,1,1-2-2A2,2,0,0,1,184.11,219.33Z"/><path class="cls-4" d="M228.26,215.29a2,2,0,1,1-2-1.95A2,2,0,0,1,228.26,215.29Z"/><path class="cls-4" d="M406.89,305.49a2,2,0,1,1-1.95-1.95A2,2,0,0,1,406.89,305.49Z"/><path class="cls-4" d="M420.9,340.69a2,2,0,1,1-2-2A2,2,0,0,1,420.9,340.69Z"/><path class="cls-4" d="M430,318a2,2,0,1,1-2-2A2,2,0,0,1,430,318Z"/><path class="cls-4" d="M432.63,296.41a2,2,0,1,1-2-2A2,2,0,0,1,432.63,296.41Z"/><path class="cls-4" d="M431.12,279a2,2,0,1,1-2-2A2,2,0,0,1,431.12,279Z"/><path class="cls-4" d="M422.79,255.91a2,2,0,1,1-2-1.95A2,2,0,0,1,422.79,255.91Z"/><path class="cls-4" d="M413.71,237a2,2,0,1,1-2-2A2,2,0,0,1,413.71,237Z"/><path class="cls-4" d="M394.41,216.93a2,2,0,1,1-2-2A2,2,0,0,1,394.41,216.93Z"/><path class="cls-4" d="M379.65,204.06a2,2,0,1,1-2-1.95A2,2,0,0,1,379.65,204.06Z"/><path class="cls-4" d="M369.81,220.72a2,2,0,1,1-2-2A2,2,0,0,1,369.81,220.72Z"/><path class="cls-4" d="M379.65,219.2a2,2,0,1,1-2-1.95A2,2,0,0,1,379.65,219.2Z"/><path class="cls-4" d="M380.78,244.18a2,2,0,1,1-1.95-2A2,2,0,0,1,380.78,244.18Z"/><path class="cls-4" d="M398.57,239.26a2,2,0,1,1-2-1.95A2,2,0,0,1,398.57,239.26Z"/><path class="cls-4" d="M411.44,244.56a2,2,0,1,1-2-2A2,2,0,0,1,411.44,244.56Z"/><path class="cls-4" d="M409.92,259.7a2,2,0,1,1-1.95-2A1.95,1.95,0,0,1,409.92,259.7Z"/><path class="cls-4" d="M401.22,261.21a2,2,0,1,1-2-1.95A2,2,0,0,1,401.22,261.21Z"/><path class="cls-4" d="M388.35,264.62a2,2,0,1,1-2-2A2,2,0,0,1,388.35,264.62Z"/><path class="cls-4" d="M374.35,268.4a2,2,0,1,1-2-1.95A2,2,0,0,1,374.35,268.4Z"/><path class="cls-4" d="M365.64,271.43a2,2,0,1,1-1.95-2A2,2,0,0,1,365.64,271.43Z"/><path class="cls-4" d="M355.8,263.86a2,2,0,1,1-1.95-1.95A2,2,0,0,1,355.8,263.86Z"/><path class="cls-4" d="M370.18,244.18a2,2,0,1,1-1.95-2A2,2,0,0,1,370.18,244.18Z"/><path class="cls-4" d="M364.13,252.89a2,2,0,1,1-2-2A2,2,0,0,1,364.13,252.89Z"/><path class="cls-4" d="M379.27,233.21a2,2,0,1,1-2-2A2,2,0,0,1,379.27,233.21Z"/><path class="cls-4" d="M366.4,213.53a2,2,0,1,1-2-2A2,2,0,0,1,366.4,213.53Z"/><path class="cls-4" d="M372.83,207.09a2,2,0,1,1-1.95-2A2,2,0,0,1,372.83,207.09Z"/><path class="cls-4" d="M416.36,294.52a2,2,0,1,1-2-2A2,2,0,0,1,416.36,294.52Z"/><path class="cls-4" d="M408,293.38a2,2,0,1,1-2-1.95A2,2,0,0,1,408,293.38Z"/><path class="cls-4" d="M417.87,269.16a2,2,0,1,1-2-2A2,2,0,0,1,417.87,269.16Z"/><path class="cls-4" d="M380,279.38a2,2,0,1,1-1.95-2A1.95,1.95,0,0,1,380,279.38Z"/><path class="cls-4" d="M370.18,291.11a2,2,0,1,1-1.95-2A2,2,0,0,1,370.18,291.11Z"/><path class="cls-4" d="M367.91,301.33a2,2,0,1,1-2-2A1.95,1.95,0,0,1,367.91,301.33Z"/><path class="cls-4" d="M380,310a2,2,0,1,1-1.95-1.95A2,2,0,0,1,380,310Z"/><path class="cls-4" d="M377.75,329.71a2,2,0,1,1-1.95-1.95A2,2,0,0,1,377.75,329.71Z"/><path class="cls-4" d="M392.51,321.77a2,2,0,1,1-1.95-2A1.95,1.95,0,0,1,392.51,321.77Z"/><path class="cls-4" d="M395.16,334.26a2,2,0,1,1-2-2A1.95,1.95,0,0,1,395.16,334.26Z"/><path class="cls-4" d="M390.62,352a2,2,0,1,1-1.95-2A2,2,0,0,1,390.62,352Z"/><path class="cls-4" d="M405.38,366.05a2,2,0,1,1-1.95-2A1.95,1.95,0,0,1,405.38,366.05Z"/><path class="cls-4" d="M405.76,355.45a2,2,0,1,1-2-2A2,2,0,0,1,405.76,355.45Z"/><path class="cls-4" d="M406.14,344.1a2,2,0,1,1-2-2A2,2,0,0,1,406.14,344.1Z"/><path class="cls-4" d="M404.62,330.47a2,2,0,1,1-1.95-2A2,2,0,0,1,404.62,330.47Z"/><path class="cls-4" d="M422.79,313.06a2,2,0,1,1-2-1.95A2,2,0,0,1,422.79,313.06Z"/><path class="cls-4" d="M422,301a2,2,0,1,1-1.95-1.95A2,2,0,0,1,422,301Z"/><path class="cls-4" d="M422.41,287a2,2,0,1,1-2-2A1.95,1.95,0,0,1,422.41,287Z"/><path class="cls-4" d="M422.41,272.94a2,2,0,1,1-2-1.95A2,2,0,0,1,422.41,272.94Z"/><path class="cls-4" d="M392.13,272.94a2,2,0,1,1-1.95-1.95A2,2,0,0,1,392.13,272.94Z"/><path class="cls-4" d="M392.89,293.76a2,2,0,1,1-1.95-2A2,2,0,0,1,392.89,293.76Z"/><path class="cls-4" d="M387.59,316.09a2,2,0,1,1-1.95-2A1.95,1.95,0,0,1,387.59,316.09Z"/><path class="cls-4" d="M354.67,291.87a2,2,0,1,1-2-2A2,2,0,0,1,354.67,291.87Z"/><path class="cls-4" d="M394,344.1a2,2,0,1,1-2-2A2,2,0,0,1,394,344.1Z"/><path class="cls-4" d="M394.78,364.15a2,2,0,1,1-1.95-1.95A2,2,0,0,1,394.78,364.15Z"/><path class="cls-11" d="M160.21,160.68a2.32,2.32,0,1,1-2.32-2.32A2.32,2.32,0,0,1,160.21,160.68Z"/><path class="cls-11" d="M165.51,136.78a2.58,2.58,0,1,1-2.58-2.58A2.57,2.57,0,0,1,165.51,136.78Z"/><path class="cls-11" d="M191.5,158.36a.78.78,0,1,1-.78-.78A.78.78,0,0,1,191.5,158.36Z"/><path class="cls-11" d="M209.18,132.53a3.16,3.16,0,1,1-3.16-3.16A3.16,3.16,0,0,1,209.18,132.53Z"/><circle class="cls-11" cx="211.03" cy="117.45" r="0.69"/><path class="cls-11" d="M212.25,86a2.11,2.11,0,1,1-2.1-2.1A2.1,2.1,0,0,1,212.25,86Z"/><path class="cls-11" d="M201.58,81.86a1.32,1.32,0,1,1-1.32-1.32A1.32,1.32,0,0,1,201.58,81.86Z"/><path class="cls-11" d="M226.31,84.34a.63.63,0,0,1-.63.63.63.63,0,1,1,0-1.26A.63.63,0,0,1,226.31,84.34Z"/><path class="cls-11" d="M229.35,78.78a1.67,1.67,0,1,1-1.67-1.67A1.66,1.66,0,0,1,229.35,78.78Z"/><path class="cls-11" d="M209.73,62.23a2.55,2.55,0,1,1-2.55-2.56A2.55,2.55,0,0,1,209.73,62.23Z"/><path class="cls-11" d="M219.91,31.1a2,2,0,1,1-2-2A2,2,0,0,1,219.91,31.1Z"/><path class="cls-11" d="M206,23a1.49,1.49,0,1,1-1.49-1.49A1.49,1.49,0,0,1,206,23Z"/><circle class="cls-11" cx="225.2" cy="24.43" r="2.08"/><circle class="cls-11" cx="233.36" cy="17.12" r="1.77"/><path class="cls-11" d="M251.8,11.43a2,2,0,1,1-2-2A2,2,0,0,1,251.8,11.43Z"/><path class="cls-11" d="M253.85,17.35a1.26,1.26,0,1,1-1.25-1.26A1.25,1.25,0,0,1,253.85,17.35Z"/><circle class="cls-11" cx="269.26" cy="36.08" r="0.74"/><path class="cls-11" d="M291.91,36a1.52,1.52,0,1,1-1.51-1.52A1.52,1.52,0,0,1,291.91,36Z"/><path class="cls-11" d="M284.44,42.63a3.08,3.08,0,1,1-3.07-3.08A3.06,3.06,0,0,1,284.44,42.63Z"/><path class="cls-11" d="M286.15,58.25a.65.65,0,0,1-1.29,0,.65.65,0,0,1,1.29,0Z"/><path class="cls-11" d="M281.14,82.7a1.29,1.29,0,0,1-2.57,0,1.29,1.29,0,1,1,2.57,0Z"/><path class="cls-11" d="M293.83,97.48a2.81,2.81,0,1,1-2.81-2.8A2.8,2.8,0,0,1,293.83,97.48Z"/><circle class="cls-11" cx="281.5" cy="110.82" r="1.09"/><path class="cls-11" d="M297.28,120.53a2.43,2.43,0,1,1-2.43-2.43A2.43,2.43,0,0,1,297.28,120.53Z"/><path class="cls-11" d="M299.72,120.43a.88.88,0,1,1-.88-.88A.87.87,0,0,1,299.72,120.43Z"/><path class="cls-11" d="M291.34,94a.77.77,0,1,1-.77-.77A.76.76,0,0,1,291.34,94Z"/><path class="cls-11" d="M320.41,77.54A2.56,2.56,0,1,1,317.85,75,2.56,2.56,0,0,1,320.41,77.54Z"/><path class="cls-11" d="M320.71,75.68a1.53,1.53,0,1,1-1.52-1.52A1.52,1.52,0,0,1,320.71,75.68Z"/><path class="cls-11" d="M350,94.31A1.33,1.33,0,1,1,348.64,93,1.33,1.33,0,0,1,350,94.31Z"/><path class="cls-11" d="M345.28,72.88a1.49,1.49,0,1,1-1.49-1.49A1.49,1.49,0,0,1,345.28,72.88Z"/><path class="cls-11" d="M350,77.66a.83.83,0,0,1-.83.83.84.84,0,0,1-.84-.83.85.85,0,0,1,.84-.84A.84.84,0,0,1,350,77.66Z"/><circle class="cls-11" cx="378.41" cy="67.7" r="0.94"/><path class="cls-11" d="M377,50.21A2.26,2.26,0,1,1,374.74,48,2.26,2.26,0,0,1,377,50.21Z"/><path class="cls-11" d="M399.21,53.91A2.19,2.19,0,1,1,397,51.72,2.19,2.19,0,0,1,399.21,53.91Z"/><circle class="cls-11" cx="397.88" cy="53.15" r="1.74"/><path class="cls-11" d="M407.15,71.62a.48.48,0,1,1-.48-.47A.47.47,0,0,1,407.15,71.62Z"/><path class="cls-11" d="M376,77a1.35,1.35,0,1,1-1.34-1.34A1.35,1.35,0,0,1,376,77Z"/><path class="cls-11" d="M400.25,90.88a.59.59,0,0,1-.6.59.58.58,0,0,1-.59-.59.59.59,0,0,1,.59-.6A.6.6,0,0,1,400.25,90.88Z"/><path class="cls-11" d="M400.9,109.12a.63.63,0,1,1-.63-.62A.63.63,0,0,1,400.9,109.12Z"/><path class="cls-11" d="M357.78,128.59a.69.69,0,1,1-.69-.69A.69.69,0,0,1,357.78,128.59Z"/><path class="cls-11" d="M374.9,154.1a1.78,1.78,0,1,1-1.78-1.78A1.77,1.77,0,0,1,374.9,154.1Z"/><circle class="cls-11" cx="405.29" cy="143.97" r="0.66"/><circle class="cls-11" cx="419.94" cy="144.92" r="2.27"/><path class="cls-11" d="M435,116.24a1.37,1.37,0,1,1-1.37-1.37A1.37,1.37,0,0,1,435,116.24Z"/><path class="cls-11" d="M456.92,134.38a.65.65,0,1,1-.64-.65A.64.64,0,0,1,456.92,134.38Z"/><path class="cls-11" d="M457.28,103.92a2.1,2.1,0,1,1-2.1-2.09A2.1,2.1,0,0,1,457.28,103.92Z"/><path class="cls-11" d="M467.2,75.57a2.1,2.1,0,1,1-2.1-2.1A2.09,2.09,0,0,1,467.2,75.57Z"/><path class="cls-11" d="M476.75,110.42a1.68,1.68,0,1,1-1.68-1.67A1.68,1.68,0,0,1,476.75,110.42Z"/><path class="cls-11" d="M495.6,118.09a1.33,1.33,0,1,1-1.33-1.33A1.32,1.32,0,0,1,495.6,118.09Z"/><path class="cls-11" d="M496.63,124.79a1.64,1.64,0,1,1-1.64-1.64A1.64,1.64,0,0,1,496.63,124.79Z"/><path class="cls-11" d="M504.68,130.88a2.6,2.6,0,1,1-2.6-2.6A2.59,2.59,0,0,1,504.68,130.88Z"/><circle class="cls-11" cx="483.45" cy="155.25" r="2.82"/><circle class="cls-11" cx="467.58" cy="173.13" r="3.17"/><path class="cls-11" d="M455,171.71a.56.56,0,1,1-.56-.56A.56.56,0,0,1,455,171.71Z"/><circle class="cls-11" cx="459.67" cy="182.74" r="0.84"/><path class="cls-11" d="M479.42,191.87a2.42,2.42,0,1,1-2.41-2.42A2.41,2.41,0,0,1,479.42,191.87Z"/><path class="cls-11" d="M456.94,209.86a2.14,2.14,0,1,1-2.14-2.14A2.14,2.14,0,0,1,456.94,209.86Z"/><circle class="cls-11" cx="468.61" cy="227" r="2.27"/><circle class="cls-11" cx="489.67" cy="228.59" r="1.63"/><circle class="cls-11" cx="476.92" cy="235.39" r="2.53"/><circle class="cls-11" cx="449.44" cy="243.85" r="2.17"/><path class="cls-11" d="M435.34,249.91a3,3,0,1,1-3-3A3,3,0,0,1,435.34,249.91Z"/><path class="cls-11" d="M445,267.76a1.35,1.35,0,1,1-1.34-1.35A1.35,1.35,0,0,1,445,267.76Z"/><path class="cls-11" d="M419,284.86a1.64,1.64,0,1,1-1.64-1.64A1.63,1.63,0,0,1,419,284.86Z"/><path class="cls-11" d="M431.55,293.17a1.54,1.54,0,1,1-1.54-1.53A1.54,1.54,0,0,1,431.55,293.17Z"/><circle class="cls-11" cx="448.62" cy="301.27" r="1.56"/><circle class="cls-11" cx="430.77" cy="307.82" r="1.79"/><path class="cls-11" d="M451.49,315.64a3.18,3.18,0,1,1-3.18-3.19A3.18,3.18,0,0,1,451.49,315.64Z"/><path class="cls-11" d="M448.54,329.87a1.83,1.83,0,1,1-1.83-1.82A1.83,1.83,0,0,1,448.54,329.87Z"/><path class="cls-11" d="M444.52,337.74a2.21,2.21,0,1,1-2.21-2.21A2.21,2.21,0,0,1,444.52,337.74Z"/><path class="cls-11" d="M432.52,357.27a1,1,0,1,1-1-1A1,1,0,0,1,432.52,357.27Z"/><circle class="cls-11" cx="468.33" cy="362.44" r="2.78"/><path class="cls-11" d="M465.16,373.82a2.15,2.15,0,1,1-2.15-2.15A2.15,2.15,0,0,1,465.16,373.82Z"/><path class="cls-11" d="M454.47,386.51a3.06,3.06,0,1,1-3.06-3.06A3.06,3.06,0,0,1,454.47,386.51Z"/><path class="cls-11" d="M443.11,406.49a2.45,2.45,0,1,1-2.44-2.44A2.45,2.45,0,0,1,443.11,406.49Z"/><path class="cls-11" d="M438.06,392.72a2,2,0,1,1-2-2A2,2,0,0,1,438.06,392.72Z"/><path class="cls-11" d="M418.48,398.58a2.82,2.82,0,1,1-2.82-2.82A2.81,2.81,0,0,1,418.48,398.58Z"/><path class="cls-11" d="M392.44,396a1.47,1.47,0,1,1-2.93,0,1.47,1.47,0,0,1,2.93,0Z"/><path class="cls-11" d="M397.07,421a3.12,3.12,0,1,1-3.12-3.11A3.12,3.12,0,0,1,397.07,421Z"/><circle class="cls-11" cx="375.32" cy="420.21" r="1.22"/><circle class="cls-11" cx="377.55" cy="435.66" r="0.48"/><path class="cls-11" d="M369,454.47a2.22,2.22,0,1,1-2.22-2.22A2.22,2.22,0,0,1,369,454.47Z"/><path class="cls-11" d="M335.11,431.33a1.05,1.05,0,1,1-1.05-1.05A1,1,0,0,1,335.11,431.33Z"/><circle class="cls-11" cx="321.3" cy="461.19" r="0.57"/><path class="cls-11" d="M312.22,452.78a.82.82,0,1,1-.82-.82A.82.82,0,0,1,312.22,452.78Z"/><path class="cls-11" d="M312.59,478.48a2.37,2.37,0,1,1-2.37-2.37A2.37,2.37,0,0,1,312.59,478.48Z"/><circle class="cls-11" cx="278.1" cy="463.99" r="0.57"/><circle class="cls-11" cx="271.78" cy="464.34" r="1.54"/><path class="cls-11" d="M261.22,467.6a2.5,2.5,0,1,1-2.49-2.5A2.49,2.49,0,0,1,261.22,467.6Z"/><path class="cls-11" d="M255,441.19a.73.73,0,0,1-.73.73.73.73,0,0,1-.72-.73.72.72,0,0,1,.72-.72A.73.73,0,0,1,255,441.19Z"/><path class="cls-11" d="M237.6,467a1.1,1.1,0,1,1-1.09-1.09A1.09,1.09,0,0,1,237.6,467Z"/><circle class="cls-11" cx="229.44" cy="457.09" r="2.63"/><path class="cls-11" d="M225.44,439.3a1.78,1.78,0,1,1-1.78-1.78A1.79,1.79,0,0,1,225.44,439.3Z"/><circle class="cls-11" cx="197.51" cy="458.58" r="0.46"/><path class="cls-11" d="M175.54,470.42a2.6,2.6,0,1,1-2.6-2.6A2.59,2.59,0,0,1,175.54,470.42Z"/><circle class="cls-11" cx="170.73" cy="497.99" r="2.19"/><path class="cls-11" d="M158.53,507.08a.92.92,0,1,1-.92-.93A.92.92,0,0,1,158.53,507.08Z"/><path class="cls-11" d="M145.68,485.18a1.77,1.77,0,1,1-1.77-1.77A1.77,1.77,0,0,1,145.68,485.18Z"/><circle class="cls-11" cx="119.54" cy="455.38" r="1.53"/><circle class="cls-11" cx="139.72" cy="436.46" r="0.7"/><circle class="cls-11" cx="140.13" cy="426.49" r="3.19"/><path class="cls-11" d="M110.21,424.87a.61.61,0,0,1-.61.61.61.61,0,0,1-.62-.61.62.62,0,0,1,.62-.62A.61.61,0,0,1,110.21,424.87Z"/><path class="cls-11" d="M78.09,401.56a2.67,2.67,0,1,1-2.66-2.67A2.66,2.66,0,0,1,78.09,401.56Z"/><circle class="cls-11" cx="75.66" cy="426.5" r="1.58"/><path class="cls-11" d="M73.14,434.65a2.32,2.32,0,1,1-2.32-2.32A2.32,2.32,0,0,1,73.14,434.65Z"/><circle class="cls-11" cx="63.55" cy="394.79" r="0.72"/><circle class="cls-11" cx="52.75" cy="365.43" r="1.45"/><circle class="cls-11" cx="49.93" cy="358.47" r="0.4"/><circle class="cls-11" cx="55.25" cy="342.26" r="1.46"/><circle class="cls-11" cx="46.49" cy="328.46" r="0.83"/><path class="cls-11" d="M48.11,297.85a1.4,1.4,0,1,1-1.4-1.4A1.39,1.39,0,0,1,48.11,297.85Z"/><path class="cls-11" d="M68.43,275.11a.48.48,0,0,1-1,0,.48.48,0,0,1,1,0Z"/><circle class="cls-11" cx="66.42" cy="267.9" r="1.2"/><path class="cls-11" d="M67.8,254.76A.79.79,0,1,1,67,254,.79.79,0,0,1,67.8,254.76Z"/><circle class="cls-11" cx="58.28" cy="241.58" r="0.72"/><path class="cls-11" d="M76.72,221.64a1.52,1.52,0,1,1-1.52-1.52A1.52,1.52,0,0,1,76.72,221.64Z"/><circle class="cls-11" cx="77.63" cy="196.98" r="1.58"/><path class="cls-11" d="M102.86,183.88a.43.43,0,1,1-.43-.42A.42.42,0,0,1,102.86,183.88Z"/><path class="cls-11" d="M120.69,170.31a1.79,1.79,0,1,1-1.79-1.79A1.79,1.79,0,0,1,120.69,170.31Z"/><path class="cls-11" d="M132.86,150.22a.93.93,0,0,1-1.86,0,.93.93,0,1,1,1.86,0Z"/></g></g></g></svg>