<svg xmlns="http://www.w3.org/2000/svg" viewBox="0 0 550 510"><defs><style>.cls-1,.cls-3{opacity:0.2;}.cls-2,.cls-3,.cls-7{fill:#2884f6;}.cls-3{isolation:isolate;}.cls-4,.cls-5{fill:none;stroke:#2884f6;}.cls-4{stroke-miterlimit:10;stroke-width:2px;}.cls-5{stroke-linecap:round;stroke-linejoin:round;}.cls-6{fill:#044799;}.cls-7{opacity:0.3;}</style></defs><title>Strategy</title><g id="Layer_4" data-name="Layer 4"><g id="Strategy"><g id="_1" data-name="1" class="cls-1"><circle class="cls-2" cx="275" cy="255" r="253"/></g><polygon class="cls-3" points="114.67 240.22 97.88 227.71 137.02 229.49 114.67 240.22"/><path class="cls-2" d="M114.62,240.75,96.4,227.18l42.47,1.93ZM99.35,228.23l15.37,11.45,20.46-9.82Z"/><polygon class="cls-3" points="186.62 39.36 197.01 44.86 174.42 47.76 186.62 39.36"/><path class="cls-2" d="M173.37,48.17l13.23-9.12,11.28,6Zm13.26-8.5-11.15,7.69,20.67-2.66Z"/><polygon class="cls-3" points="153.76 170.92 127.91 155.28 148.55 152.96 153.76 170.92"/><path class="cls-2" d="M155,172.48,125.74,154.8l23.33-2.62Zm-24.89-16.73,22.5,13.61L148,153.73Z"/><path class="cls-2" d="M158.22,152.53l-9.28-1.47-5.56-18.85Zm-8.57-2.28,6.52,1L145.76,137Z"/><path class="cls-2" d="M162.32,91l2.15-13,25.92-14.49Zm3-12.43-1.62,9.81,21.16-20.73Z"/><path class="cls-2" d="M220,150.16l-4.46-7.74,5.28-24.84,1,.13Zm-3.41-7.91,2.6,4.51,1.26-22.66Z"/><path class="cls-2" d="M147.59,206.24l2-8.23,21-10.14Zm2.8-7.6-1.27,5.2,14.5-11.59Z"/><polygon class="cls-3" points="237.89 89.36 223.38 64.84 232.1 87.79 237.89 89.36"/><path class="cls-2" d="M238.94,90.16l-7.21-2L222.92,65l.89-.44Zm-6.46-2.78,4.36,1.18L225.91,70.09Z"/><path class="cls-2" d="M204.5,92.44l-.84-.52L223,56.18l.26,10.4ZM222.07,60,208.14,85.72l14.09-19.45Z"/><path class="cls-2" d="M185.28,164.41l-17.54-15.32,44.1-3.72Zm-13.94-14.14,14,12.25,21.24-15.22Z"/><polygon class="cls-3" points="168.35 190.05 184.66 169.22 170.84 226.34 168.35 190.05"/><path class="cls-2" d="M170.54,229.89l-2.75-40,18-23Zm-1.63-39.67,2.23,32.57,12.4-51.26Z"/><polygon class="cls-3" points="98.78 200.13 110.21 182.81 107.91 199.06 98.78 200.13"/><path class="cls-2" d="M97.89,200.68l13-19.74-2.62,18.52Zm11.61-16-9.83,14.9,7.85-.93Z"/><path class="cls-2" d="M112.82,265.32l24.82-37.92.11,14.51Zm23.85-34.62-18.45,28.18,18.53-17.39Z"/><path class="cls-2" d="M111.53,326.77l-20.26-9.23,5-2.5ZM93,317.5l13,5.92-9.81-7.52Z"/><path class="cls-2" d="M86.9,216l-.83-.29,7.29-27.3,2.44,7.89Zm6.52-24.41-5.11,19.15,6.55-14.49Z"/><path class="cls-2" d="M226.55,167.29l-.75-.46,12.11-24.32.91,8.36Zm10.81-21.7-8.59,17.26,9.14-12.23Z"/><polygon class="cls-3" points="132.78 277.77 139.54 307.37 137.75 281.91 132.78 277.77"/><path class="cls-2" d="M139.05,307.48l-7.09-31,6.27,5.21L140,307.34Zm-5.46-28.38,5,21.88-1.32-18.82Z"/><path class="cls-2" d="M109.6,305.93l-.74-.66,23.85-30.8-1.15,10.22Zm21.73-28L113.9,300.38l16.72-16.16Z"/><path class="cls-2" d="M83.27,254.88l-17-8.73-1.15-16.38ZM67.13,245.6l13.27,6.82L66.23,232.79Z"/><polygon class="cls-3" points="81.71 179.68 79.56 163.64 95.17 189.63 81.71 179.68"/><path class="cls-2" d="M96.2,190.77,81.43,179.85l-2.36-17.6ZM82,179.52l12.15,9L80.05,165Z"/><polygon class="cls-3" points="195.37 183.27 197.83 167.3 205.16 198.81 195.37 183.27"/><path class="cls-2" d="M205.85,200.47l-10.79-17.14,2.71-17.6ZM195.68,183.2l8.79,14-6.58-28.27Z"/><polygon class="cls-3" points="55.27 126.79 63.02 115.05 61.46 126.06 55.27 126.79"/><path class="cls-2" d="M54.67,127.16l8.83-13.38-1.77,12.55Zm7.87-10.84-6.67,10.1,5.33-.62Z"/><path class="cls-2" d="M59.4,133l2.28-7.19,10-1.24Zm2.74-6.64-1.65,5.17,8.84-6.07Z"/><path class="cls-2" d="M73.85,138,88.73,115.3l.07,8.7Zm14.3-20.77L77.09,134.18,88.2,123.75Z"/><path class="cls-2" d="M69.43,183.3,53,175.79l4-2Zm-15.09-7.53,10.56,4.8-8-6.11Z"/><path class="cls-2" d="M62.16,107,57.91,88.37l3.75,3.13v.13l1.08,15.27ZM58.88,90l3,13.13L61.09,91.8Z"/><polygon class="cls-3" points="113.58 156.53 117.63 174.28 116.56 159.01 113.58 156.53"/><path class="cls-2" d="M117.34,174.35l-4.25-18.61,3.76,3.13V159l1.07,15.27Zm-3.27-17,3,13.12-.79-11.29Z"/><polygon class="cls-3" points="16.67 190.36 20.73 208.11 19.65 192.84 16.67 190.36"/><path class="cls-2" d="M20.44,208.18l-4.26-18.61,3.76,3.12v.13L21,208.09Zm-3.28-17,3,13.13L19.36,193Z"/><polygon class="cls-3" points="183.16 103.6 174.54 122.96 175.72 77.88 183.16 103.6"/><path class="cls-2" d="M174.08,125l1.3-49.77,8.22,28.4Zm2-44.47L175,120.91l7.73-17.34Z"/><path class="cls-2" d="M139.93,117.17l2.36-8.07,17.71-6Zm2.85-7.6L141,115.7,156.24,105Z"/><path class="cls-2" d="M132.3,53.38l-3.51-3.6.11-15.46.6,0Zm-2.91-3.85,2.05,2.11-2-13.41Z"/><polygon class="cls-3" points="115.67 95.99 101.79 91.37 112.49 98.02 115.67 95.99"/><path class="cls-2" d="M112.5,98.37l-13-8.08,16.88,5.61Zm-8.4-5.92,8.39,5.21L115,96.07Z"/><polygon class="cls-3" points="17.85 118.17 4.34 124.36 16.09 122.15 17.85 118.17"/><path class="cls-2" d="M2,125.1l16.45-7.53-2.15,4.84Zm15.26-6.33L6.68,123.61l9.21-1.72Z"/><path class="cls-2" d="M236.06,93.9l3.13-4.52h.14l16.34-1.18.1.59ZM239.52,90l-2.05,3,15-3.89Z"/><path class="cls-2" d="M210.34,120.63l-11.51-5.92-.78-11.1Zm-10.94-6.29,9,4.62-9.61-13.3Z"/><polygon class="cls-4" points="64.28 482.57 123.83 481.65 124.75 442.26 124.75 405.62 65.2 406.53 64.28 482.57"/><polygon class="cls-4" points="158.64 482.57 218.19 481.1 219.11 417.79 219.11 358.89 159.56 360.37 158.64 482.57"/><polygon class="cls-4" points="253 482.57 312.55 480.55 313.47 393.79 313.47 313.09 253.92 315.1 253 482.57"/><polygon class="cls-4" points="347.37 482.57 406.92 480.99 407.83 412.99 407.83 349.73 348.28 351.31 347.37 482.57"/><polygon class="cls-4" points="441.73 482.57 501.28 480.06 502.19 372.2 502.19 271.86 442.64 274.37 441.73 482.57"/><polygon class="cls-4" points="64.28 379.96 106.42 357.98 143.07 334.16 167.8 314 191.62 293.85 213.61 275.52 232.85 250.79 241.09 243.46 265.83 259.95 292.4 268.19 327.21 283.77 358.36 298.43 374.85 304.84 392.26 283.77 406.92 266.36 416.08 246.21 428.9 225.14 436.23 206.81 446.31 185.74 456.39 171.09 461.88 160.09 491.2 172 497.61 173.83 488.45 136.27 478.37 106.04 471.04 81.3 466.46 69.39 461.88 61.15 435.31 75.81 416.99 84.05 388.59 103.29 371.19 112.45 356.53 119.78 379.43 124.36 393.17 132.61 403.25 136.27 396.84 155.51 388.59 175.66 380.35 197.65 365.69 219.64 359.28 230.63 340.04 225.14 307.06 213.23 289.65 202.23 270.41 193.07 246.59 182.08 229.18 172.92 217.28 170.17 204.45 192.16 189.79 214.14 189.79 237.05 177.88 237.96 180.63 261.78 155.89 266.36 160.47 281.94 143.07 286.52 140.32 303.01 122.91 308.5 127.49 325 103.67 333.24 96.34 351.56 64.28 379.96"/><polygon class="cls-5" points="64.28 482.57 74.81 474.33 90.39 476.16 79.4 455.55 98.18 453.71 89.47 426.69 115.13 458.29 116.5 443.18 104.13 422.11 120.16 410.2 116.96 423.48 116.5 443.18 124.75 442.26 116.96 423.48 123.83 419.82 120.16 410.2 124.75 405.62 100.92 406.53 104.13 422.11 89.47 426.69 116.5 443.18 123.83 464.25 115.13 458.29 98.18 453.71 90.39 476.16 115.13 458.29 106.88 481.2 90.39 476.16 109.63 470.66 123.83 464.25 123.83 481.65 109.63 470.66 106.88 481.2 78.48 482.11 90.39 476.16 74.81 474.33 79.4 455.55 64.28 460.13 89.47 426.69 64.28 428.06 83.98 405.62 89.47 426.69 100.92 406.53 104.13 422.11 83.98 405.62 65.2 405.62 89.47 426.69 64.28 428.06 98.18 453.71 116.5 443.18 116.96 423.48 104.13 422.11 100.92 406.53 120.16 410.2 104.13 422.11 98.18 453.71 79.4 439.51 79.4 455.55 64.74 444.09 64.28 428.06 79.4 439.51 75.27 415.24 89.47 426.69 88.1 446.38 90.39 476.16 98.18 453.71 109.63 470.66 106.88 481.2 123.83 464.25 109.63 470.66 90.39 476.16 74.81 474.33 64.28 460.13 64.28 482.57"/><polygon class="cls-5" points="253.09 482.57 263.62 474.13 279.2 476.01 268.2 454.9 286.98 453.03 278.28 425.36 303.93 457.72 305.31 442.24 292.94 420.67 303.85 412.64 305.76 422.07 305.31 442.24 313.55 441.3 305.76 422.07 312.63 418.32 303.85 412.64 313.55 403.78 295.22 403.94 292.94 420.67 278.28 425.36 305.31 442.24 312.63 463.81 303.93 457.72 286.98 453.03 279.2 476.01 303.93 457.72 295.69 481.16 279.2 476.01 298.44 470.38 312.63 463.81 312.63 481.63 298.44 470.38 295.69 481.16 267.29 482.1 279.2 476.01 263.62 474.13 268.2 454.9 253.09 459.59 278.28 425.36 253.09 426.76 263.54 396.23 278.28 425.36 295.69 403.57 292.94 420.67 267.78 404.36 254.07 405.46 278.28 425.36 253.09 426.76 286.98 453.03 305.31 442.24 305.76 422.07 292.94 420.67 278.81 404.55 303.85 412.64 292.94 420.67 286.98 453.03 268.2 438.49 268.2 454.9 253.54 443.18 253.09 426.76 268.2 438.49 267.78 404.36 278.28 425.36 276.91 445.52 279.2 476.01 286.98 453.03 298.44 470.38 295.69 481.16 312.63 463.81 298.44 470.38 279.2 476.01 263.62 474.13 253.09 459.59 253.09 482.57"/><polygon class="cls-5" points="502.44 272.75 491.93 281.23 476.35 279.4 487.41 300.47 468.64 302.41 477.43 330.05 451.68 297.78 450.35 313.26 462.79 334.79 451.91 342.85 449.96 333.42 450.35 313.26 442.11 314.22 449.96 333.42 443.1 337.2 451.91 342.85 443.56 353.43 455.81 361.87 462.79 334.79 477.43 330.05 450.35 313.26 442.95 291.71 451.68 297.78 468.64 302.41 476.35 279.4 451.68 297.78 459.84 274.3 476.35 279.4 457.13 285.1 442.95 291.71 442.89 273.89 457.13 285.1 459.84 274.3 488.6 272.32 476.35 279.4 491.93 281.23 487.41 300.47 502.51 295.73 477.43 330.05 502.62 328.56 481.12 353.81 477.43 330.05 455.81 361.87 462.79 334.79 481.27 353.4 501.71 349.87 477.43 330.05 502.62 328.56 468.64 302.41 450.35 313.26 449.96 333.42 462.79 334.79 481.27 353.4 451.91 342.85 462.79 334.79 468.64 302.41 487.47 316.89 487.41 300.47 502.11 312.15 502.62 328.56 487.47 316.89 481.27 353.4 477.43 330.05 478.74 309.88 476.35 279.4 468.64 302.41 457.13 285.1 459.84 274.3 442.95 291.71 457.13 285.1 476.35 279.4 491.93 281.23 502.51 295.73 502.44 272.75"/><polygon class="cls-5" points="253.09 405.16 263.62 395.64 279.34 404.47 268.2 373.95 286.98 371.83 278.28 340.63 303.93 377.12 305.31 359.67 292.94 335.34 308.97 321.59 305.76 336.93 305.31 359.67 313.55 358.61 305.76 336.93 312.63 332.69 308.97 321.59 313.47 313.09 289.88 314 292.94 335.34 278.28 340.63 305.31 359.67 312.63 384 303.93 377.12 286.98 371.83 278.94 404.3 303.93 377.12 295.69 403.57 278.94 404.3 298.44 391.4 312.63 384 312.63 404.1 298.44 391.4 295.69 403.57 267.29 404.63 279.11 404.24 263.62 395.64 268.2 373.95 253.09 379.24 278.28 340.63 253.09 342.21 271.63 314.92 278.28 340.63 290.34 314.69 292.94 335.34 271.63 314.92 254.61 315.61 278.28 340.63 253.09 342.21 286.98 371.83 305.31 359.67 305.76 336.93 292.94 335.34 290.34 314.69 308.97 321.59 292.94 335.34 286.98 371.83 268.2 355.44 268.2 373.95 253.54 360.73 253.09 342.21 268.2 355.44 264.46 325.91 278.28 340.63 276.91 363.37 279.11 404.24 286.98 371.83 298.44 391.4 295.69 403.57 312.63 384 298.44 391.4 278.08 386.95 263.62 395.64 253.09 379.24 253.09 405.16"/><polygon class="cls-5" points="158.64 482.57 200.78 446.23 158.64 419.36 197.12 360.73 217.88 398.59 159.56 360.37 171.47 397.98 217.88 398.59 200.78 446.23 171.47 397.98 209.34 420.58 217.88 444.4 200.78 446.23 159.25 452.34 175.13 467.61 218.19 481.1 200.78 446.23 196.51 473.11 187.96 481.65 175.13 467.61 211.17 465.17 217.88 444.4 185.51 421.8 217.88 398.59 219.11 373.04 197.12 360.73 219.11 358.89 205.67 376.61 171.47 397.98 159.56 360.37 197.12 360.73 172.08 368.05 171.47 397.98 159.25 393.1 172.08 368.05 171.64 398.12 185.51 421.8 193.46 383.32 209.34 420.58 184.29 435.85 159.25 452.34 185.51 421.8 158.64 419.36 171.47 397.98 159.25 452.34 175.13 467.61 184.29 435.85 196.51 473.11 175.13 467.61 158.64 465.77 175.74 481.04 158.64 482.57"/><polygon class="cls-5" points="442.64 482.57 484.79 444.17 442.64 415.77 481.12 353.81 501.89 393.82 443.56 353.43 455.47 393.18 501.89 393.82 484.79 444.17 455.47 393.18 493.34 417.06 501.89 442.23 484.79 444.17 443.25 450.62 459.13 466.76 502.19 481.01 484.79 444.17 480.51 472.57 471.96 481.6 459.13 466.76 495.17 464.18 501.89 442.23 469.52 418.35 501.89 393.82 501.89 366.71 481.12 353.81 501.71 349.87 489.67 370.59 455.47 393.18 443.56 353.43 481.12 353.81 456.08 361.55 455.47 393.18 443.25 388.01 456.08 361.55 455.64 393.32 469.52 418.35 477.46 377.69 493.34 417.06 468.3 433.19 443.25 450.62 469.52 418.35 442.64 415.77 455.47 393.18 443.25 450.62 459.13 466.76 468.3 433.19 480.51 472.57 459.13 466.76 442.64 464.82 459.75 480.96 442.64 482.57"/><polygon class="cls-5" points="346.99 482.57 389.13 443.81 346.99 415.14 385.39 349.96 407.37 393.25 347.9 352.22 359.81 392.34 408.06 393.22 390.96 444.04 359.81 392.34 397.68 416.45 406.23 441.85 389.13 443.81 347.6 450.32 363.48 466.61 406.54 481 389.13 443.81 384.85 472.47 376.3 481.59 363.48 466.61 399.51 464 406.23 441.85 373.86 417.75 407.37 393.25 407.37 365.76 384.47 350.19 407.45 350.65 394.01 369.54 359.81 392.34 347.9 352.22 385.39 349.96 360.42 360.42 359.81 392.34 347.6 387.13 360.42 360.42 359.99 392.49 373.86 417.75 381.8 376.71 397.68 416.45 372.64 432.73 347.6 450.32 373.86 417.75 346.99 415.14 359.81 392.34 347.6 450.32 363.48 466.61 372.64 432.73 384.85 472.47 363.48 466.61 346.99 464.66 364.09 480.94 346.99 482.57"/><polygon class="cls-5" points="82.3 366.83 106.42 357.98 96.34 351.56 129.32 343.62 103.67 333.24 109.48 348.51 127.49 325 151.62 327.13 140.32 303.01 127.49 325 173.91 309.42 160.47 281.94 147.95 317.97 188 292.08 213.61 275.52 180.63 261.78 160.47 281.94 213.61 275.52 189.79 237.05 241.09 243.46 217.28 170.17 211.78 239.34 189.79 214.14 241.09 243.46 268.12 191.24 265.83 259.95 307.06 213.23 322.79 248.43 341.87 291.1 359.28 230.63 374.85 304.84 348.74 262.7 322.79 248.43 359.28 230.63 313.47 228.34 290.56 268.19 289.19 233.38 313.47 228.34 289.19 233.38 267.2 223.76 307.06 213.23 268.12 191.24 230.56 209.56 243.38 179.79 221.85 186.66 267.2 223.76 241.09 243.46 289.19 233.38 322.79 248.43 290.56 268.19 348.74 262.7 367.06 269.11 406.92 266.36 380.35 197.65 428.9 225.14 403.25 136.27 461.88 160.09 380.35 197.65 367.06 269.11 392.26 283.77 373.63 235.52 428.9 225.14 443.87 187.88 416.99 181.77 426.76 145.74 482.04 118.86 416.99 84.05 403.25 136.27 461.88 61.15 459.13 105.12 403.25 136.27 388.59 103.29 379.43 124.36 371.19 112.45 396.84 119.78 434.4 95.05 426.76 145.74 491.2 148.18 461.88 160.09 482.04 118.86 430.73 119.78 461.88 160.09 494.86 164.67 497.61 173.83 461.88 160.09 467.38 147.26 459.13 105.12 472.88 90.47 416.99 84.05 461.88 61.15 434.4 95.05 430.73 119.78 426.76 145.74 409.66 108.79 388.59 103.29 434.4 95.05 430.73 119.78 426.76 145.74 443.87 187.88 393.17 231.55 416.99 181.77 389.51 167.42 426.76 145.74 416.99 181.77 401.42 210.48 373.63 235.52 385.84 267.28 428.9 225.14 393.17 231.55 385.84 267.28 373.63 235.52 359.28 230.63 367.06 269.11 341.87 291.1 392.26 283.77 367.06 269.11 348.74 262.7 340.95 237.05 307.06 213.23 313.47 228.34 331.79 220.56 322.79 248.43 319.88 279.19 289.19 233.38 265.83 259.95 299.73 248.96 266.75 237.96 267.2 223.76 289.19 233.38 268.12 191.24 230.56 209.56 266.75 237.96 241.09 243.46 230.56 209.56 189.79 214.14 221.85 186.66 230.56 209.56 211.78 239.34 213.61 275.52 224.6 241.63 180.63 261.78 189.79 237.05 188 292.08 160.47 281.94 140.32 303.01 129.32 343.62 96.34 351.56 84.44 362.33 84.21 369.89 74.81 370.57 71.15 375.84 82.3 366.83"/><path class="cls-2" d="M172.08,311a2.16,2.16,0,1,1,2.15-2.16A2.16,2.16,0,0,1,172.08,311Z"/><path class="cls-2" d="M288.73,235.62a2.7,2.7,0,1,1,2.7-2.7A2.7,2.7,0,0,1,288.73,235.62Z"/><path class="cls-2" d="M212.69,277.76a2.7,2.7,0,1,1,2.7-2.69A2.7,2.7,0,0,1,212.69,277.76Z"/><path class="cls-2" d="M95.89,354.72a2.7,2.7,0,1,1,2.69-2.7A2.7,2.7,0,0,1,95.89,354.72Z"/><path class="cls-2" d="M146.73,321.74a2.7,2.7,0,1,1,2.7-2.7A2.7,2.7,0,0,1,146.73,321.74Z"/><path class="cls-2" d="M428.6,228.44a2.7,2.7,0,1,1,2.69-2.69A2.7,2.7,0,0,1,428.6,228.44Z"/><path class="cls-2" d="M460.36,162.48a2.7,2.7,0,1,1,2.69-2.69A2.7,2.7,0,0,1,460.36,162.48Z"/><path class="cls-2" d="M433.48,98.35a2.7,2.7,0,1,1,2.7-2.69A2.7,2.7,0,0,1,433.48,98.35Z"/><path class="cls-2" d="M481.12,121.56a2.7,2.7,0,1,1,2.7-2.69A2.7,2.7,0,0,1,481.12,121.56Z"/><path class="cls-2" d="M402.94,139.27a2.7,2.7,0,1,1,2.7-2.69A2.7,2.7,0,0,1,402.94,139.27Z"/><path class="cls-2" d="M379.74,201a2.7,2.7,0,1,1,2.69-2.7A2.7,2.7,0,0,1,379.74,201Z"/><path class="cls-2" d="M366.91,271.81a2.7,2.7,0,1,1,2.7-2.7A2.69,2.69,0,0,1,366.91,271.81Z"/><path class="cls-2" d="M221.55,190a2.7,2.7,0,1,1,2.7-2.7A2.7,2.7,0,0,1,221.55,190Z"/><path class="cls-2" d="M267.36,195.46a2.7,2.7,0,1,1,2.69-2.69A2.7,2.7,0,0,1,267.36,195.46Z"/><path class="cls-2" d="M290.57,270.58a2.7,2.7,0,1,1,2.69-2.69A2.69,2.69,0,0,1,290.57,270.58Z"/><path class="cls-2" d="M341.87,292.34a2.16,2.16,0,1,1,2.15-2.16A2.16,2.16,0,0,1,341.87,292.34Z"/><path class="cls-2" d="M348.28,265.31a2.16,2.16,0,1,1,2.16-2.15A2.15,2.15,0,0,1,348.28,265.31Z"/><path class="cls-2" d="M393.17,234.62a2.16,2.16,0,1,1,2.16-2.15A2.15,2.15,0,0,1,393.17,234.62Z"/><path class="cls-2" d="M415.62,183.77a2.15,2.15,0,1,1,2.15-2.15A2.16,2.16,0,0,1,415.62,183.77Z"/><path class="cls-2" d="M427.07,148.05a2.16,2.16,0,1,1,2.15-2.16A2.16,2.16,0,0,1,427.07,148.05Z"/><path class="cls-2" d="M457.3,108.19a2.16,2.16,0,1,1,2.16-2.15A2.15,2.15,0,0,1,457.3,108.19Z"/><path class="cls-2" d="M388.13,105.45a2.16,2.16,0,1,1,2.16-2.16A2.16,2.16,0,0,1,388.13,105.45Z"/><path class="cls-2" d="M490.74,149.88a2.16,2.16,0,1,1,2.16-2.16A2.16,2.16,0,0,1,490.74,149.88Z"/><path class="cls-2" d="M461.43,64.22a2.16,2.16,0,1,1,2.15-2.16A2.16,2.16,0,0,1,461.43,64.22Z"/><path class="cls-2" d="M444,191.1a2.15,2.15,0,1,1,2.15-2.15A2.16,2.16,0,0,1,444,191.1Z"/><path class="cls-2" d="M391.34,285.92a2.15,2.15,0,1,1,2.16-2.15A2.15,2.15,0,0,1,391.34,285.92Z"/><path class="cls-2" d="M358.82,234.62a2.16,2.16,0,1,1,2.15-2.15A2.16,2.16,0,0,1,358.82,234.62Z"/><path class="cls-2" d="M306.14,215.84a2.16,2.16,0,1,1,2.15-2.15A2.15,2.15,0,0,1,306.14,215.84Z"/><path class="cls-2" d="M241.55,245.16a2.16,2.16,0,1,1,2.16-2.16A2.16,2.16,0,0,1,241.55,245.16Z"/><path class="cls-2" d="M190.25,216.76a2.16,2.16,0,1,1,2.15-2.16A2.16,2.16,0,0,1,190.25,216.76Z"/><path class="cls-2" d="M160.93,285a2.16,2.16,0,1,1,2.16-2.16A2.16,2.16,0,0,1,160.93,285Z"/><path class="cls-2" d="M129.33,345.47a2.16,2.16,0,1,1,2.15-2.15A2.16,2.16,0,0,1,129.33,345.47Z"/><path class="cls-2" d="M126.12,327.61a2.16,2.16,0,1,1,2.15-2.16A2.16,2.16,0,0,1,126.12,327.61Z"/><path class="cls-2" d="M68.86,378.45A2.15,2.15,0,1,1,71,376.3,2.15,2.15,0,0,1,68.86,378.45Z"/><path class="cls-2" d="M180.17,264.4a2.16,2.16,0,1,1,2.16-2.16A2.16,2.16,0,0,1,180.17,264.4Z"/><path class="cls-2" d="M210.86,242A2.16,2.16,0,1,1,213,239.8,2.15,2.15,0,0,1,210.86,242Z"/><path class="cls-2" d="M90.24,430a2.7,2.7,0,1,1,2.69-2.69A2.7,2.7,0,0,1,90.24,430Z"/><path class="cls-2" d="M123.22,466.64a2.7,2.7,0,1,1,2.69-2.7A2.7,2.7,0,0,1,123.22,466.64Z"/><path class="cls-2" d="M90.85,479.46a2.7,2.7,0,1,1,2.69-2.69A2.69,2.69,0,0,1,90.85,479.46Z"/><path class="cls-2" d="M65.2,463a2.7,2.7,0,1,1,2.69-2.69A2.7,2.7,0,0,1,65.2,463Z"/><path class="cls-2" d="M170.25,401.29a2.7,2.7,0,1,1,2.69-2.7A2.7,2.7,0,0,1,170.25,401.29Z"/><path class="cls-2" d="M158.64,454.42a2.7,2.7,0,1,1,2.7-2.69A2.7,2.7,0,0,1,158.64,454.42Z"/><path class="cls-2" d="M199.56,450.15a2.7,2.7,0,1,1,2.7-2.7A2.7,2.7,0,0,1,199.56,450.15Z"/><path class="cls-2" d="M196.51,364a2.7,2.7,0,1,1,2.69-2.69A2.7,2.7,0,0,1,196.51,364Z"/><path class="cls-2" d="M217.27,484.35a2.7,2.7,0,1,1,2.7-2.69A2.7,2.7,0,0,1,217.27,484.35Z"/><path class="cls-2" d="M279.57,406.78a2.7,2.7,0,1,1,2.7-2.69A2.69,2.69,0,0,1,279.57,406.78Z"/><path class="cls-2" d="M278.35,428.16a2.7,2.7,0,1,1,2.7-2.69A2.69,2.69,0,0,1,278.35,428.16Z"/><path class="cls-2" d="M280.18,478.85a2.7,2.7,0,1,1,2.7-2.69A2.7,2.7,0,0,1,280.18,478.85Z"/><path class="cls-2" d="M277.74,343.88a2.7,2.7,0,1,1,2.69-2.7A2.7,2.7,0,0,1,277.74,343.88Z"/><path class="cls-2" d="M311.33,387.24a2.7,2.7,0,1,1,2.7-2.7A2.7,2.7,0,0,1,311.33,387.24Z"/><path class="cls-2" d="M406,396.4a2.7,2.7,0,1,1,2.69-2.69A2.7,2.7,0,0,1,406,396.4Z"/><path class="cls-2" d="M361.41,395.79a2.7,2.7,0,1,1,2.7-2.69A2.7,2.7,0,0,1,361.41,395.79Z"/><circle class="cls-2" cx="388.29" cy="444.4" r="2.7"/><path class="cls-2" d="M348,452a2.7,2.7,0,1,1,2.69-2.69A2.7,2.7,0,0,1,348,452Z"/><path class="cls-2" d="M441.42,453.81a2.7,2.7,0,1,1,2.7-2.69A2.7,2.7,0,0,1,441.42,453.81Z"/><path class="cls-2" d="M501.89,396.4a2.7,2.7,0,1,1,2.69-2.69A2.7,2.7,0,0,1,501.89,396.4Z"/><path class="cls-2" d="M480.51,358.53a2.7,2.7,0,1,1,2.7-2.69A2.7,2.7,0,0,1,480.51,358.53Z"/><path class="cls-2" d="M477.46,333.49a2.7,2.7,0,1,1,2.69-2.69A2.7,2.7,0,0,1,477.46,333.49Z"/><path class="cls-2" d="M476.85,283.41a2.7,2.7,0,1,1,2.69-2.69A2.7,2.7,0,0,1,476.85,283.41Z"/><path class="cls-2" d="M478.68,477.63a2.7,2.7,0,1,1,2.69-2.69A2.7,2.7,0,0,1,478.68,477.63Z"/><path class="cls-2" d="M456.69,396.4a2.7,2.7,0,1,1,2.7-2.69A2.7,2.7,0,0,1,456.69,396.4Z"/><path class="cls-2" d="M442,295a2.7,2.7,0,1,1,2.7-2.7A2.7,2.7,0,0,1,442,295Z"/><path class="cls-2" d="M500.06,482.59a2.16,2.16,0,1,1,2.15-2.16A2.16,2.16,0,0,1,500.06,482.59Z"/><path class="cls-2" d="M484.18,447.16a2.16,2.16,0,1,1,2.15-2.15A2.16,2.16,0,0,1,484.18,447.16Z"/><path class="cls-2" d="M470.13,419.68a2.16,2.16,0,1,1,2.15-2.15A2.16,2.16,0,0,1,470.13,419.68Z"/><path class="cls-2" d="M502.5,298.75a2.16,2.16,0,1,1,2.15-2.15A2.16,2.16,0,0,1,502.5,298.75Z"/><path class="cls-2" d="M449.36,316.46a2.16,2.16,0,1,1,2.16-2.15A2.15,2.15,0,0,1,449.36,316.46Z"/><path class="cls-2" d="M460.36,275.54a2.16,2.16,0,1,1,2.15-2.15A2.16,2.16,0,0,1,460.36,275.54Z"/><path class="cls-2" d="M455.47,364.1a2.16,2.16,0,1,1,2.15-2.15A2.15,2.15,0,0,1,455.47,364.1Z"/><circle class="cls-2" cx="476.85" cy="379.05" r="2.15"/><path class="cls-2" d="M492.12,420.9a2.16,2.16,0,1,1,2.15-2.15A2.16,2.16,0,0,1,492.12,420.9Z"/><path class="cls-2" d="M440.2,484.42a2.16,2.16,0,1,1,2.16-2.15A2.15,2.15,0,0,1,440.2,484.42Z"/><path class="cls-2" d="M374.24,420.29a2.16,2.16,0,1,1,2.15-2.15A2.16,2.16,0,0,1,374.24,420.29Z"/><circle class="cls-2" cx="382.79" cy="377.83" r="2.15"/><path class="cls-2" d="M359,363.49a2.16,2.16,0,1,1,2.16-2.15A2.15,2.15,0,0,1,359,363.49Z"/><circle class="cls-2" cx="371.8" cy="434.63" r="2.15"/><path class="cls-2" d="M363.86,470.37a2.16,2.16,0,1,1,2.15-2.15A2.16,2.16,0,0,1,363.86,470.37Z"/><path class="cls-2" d="M405.39,483.81a2.16,2.16,0,1,1,2.15-2.15A2.16,2.16,0,0,1,405.39,483.81Z"/><path class="cls-2" d="M406,353.72a2.16,2.16,0,1,1,2.15-2.16A2.16,2.16,0,0,1,406,353.72Z"/><path class="cls-2" d="M271.63,317.07a2.16,2.16,0,1,1,2.16-2.15A2.15,2.15,0,0,1,271.63,317.07Z"/><path class="cls-2" d="M268,377.54a2.16,2.16,0,1,1,2.15-2.16A2.16,2.16,0,0,1,268,377.54Z"/><path class="cls-2" d="M293,424.57a2.16,2.16,0,1,1,2.15-2.16A2.16,2.16,0,0,1,293,424.57Z"/><path class="cls-2" d="M286.29,455.71a2.15,2.15,0,1,1,2.15-2.15A2.15,2.15,0,0,1,286.29,455.71Z"/><path class="cls-2" d="M253.31,462.43a2.16,2.16,0,1,1,2.15-2.15A2.16,2.16,0,0,1,253.31,462.43Z"/><path class="cls-2" d="M311.94,466.71a2.16,2.16,0,1,1,2.16-2.16A2.16,2.16,0,0,1,311.94,466.71Z"/><path class="cls-2" d="M253.31,381.81a2.16,2.16,0,1,1,2.15-2.15A2.16,2.16,0,0,1,253.31,381.81Z"/><path class="cls-2" d="M193.45,385.48a2.16,2.16,0,1,1,2.16-2.16A2.16,2.16,0,0,1,193.45,385.48Z"/><path class="cls-2" d="M183.68,440.45a2.16,2.16,0,1,1,2.16-2.16A2.16,2.16,0,0,1,183.68,440.45Z"/><path class="cls-2" d="M176.35,469.76a2.16,2.16,0,1,1,2.16-2.15A2.15,2.15,0,0,1,176.35,469.76Z"/><path class="cls-2" d="M196.51,475.26a2.16,2.16,0,1,1,2.15-2.16A2.16,2.16,0,0,1,196.51,475.26Z"/><path class="cls-2" d="M159.25,420.9a2.16,2.16,0,1,1,2.16-2.15A2.15,2.15,0,0,1,159.25,420.9Z"/><path class="cls-2" d="M119.55,413a2.16,2.16,0,1,1,2.16-2.15A2.15,2.15,0,0,1,119.55,413Z"/><path class="cls-2" d="M83.52,408.69a2.16,2.16,0,1,1,2.15-2.16A2.16,2.16,0,0,1,83.52,408.69Z"/><path class="cls-2" d="M96.34,456.94a2.16,2.16,0,1,1,2.16-2.16A2.16,2.16,0,0,1,96.34,456.94Z"/><path class="cls-2" d="M115.28,445.94a2.16,2.16,0,1,1,2.15-2.15A2.16,2.16,0,0,1,115.28,445.94Z"/><path class="cls-2" d="M230.1,212.63a2.16,2.16,0,1,1,2.15-2.15A2.15,2.15,0,0,1,230.1,212.63Z"/><path class="cls-2" d="M328.13,231.87a2.16,2.16,0,1,1,2.15-2.15A2.16,2.16,0,0,1,328.13,231.87Z"/><path class="cls-2" d="M376.68,127.43a2.16,2.16,0,1,1,2.16-2.15A2.15,2.15,0,0,1,376.68,127.43Z"/><path class="cls-2" d="M417,86.21a2.16,2.16,0,1,1,2.16-2.16A2.16,2.16,0,0,1,417,86.21Z"/><path class="cls-2" d="M467.38,148.5a2.16,2.16,0,1,1,2.15-2.15A2.15,2.15,0,0,1,467.38,148.5Z"/><path class="cls-2" d="M406,270.35a2.16,2.16,0,1,1,2.15-2.15A2.16,2.16,0,0,1,406,270.35Z"/><path class="cls-2" d="M373,307.91a2.16,2.16,0,1,1,2.15-2.15A2.16,2.16,0,0,1,373,307.91Z"/><path class="cls-2" d="M322.32,250.5a2.16,2.16,0,1,1,2.16-2.15A2.16,2.16,0,0,1,322.32,250.5Z"/><path class="cls-2" d="M138.49,306.69a2.16,2.16,0,1,1,2.15-2.15A2.16,2.16,0,0,1,138.49,306.69Z"/><path class="cls-2" d="M216.66,171.1a2.16,2.16,0,1,1,2.16-2.15A2.15,2.15,0,0,1,216.66,171.1Z"/><path class="cls-2" d="M267.36,226.07a2.16,2.16,0,1,1,2.15-2.15A2.16,2.16,0,0,1,267.36,226.07Z"/><path class="cls-2" d="M109.17,350.66a2.15,2.15,0,1,1,2.15-2.15A2.15,2.15,0,0,1,109.17,350.66Z"/><polygon class="cls-5" points="21.22 482.72 49.62 483.49 64.28 482.57 123.83 481.65 145.82 480.74 158.64 482.57 217.28 481.65 231.41 482.36 235.6 482.57 247.2 482.57 253.09 482.57 267.29 482.35 312.63 481.63 328.13 481.65 346.99 482.57 382.19 482.02 405.39 481.65 422.49 481.65 440.2 482.27 471.96 481.6 500.06 480.43 527.85 481.65 548 479.82 548 488.07 523.26 488.98 503.11 488.98 454.55 489.9 408.75 489.9 377.6 488.98 369.96 488.98 339.12 488.98 306.14 488.98 285.68 489.5 269.49 489.9 260.04 490.12 229.18 490.82 196.2 490.82 134.82 490.82 97.57 490.82 74.36 490.21 45.65 490.82 24.89 490.36 43.82 485.32 52.37 488.37 64.28 482.57 74.36 490.21 90.85 483.49 97.57 490.82 108.56 479.82 120.16 491.43 126.27 482.88 134.82 490.82 145.82 480.74 154.82 489.75 159.25 485.32 165.36 485.32 184.29 482.88 189.18 487.76 207.5 483.49 219.11 489.6 238.04 488.98 252.09 488.98 260.64 483.49 277.13 490.21 288.73 482.88 296.67 488.98 308.28 482.88 314.38 488.98 322.32 482.88 332.1 488.37 337.59 482.27 349.81 488.98 357.75 484.1 368.74 484.1 372.41 488.37 390.73 488.98 396.84 483.49 415.16 490.82 422.49 481.65 431.65 491.43 440.2 482.27 450.58 490.21 459.75 483.49 468.91 488.98 477.76 480.13 487.54 489.9 500.06 480.43 510.44 488.37 522.04 482.88 529.37 488.98 539.14 482.88 544.03 487.76 548 479.82 539.91 487.92 527.85 481.65 519.75 489.75 511.96 481.35 502.5 490.82 486.31 481.04 478.07 489.29 468.3 482.27 460.81 489.75 450.89 482.27 440.81 489.6 430.43 481.65 422.49 489.6 414.24 481.35 400.2 489.29 388.9 482.27 382.79 488.37 382.19 482.02 376.1 488.1 372.71 482.88 365.99 489.6 361.11 483.18 355 488.68 350.73 483.18 344.01 489.9 331.18 481.96 324.31 488.83 314.08 481.35 306.14 488.98 299.73 482.27 285.68 489.5 278.4 482.22 269.49 489.9 266.75 482.42 259.42 490.05 252.62 483.26 245.68 490.21 242.16 482.72 235.06 489.82 233.46 482.42 225.44 490.44 223.46 482.57 210.63 490.59 207.5 483.49 200.71 490.28 197.81 482.11 196.2 490.82 190.71 482.34 182.92 490.82 178.8 482.57 171.81 489.56 171.81 481.88 163.16 490.53 158.64 482.57 149.37 491.85 138.26 481.43 128.98 490.7 121.08 482.11 111.69 491.5 102.3 482.57 94.28 490.59 85.81 482.11 79.05 488.87 75.04 483.03 67.6 490.47 57.41 483.72 54.43 490.36 49.62 483.49 45.65 490.82 40 483.49 35.08 488.41 29.92 483.26 23.66 490.51 21.22 490.51 21.22 482.72"/><circle class="cls-6" cx="29.35" cy="62.62" r="3.04"/><path class="cls-6" d="M57.23,99.29a2.79,2.79,0,1,1-2.78-2.78A2.79,2.79,0,0,1,57.23,99.29Z"/><circle class="cls-6" cx="85.88" cy="95.33" r="1.44"/><circle class="cls-6" cx="98.72" cy="97.39" r="3.67"/><path class="cls-6" d="M111.05,137.29a.56.56,0,1,1-.55-.56A.55.55,0,0,1,111.05,137.29Z"/><circle class="cls-6" cx="145.64" cy="128.07" r="3.09"/><circle class="cls-6" cx="162.57" cy="148.28" r="2.48"/><path class="cls-6" d="M192.71,129a2.1,2.1,0,1,1-2.1-2.1A2.1,2.1,0,0,1,192.71,129Z"/><path class="cls-6" d="M209.53,114.28a1.35,1.35,0,1,1-1.34-1.35A1.35,1.35,0,0,1,209.53,114.28Z"/><path class="cls-6" d="M217.38,130.7a1.39,1.39,0,1,1-1.39-1.39A1.38,1.38,0,0,1,217.38,130.7Z"/><path class="cls-6" d="M8.39,197.87a2,2,0,1,1-2-2A2,2,0,0,1,8.39,197.87Z"/><path class="cls-6" d="M12.62,207.83a1.11,1.11,0,1,1-1.11-1.11A1.12,1.12,0,0,1,12.62,207.83Z"/><circle class="cls-6" cx="34.55" cy="191.22" r="2.51"/><circle class="cls-6" cx="49.18" cy="194.74" r="2.92"/><path class="cls-6" d="M81.23,180.52a3.78,3.78,0,1,1-3.78-3.77A3.78,3.78,0,0,1,81.23,180.52Z"/><path class="cls-6" d="M106.37,194.34a1.83,1.83,0,1,1-1.83-1.83A1.83,1.83,0,0,1,106.37,194.34Z"/><path class="cls-6" d="M129.08,212.34a.93.93,0,1,1-.92-.93A.93.93,0,0,1,129.08,212.34Z"/><path class="cls-6" d="M133.1,186.57a1.91,1.91,0,1,1-1.91-1.91A1.9,1.9,0,0,1,133.1,186.57Z"/><path class="cls-6" d="M160.77,222.32a3.3,3.3,0,1,1-3.3-3.3A3.29,3.29,0,0,1,160.77,222.32Z"/><circle class="cls-6" cx="33.12" cy="382.35" r="3.42"/><circle class="cls-6" cx="12.43" cy="355.77" r="3.57"/><path class="cls-6" d="M15.92,350.17a3.27,3.27,0,1,1-3.27-3.27A3.26,3.26,0,0,1,15.92,350.17Z"/><path class="cls-6" d="M23.58,324.14a3.47,3.47,0,1,1-3.46-3.46A3.46,3.46,0,0,1,23.58,324.14Z"/><circle class="cls-6" cx="62.61" cy="315.58" r="1.18"/><circle class="cls-6" cx="45.06" cy="290.93" r="1.09"/><path class="cls-6" d="M43.76,279.66A2.67,2.67,0,1,1,41.09,277,2.67,2.67,0,0,1,43.76,279.66Z"/><path class="cls-6" d="M53,256.36a1.59,1.59,0,1,1-1.59-1.59A1.59,1.59,0,0,1,53,256.36Z"/><path class="cls-6" d="M59.3,250.23a.52.52,0,0,1-.52.52.53.53,0,0,1-.52-.52.52.52,0,0,1,.52-.52A.52.52,0,0,1,59.3,250.23Z"/><circle class="cls-6" cx="89.77" cy="236.09" r="0.8"/><circle class="cls-6" cx="112.35" cy="240.86" r="2.42"/><path class="cls-6" d="M116.6,208.72a3.67,3.67,0,1,1-3.67-3.67A3.66,3.66,0,0,1,116.6,208.72Z"/><path class="cls-6" d="M145.87,194.55a1.09,1.09,0,1,1-1.09-1.09A1.08,1.08,0,0,1,145.87,194.55Z"/><path class="cls-6" d="M168.75,208.1a.47.47,0,1,1-.47-.47A.47.47,0,0,1,168.75,208.1Z"/><path class="cls-6" d="M191.43,182.93a.67.67,0,1,1-.67-.67A.67.67,0,0,1,191.43,182.93Z"/><path class="cls-6" d="M205.55,186.44a1.48,1.48,0,1,1-1.47-1.47A1.47,1.47,0,0,1,205.55,186.44Z"/><path class="cls-6" d="M207.21,168.41a1.33,1.33,0,1,1-1.33-1.33A1.32,1.32,0,0,1,207.21,168.41Z"/><circle class="cls-6" cx="222.84" cy="150.23" r="3.57"/><path class="cls-6" d="M249.54,140.64A3.54,3.54,0,1,1,246,137.1,3.54,3.54,0,0,1,249.54,140.64Z"/><path class="cls-6" d="M135.11,287.23a2.08,2.08,0,1,1-2.07-2.08A2.08,2.08,0,0,1,135.11,287.23Z"/><path class="cls-6" d="M127.47,264.43a3.89,3.89,0,1,1-3.89-3.89A3.89,3.89,0,0,1,127.47,264.43Z"/><circle class="cls-6" cx="158.7" cy="264.69" r="3.81"/><circle class="cls-6" cx="175.2" cy="227" r="2.05"/><circle class="cls-6" cx="201.66" cy="218.44" r="2.23"/><circle class="cls-6" cx="220.75" cy="206.38" r="0.93"/><circle class="cls-6" cx="245.92" cy="203.37" r="0.45"/><path class="cls-6" d="M272.38,178.71a2.31,2.31,0,1,1-2.31-2.31A2.3,2.3,0,0,1,272.38,178.71Z"/><path class="cls-6" d="M277.93,178.72a1.36,1.36,0,1,1-1.36-1.35A1.36,1.36,0,0,1,277.93,178.72Z"/><circle class="cls-6" cx="311.99" cy="200.92" r="1.87"/><path class="cls-6" d="M311.38,211.36A2.35,2.35,0,1,1,309,209,2.36,2.36,0,0,1,311.38,211.36Z"/><path class="cls-6" d="M350.77,197.33a1.46,1.46,0,1,1-1.46-1.46A1.45,1.45,0,0,1,350.77,197.33Z"/><path class="cls-6" d="M375.34,192.34a3.17,3.17,0,1,1-3.16-3.16A3.17,3.17,0,0,1,375.34,192.34Z"/><path class="cls-6" d="M395.82,203.73a2.53,2.53,0,1,1-2.53-2.53A2.52,2.52,0,0,1,395.82,203.73Z"/><path class="cls-6" d="M405.35,185.86a3.45,3.45,0,1,1-3.45-3.45A3.44,3.44,0,0,1,405.35,185.86Z"/><path class="cls-6" d="M431.47,173.07a2.65,2.65,0,1,1-2.65-2.65A2.65,2.65,0,0,1,431.47,173.07Z"/><path class="cls-6" d="M449.89,171.88a3.77,3.77,0,1,1-3.76-3.77A3.76,3.76,0,0,1,449.89,171.88Z"/><path class="cls-6" d="M409.61,153.72a2.68,2.68,0,1,1-2.68-2.67A2.68,2.68,0,0,1,409.61,153.72Z"/><path class="cls-6" d="M420.59,131a1.81,1.81,0,1,1-1.81-1.81A1.81,1.81,0,0,1,420.59,131Z"/><path class="cls-6" d="M447,141.42a2.51,2.51,0,1,1-2.5-2.5A2.5,2.5,0,0,1,447,141.42Z"/><path class="cls-6" d="M468.89,122.94a.73.73,0,1,1-.73-.73A.73.73,0,0,1,468.89,122.94Z"/><path class="cls-6" d="M489.34,98.63a2.71,2.71,0,1,1-2.71-2.71A2.71,2.71,0,0,1,489.34,98.63Z"/><circle class="cls-6" cx="494.74" cy="70.99" r="2.45"/><path class="cls-6" d="M501.11,61.87a.89.89,0,1,1-.89-.89A.89.89,0,0,1,501.11,61.87Z"/><path class="cls-6" d="M474.33,39.77a3.44,3.44,0,1,1-3.44-3.44A3.44,3.44,0,0,1,474.33,39.77Z"/><circle class="cls-6" cx="462.23" cy="34.78" r="1.87"/><circle class="cls-6" cx="454.32" cy="29" r="2.1"/><path class="cls-6" d="M456,50.17A2.14,2.14,0,1,1,453.85,48,2.14,2.14,0,0,1,456,50.17Z"/><path class="cls-6" d="M446.28,40.49a1.83,1.83,0,1,1-1.83-1.83A1.83,1.83,0,0,1,446.28,40.49Z"/><circle class="cls-6" cx="434.84" cy="21.27" r="3.12"/><path class="cls-6" d="M419.91,49.24a1.37,1.37,0,1,1-1.37-1.37A1.37,1.37,0,0,1,419.91,49.24Z"/><circle class="cls-6" cx="412.77" cy="82.15" r="1.35"/><circle class="cls-6" cx="441.57" cy="77.07" r="1.5"/><path class="cls-6" d="M455.32,74a1,1,0,1,1-1-1A1,1,0,0,1,455.32,74Z"/><circle class="cls-6" cx="421.39" cy="86.66" r="3.52"/><path class="cls-6" d="M447.54,117.23a3.25,3.25,0,1,1-3.25-3.24A3.24,3.24,0,0,1,447.54,117.23Z"/><path class="cls-6" d="M456.64,124a1.42,1.42,0,1,1-1.42-1.42A1.43,1.43,0,0,1,456.64,124Z"/><circle class="cls-6" cx="433.27" cy="141.62" r="1.84"/><path class="cls-6" d="M426,179.87a1.28,1.28,0,1,1-1.27-1.28A1.27,1.27,0,0,1,426,179.87Z"/><path class="cls-6" d="M395.12,167.06a3.05,3.05,0,1,1-3.05-3.05A3.06,3.06,0,0,1,395.12,167.06Z"/><path class="cls-6" d="M396.4,180.82a1.08,1.08,0,1,1-1.07-1.07A1.07,1.07,0,0,1,396.4,180.82Z"/><path class="cls-6" d="M388.05,200.44a2.34,2.34,0,1,1-2.34-2.34A2.34,2.34,0,0,1,388.05,200.44Z"/><circle class="cls-6" cx="366.88" cy="190.4" r="2.58"/><path class="cls-6" d="M368,194.72a2.89,2.89,0,1,1-2.89-2.89A2.89,2.89,0,0,1,368,194.72Z"/><circle class="cls-6" cx="344.62" cy="192.98" r="2.17"/><path class="cls-6" d="M334.09,184.46a1.71,1.71,0,1,1-1.71-1.7A1.71,1.71,0,0,1,334.09,184.46Z"/><circle class="cls-6" cx="303.92" cy="191.77" r="1.96"/><path class="cls-6" d="M306.44,176.6a2,2,0,1,1-2-2A2,2,0,0,1,306.44,176.6Z"/><path class="cls-6" d="M284.07,182.76a3.75,3.75,0,1,1-3.75-3.74A3.75,3.75,0,0,1,284.07,182.76Z"/><path class="cls-6" d="M273.12,152.71a1.38,1.38,0,1,1-1.37-1.38A1.37,1.37,0,0,1,273.12,152.71Z"/><circle class="cls-6" cx="236.02" cy="158.63" r="2.45"/><circle class="cls-6" cx="228.38" cy="169.27" r="1.38"/><path class="cls-6" d="M211.48,187.31a2.62,2.62,0,1,1-2.61-2.61A2.61,2.61,0,0,1,211.48,187.31Z"/><circle class="cls-6" cx="214.23" cy="210.72" r="2.95"/><path class="cls-6" d="M196.6,239.46a2.29,2.29,0,1,1-2.29-2.29A2.29,2.29,0,0,1,196.6,239.46Z"/><circle class="cls-6" cx="160.9" cy="260.54" r="2.78"/><circle class="cls-6" cx="140.1" cy="292.53" r="2.48"/><path class="cls-6" d="M115.36,275a.74.74,0,1,1-1.47,0,.74.74,0,1,1,1.47,0Z"/><circle class="cls-6" cx="101.42" cy="314.29" r="0.74"/><path class="cls-6" d="M86.34,305.75a1.29,1.29,0,1,1-2.57,0,1.29,1.29,0,0,1,2.57,0Z"/><path class="cls-6" d="M402.22,185.16a2.43,2.43,0,1,1-2.42-2.42A2.42,2.42,0,0,1,402.22,185.16Z"/><path class="cls-6" d="M366.34,187.8a2.72,2.72,0,1,1-2.72-2.72A2.72,2.72,0,0,1,366.34,187.8Z"/><path class="cls-6" d="M357.93,160.48a1,1,0,0,1-1.94,0,1,1,0,0,1,1.94,0Z"/><circle class="cls-6" cx="316.06" cy="161.15" r="1.14"/><path class="cls-6" d="M304.45,149.65a1.32,1.32,0,1,1-1.32-1.32A1.32,1.32,0,0,1,304.45,149.65Z"/><path class="cls-6" d="M289,164.64a3.19,3.19,0,1,1-3.19-3.18A3.19,3.19,0,0,1,289,164.64Z"/><path class="cls-6" d="M270.53,117.91a2.45,2.45,0,1,1-2.45-2.46A2.45,2.45,0,0,1,270.53,117.91Z"/><path class="cls-6" d="M500.89,79.73a1,1,0,1,1-1-1A1,1,0,0,1,500.89,79.73Z"/><path class="cls-6" d="M460.23,75.2a1.42,1.42,0,1,1-1.42-1.42A1.43,1.43,0,0,1,460.23,75.2Z"/><path class="cls-6" d="M457.86,116.55a2.21,2.21,0,1,1-2.21-2.21A2.21,2.21,0,0,1,457.86,116.55Z"/><path class="cls-6" d="M443.58,135.94a.68.68,0,1,1-.68-.69A.68.68,0,0,1,443.58,135.94Z"/><path class="cls-6" d="M440.51,155.87a1.35,1.35,0,1,1-1.34-1.35A1.34,1.34,0,0,1,440.51,155.87Z"/><path class="cls-6" d="M465.24,176.28a.79.79,0,1,1-.79-.79A.79.79,0,0,1,465.24,176.28Z"/><path class="cls-6" d="M451.1,199.54a3.78,3.78,0,1,1-3.77-3.77A3.77,3.77,0,0,1,451.1,199.54Z"/><path class="cls-6" d="M412,189.26a.91.91,0,0,1-1.81,0,.91.91,0,1,1,1.81,0Z"/><path class="cls-6" d="M434.6,226.76a2.45,2.45,0,1,1-2.45-2.45A2.45,2.45,0,0,1,434.6,226.76Z"/><path class="cls-6" d="M389.52,241.42a1.55,1.55,0,1,1-1.55-1.56A1.55,1.55,0,0,1,389.52,241.42Z"/><path class="cls-6" d="M112.62,343.54a2.07,2.07,0,1,1-2.07-2.07A2.07,2.07,0,0,1,112.62,343.54Z"/><path class="cls-6" d="M128.46,382.7a.85.85,0,1,1-.85-.84A.85.85,0,0,1,128.46,382.7Z"/><path class="cls-6" d="M149.26,379.71a.66.66,0,0,1-1.32,0,.66.66,0,0,1,1.32,0Z"/><circle class="cls-6" cx="130.83" cy="401.04" r="3.01"/><path class="cls-6" d="M141.9,436.76a.48.48,0,0,1-.48.48.48.48,0,0,1,0-1A.48.48,0,0,1,141.9,436.76Z"/><circle class="cls-6" cx="80.74" cy="404.01" r="3.7"/><path class="cls-6" d="M82.56,370.85a.74.74,0,1,1-.73-.73A.74.74,0,0,1,82.56,370.85Z"/><path class="cls-6" d="M87.17,360.19A3.24,3.24,0,1,1,83.94,357,3.23,3.23,0,0,1,87.17,360.19Z"/><path class="cls-6" d="M225.86,386.54a3.07,3.07,0,1,1-3.07-3.06A3.08,3.08,0,0,1,225.86,386.54Z"/><path class="cls-6" d="M215.15,392.74a2.2,2.2,0,1,1-2.19-2.2A2.19,2.19,0,0,1,215.15,392.74Z"/><circle class="cls-6" cx="241.51" cy="361.19" r="1.14"/><circle class="cls-6" cx="217.71" cy="325.29" r="2.3"/><circle class="cls-6" cx="218.35" cy="328.65" r="0.82"/><circle class="cls-6" cx="182.45" cy="318.86" r="1.74"/><path class="cls-6" d="M190.21,325.06a1.1,1.1,0,1,1-1.1-1.11A1.1,1.1,0,0,1,190.21,325.06Z"/><circle class="cls-6" cx="208.48" cy="342.97" r="2.41"/><path class="cls-6" d="M177.5,380.39a2.76,2.76,0,1,1-2.75-2.75A2.75,2.75,0,0,1,177.5,380.39Z"/><path class="cls-6" d="M211.88,416.72a.85.85,0,1,1-.85-.85A.85.85,0,0,1,211.88,416.72Z"/><path class="cls-6" d="M291.17,263.45a3.44,3.44,0,1,1-3.44-3.44A3.44,3.44,0,0,1,291.17,263.45Z"/><circle class="cls-6" cx="301.93" cy="283.75" r="3.44"/><path class="cls-6" d="M274.81,289.5a3.44,3.44,0,1,1-3.43-3.44A3.42,3.42,0,0,1,274.81,289.5Z"/><circle class="cls-6" cx="307.87" cy="309.76" r="2.39"/><path class="cls-6" d="M290.42,313.72a3,3,0,1,1-3-3A3,3,0,0,1,290.42,313.72Z"/><circle class="cls-6" cx="277.88" cy="332.06" r="2.53"/><path class="cls-6" d="M305.28,356.36a.55.55,0,0,1-1.1,0,.55.55,0,0,1,1.1,0Z"/><path class="cls-6" d="M297.56,397a.8.8,0,1,1-.79-.8A.79.79,0,0,1,297.56,397Z"/><path class="cls-6" d="M324.64,398.19a3.32,3.32,0,1,1-3.32-3.32A3.32,3.32,0,0,1,324.64,398.19Z"/><path class="cls-6" d="M330.54,396.52a1.68,1.68,0,1,1-1.68-1.67A1.68,1.68,0,0,1,330.54,396.52Z"/><path class="cls-6" d="M316.77,375.24a1.36,1.36,0,1,1-1.36-1.36A1.35,1.35,0,0,1,316.77,375.24Z"/><path class="cls-6" d="M331.25,361.43a1.83,1.83,0,1,1-1.82-1.82A1.82,1.82,0,0,1,331.25,361.43Z"/><path class="cls-6" d="M343.26,347.64a2,2,0,1,1-2-2.05A2,2,0,0,1,343.26,347.64Z"/><path class="cls-6" d="M333,318.44a.74.74,0,1,1-.74-.74A.75.75,0,0,1,333,318.44Z"/><circle class="cls-6" cx="326.93" cy="280.11" r="2.13"/><path class="cls-6" d="M310.45,257a1.69,1.69,0,1,1-1.69-1.69A1.69,1.69,0,0,1,310.45,257Z"/><path class="cls-6" d="M305.13,283.89a1.43,1.43,0,1,1-1.43-1.43A1.43,1.43,0,0,1,305.13,283.89Z"/><path class="cls-6" d="M265.41,262.4a2.2,2.2,0,1,1-2.2-2.2A2.2,2.2,0,0,1,265.41,262.4Z"/><path class="cls-6" d="M291.59,302.69a2.9,2.9,0,1,1-2.9-2.9A2.9,2.9,0,0,1,291.59,302.69Z"/><circle class="cls-6" cx="286.12" cy="322.79" r="3.79"/><circle class="cls-6" cx="260.83" cy="336.54" r="2.79"/><circle class="cls-6" cx="263.04" cy="349.23" r="1.41"/><path class="cls-6" d="M287.66,376.14a2.72,2.72,0,1,1-2.72-2.71A2.72,2.72,0,0,1,287.66,376.14Z"/><circle class="cls-6" cx="308.79" cy="380.33" r="2.56"/><circle class="cls-6" cx="313.46" cy="394.77" r="0.85"/><path class="cls-6" d="M272.24,414.89a1.34,1.34,0,1,1-1.34-1.34A1.34,1.34,0,0,1,272.24,414.89Z"/><path class="cls-6" d="M297.88,415.64a1,1,0,1,1-1-1A1,1,0,0,1,297.88,415.64Z"/><path class="cls-6" d="M417.79,378a3.46,3.46,0,1,1-3.45-3.46A3.45,3.45,0,0,1,417.79,378Z"/><path class="cls-6" d="M420.28,337.45a2.49,2.49,0,1,1-2.49-2.49A2.49,2.49,0,0,1,420.28,337.45Z"/><circle class="cls-6" cx="411.51" cy="308.19" r="2.52"/><circle class="cls-6" cx="403.15" cy="294.61" r="2.55"/><circle class="cls-6" cx="401.19" cy="287.59" r="3.03"/><path class="cls-6" d="M365.35,325.21a.78.78,0,1,1-.78-.78A.78.78,0,0,1,365.35,325.21Z"/><path class="cls-6" d="M407.21,351.77a3.07,3.07,0,1,1-3.07-3.07A3.07,3.07,0,0,1,407.21,351.77Z"/><path class="cls-6" d="M369.57,361.08a2.68,2.68,0,1,1-2.68-2.68A2.67,2.67,0,0,1,369.57,361.08Z"/><circle class="cls-6" cx="378.91" cy="393.33" r="1.69"/><path class="cls-6" d="M380.79,422.26a.85.85,0,1,1-.85-.85A.85.85,0,0,1,380.79,422.26Z"/><path class="cls-6" d="M509.26,381.34A3.3,3.3,0,1,1,506,378,3.3,3.3,0,0,1,509.26,381.34Z"/><path class="cls-6" d="M521.42,343.51a.75.75,0,1,1-.74-.75A.75.75,0,0,1,521.42,343.51Z"/><path class="cls-6" d="M536.25,340.94a2.42,2.42,0,1,1-2.42-2.42A2.42,2.42,0,0,1,536.25,340.94Z"/><circle class="cls-6" cx="531.83" cy="328.5" r="2.36"/><path class="cls-6" d="M529.88,314.18a3.3,3.3,0,1,1-3.3-3.31A3.3,3.3,0,0,1,529.88,314.18Z"/><circle class="cls-6" cx="538.61" cy="280.75" r="1.54"/><path class="cls-6" d="M511.38,270.63a1.17,1.17,0,1,1-1.17-1.17A1.17,1.17,0,0,1,511.38,270.63Z"/><path class="cls-6" d="M495,236.82a.55.55,0,0,1-1.1,0,.55.55,0,0,1,1.1,0Z"/><path class="cls-6" d="M513.46,209a2.81,2.81,0,1,1-2.8-2.8A2.8,2.8,0,0,1,513.46,209Z"/><circle class="cls-6" cx="484.09" cy="234.06" r="1.53"/><path class="cls-6" d="M463.78,245.91a2.08,2.08,0,1,1-2.08-2.08A2.08,2.08,0,0,1,463.78,245.91Z"/><path class="cls-6" d="M453.49,250a3.86,3.86,0,1,1-3.86-3.86A3.86,3.86,0,0,1,453.49,250Z"/><circle class="cls-6" cx="475.72" cy="274.8" r="2.63"/><path class="cls-6" d="M500,313.38a3.75,3.75,0,1,1-3.74-3.74A3.74,3.74,0,0,1,500,313.38Z"/><circle class="cls-6" cx="484.52" cy="338.79" r="3.04"/><path class="cls-6" d="M467.16,366.42a2.27,2.27,0,1,1-2.27-2.27A2.26,2.26,0,0,1,467.16,366.42Z"/><path class="cls-6" d="M498.81,385.69a1.09,1.09,0,1,1-1.09-1.09A1.09,1.09,0,0,1,498.81,385.69Z"/><circle class="cls-6" cx="466.37" cy="400.28" r="3.34"/><path class="cls-6" d="M495.25,411.58a3.35,3.35,0,1,1-3.35-3.35A3.35,3.35,0,0,1,495.25,411.58Z"/><path class="cls-6" d="M525.45,250a3.08,3.08,0,1,1-3.07-3.08A3.07,3.07,0,0,1,525.45,250Z"/><path class="cls-6" d="M476.59,280.43a1.73,1.73,0,1,1-1.73-1.73A1.73,1.73,0,0,1,476.59,280.43Z"/><path class="cls-6" d="M496.06,310.26a3.25,3.25,0,1,1-3.25-3.25A3.24,3.24,0,0,1,496.06,310.26Z"/><path class="cls-6" d="M476.19,346.35a.61.61,0,0,1-.62.61.61.61,0,1,1,0-1.22A.61.61,0,0,1,476.19,346.35Z"/><path class="cls-6" d="M506.23,349.54a1.26,1.26,0,1,1-1.25-1.26A1.25,1.25,0,0,1,506.23,349.54Z"/><path class="cls-6" d="M506.63,353.13a1.92,1.92,0,1,1-1.91-1.91A1.92,1.92,0,0,1,506.63,353.13Z"/><path class="cls-6" d="M503.3,372.2a3.51,3.51,0,1,1-3.51-3.5A3.51,3.51,0,0,1,503.3,372.2Z"/><path class="cls-6" d="M488.2,412.1a2.61,2.61,0,1,1-2.61-2.61A2.61,2.61,0,0,1,488.2,412.1Z"/><circle class="cls-6" cx="477.84" cy="416.59" r="2.91"/><circle class="cls-6" cx="479.36" cy="286.07" r="0.76"/><circle class="cls-6" cx="494.35" cy="290.6" r="0.68"/><circle class="cls-6" cx="496.07" cy="323.92" r="3.55"/><circle class="cls-6" cx="453.04" cy="351.32" r="1.62"/><path class="cls-6" d="M496.86,374.42a.75.75,0,0,1-1.5,0,.75.75,0,1,1,1.5,0Z"/><path class="cls-6" d="M490.05,382.07a2.58,2.58,0,1,1-2.58-2.58A2.57,2.57,0,0,1,490.05,382.07Z"/><circle class="cls-6" cx="475.59" cy="419.08" r="2.82"/><path class="cls-6" d="M224.6,287.2a1.74,1.74,0,1,1-1.73-1.73A1.73,1.73,0,0,1,224.6,287.2Z"/><circle class="cls-6" cx="221.24" cy="294.51" r="2.27"/><circle class="cls-6" cx="235.35" cy="318.76" r="3.71"/><path class="cls-6" d="M215.55,327.57a.87.87,0,1,1-.87-.88A.87.87,0,0,1,215.55,327.57Z"/><circle class="cls-6" cx="233.5" cy="342.04" r="3.47"/><path class="cls-6" d="M217.37,369.62a.49.49,0,0,1-.48.48.48.48,0,0,1-.48-.48.47.47,0,0,1,.48-.48A.48.48,0,0,1,217.37,369.62Z"/><circle class="cls-6" cx="228.25" cy="382.04" r="2.83"/><circle class="cls-6" cx="231.9" cy="395.19" r="1.54"/><path class="cls-6" d="M224.56,416.46a.91.91,0,0,1-1.82,0,.91.91,0,0,1,1.82,0Z"/><circle class="cls-6" cx="126.11" cy="345.96" r="3.54"/><path class="cls-6" d="M108.38,356.29a.62.62,0,0,1-.62.62.63.63,0,1,1,.62-.62Z"/><circle class="cls-6" cx="138.4" cy="385.81" r="1.7"/><path class="cls-6" d="M152.58,387.63a2,2,0,1,1-2-2A2,2,0,0,1,152.58,387.63Z"/><circle class="cls-6" cx="121.83" cy="396.27" r="1.58"/><path class="cls-6" d="M136.07,424.07a3.21,3.21,0,1,1-3.21-3.21A3.21,3.21,0,0,1,136.07,424.07Z"/><circle class="cls-6" cx="531.88" cy="418.44" r="1.22"/><path class="cls-6" d="M503.78,412a2.28,2.28,0,1,1-2.27-2.27A2.28,2.28,0,0,1,503.78,412Z"/><path class="cls-6" d="M474.36,398.66a.77.77,0,0,1-1.54,0,.77.77,0,0,1,1.54,0Z"/><path class="cls-6" d="M443.39,421.35a3.19,3.19,0,1,1-3.19-3.19A3.19,3.19,0,0,1,443.39,421.35Z"/><circle class="cls-6" cx="427.74" cy="415.73" r="2.45"/><circle class="cls-6" cx="405" cy="399.43" r="2.18"/><circle class="cls-6" cx="377.58" cy="392.53" r="1.63"/><path class="cls-6" d="M362.31,389.63a1.66,1.66,0,1,1-1.65-1.66A1.65,1.65,0,0,1,362.31,389.63Z"/><circle class="cls-6" cx="349.35" cy="391.99" r="2.62"/><path class="cls-6" d="M322.06,427.11a.69.69,0,1,1-.69-.68A.69.69,0,0,1,322.06,427.11Z"/><circle class="cls-6" cx="296.85" cy="418.78" r="3.38"/><path class="cls-6" d="M279.71,391.65a3.62,3.62,0,1,1-3.62-3.61A3.62,3.62,0,0,1,279.71,391.65Z"/><path class="cls-6" d="M244.21,430a3.55,3.55,0,1,1-3.55-3.55A3.55,3.55,0,0,1,244.21,430Z"/><path class="cls-6" d="M208.29,398.37a2.41,2.41,0,1,1-2.41-2.41A2.41,2.41,0,0,1,208.29,398.37Z"/><path class="cls-6" d="M170.08,422.71a.89.89,0,1,1-.89-.89A.89.89,0,0,1,170.08,422.71Z"/><path class="cls-6" d="M166.64,431a3.67,3.67,0,1,1-3.67-3.67A3.67,3.67,0,0,1,166.64,431Z"/><path class="cls-6" d="M150.15,436.21A2.21,2.21,0,1,1,148,434,2.2,2.2,0,0,1,150.15,436.21Z"/><path class="cls-6" d="M138.78,403.18a3.42,3.42,0,1,1-3.42-3.42A3.43,3.43,0,0,1,138.78,403.18Z"/><path class="cls-6" d="M114.55,400.48a.5.5,0,0,1-.5.5.5.5,0,1,1,0-1A.49.49,0,0,1,114.55,400.48Z"/><path class="cls-6" d="M103,430.86a2.36,2.36,0,1,1-2.35-2.36A2.35,2.35,0,0,1,103,430.86Z"/><circle class="cls-6" cx="69.46" cy="439.55" r="1.12"/><circle class="cls-6" cx="47.74" cy="438.05" r="1.14"/><path class="cls-6" d="M45.88,420a3.37,3.37,0,1,1-3.36-3.37A3.36,3.36,0,0,1,45.88,420Z"/><path class="cls-6" d="M35,406.23a3.68,3.68,0,1,1-3.68-3.68A3.67,3.67,0,0,1,35,406.23Z"/></g><polygon class="cls-7" points="461.43 62.76 418.54 142.48 364.3 260.01 216.66 169.36 229.43 173.04 244.72 181.01 267.14 191.61 283.37 199.25 290.38 202.69 300.9 209.34 306.14 213.34 315.75 216.37 332.72 222.5 348.53 227.56 358.89 230.48 362.12 225.75 367.35 217.15 373.86 207.38 380.11 197.94 385.08 185.16 390.8 170.11 396.72 155.79 399.22 148.38 402.74 136.58 386 128.71 379.43 124.36 356.69 119.81 373.42 111.28 397.46 97.57 417.7 84.05 438.04 73.98 460.21 62.23 461.43 62.06 461.43 62.76"/></g></svg>